<?xml version="1.0" encoding="UTF-8" standalone="no"?>
<!DOCTYPE svg PUBLIC "-//W3C//DTD SVG 1.1//EN" "http://www.w3.org/Graphics/SVG/1.1/DTD/svg11.dtd">
<svg width="100%" height="100%" viewBox="0 0 95 95" version="1.1" xmlns="http://www.w3.org/2000/svg" xmlns:xlink="http://www.w3.org/1999/xlink" xml:space="preserve" xmlns:serif="http://www.serif.com/" style="fill-rule:evenodd;clip-rule:evenodd;stroke-linejoin:round;stroke-miterlimit:2;">
    <g transform="matrix(1,0,0,1,-108,-1021)">
        <g transform="matrix(9.63647,0,0,7.99866,7205.51,-7197.41)">
            <g transform="matrix(0.0452794,-0.0545508,0.0452794,0.0545508,-808.556,973.911)">
                <g id="arrow_ul">
                    <path d="M296.254,1318.28L246.719,1367.82C245.184,1369.35 242.692,1369.35 241.157,1367.82L235.596,1362.25C234.061,1360.72 234.061,1358.23 235.596,1356.69L301.263,1291.03C302.049,1290.24 303.087,1289.86 304.119,1289.88C305.15,1289.86 306.188,1290.24 306.975,1291.03L372.642,1356.69C374.177,1358.23 374.177,1360.72 372.642,1362.25L367.08,1367.82C365.546,1369.35 363.054,1369.35 361.519,1367.82L311.984,1318.28L311.984,1398.19C311.984,1398.59 311.923,1398.98 311.81,1399.35C311.923,1399.71 311.984,1400.1 311.984,1400.51L311.984,1493.37C311.984,1495.55 310.222,1497.31 308.051,1497.31L300.186,1497.31C298.016,1497.31 296.254,1495.55 296.254,1493.37L296.254,1400.51C296.254,1400.1 296.315,1399.71 296.428,1399.35C296.315,1398.98 296.254,1398.59 296.254,1398.19L296.254,1318.28Z" style="fill:white;"/>
                </g>
            </g>
        </g>
    </g>
</svg>
