<svg viewBox="0 0 94 94" xmlns="http://www.w3.org/2000/svg" fill-rule="evenodd" clip-rule="evenodd" stroke-linejoin="round" stroke-miterlimit="2"><path d="M84.106 77.38l-.003-43.23a2.434 2.434 0 012.427-2.427l4.857.004a2.426 2.426 0 012.426 2.426l-.003 57.302a2.41 2.41 0 01-.744 1.748 2.411 2.411 0 01-1.748.744l-57.303.004a2.426 2.426 0 01-2.426-2.427l-.003-4.857a2.433 2.433 0 012.426-2.426l43.23.002-34.867-34.867a2.449 2.449 0 01-.43-.582 2.388 2.388 0 01-.583-.43L.844 7.844A2.428 2.428 0 01.841 4.41L4.273.978a2.428 2.428 0 013.435.004L48.226 41.5c.179.179.322.375.43.582.21.112.408.256.582.43L84.106 77.38z" fill="#fff"/></svg>