<svg viewBox="0 0 129 87" xmlns="http://www.w3.org/2000/svg" fill-rule="evenodd" clip-rule="evenodd" stroke-linejoin="round" stroke-miterlimit="2"><path d="M18.491 48.47l30.57 30.566a2.434 2.434 0 010 3.432L45.624 85.9a2.426 2.426 0 01-3.431 0L1.676 45.379a2.41 2.41 0 01-.71-1.763 2.411 2.411 0 01.71-1.762L42.193 1.333a2.426 2.426 0 013.43 0l3.438 3.432a2.433 2.433 0 010 3.432L18.49 38.763h49.31c.247 0 .488.038.716.108.222-.07.463-.108.716-.108h57.301a2.428 2.428 0 012.431 2.427v4.853a2.428 2.428 0 01-2.431 2.427H69.233c-.253 0-.494-.038-.716-.108-.228.07-.469.108-.716.108h-49.31z" fill="#fff"/></svg>