<svg viewBox="0 0 95 95" xmlns="http://www.w3.org/2000/svg" fill-rule="evenodd" clip-rule="evenodd" stroke-linejoin="round" stroke-miterlimit="2"><path d="M17.227 84.495l43.23-.002a2.434 2.434 0 012.426 2.426l-.004 4.857a2.426 2.426 0 01-2.426 2.426L3.151 94.2a2.41 2.41 0 01-1.748-.744 2.411 2.411 0 01-.744-1.748L.656 34.405a2.426 2.426 0 012.426-2.426l4.857-.004a2.433 2.433 0 012.426 2.426l-.002 43.23 34.868-34.867c.174-.175.37-.318.582-.43.107-.207.25-.404.43-.582L86.76 1.234a2.428 2.428 0 013.435-.003l3.432 3.431a2.428 2.428 0 01-.004 3.435L53.106 48.615a2.388 2.388 0 01-.582.43c-.112.211-.255.408-.43.582L17.227 84.495z" fill="#fff"/></svg>