<svg viewBox="0 0 87 129" xmlns="http://www.w3.org/2000/svg" fill-rule="evenodd" clip-rule="evenodd" stroke-linejoin="round" stroke-miterlimit="2"><path d="M38.491 17.753L7.925 48.323a2.434 2.434 0 01-3.433 0l-3.431-3.438a2.426 2.426 0 010-3.43L41.582.937a2.41 2.41 0 011.762-.71 2.411 2.411 0 011.763.71l40.52 40.516c.948.95.948 2.487 0 3.431l-3.431 3.437a2.433 2.433 0 01-3.432 0l-30.566-30.57v49.31c0 .247-.038.488-.108.716.07.223.108.463.108.716v57.301a2.428 2.428 0 01-2.427 2.431h-4.854a2.428 2.428 0 01-2.426-2.43V68.493c0-.253.038-.493.107-.716a2.449 2.449 0 01-.107-.715v-49.31z" fill="#fff"/></svg>