<svg viewBox="0 0 95 94" xmlns="http://www.w3.org/2000/svg" fill-rule="evenodd" clip-rule="evenodd" stroke-linejoin="round" stroke-miterlimit="2"><path d="M78.074 9.724l-43.23.002A2.434 2.434 0 0132.417 7.3l.004-4.857A2.426 2.426 0 0134.847.017L92.15.02a2.41 2.41 0 011.748.744c.458.441.745 1.06.744 1.748l.003 57.302a2.426 2.426 0 01-2.426 2.426l-4.857.004a2.433 2.433 0 01-2.427-2.427l.003-43.23L50.07 51.456a2.449 2.449 0 01-.582.43 2.388 2.388 0 01-.43.582L8.54 92.985a2.428 2.428 0 01-3.435.003l-3.432-3.431a2.428 2.428 0 01.003-3.435l40.518-40.518c.18-.179.376-.323.582-.43.113-.211.256-.408.43-.582L78.075 9.724z" fill="#fff"/></svg>