<svg viewBox="0 0 129 87" xmlns="http://www.w3.org/2000/svg" fill-rule="evenodd" clip-rule="evenodd" stroke-linejoin="round" stroke-miterlimit="2"><path d="M111.437 38.945L80.867 8.38a2.434 2.434 0 010-3.432l3.437-3.432a2.426 2.426 0 013.431 0l40.517 40.521a2.41 2.41 0 01.71 1.762 2.411 2.411 0 01-.71 1.763L87.735 86.08a2.426 2.426 0 01-3.43 0l-3.438-3.431a2.433 2.433 0 010-3.432l30.57-30.566h-49.31c-.247 0-.488-.038-.716-.108-.222.07-.463.108-.716.108h-57.3a2.428 2.428 0 01-2.432-2.427V41.37a2.428 2.428 0 012.431-2.426h57.301c.253 0 .494.038.716.108.228-.07.469-.108.716-.108h49.31z" fill="#fff"/></svg>