<svg viewBox="0 0 95 95" xmlns="http://www.w3.org/2000/svg" fill-rule="evenodd" clip-rule="evenodd" stroke-linejoin="round" stroke-miterlimit="2"><path d="M10.36 17.517l.002 43.23a2.434 2.434 0 01-2.427 2.427l-4.857-.004a2.426 2.426 0 01-2.426-2.426L.655 3.44A2.41 2.41 0 011.4 1.693 2.411 2.411 0 013.148.95L60.45.946a2.426 2.426 0 012.426 2.426l.003 4.857a2.433 2.433 0 01-2.426 2.427l-43.23-.003 34.868 34.868c.174.174.318.371.43.582.206.108.403.251.582.43l40.518 40.518c.951.951.95 2.488.003 3.435l-3.432 3.432a2.428 2.428 0 01-3.435-.003L46.24 53.397a2.388 2.388 0 01-.43-.582 2.449 2.449 0 01-.582-.43L10.36 17.516z" fill="#fff"/></svg>