<svg viewBox="0 0 87 129" xmlns="http://www.w3.org/2000/svg" fill-rule="evenodd" clip-rule="evenodd" stroke-linejoin="round" stroke-miterlimit="2"><path d="M48.82 110.454l30.566-30.57a2.434 2.434 0 013.432 0l3.431 3.437c.948.944.948 2.48 0 3.431l-40.52 40.517a2.41 2.41 0 01-1.763.71 2.411 2.411 0 01-1.762-.71L1.682 86.752a2.426 2.426 0 010-3.43l3.433-3.438a2.433 2.433 0 013.431 0l30.567 30.57v-49.31c0-.247.037-.488.107-.716a2.388 2.388 0 01-.107-.716V2.411A2.428 2.428 0 0141.54-.02h4.853a2.428 2.428 0 012.426 2.431v57.301c0 .253-.037.494-.107.716.07.228.107.469.107.716v49.31z" fill="#fff"/></svg>