<?xml version="1.0" encoding="UTF-8" standalone="no"?>
<!DOCTYPE svg PUBLIC "-//W3C//DTD SVG 1.1//EN" "http://www.w3.org/Graphics/SVG/1.1/DTD/svg11.dtd">
<svg width="100%" height="100%" viewBox="0 0 4239 4212" version="1.1" xmlns="http://www.w3.org/2000/svg" xmlns:xlink="http://www.w3.org/1999/xlink" xml:space="preserve" xmlns:serif="http://www.serif.com/" style="fill-rule:evenodd;clip-rule:evenodd;stroke-linejoin:round;stroke-miterlimit:2;">
    <g id="ArtBoard1" transform="matrix(9.63647,0,0,7.99866,7205.51,-7197.41)">
        <rect x="-747.734" y="899.826" width="439.838" height="526.466" style="fill:none;"/>
        <g transform="matrix(0.256245,0,0,0.308714,-1094.09,391.126)">
            <g id="hinzufügen">
                <path d="M1393.39,1688.62L1418.17,1688.62L1418.17,1690.89L1393.39,1690.89L1393.39,1715.67L1391.12,1715.67L1391.12,1690.89L1366.34,1690.89L1366.34,1688.62L1391.12,1688.62L1391.12,1663.84L1393.39,1663.84L1393.39,1688.62Z" style="fill:white;"/>
            </g>
        </g>
        <g id="drag-n-drop" serif:id="drag n drop" transform="matrix(2.25188,0,0,2.25188,533.087,-1557.14)">
            <g transform="matrix(0.103772,0,0,0.125021,-747.734,899.826)">
                <path d="M1793.84,1662.48L1802.26,1662.48C1809.61,1662.48 1815.58,1668.44 1815.58,1675.8L1815.58,1702.43C1815.58,1709.79 1809.61,1715.75 1802.26,1715.75L1775.62,1715.75C1768.27,1715.75 1762.3,1709.79 1762.3,1702.43L1762.3,1675.8C1762.3,1668.44 1768.27,1662.48 1775.62,1662.48L1784.04,1662.48L1784.04,1664.99L1776.87,1664.99C1770.22,1664.99 1764.81,1670.39 1764.81,1677.05L1764.81,1701.18C1764.81,1707.84 1770.22,1713.25 1776.87,1713.25L1801,1713.25C1807.66,1713.25 1813.07,1707.84 1813.07,1701.18L1813.07,1677.05C1813.07,1670.39 1807.66,1664.99 1801,1664.99L1793.84,1664.99L1793.84,1662.48Z" style="fill:white;"/>
            </g>
            <g transform="matrix(0.103772,0,0,0.125021,-747.734,899.826)">
                <path d="M1790.11,1690.34L1800.04,1680.96L1801.31,1682.77L1788.94,1694.42L1776.57,1682.77L1777.84,1680.96L1787.77,1690.34L1787.77,1658.91L1790.11,1658.91L1790.11,1690.34Z" style="fill:white;"/>
            </g>
        </g>
        <g id="dashboard" transform="matrix(1.57571,0,0,1.57571,279.772,-928.205)">
            <g transform="matrix(0.103772,0,0,0.125021,-747.734,899.826)">
                <path d="M1008.8,2448.55C1008.8,2443.24 1004.5,2438.94 999.194,2438.94L979.978,2438.94C974.675,2438.94 970.369,2443.24 970.369,2448.55L970.369,2467.76C970.369,2473.07 974.675,2477.37 979.978,2477.37L999.194,2477.37C1004.5,2477.37 1008.8,2473.07 1008.8,2467.76L1008.8,2448.55ZM1002.36,2451.77C1002.36,2448.25 999.494,2445.39 995.97,2445.39L983.202,2445.39C979.678,2445.39 976.817,2448.25 976.817,2451.77L976.817,2464.54C976.817,2468.06 979.678,2470.92 983.202,2470.92L995.97,2470.92C999.494,2470.92 1002.36,2468.06 1002.36,2464.54L1002.36,2451.77Z" style="fill:white;"/>
            </g>
            <g transform="matrix(0.103772,0,0,0.125021,-747.734,905.239)">
                <path d="M1008.8,2448.55C1008.8,2443.24 1004.5,2438.94 999.194,2438.94L979.978,2438.94C974.675,2438.94 970.369,2443.24 970.369,2448.55L970.369,2467.76C970.369,2473.07 974.675,2477.37 979.978,2477.37L999.194,2477.37C1004.5,2477.37 1008.8,2473.07 1008.8,2467.76L1008.8,2448.55ZM1002.36,2451.77C1002.36,2448.25 999.494,2445.39 995.97,2445.39L983.202,2445.39C979.678,2445.39 976.817,2448.25 976.817,2451.77L976.817,2464.54C976.817,2468.06 979.678,2470.92 983.202,2470.92L995.97,2470.92C999.494,2470.92 1002.36,2468.06 1002.36,2464.54L1002.36,2451.77Z" style="fill:white;"/>
            </g>
            <g transform="matrix(0.103772,0,0,0.125021,-743.292,899.826)">
                <path d="M1008.8,2448.55C1008.8,2443.24 1004.5,2438.94 999.194,2438.94L979.978,2438.94C974.675,2438.94 970.369,2443.24 970.369,2448.55L970.369,2467.76C970.369,2473.07 974.675,2477.37 979.978,2477.37L999.194,2477.37C1004.5,2477.37 1008.8,2473.07 1008.8,2467.76L1008.8,2448.55ZM1002.36,2451.77C1002.36,2448.25 999.494,2445.39 995.97,2445.39L983.202,2445.39C979.678,2445.39 976.817,2448.25 976.817,2451.77L976.817,2464.54C976.817,2468.06 979.678,2470.92 983.202,2470.92L995.97,2470.92C999.494,2470.92 1002.36,2468.06 1002.36,2464.54L1002.36,2451.77Z" style="fill:white;"/>
            </g>
            <g transform="matrix(0.103772,0,0,0.125021,-743.292,905.239)">
                <path d="M1008.8,2448.55C1008.8,2443.24 1004.5,2438.94 999.194,2438.94L979.978,2438.94C974.675,2438.94 970.369,2443.24 970.369,2448.55L970.369,2467.76C970.369,2473.07 974.675,2477.37 979.978,2477.37L999.194,2477.37C1004.5,2477.37 1008.8,2473.07 1008.8,2467.76L1008.8,2448.55ZM1002.36,2451.77C1002.36,2448.25 999.494,2445.39 995.97,2445.39L983.202,2445.39C979.678,2445.39 976.817,2448.25 976.817,2451.77L976.817,2464.54C976.817,2468.06 979.678,2470.92 983.202,2470.92L995.97,2470.92C999.494,2470.92 1002.36,2468.06 1002.36,2464.54L1002.36,2451.77Z" style="fill:white;"/>
            </g>
        </g>
        <g id="icon">
            <g transform="matrix(0.103772,0,0,0.0781381,-840.468,791.225)">
                <path d="M1098.37,2756.72C1098.37,2751.5 1094.13,2747.26 1088.91,2747.26L979.83,2747.26C974.608,2747.26 970.369,2751.5 970.369,2756.72L970.369,2785.1C970.369,2790.32 974.608,2794.56 979.83,2794.56L1088.91,2794.56C1094.13,2794.56 1098.37,2790.32 1098.37,2785.1L1098.37,2756.72ZM1089.95,2760.57C1089.95,2756.76 1086.86,2753.67 1083.05,2753.67L985.685,2753.67C981.879,2753.67 978.789,2756.76 978.789,2760.57L978.789,2781.25C978.789,2785.06 981.879,2788.15 985.685,2788.15L1083.05,2788.15C1086.86,2788.15 1089.95,2785.06 1089.95,2781.25L1089.95,2760.57Z" style="fill:white;"/>
            </g>
            <g transform="matrix(0.103772,0,0,0.0781381,-840.468,791.225)">
                <path d="M1098.37,2802.63C1098.37,2798.18 1094.75,2794.56 1090.3,2794.56L978.439,2794.56C973.985,2794.56 970.369,2798.18 970.369,2802.63L970.369,2867.19C970.369,2871.64 973.985,2875.26 978.439,2875.26L1090.3,2875.26C1094.75,2875.26 1098.37,2871.64 1098.37,2867.19L1098.37,2802.63ZM1089.95,2808.16C1089.95,2804.47 1086.95,2801.47 1083.26,2801.47L985.477,2801.47C981.786,2801.47 978.789,2804.47 978.789,2808.16L978.789,2861.66C978.789,2865.35 981.786,2868.35 985.477,2868.35L1083.26,2868.35C1086.95,2868.35 1089.95,2865.35 1089.95,2861.66L1089.95,2808.16Z" style="fill:white;"/>
            </g>
        </g>
        <g id="tansaction" transform="matrix(1,0,0,0.703125,-92.7347,131.213)">
            <g id="Back" transform="matrix(0.14963,8.34794e-33,1.84434e-33,0.225755,-649.026,1143.9)">
                <path d="M34.3,376L13.3,396.8L34.3,418L38.3,414L21.3,396.8L38.3,380L34.3,376Z" style="fill:white;fill-rule:nonzero;"/>
            </g>
            <g id="Back1" serif:id="Back" transform="matrix(-0.14963,-2.7647e-17,1.83244e-17,-0.225755,-631.763,1316.63)">
                <path d="M34.3,376L13.3,396.8L34.3,418L38.3,414L21.3,396.8L38.3,380L34.3,376Z" style="fill:white;fill-rule:nonzero;"/>
            </g>
            <g transform="matrix(0.738606,7.51789e-17,9.87759e-17,0.213015,-1371.46,679.37)">
                <path d="M998.779,2599.97C998.779,2599.15 998.666,2598.48 998.528,2598.48L982.426,2598.48C982.287,2598.48 982.175,2599.15 982.175,2599.97L982.175,2602.96C982.175,2603.78 982.287,2604.45 982.426,2604.45L998.528,2604.45C998.666,2604.45 998.779,2603.78 998.779,2602.96L998.779,2599.97Z" style="fill:white;"/>
            </g>
            <g transform="matrix(-0.738606,-2.1165e-16,-8.14855e-17,-0.213015,90.6682,1781.15)">
                <path d="M998.779,2599.97C998.779,2599.15 998.666,2598.48 998.528,2598.48L982.426,2598.48C982.287,2598.48 982.175,2599.15 982.175,2599.97L982.175,2602.96C982.175,2603.78 982.287,2604.45 982.426,2604.45L998.528,2604.45C998.666,2604.45 998.779,2603.78 998.779,2602.96L998.779,2599.97Z" style="fill:white;"/>
            </g>
        </g>
        <g transform="matrix(0.0452794,-0.0545508,0.0452794,0.0545508,-808.556,973.911)">
            <g id="arrow_ul">
                <path d="M296.254,1318.28L246.719,1367.82C245.184,1369.35 242.692,1369.35 241.157,1367.82L235.596,1362.25C234.061,1360.72 234.061,1358.23 235.596,1356.69L301.263,1291.03C302.049,1290.24 303.087,1289.86 304.119,1289.88C305.15,1289.86 306.188,1290.24 306.975,1291.03L372.642,1356.69C374.177,1358.23 374.177,1360.72 372.642,1362.25L367.08,1367.82C365.546,1369.35 363.054,1369.35 361.519,1367.82L311.984,1318.28L311.984,1398.19C311.984,1398.59 311.923,1398.98 311.81,1399.35C311.923,1399.71 311.984,1400.1 311.984,1400.51L311.984,1493.37C311.984,1495.55 310.222,1497.31 308.051,1497.31L300.186,1497.31C298.016,1497.31 296.254,1495.55 296.254,1493.37L296.254,1400.51C296.254,1400.1 296.315,1399.71 296.428,1399.35C296.315,1398.98 296.254,1398.59 296.254,1398.19L296.254,1318.28Z" style="fill:white;"/>
            </g>
        </g>
        <g transform="matrix(-0.0452794,-0.0545508,0.0452794,-0.0545508,-781.015,1149.49)">
            <g id="arrow_dl">
                <path d="M296.254,1318.28L246.719,1367.82C245.184,1369.35 242.692,1369.35 241.157,1367.82L235.596,1362.25C234.061,1360.72 234.061,1358.23 235.596,1356.69L301.263,1291.03C302.049,1290.24 303.087,1289.86 304.119,1289.88C305.15,1289.86 306.188,1290.24 306.975,1291.03L372.642,1356.69C374.177,1358.23 374.177,1360.72 372.642,1362.25L367.08,1367.82C365.546,1369.35 363.054,1369.35 361.519,1367.82L311.984,1318.28L311.984,1398.19C311.984,1398.59 311.923,1398.98 311.81,1399.35C311.923,1399.71 311.984,1400.1 311.984,1400.51L311.984,1493.37C311.984,1495.55 310.222,1497.31 308.051,1497.31L300.186,1497.31C298.016,1497.31 296.254,1495.55 296.254,1493.37L296.254,1400.51C296.254,1400.1 296.315,1399.71 296.428,1399.35C296.315,1398.98 296.254,1398.59 296.254,1398.19L296.254,1318.28Z" style="fill:white;"/>
            </g>
        </g>
        <g transform="matrix(0.0452794,0.0545508,-0.0452794,0.0545508,-680.902,1030.38)">
            <g id="arrow_ur">
                <path d="M296.254,1318.28L246.719,1367.82C245.184,1369.35 242.692,1369.35 241.157,1367.82L235.596,1362.25C234.061,1360.72 234.061,1358.23 235.596,1356.69L301.263,1291.03C302.049,1290.24 303.087,1289.86 304.119,1289.88C305.15,1289.86 306.188,1290.24 306.975,1291.03L372.642,1356.69C374.177,1358.23 374.177,1360.72 372.642,1362.25L367.08,1367.82C365.546,1369.35 363.054,1369.35 361.519,1367.82L311.984,1318.28L311.984,1398.19C311.984,1398.59 311.923,1398.98 311.81,1399.35C311.923,1399.71 311.984,1400.1 311.984,1400.51L311.984,1493.37C311.984,1495.55 310.222,1497.31 308.051,1497.31L300.186,1497.31C298.016,1497.31 296.254,1495.55 296.254,1493.37L296.254,1400.51C296.254,1400.1 296.315,1399.71 296.428,1399.35C296.315,1398.98 296.254,1398.59 296.254,1398.19L296.254,1318.28Z" style="fill:white;"/>
            </g>
        </g>
        <g transform="matrix(0.0640348,6.93889e-18,-8.32667e-17,0.0771465,-750.672,1034.76)">
            <g id="arrow_u">
                <path d="M296.254,1318.28L246.719,1367.82C245.184,1369.35 242.692,1369.35 241.157,1367.82L235.596,1362.25C234.061,1360.72 234.061,1358.23 235.596,1356.69L301.263,1291.03C302.049,1290.24 303.087,1289.86 304.119,1289.88C305.15,1289.86 306.188,1290.24 306.975,1291.03L372.642,1356.69C374.177,1358.23 374.177,1360.72 372.642,1362.25L367.08,1367.82C365.546,1369.35 363.054,1369.35 361.519,1367.82L311.984,1318.28L311.984,1398.19C311.984,1398.59 311.923,1398.98 311.81,1399.35C311.923,1399.71 311.984,1400.1 311.984,1400.51L311.984,1493.37C311.984,1495.55 310.222,1497.31 308.051,1497.31L300.186,1497.31C298.016,1497.31 296.254,1495.55 296.254,1493.37L296.254,1400.51C296.254,1400.1 296.315,1399.71 296.428,1399.35C296.315,1398.98 296.254,1398.59 296.254,1398.19L296.254,1318.28Z" style="fill:white;"/>
            </g>
        </g>
        <g transform="matrix(9.68056e-18,-0.0771465,0.0640348,1.0504e-16,-824.419,1068.14)">
            <g id="arrow_l">
                <path d="M296.254,1318.28L246.719,1367.82C245.184,1369.35 242.692,1369.35 241.157,1367.82L235.596,1362.25C234.061,1360.72 234.061,1358.23 235.596,1356.69L301.263,1291.03C302.049,1290.24 303.087,1289.86 304.119,1289.88C305.15,1289.86 306.188,1290.24 306.975,1291.03L372.642,1356.69C374.177,1358.23 374.177,1360.72 372.642,1362.25L367.08,1367.82C365.546,1369.35 363.054,1369.35 361.519,1367.82L311.984,1318.28L311.984,1398.19C311.984,1398.59 311.923,1398.98 311.81,1399.35C311.923,1399.71 311.984,1400.1 311.984,1400.51L311.984,1493.37C311.984,1495.55 310.222,1497.31 308.051,1497.31L300.186,1497.31C298.016,1497.31 296.254,1495.55 296.254,1493.37L296.254,1400.51C296.254,1400.1 296.315,1399.71 296.428,1399.35C296.315,1398.98 296.254,1398.59 296.254,1398.19L296.254,1318.28Z" style="fill:white;"/>
            </g>
        </g>
        <g transform="matrix(-0.0640348,-1.63866e-17,9.11087e-17,-0.0771465,-713.527,1184.49)">
            <g id="arrow_d">
                <path d="M296.254,1318.28L246.719,1367.82C245.184,1369.35 242.692,1369.35 241.157,1367.82L235.596,1362.25C234.061,1360.72 234.061,1358.23 235.596,1356.69L301.263,1291.03C302.049,1290.24 303.087,1289.86 304.119,1289.88C305.15,1289.86 306.188,1290.24 306.975,1291.03L372.642,1356.69C374.177,1358.23 374.177,1360.72 372.642,1362.25L367.08,1367.82C365.546,1369.35 363.054,1369.35 361.519,1367.82L311.984,1318.28L311.984,1398.19C311.984,1398.59 311.923,1398.98 311.81,1399.35C311.923,1399.71 311.984,1400.1 311.984,1400.51L311.984,1493.37C311.984,1495.55 310.222,1497.31 308.051,1497.31L300.186,1497.31C298.016,1497.31 296.254,1495.55 296.254,1493.37L296.254,1400.51C296.254,1400.1 296.315,1399.71 296.428,1399.35C296.315,1398.98 296.254,1398.59 296.254,1398.19L296.254,1318.28Z" style="fill:white;"/>
            </g>
        </g>
        <g transform="matrix(-1.83857e-18,0.0771465,-0.0640348,-9.55926e-17,-643.763,1085)">
            <g id="arrow_r">
                <path d="M296.254,1318.28L246.719,1367.82C245.184,1369.35 242.692,1369.35 241.157,1367.82L235.596,1362.25C234.061,1360.72 234.061,1358.23 235.596,1356.69L301.263,1291.03C302.049,1290.24 303.087,1289.86 304.119,1289.88C305.15,1289.86 306.188,1290.24 306.975,1291.03L372.642,1356.69C374.177,1358.23 374.177,1360.72 372.642,1362.25L367.08,1367.82C365.546,1369.35 363.054,1369.35 361.519,1367.82L311.984,1318.28L311.984,1398.19C311.984,1398.59 311.923,1398.98 311.81,1399.35C311.923,1399.71 311.984,1400.1 311.984,1400.51L311.984,1493.37C311.984,1495.55 310.222,1497.31 308.051,1497.31L300.186,1497.31C298.016,1497.31 296.254,1495.55 296.254,1493.37L296.254,1400.51C296.254,1400.1 296.315,1399.71 296.428,1399.35C296.315,1398.98 296.254,1398.59 296.254,1398.19L296.254,1318.28Z" style="fill:white;"/>
            </g>
        </g>
        <g transform="matrix(-0.0452794,0.0545508,-0.0452794,-0.0545508,-656.042,1154.16)">
            <g id="arrow_dr">
                <path d="M296.254,1318.28L246.719,1367.82C245.184,1369.35 242.692,1369.35 241.157,1367.82L235.596,1362.25C234.061,1360.72 234.061,1358.23 235.596,1356.69L301.263,1291.03C302.049,1290.24 303.087,1289.86 304.119,1289.88C305.15,1289.86 306.188,1290.24 306.975,1291.03L372.642,1356.69C374.177,1358.23 374.177,1360.72 372.642,1362.25L367.08,1367.82C365.546,1369.35 363.054,1369.35 361.519,1367.82L311.984,1318.28L311.984,1398.19C311.984,1398.59 311.923,1398.98 311.81,1399.35C311.923,1399.71 311.984,1400.1 311.984,1400.51L311.984,1493.37C311.984,1495.55 310.222,1497.31 308.051,1497.31L300.186,1497.31C298.016,1497.31 296.254,1495.55 296.254,1493.37L296.254,1400.51C296.254,1400.1 296.315,1399.71 296.428,1399.35C296.315,1398.98 296.254,1398.59 296.254,1398.19L296.254,1318.28Z" style="fill:white;"/>
            </g>
        </g>
        <g id="refresh" transform="matrix(1,0,0,1,-18.0718,-50.2107)">
            <g transform="matrix(0.0455066,0,0,0.0549076,-728.797,916.575)">
                <path d="M330.731,1613.91C267.471,1613.91 216.188,1665.19 216.188,1728.45C216.188,1782.19 253.554,1828.71 306.034,1840.3L309.551,1824.37C264.543,1814.43 232.497,1774.54 232.497,1728.45C232.497,1674.2 276.478,1630.22 330.731,1630.22L330.731,1613.91Z" style="fill:white;"/>
            </g>
            <g transform="matrix(-0.0457168,6.74508e-18,-5.59869e-18,-0.0550778,-698.209,1106.66)">
                <path d="M330.731,1613.91C267.471,1613.91 216.188,1665.19 216.188,1728.45C216.188,1781.37 252.44,1827.4 303.885,1839.8L307.708,1823.95C263.587,1813.31 232.497,1773.83 232.497,1728.45C232.497,1674.2 276.478,1630.22 330.731,1630.22L330.731,1613.91Z" style="fill:white;"/>
            </g>
            <g transform="matrix(0.00230562,0.035303,-0.0293029,0.00277771,-665.501,983.677)">
                <path d="M490.298,1692.29L450.446,1732.14C444.76,1737.83 435.527,1737.83 429.841,1732.14C424.154,1726.46 424.154,1717.23 429.841,1711.54L479.946,1661.43C485.632,1655.75 494.865,1655.75 500.551,1661.43C501.271,1662.15 501.899,1662.93 502.436,1663.75L550.623,1711.93C556.236,1717.55 556.236,1726.66 550.623,1732.28C545.009,1737.89 535.894,1737.89 530.28,1732.28L490.298,1692.29Z" style="fill:white;"/>
            </g>
            <g transform="matrix(-0.00231627,-0.0354661,0.0294383,-0.00279055,-761.797,1039.38)">
                <path d="M490.298,1692.29L450.446,1732.14C444.76,1737.83 435.527,1737.83 429.841,1732.14C424.154,1726.46 424.154,1717.23 429.841,1711.54L479.946,1661.43C485.632,1655.75 494.865,1655.75 500.551,1661.43C501.271,1662.15 501.899,1662.93 502.436,1663.75L550.623,1711.93C556.236,1717.55 556.236,1726.66 550.623,1732.28C545.009,1737.89 535.894,1737.89 530.28,1732.28L490.298,1692.29Z" style="fill:white;"/>
            </g>
        </g>
        <g transform="matrix(0.0317358,0,0,0.038234,-763.287,902.813)">
            <g id="mini_logo">
                <path d="M751.203,645.037L960.475,645.037L960.475,754.098L810.288,754.098C777.678,754.098 751.203,727.623 751.203,695.013L751.203,645.037ZM978.696,645.037L1169.75,645.037L1169.75,695.013C1169.75,727.623 1143.27,754.098 1110.66,754.098L978.696,754.098L978.696,645.037ZM888.115,517.756L888.115,626.817L751.203,626.817L751.203,576.841C751.203,544.231 777.678,517.756 810.288,517.756L888.115,517.756ZM906.335,517.756L1110.66,517.756C1143.27,517.756 1169.75,544.231 1169.75,576.841L1169.75,626.817L906.335,626.817L906.335,517.756Z" style="fill:rgb(235,235,235);"/>
            </g>
        </g>
    </g>
</svg>
