<svg viewBox="0 0 4239 4212" xmlns="http://www.w3.org/2000/svg" fill-rule="evenodd" clip-rule="evenodd" stroke-linejoin="round" stroke-miterlimit="2"><path fill="none" d="M-.006-.008h4238.485v4211.023H-.006z"/><path d="M103.039 100.78h61.189v5.606h-61.19v61.189h-5.605v-61.19H36.244v-5.605h61.19V39.591h5.605v61.19zM156.124 298.95h18.961c16.551 0 29.995 13.421 29.995 29.995v59.968c0 16.573-13.444 29.995-29.995 29.995h-59.99c-16.551 0-29.995-13.422-29.995-29.995v-59.968c0-16.574 13.444-29.995 29.995-29.995h18.96v5.652H117.91c-14.975 0-27.158 12.16-27.158 27.158v54.338c0 14.997 12.183 27.18 27.158 27.18h54.338c14.997 0 27.18-12.183 27.18-27.18V331.76c0-14.998-12.183-27.158-27.18-27.158h-16.124v-5.652z" fill="#fff"/><path d="M147.725 361.687l22.36-21.122 2.86 4.076-27.855 26.234-27.856-26.234 2.86-4.076 22.361 21.122v-70.776h5.27v70.776zM137.29 577.419c0-8.367-6.776-15.143-15.136-15.143H91.875c-8.356 0-15.14 6.776-15.14 15.143v30.27c0 8.366 6.784 15.142 15.14 15.142h30.279c8.36 0 15.136-6.776 15.136-15.143V577.42zm-10.148 5.074c0-5.547-4.516-10.053-10.068-10.053H96.955c-5.553 0-10.06 4.506-10.06 10.053v20.122c0 5.546 4.507 10.053 10.06 10.053h20.119c5.552 0 10.068-4.507 10.068-10.053v-20.122zM137.29 645.642c0-8.367-6.776-15.142-15.136-15.142H91.875c-8.356 0-15.14 6.775-15.14 15.142v30.27c0 8.367 6.784 15.142 15.14 15.142h30.279c8.36 0 15.136-6.775 15.136-15.142v-30.27zm-10.148 5.074c0-5.547-4.516-10.053-10.068-10.053H96.955c-5.553 0-10.06 4.506-10.06 10.053v20.122c0 5.546 4.507 10.053 10.06 10.053h20.119c5.552 0 10.068-4.507 10.068-10.053v-20.122zM204.739 577.419c0-8.367-6.776-15.143-15.137-15.143h-30.278c-8.356 0-15.141 6.776-15.141 15.143v30.27c0 8.366 6.785 15.142 15.14 15.142h30.28c8.36 0 15.136-6.776 15.136-15.143V577.42zm-10.148 5.074c0-5.547-4.516-10.053-10.069-10.053h-20.118c-5.553 0-10.061 4.506-10.061 10.053v20.122c0 5.546 4.508 10.053 10.06 10.053h20.12c5.552 0 10.068-4.507 10.068-10.053v-20.122zM204.739 645.642c0-8.367-6.776-15.142-15.137-15.142h-30.278c-8.356 0-15.141 6.775-15.141 15.142v30.27c0 8.367 6.785 15.142 15.14 15.142h30.28c8.36 0 15.136-6.775 15.136-15.142v-30.27zm-10.148 5.074c0-5.547-4.516-10.053-10.069-10.053h-20.118c-5.553 0-10.061 4.506-10.061 10.053v20.122c0 5.546 4.508 10.053 10.06 10.053h20.12c5.552 0 10.068-4.507 10.068-10.053v-20.122zM204.73 854.28c0-3.262-4.24-5.912-9.46-5.912H86.192c-5.222 0-9.46 2.65-9.46 5.912v17.738c0 3.262 4.238 5.912 9.46 5.912h109.08c5.22 0 9.46-2.65 9.46-5.912V854.28zm-8.42 2.406c0-2.381-3.09-4.312-6.9-4.312H92.047c-3.806 0-6.896 1.931-6.896 4.312v12.925c0 2.382 3.09 4.313 6.896 4.313h97.365c3.81 0 6.9-1.931 6.9-4.313v-12.925zM204.73 882.974c0-2.781-3.62-5.044-8.07-5.044H84.8c-4.454 0-8.07 2.263-8.07 5.044v40.35c0 2.781 3.616 5.044 8.07 5.044h111.86c4.45 0 8.07-2.263 8.07-5.044v-40.35zm-8.42 3.456c0-2.306-3-4.181-6.69-4.181H91.839c-3.69 0-6.688 1.875-6.688 4.181v33.438c0 2.306 2.997 4.18 6.688 4.18h97.783c3.69 0 6.69-1.874 6.69-4.18V886.43z" fill="#fff"/><path d="M107.013 762.87l-30.28 26.409 30.28 26.916 5.767-5.078-24.512-21.838 24.512-21.33-5.767-5.08zM174.452 779.53l30.28-26.41-30.28-26.916-5.767 5.079 24.512 21.838-24.512 21.33 5.767 5.079z" fill="#fff" fill-rule="nonzero"/><path d="M204.706 787.72a1.79 1.79 0 00-1.787-1.784H88.312c-.989 0-1.786.803-1.786 1.785v3.582c0 .982.797 1.785 1.786 1.785H202.92a1.79 1.79 0 001.787-1.785v-3.582zM76.732 754.622a1.79 1.79 0 001.787 1.785h114.607c.989 0 1.786-.803 1.786-1.785v-3.582c0-.982-.797-1.785-1.786-1.785H78.519a1.79 1.79 0 00-1.787 1.785v3.582zM118.36 1038.517l.002 43.23a2.434 2.434 0 01-2.427 2.427l-4.857-.004a2.426 2.426 0 01-2.426-2.426l.003-57.303a2.41 2.41 0 01.745-1.748 2.411 2.411 0 011.748-.744l57.302-.003a2.426 2.426 0 012.426 2.426l.003 4.857a2.433 2.433 0 01-2.426 2.427l-43.23-.003 34.868 34.868c.174.174.318.371.43.582.206.108.403.251.582.43l40.518 40.518c.951.951.95 2.488.003 3.435l-3.432 3.432a2.428 2.428 0 01-3.435-.003l-40.518-40.518a2.388 2.388 0 01-.43-.582 2.449 2.449 0 01-.582-.43l-34.867-34.868zM125.227 1292.495l43.23-.002a2.434 2.434 0 012.426 2.426l-.004 4.857a2.426 2.426 0 01-2.426 2.426l-57.302-.003a2.41 2.41 0 01-1.748-.744 2.411 2.411 0 01-.744-1.748l-.003-57.302a2.426 2.426 0 012.426-2.426l4.857-.004a2.433 2.433 0 012.426 2.426l-.002 43.23 34.868-34.867c.174-.175.37-.318.582-.43.107-.207.25-.404.43-.582l40.518-40.518a2.428 2.428 0 013.435-.003l3.432 3.431a2.428 2.428 0 01-.004 3.435l-40.518 40.518a2.388 2.388 0 01-.582.43c-.112.211-.255.408-.43.582l-34.867 34.868z" fill="#fff"/><g><path d="M198.074 1748.724l-43.23.002a2.434 2.434 0 01-2.427-2.426l.004-4.857a2.426 2.426 0 012.426-2.426l57.303.003a2.41 2.41 0 011.748.744c.458.441.745 1.06.744 1.748l.003 57.302a2.426 2.426 0 01-2.426 2.426l-4.857.004a2.433 2.433 0 01-2.427-2.427l.003-43.23-34.868 34.868a2.449 2.449 0 01-.582.43 2.388 2.388 0 01-.43.582l-40.518 40.518a2.428 2.428 0 01-3.435.003l-3.432-3.431a2.428 2.428 0 01.003-3.435l40.518-40.518c.18-.179.376-.323.582-.43.113-.211.256-.408.43-.582l34.868-34.868z" fill="#fff"/></g><g><path d="M154.491 1892.753l-30.566 30.57a2.434 2.434 0 01-3.433 0l-3.431-3.438a2.426 2.426 0 010-3.43l40.521-40.517a2.41 2.41 0 011.762-.71 2.411 2.411 0 011.763.71l40.52 40.516c.948.95.948 2.487 0 3.431l-3.431 3.437a2.433 2.433 0 01-3.432 0l-30.566-30.57v49.31c0 .247-.038.488-.108.716.07.223.108.463.108.716v57.301a2.428 2.428 0 01-2.427 2.431h-4.854a2.428 2.428 0 01-2.426-2.43v-57.302c0-.253.038-.493.107-.716a2.449 2.449 0 01-.107-.715v-49.31z" fill="#fff"/></g><g><path d="M74.491 1163.47l30.57 30.566a2.434 2.434 0 010 3.432l-3.437 3.432a2.426 2.426 0 01-3.431 0l-40.517-40.521a2.41 2.41 0 01-.71-1.763 2.411 2.411 0 01.71-1.762l40.517-40.521a2.426 2.426 0 013.43 0l3.438 3.432a2.433 2.433 0 010 3.432l-30.57 30.566h49.31c.247 0 .488.038.716.108.222-.07.463-.108.716-.108h57.301a2.428 2.428 0 012.431 2.427v4.853a2.428 2.428 0 01-2.431 2.427h-57.301c-.253 0-.494-.038-.716-.108-.228.07-.469.108-.716.108h-49.31z" fill="#fff"/></g><g><path d="M146.82 1463.454l30.566-30.57a2.434 2.434 0 013.432 0l3.431 3.437c.948.944.948 2.48 0 3.431l-40.52 40.517a2.41 2.41 0 01-1.763.71 2.411 2.411 0 01-1.762-.71l-40.522-40.517a2.426 2.426 0 010-3.43l3.433-3.438a2.433 2.433 0 013.431 0l30.567 30.57v-49.31c0-.247.037-.488.107-.716a2.388 2.388 0 01-.107-.716v-57.301a2.428 2.428 0 012.427-2.431h4.853a2.428 2.428 0 012.426 2.431v57.301c0 .253-.037.494-.107.716.07.228.107.469.107.716v49.31z" fill="#fff"/></g><g><path d="M188.437 1663.945l-30.57-30.566a2.434 2.434 0 010-3.432l3.437-3.432a2.426 2.426 0 013.431 0l40.517 40.521a2.41 2.41 0 01.71 1.762 2.411 2.411 0 01-.71 1.763l-40.517 40.52a2.426 2.426 0 01-3.43 0l-3.438-3.431a2.433 2.433 0 010-3.432l30.57-30.566h-49.31c-.247 0-.488-.038-.716-.108-.222.07-.463.108-.716.108h-57.3a2.428 2.428 0 01-2.432-2.427v-4.854a2.428 2.428 0 012.431-2.426h57.301c.253 0 .494.038.716.108.228-.07.469-.108.716-.108h49.31z" fill="#fff"/></g><g><path d="M179.106 1588.38l-.003-43.23a2.434 2.434 0 012.427-2.427l4.857.004a2.426 2.426 0 012.426 2.426l-.003 57.302a2.41 2.41 0 01-.744 1.748 2.411 2.411 0 01-1.748.744l-57.303.004a2.426 2.426 0 01-2.426-2.427l-.003-4.857a2.433 2.433 0 012.426-2.426l43.23.002-34.867-34.867a2.449 2.449 0 01-.43-.582 2.388 2.388 0 01-.583-.43l-40.518-40.519a2.428 2.428 0 01-.003-3.435l3.432-3.432a2.428 2.428 0 013.435.004l40.518 40.518c.179.179.322.375.43.582.21.112.408.256.582.43l34.868 34.867z" fill="#fff"/></g><g><path d="M153.364 441.152c-27.74 0-50.23 22.522-50.23 50.305 0 23.602 16.386 44.033 39.4 49.123l1.542-6.997c-19.737-4.365-33.79-21.884-33.79-42.126 0-23.826 19.287-43.142 43.078-43.142v-7.163zM157.388 541.763c27.87 0 50.462-22.591 50.462-50.46 0-23.314-15.97-43.593-38.635-49.056l-1.684 6.983c19.438 4.688 33.134 22.08 33.134 42.073 0 23.9-19.375 43.275-43.277 43.275v7.185z" fill="#fff"/><path d="M151.312 445.118l-12.138-10.368a4.127 4.127 0 015.359-6.276l15.263 13.035a4.132 4.132 0 01-.156 6.402l-12.534 14.677a4.08 4.08 0 01-5.746.452 4.078 4.078 0 01-.452-5.744l10.404-12.178zM159.455 537.758l12.194 10.415a4.146 4.146 0 01-5.384 6.305l-15.333-13.095a4.151 4.151 0 01.156-6.432l12.592-14.745a4.098 4.098 0 015.773-.454 4.097 4.097 0 01.454 5.77l-10.452 12.236z" fill="#fff"/></g><g><path d="M79.851 221.15h64v33.353h-45.93c-9.973 0-18.07-8.097-18.07-18.07V221.15zm69.573 0h58.428v15.284c0 9.972-8.098 18.07-18.071 18.07h-40.357V221.15zm-27.702-38.925v33.353h-41.87v-15.284c0-9.973 8.096-18.07 18.069-18.07h23.801zm5.572 0h62.487c9.973 0 18.07 8.096 18.07 18.07v15.283h-80.557v-33.353z" fill="#ebebeb"/></g></svg>