<svg viewBox="0 0 802 426" xmlns="http://www.w3.org/2000/svg" fill-rule="evenodd" clip-rule="evenodd" stroke-linecap="round" stroke-linejoin="round" stroke-miterlimit="1.5"><path fill="#383f51" stroke="#383f51" d="M331.192 511.039h800v424.004h-800z" transform="matrix(1.00062 0 0 1.00118 -330.908 -511.642)"/><path d="M1989.09 998.974s-26.64-54.891-27.27-83.283M1930.27 915.691s-7.91 88.959 58.82 168.459M1903.78 915.691s-28.74 147.639 85.31 242.909M1877.91 915.691s-68.49 194.329 111.18 306.629M1852.67 915.691s-116.92 243.879 136.42 358.369M1829.81 915.691s-176.59 246.539 159.28 401.569M1807.2 915.691s-208.97 279.139 119.89 423.999M1783.42 915.691s-226.23 194.399 42.31 423.999M1760.03 915.691s-253.31 183.959-7.24 423.999M1732.28 915.691s-266.57 161.189-47.32 423.999M1702.65 915.691s-286.03 156.829-75.06 423.999M1665.36 915.691s-298.03 127.249-97.91 423.999M1617.73 915.691s-311.53 136.129-99.57 423.999M1561.53 915.691s-295.74 122.319-93.65 423.999M1490.56 915.691s-281.95 151.899-67.04 423.999M1416.65 915.691s-254.38 183.449-29.61 423.999M1342.74 915.691s-241.59 215.979 21.63 423.999M1277.62 915.691s-213 250.479 77.85 423.999M1189.09 1205.64s30.3 76.86 166.38 134.05" fill="none" stroke="#333" transform="matrix(1.00062 0 0 1.00118 -1189.346 -916.77)"/><path d="M1989.09 998.974s-26.64-54.891-27.27-83.283M1930.27 915.691s-7.91 88.959 58.82 168.459M1903.78 915.691s-28.74 147.639 85.31 242.909M1877.91 915.691s-68.49 194.329 111.18 306.629M1852.67 915.691s-116.92 243.879 136.42 358.369M1829.81 915.691s-176.59 246.539 159.28 401.569M1807.2 915.691s-208.97 279.139 119.89 423.999M1783.42 915.691s-226.23 194.399 42.31 423.999M1760.03 915.691s-253.31 183.959-7.24 423.999M1732.28 915.691s-266.57 161.189-47.32 423.999M1702.65 915.691s-286.03 156.829-75.06 423.999M1665.36 915.691s-298.03 127.249-97.91 423.999M1617.73 915.691s-311.53 136.129-99.57 423.999M1561.53 915.691s-295.74 122.319-93.65 423.999M1490.56 915.691s-281.95 151.899-67.04 423.999M1416.65 915.691s-254.38 183.449-29.61 423.999M1342.74 915.691s-241.59 215.979 21.63 423.999M1277.62 915.691s-213 250.479 77.85 423.999M1189.09 1205.64s30.3 76.86 166.38 134.05" fill="none" stroke="#333" transform="matrix(-1.00062 0 0 -1.00118 1990.834 1341.302)"/><g><path d="M451.069 511.039s57.25 270.462 153.522 0" fill="none" stroke="#333" transform="matrix(1.00062 0 0 1.00118 -330.908 -511.642)"/></g><g><path d="M393.193 511.039s125.395 322.732 270.445 0" fill="none" stroke="#333" transform="matrix(1.00062 0 0 1.00118 -330.908 -511.642)"/></g><g><path d="M361.985 511.039s133.497 393.351 346.58 0" fill="none" stroke="#333" transform="matrix(1.00062 0 0 1.00118 -330.908 -511.642)"/></g><g><path d="M551.962 935.043s66.749-423.391 198.963 0" fill="none" stroke="#333" transform="matrix(1.00062 0 0 1.00118 -330.908 -511.642)"/></g><g><path d="M588.006 935.043s48.676-283.475 120.559 0" fill="none" stroke="#333" transform="matrix(1.00062 0 0 1.00118 -330.908 -511.642)"/></g><g><path d="M628.98 935.043s17.971-108.901 34.658 0" fill="none" stroke="#333" transform="matrix(1.00062 0 0 1.00118 -330.908 -511.642)"/></g><g><path d="M852.332 511.039S183.56 895.458 390.225 935.043" fill="none" stroke="#333" transform="matrix(1.00062 0 0 1.00118 -330.908 -511.642)"/></g><g><path d="M923.05 511.039S191.262 908.294 455.69 935.043" fill="none" stroke="#333" transform="matrix(1.00062 0 0 1.00118 -330.908 -511.642)"/></g><g><path d="M996.099 511.039S233.622 908.294 482.646 935.043" fill="none" stroke="#333" transform="matrix(1.00062 0 0 1.00118 -330.908 -511.642)"/></g><g><path d="M1056.43 511.039S266.996 923.698 519.871 935.043" fill="none" stroke="#333" transform="matrix(1.00062 0 0 1.00118 -330.908 -511.642)"/></g><g><path d="M1094.94 511.039S296.52 946.803 539.126 935.043" fill="none" stroke="#333" transform="matrix(1.00062 0 0 1.00118 -330.908 -511.642)"/></g><g><path d="M1024.34 935.043S216.935 567.321 558.38 511.039" fill="none" stroke="#333" transform="matrix(1.00062 0 0 1.00118 -330.908 -511.642)"/></g><g><path d="M1094.94 935.043S279.832 548.067 625.129 511.039" fill="none" stroke="#333" transform="matrix(1.00062 0 0 1.00118 -330.908 -511.642)"/></g><g><path d="M894.035 511.039s-89.855 666.511 159.165 0" fill="none" stroke="#333" transform="matrix(1.00062 0 0 1.00118 -330.908 -511.642)"/></g><g><path d="M923.05 511.039s-92.876 556.761 114.11 0" fill="none" stroke="#333" transform="matrix(1.00062 0 0 1.00118 -330.908 -511.642)"/></g><g><path d="M965.726 511.039s-103.461 415.559 42.554 0" fill="none" stroke="#333" transform="matrix(1.00062 0 0 1.00118 -330.908 -511.642)"/></g><g><path d="M332.767 841.591s304.862-252.034 85.04 93.452" fill="none" stroke="#333" transform="matrix(1.00062 0 0 1.00118 -330.908 -511.642)"/></g><g><path d="M376.089 935.043s182.918-240.171-43.322-60.463" fill="none" stroke="#333" transform="matrix(1.00062 0 0 1.00118 -330.908 -511.642)"/></g><g><path d="M722.67 511.039s-165.268 813.831 393.11 0" fill="none" stroke="#333" transform="matrix(1.00062 0 0 1.00118 -330.908 -511.642)"/></g><g><path d="M774.015 511.039s-154.036 669.421 263.145 0" fill="none" stroke="#333" transform="matrix(1.00062 0 0 1.00118 -330.908 -511.642)"/></g><g><path d="M851.033 511.039s-229.449 568.331 144.408 0" fill="none" stroke="#333" transform="matrix(1.00062 0 0 1.00118 -330.908 -511.642)"/></g><g><path d="M332.767 628.411s390.367 90.477 0 143.876" fill="none" stroke="#333" transform="matrix(1.00062 0 0 1.00118 -330.908 -511.642)"/></g><g><path d="M332.767 648.031s293.838 73.937 0 96.529" fill="none" stroke="#333" transform="matrix(1.00062 0 0 1.00118 -330.908 -511.642)"/></g><g><path d="M331.192 669.596s180.331 48.265 0 44.157" fill="none" stroke="#333" transform="matrix(1.00062 0 0 1.00118 -330.908 -511.642)"/></g><g><path d="M1131.19 809.054c7.55 1.228-301.935-147.828-72.55 125.989" fill="none" stroke="#333" transform="matrix(1.00062 0 0 1.00118 -330.908 -511.642)"/></g><g><path d="M1131.19 852.346s-248.783-149.017-31.08 82.697" fill="none" stroke="#333" transform="matrix(1.00062 0 0 1.00118 -330.908 -511.642)"/></g><g><path d="M1131.19 885.385s-166.083-126.603 0 49.658" fill="none" stroke="#333" transform="matrix(1.00062 0 0 1.00118 -330.908 -511.642)"/></g><g><path d="M912.188 935.043s144.792-274.844-100.637 0" fill="none" stroke="#333" transform="matrix(1.00062 0 0 1.00118 -330.908 -511.642)"/></g><g><path d="M883.079 935.043s114.342-191.665-42.775 0" fill="none" stroke="#333" transform="matrix(1.00062 0 0 1.00118 -330.908 -511.642)"/></g><g><path d="M799.228 935.043s-435.407-361.956-284.452 0" fill="none" stroke="#333" transform="matrix(1.00062 0 0 1.00118 -330.908 -511.642)"/></g></svg>