<svg viewBox="0 0 129 130" xmlns="http://www.w3.org/2000/svg" fill-rule="evenodd" clip-rule="evenodd" stroke-linejoin="round" stroke-miterlimit="2"><path d="M61.29 15.419C61.29 7.052 54.514.276 46.154.276H15.875C7.52.276.735 7.052.735 15.42v30.27c0 8.366 6.784 15.142 15.14 15.142h30.279c8.36 0 15.136-6.776 15.136-15.143V15.42zm-10.148 5.074c0-5.547-4.516-10.053-10.068-10.053H20.955c-5.553 0-10.06 4.506-10.06 10.053v20.122c0 5.546 4.507 10.053 10.06 10.053h20.119c5.552 0 10.068-4.507 10.068-10.053V20.493zM61.29 83.642c0-8.367-6.776-15.142-15.136-15.142H15.875C7.52 68.5.735 75.275.735 83.642v30.27c0 8.367 6.784 15.142 15.14 15.142h30.279c8.36 0 15.136-6.775 15.136-15.142v-30.27zm-10.148 5.074c0-5.547-4.516-10.053-10.068-10.053H20.955c-5.553 0-10.06 4.506-10.06 10.053v20.122c0 5.546 4.507 10.053 10.06 10.053h20.119c5.552 0 10.068-4.507 10.068-10.053V88.716zM128.739 15.419c0-8.367-6.776-15.143-15.137-15.143H83.324c-8.356 0-15.141 6.776-15.141 15.143v30.27c0 8.366 6.785 15.142 15.14 15.142h30.28c8.36 0 15.136-6.776 15.136-15.143V15.42zm-10.148 5.074c0-5.547-4.516-10.053-10.069-10.053H88.404c-5.553 0-10.061 4.506-10.061 10.053v20.122c0 5.546 4.508 10.053 10.06 10.053h20.12c5.552 0 10.068-4.507 10.068-10.053V20.493zM128.739 83.642c0-8.367-6.776-15.142-15.137-15.142H83.324c-8.356 0-15.141 6.775-15.141 15.142v30.27c0 8.367 6.785 15.142 15.14 15.142h30.28c8.36 0 15.136-6.775 15.136-15.142v-30.27zm-10.148 5.074c0-5.547-4.516-10.053-10.069-10.053H88.404c-5.553 0-10.061 4.506-10.061 10.053v20.122c0 5.546 4.508 10.053 10.06 10.053h20.12c5.552 0 10.068-4.507 10.068-10.053V88.716z" fill="#fff"/></svg>