<?xml version="1.0" encoding="UTF-8" standalone="no"?>
<!DOCTYPE svg PUBLIC "-//W3C//DTD SVG 1.1//EN" "http://www.w3.org/Graphics/SVG/1.1/DTD/svg11.dtd">
<svg width="100%" height="100%" viewBox="0 0 129 130" version="1.1" xmlns="http://www.w3.org/2000/svg" xmlns:xlink="http://www.w3.org/1999/xlink" xml:space="preserve" xmlns:serif="http://www.serif.com/" style="fill-rule:evenodd;clip-rule:evenodd;stroke-linejoin:round;stroke-miterlimit:2;">
    <g transform="matrix(1,0,0,1,-76,-562)">
        <g transform="matrix(9.63647,0,0,7.99866,7205.51,-7197.41)">
            <g id="dashboard" transform="matrix(1.57571,0,0,1.57571,279.772,-928.205)">
                <g transform="matrix(0.103772,0,0,0.125021,-747.734,899.826)">
                    <path d="M1008.8,2448.55C1008.8,2443.24 1004.5,2438.94 999.194,2438.94L979.978,2438.94C974.675,2438.94 970.369,2443.24 970.369,2448.55L970.369,2467.76C970.369,2473.07 974.675,2477.37 979.978,2477.37L999.194,2477.37C1004.5,2477.37 1008.8,2473.07 1008.8,2467.76L1008.8,2448.55ZM1002.36,2451.77C1002.36,2448.25 999.494,2445.39 995.97,2445.39L983.202,2445.39C979.678,2445.39 976.817,2448.25 976.817,2451.77L976.817,2464.54C976.817,2468.06 979.678,2470.92 983.202,2470.92L995.97,2470.92C999.494,2470.92 1002.36,2468.06 1002.36,2464.54L1002.36,2451.77Z" style="fill:white;"/>
                </g>
                <g transform="matrix(0.103772,0,0,0.125021,-747.734,905.239)">
                    <path d="M1008.8,2448.55C1008.8,2443.24 1004.5,2438.94 999.194,2438.94L979.978,2438.94C974.675,2438.94 970.369,2443.24 970.369,2448.55L970.369,2467.76C970.369,2473.07 974.675,2477.37 979.978,2477.37L999.194,2477.37C1004.5,2477.37 1008.8,2473.07 1008.8,2467.76L1008.8,2448.55ZM1002.36,2451.77C1002.36,2448.25 999.494,2445.39 995.97,2445.39L983.202,2445.39C979.678,2445.39 976.817,2448.25 976.817,2451.77L976.817,2464.54C976.817,2468.06 979.678,2470.92 983.202,2470.92L995.97,2470.92C999.494,2470.92 1002.36,2468.06 1002.36,2464.54L1002.36,2451.77Z" style="fill:white;"/>
                </g>
                <g transform="matrix(0.103772,0,0,0.125021,-743.292,899.826)">
                    <path d="M1008.8,2448.55C1008.8,2443.24 1004.5,2438.94 999.194,2438.94L979.978,2438.94C974.675,2438.94 970.369,2443.24 970.369,2448.55L970.369,2467.76C970.369,2473.07 974.675,2477.37 979.978,2477.37L999.194,2477.37C1004.5,2477.37 1008.8,2473.07 1008.8,2467.76L1008.8,2448.55ZM1002.36,2451.77C1002.36,2448.25 999.494,2445.39 995.97,2445.39L983.202,2445.39C979.678,2445.39 976.817,2448.25 976.817,2451.77L976.817,2464.54C976.817,2468.06 979.678,2470.92 983.202,2470.92L995.97,2470.92C999.494,2470.92 1002.36,2468.06 1002.36,2464.54L1002.36,2451.77Z" style="fill:white;"/>
                </g>
                <g transform="matrix(0.103772,0,0,0.125021,-743.292,905.239)">
                    <path d="M1008.8,2448.55C1008.8,2443.24 1004.5,2438.94 999.194,2438.94L979.978,2438.94C974.675,2438.94 970.369,2443.24 970.369,2448.55L970.369,2467.76C970.369,2473.07 974.675,2477.37 979.978,2477.37L999.194,2477.37C1004.5,2477.37 1008.8,2473.07 1008.8,2467.76L1008.8,2448.55ZM1002.36,2451.77C1002.36,2448.25 999.494,2445.39 995.97,2445.39L983.202,2445.39C979.678,2445.39 976.817,2448.25 976.817,2451.77L976.817,2464.54C976.817,2468.06 979.678,2470.92 983.202,2470.92L995.97,2470.92C999.494,2470.92 1002.36,2468.06 1002.36,2464.54L1002.36,2451.77Z" style="fill:white;"/>
                </g>
            </g>
        </g>
    </g>
</svg>
