<?xml version="1.0" encoding="UTF-8" standalone="no"?>
<!DOCTYPE svg PUBLIC "-//W3C//DTD SVG 1.1//EN" "http://www.w3.org/Graphics/SVG/1.1/DTD/svg11.dtd">
<svg width="100%" height="100%" viewBox="0 0 121 129" version="1.1" xmlns="http://www.w3.org/2000/svg" xmlns:xlink="http://www.w3.org/1999/xlink" xml:space="preserve" xmlns:serif="http://www.serif.com/" style="fill-rule:evenodd;clip-rule:evenodd;stroke-linejoin:round;stroke-miterlimit:2;">
    <g transform="matrix(1,0,0,1,-85,-290)">
        <g transform="matrix(9.63647,0,0,7.99866,7205.51,-7197.41)">
            <g id="drag-n-drop" serif:id="drag n drop" transform="matrix(2.25188,0,0,2.25188,533.087,-1557.14)">
                <g transform="matrix(0.103772,0,0,0.125021,-747.734,899.826)">
                    <path d="M1793.84,1662.48L1802.26,1662.48C1809.61,1662.48 1815.58,1668.44 1815.58,1675.8L1815.58,1702.43C1815.58,1709.79 1809.61,1715.75 1802.26,1715.75L1775.62,1715.75C1768.27,1715.75 1762.3,1709.79 1762.3,1702.43L1762.3,1675.8C1762.3,1668.44 1768.27,1662.48 1775.62,1662.48L1784.04,1662.48L1784.04,1664.99L1776.87,1664.99C1770.22,1664.99 1764.81,1670.39 1764.81,1677.05L1764.81,1701.18C1764.81,1707.84 1770.22,1713.25 1776.87,1713.25L1801,1713.25C1807.66,1713.25 1813.07,1707.84 1813.07,1701.18L1813.07,1677.05C1813.07,1670.39 1807.66,1664.99 1801,1664.99L1793.84,1664.99L1793.84,1662.48Z" style="fill:white;"/>
                </g>
                <g transform="matrix(0.103772,0,0,0.125021,-747.734,899.826)">
                    <path d="M1790.11,1690.34L1800.04,1680.96L1801.31,1682.77L1788.94,1694.42L1776.57,1682.77L1777.84,1680.96L1787.77,1690.34L1787.77,1658.91L1790.11,1658.91L1790.11,1690.34Z" style="fill:white;"/>
                </g>
            </g>
        </g>
    </g>
</svg>
