<svg viewBox="0 0 121 129" xmlns="http://www.w3.org/2000/svg" fill-rule="evenodd" clip-rule="evenodd" stroke-linejoin="round" stroke-miterlimit="2"><path d="M71.124 8.95h18.961c16.551 0 29.995 13.421 29.995 29.995v59.968c0 16.573-13.444 29.995-29.995 29.995h-59.99C13.544 128.908.1 115.486.1 98.913V38.945C.1 22.371 13.544 8.95 30.095 8.95h18.96v5.652H32.91c-14.975 0-27.158 12.16-27.158 27.158v54.338c0 14.997 12.183 27.18 27.158 27.18h54.338c14.997 0 27.18-12.183 27.18-27.18V41.76c0-14.998-12.183-27.158-27.18-27.158H71.124V8.95z" fill="#fff"/><path d="M62.725 71.687l22.36-21.122 2.86 4.076L60.09 80.875 32.234 54.641l2.86-4.076 22.361 21.122V.911h5.27v70.776z" fill="#fff"/></svg>