<svg viewBox="0 0 129 81" xmlns="http://www.w3.org/2000/svg" fill-rule="evenodd" clip-rule="evenodd" stroke-linejoin="round" stroke-miterlimit="2"><path d="M128.73 6.28c0-3.262-4.24-5.912-9.46-5.912H10.192C4.97.368.731 3.018.731 6.28v17.738c0 3.262 4.238 5.912 9.46 5.912h109.08c5.22 0 9.46-2.65 9.46-5.912V6.28zm-8.42 2.406c0-2.381-3.09-4.312-6.9-4.312H16.047c-3.806 0-6.896 1.931-6.896 4.312v12.925c0 2.382 3.09 4.313 6.896 4.313h97.365c3.81 0 6.9-1.931 6.9-4.313V8.686z" fill="#fff"/><path d="M128.73 34.974c0-2.781-3.62-5.044-8.07-5.044H8.8c-4.454 0-8.07 2.263-8.07 5.044v40.35c0 2.781 3.616 5.044 8.07 5.044h111.86c4.45 0 8.07-2.263 8.07-5.044v-40.35zm-8.42 3.456c0-2.306-3-4.181-6.69-4.181H15.839c-3.69 0-6.688 1.875-6.688 4.181v33.438c0 2.306 2.997 4.18 6.688 4.18h97.783c3.69 0 6.69-1.874 6.69-4.18V38.43z" fill="#fff"/></svg>