<?xml version="1.0" encoding="UTF-8" standalone="no"?>
<!DOCTYPE svg PUBLIC "-//W3C//DTD SVG 1.1//EN" "http://www.w3.org/Graphics/SVG/1.1/DTD/svg11.dtd">
<svg width="100%" height="100%" viewBox="0 0 129 81" version="1.1" xmlns="http://www.w3.org/2000/svg" xmlns:xlink="http://www.w3.org/1999/xlink" xml:space="preserve" xmlns:serif="http://www.serif.com/" style="fill-rule:evenodd;clip-rule:evenodd;stroke-linejoin:round;stroke-miterlimit:2;">
    <g transform="matrix(1,0,0,1,-76,-848)">
        <g transform="matrix(9.63647,0,0,7.99866,7205.51,-7197.41)">
            <g id="icon">
                <g transform="matrix(0.103772,0,0,0.0781381,-840.468,791.225)">
                    <path d="M1098.37,2756.72C1098.37,2751.5 1094.13,2747.26 1088.91,2747.26L979.83,2747.26C974.608,2747.26 970.369,2751.5 970.369,2756.72L970.369,2785.1C970.369,2790.32 974.608,2794.56 979.83,2794.56L1088.91,2794.56C1094.13,2794.56 1098.37,2790.32 1098.37,2785.1L1098.37,2756.72ZM1089.95,2760.57C1089.95,2756.76 1086.86,2753.67 1083.05,2753.67L985.685,2753.67C981.879,2753.67 978.789,2756.76 978.789,2760.57L978.789,2781.25C978.789,2785.06 981.879,2788.15 985.685,2788.15L1083.05,2788.15C1086.86,2788.15 1089.95,2785.06 1089.95,2781.25L1089.95,2760.57Z" style="fill:white;"/>
                </g>
                <g transform="matrix(0.103772,0,0,0.0781381,-840.468,791.225)">
                    <path d="M1098.37,2802.63C1098.37,2798.18 1094.75,2794.56 1090.3,2794.56L978.439,2794.56C973.985,2794.56 970.369,2798.18 970.369,2802.63L970.369,2867.19C970.369,2871.64 973.985,2875.26 978.439,2875.26L1090.3,2875.26C1094.75,2875.26 1098.37,2871.64 1098.37,2867.19L1098.37,2802.63ZM1089.95,2808.16C1089.95,2804.47 1086.95,2801.47 1083.26,2801.47L985.477,2801.47C981.786,2801.47 978.789,2804.47 978.789,2808.16L978.789,2861.66C978.789,2865.35 981.786,2868.35 985.477,2868.35L1083.26,2868.35C1086.95,2868.35 1089.95,2865.35 1089.95,2861.66L1089.95,2808.16Z" style="fill:white;"/>
                </g>
            </g>
        </g>
    </g>
</svg>
