<?xml version="1.0" encoding="UTF-8" standalone="no"?>
<!DOCTYPE svg PUBLIC "-//W3C//DTD SVG 1.1//EN" "http://www.w3.org/Graphics/SVG/1.1/DTD/svg11.dtd">
<svg width="100%" height="100%" viewBox="0 0 129 73" version="1.1" xmlns="http://www.w3.org/2000/svg" xmlns:xlink="http://www.w3.org/1999/xlink" xml:space="preserve" xmlns:serif="http://www.serif.com/" style="fill-rule:evenodd;clip-rule:evenodd;stroke-linejoin:round;stroke-miterlimit:2;">
    <g transform="matrix(1,0,0,1,-79,-182)">
        <g transform="matrix(9.63647,0,0,7.99866,7205.51,-7197.41)">
            <g transform="matrix(0.0317358,0,0,0.038234,-763.287,902.813)">
                <g id="mini_logo">
                    <path d="M751.203,645.037L960.475,645.037L960.475,754.098L810.288,754.098C777.678,754.098 751.203,727.623 751.203,695.013L751.203,645.037ZM978.696,645.037L1169.75,645.037L1169.75,695.013C1169.75,727.623 1143.27,754.098 1110.66,754.098L978.696,754.098L978.696,645.037ZM888.115,517.756L888.115,626.817L751.203,626.817L751.203,576.841C751.203,544.231 777.678,517.756 810.288,517.756L888.115,517.756ZM906.335,517.756L1110.66,517.756C1143.27,517.756 1169.75,544.231 1169.75,576.841L1169.75,626.817L906.335,626.817L906.335,517.756Z" style="fill:rgb(235,235,235);"/>
                </g>
            </g>
        </g>
    </g>
</svg>
