<?xml version="1.0" encoding="UTF-8" standalone="no"?>
<!DOCTYPE svg PUBLIC "-//W3C//DTD SVG 1.1//EN" "http://www.w3.org/Graphics/SVG/1.1/DTD/svg11.dtd">
<svg width="100%" height="100%" viewBox="0 0 105 129" version="1.1" xmlns="http://www.w3.org/2000/svg" xmlns:xlink="http://www.w3.org/1999/xlink" xml:space="preserve" xmlns:serif="http://www.serif.com/" style="fill-rule:evenodd;clip-rule:evenodd;stroke-linejoin:round;stroke-miterlimit:2;">
    <g transform="matrix(1,0,0,1,-103,-427)">
        <g transform="matrix(9.63647,0,0,7.99866,7205.51,-7197.41)">
            <g id="refresh" transform="matrix(1,0,0,1,-18.0718,-50.2107)">
                <g transform="matrix(0.0455066,0,0,0.0549076,-728.797,916.575)">
                    <path d="M330.731,1613.91C267.471,1613.91 216.188,1665.19 216.188,1728.45C216.188,1782.19 253.554,1828.71 306.034,1840.3L309.551,1824.37C264.543,1814.43 232.497,1774.54 232.497,1728.45C232.497,1674.2 276.478,1630.22 330.731,1630.22L330.731,1613.91Z" style="fill:white;"/>
                </g>
                <g transform="matrix(-0.0457168,6.74508e-18,-5.59869e-18,-0.0550778,-698.209,1106.66)">
                    <path d="M330.731,1613.91C267.471,1613.91 216.188,1665.19 216.188,1728.45C216.188,1781.37 252.44,1827.4 303.885,1839.8L307.708,1823.95C263.587,1813.31 232.497,1773.83 232.497,1728.45C232.497,1674.2 276.478,1630.22 330.731,1630.22L330.731,1613.91Z" style="fill:white;"/>
                </g>
                <g transform="matrix(0.00230562,0.035303,-0.0293029,0.00277771,-665.501,983.677)">
                    <path d="M490.298,1692.29L450.446,1732.14C444.76,1737.83 435.527,1737.83 429.841,1732.14C424.154,1726.46 424.154,1717.23 429.841,1711.54L479.946,1661.43C485.632,1655.75 494.865,1655.75 500.551,1661.43C501.271,1662.15 501.899,1662.93 502.436,1663.75L550.623,1711.93C556.236,1717.55 556.236,1726.66 550.623,1732.28C545.009,1737.89 535.894,1737.89 530.28,1732.28L490.298,1692.29Z" style="fill:white;"/>
                </g>
                <g transform="matrix(-0.00231627,-0.0354661,0.0294383,-0.00279055,-761.797,1039.38)">
                    <path d="M490.298,1692.29L450.446,1732.14C444.76,1737.83 435.527,1737.83 429.841,1732.14C424.154,1726.46 424.154,1717.23 429.841,1711.54L479.946,1661.43C485.632,1655.75 494.865,1655.75 500.551,1661.43C501.271,1662.15 501.899,1662.93 502.436,1663.75L550.623,1711.93C556.236,1717.55 556.236,1726.66 550.623,1732.28C545.009,1737.89 535.894,1737.89 530.28,1732.28L490.298,1692.29Z" style="fill:white;"/>
                </g>
            </g>
        </g>
    </g>
</svg>
