<svg viewBox="0 0 105 129" xmlns="http://www.w3.org/2000/svg" fill-rule="evenodd" clip-rule="evenodd" stroke-linejoin="round" stroke-miterlimit="2"><path d="M50.364 14.152c-27.74 0-50.23 22.522-50.23 50.305 0 23.602 16.386 44.033 39.4 49.123l1.542-6.997C21.34 102.218 7.286 84.7 7.286 64.457c0-23.826 19.287-43.142 43.078-43.142v-7.163zM54.388 114.763c27.87 0 50.462-22.591 50.462-50.46 0-23.314-15.97-43.593-38.635-49.056l-1.684 6.983c19.438 4.688 33.134 22.08 33.134 42.073 0 23.9-19.375 43.275-43.277 43.275v7.185z" fill="#fff"/><path d="M48.312 18.118L36.174 7.75a4.127 4.127 0 015.359-6.276l15.263 13.035a4.132 4.132 0 01-.156 6.402L44.106 35.588a4.08 4.08 0 01-5.746.452 4.078 4.078 0 01-.452-5.744l10.404-12.178zM56.455 110.758l12.194 10.415a4.146 4.146 0 01-5.384 6.305l-15.333-13.095a4.151 4.151 0 01.156-6.432L60.68 93.206a4.098 4.098 0 015.773-.454 4.097 4.097 0 01.454 5.77l-10.452 12.236z" fill="#fff"/></svg>