<svg viewBox="0 0 129 91" xmlns="http://www.w3.org/2000/svg" fill-rule="evenodd" clip-rule="evenodd" stroke-linejoin="round" stroke-miterlimit="2"><path d="M31.013 36.87L.733 63.279l30.28 26.916 5.767-5.078-24.512-21.838 24.512-21.33-5.767-5.08zM98.452 53.53l30.28-26.41L98.452.205l-5.767 5.079 24.512 21.838-24.512 21.33 5.767 5.079z" fill="#fff" fill-rule="nonzero"/><path d="M128.706 61.72a1.79 1.79 0 00-1.787-1.784H12.312c-.989 0-1.786.803-1.786 1.785v3.582c0 .982.797 1.785 1.786 1.785H126.92a1.79 1.79 0 001.787-1.785v-3.582zM.732 28.622a1.79 1.79 0 001.787 1.785h114.607c.989 0 1.786-.803 1.786-1.785V25.04c0-.982-.797-1.785-1.786-1.785H2.519A1.79 1.79 0 00.732 25.04v3.582z" fill="#fff"/></svg>