<?xml version="1.0" encoding="UTF-8" standalone="no"?>
<!DOCTYPE svg PUBLIC "-//W3C//DTD SVG 1.1//EN" "http://www.w3.org/Graphics/SVG/1.1/DTD/svg11.dtd">
<svg width="100%" height="100%" viewBox="0 0 300 400" version="1.1" xmlns="http://www.w3.org/2000/svg" xmlns:xlink="http://www.w3.org/1999/xlink" xml:space="preserve" xmlns:serif="http://www.serif.com/" style="fill-rule:evenodd;clip-rule:evenodd;stroke-linecap:round;stroke-linejoin:round;stroke-miterlimit:1.5;">
    <g id="ArtBoard1" transform="matrix(0.91706,0,0,0.901197,594.42,228.056)">
        <rect x="-648.181" y="-253.059" width="327.133" height="443.854" style="fill:none;"/>
        <clipPath id="_clip1">
            <rect x="-648.181" y="-253.059" width="327.133" height="443.854"/>
        </clipPath>
        <g clip-path="url(#_clip1)">
            <g transform="matrix(8.154,0,0,8.88606,4993.65,-8830.42)">
                <g transform="matrix(0.103772,0,0,0.125021,-747.734,899.826)">
                    <rect x="331.192" y="511.039" width="800" height="424.004" style="fill:white;stroke:rgb(56,63,81);stroke-width:1px;"/>
                </g>
                <g transform="matrix(1,0,0,1,-89.0266,-50.5899)">
                    <g transform="matrix(0.103772,0,0,0.125021,-747.734,899.826)">
                        <path d="M1829.81,915.691C1829.81,915.691 1653.22,1162.23 1989.09,1317.26" style="fill:none;stroke:rgb(51,51,51);stroke-width:1px;"/>
                    </g>
                    <g transform="matrix(0.103772,0,0,0.125021,-747.734,899.826)">
                        <path d="M1807.2,915.691C1807.2,915.691 1598.23,1194.83 1927.09,1339.69" style="fill:none;stroke:rgb(51,51,51);stroke-width:1px;"/>
                    </g>
                    <g transform="matrix(0.103772,0,0,0.125021,-747.734,899.826)">
                        <path d="M1783.42,915.691C1783.42,915.691 1557.19,1110.09 1825.73,1339.69" style="fill:none;stroke:rgb(51,51,51);stroke-width:1px;"/>
                    </g>
                    <g transform="matrix(0.103772,0,0,0.125021,-747.734,899.826)">
                        <path d="M1760.03,915.691C1760.03,915.691 1506.72,1099.65 1752.79,1339.69" style="fill:none;stroke:rgb(51,51,51);stroke-width:1px;"/>
                    </g>
                    <g transform="matrix(0.103772,0,0,0.125021,-747.734,899.826)">
                        <path d="M1732.28,915.691C1732.28,915.691 1465.71,1076.88 1684.96,1339.69" style="fill:none;stroke:rgb(51,51,51);stroke-width:1px;"/>
                    </g>
                    <g transform="matrix(0.103772,0,0,0.125021,-747.734,899.826)">
                        <path d="M1702.65,915.691C1702.65,915.691 1416.62,1072.52 1627.59,1339.69" style="fill:none;stroke:rgb(51,51,51);stroke-width:1px;"/>
                    </g>
                    <g transform="matrix(0.103772,0,0,0.125021,-747.734,899.826)">
                        <path d="M1665.36,915.691C1665.36,915.691 1367.33,1042.94 1567.45,1339.69" style="fill:none;stroke:rgb(51,51,51);stroke-width:1px;"/>
                    </g>
                    <g transform="matrix(0.103772,0,0,0.125021,-747.734,899.826)">
                        <path d="M1617.73,915.691C1617.73,915.691 1306.2,1051.82 1518.16,1339.69" style="fill:none;stroke:rgb(51,51,51);stroke-width:1px;"/>
                    </g>
                    <g transform="matrix(0.103772,0,0,0.125021,-747.734,899.826)">
                        <path d="M1561.53,915.691C1561.53,915.691 1265.79,1038.01 1467.88,1339.69" style="fill:none;stroke:rgb(51,51,51);stroke-width:1px;"/>
                    </g>
                    <g transform="matrix(0.103772,0,0,0.125021,-747.734,899.826)">
                        <path d="M1490.56,915.691C1490.56,915.691 1208.61,1067.59 1423.52,1339.69" style="fill:none;stroke:rgb(51,51,51);stroke-width:1px;"/>
                    </g>
                    <g transform="matrix(0.103772,0,0,0.125021,-747.734,899.826)">
                        <path d="M1416.65,915.691C1416.65,915.691 1162.27,1099.14 1387.04,1339.69" style="fill:none;stroke:rgb(51,51,51);stroke-width:1px;"/>
                    </g>
                    <g transform="matrix(-0.103772,1.53106e-17,-1.27085e-17,-0.125021,-417.925,1181.8)">
                        <path d="M1829.81,915.691C1829.81,915.691 1653.22,1162.23 1989.09,1317.26" style="fill:none;stroke:rgb(51,51,51);stroke-width:1px;"/>
                    </g>
                    <g transform="matrix(-0.103772,1.53106e-17,-1.27085e-17,-0.125021,-417.925,1181.8)">
                        <path d="M1807.2,915.691C1807.2,915.691 1598.23,1194.83 1927.09,1339.69" style="fill:none;stroke:rgb(51,51,51);stroke-width:1px;"/>
                    </g>
                    <g transform="matrix(-0.103772,1.53106e-17,-1.27085e-17,-0.125021,-417.925,1181.8)">
                        <path d="M1783.42,915.691C1783.42,915.691 1557.19,1110.09 1825.73,1339.69" style="fill:none;stroke:rgb(51,51,51);stroke-width:1px;"/>
                    </g>
                    <g transform="matrix(-0.103772,1.53106e-17,-1.27085e-17,-0.125021,-417.925,1181.8)">
                        <path d="M1760.03,915.691C1760.03,915.691 1506.72,1099.65 1752.79,1339.69" style="fill:none;stroke:rgb(51,51,51);stroke-width:1px;"/>
                    </g>
                    <g transform="matrix(-0.103772,1.53106e-17,-1.27085e-17,-0.125021,-417.925,1181.8)">
                        <path d="M1732.28,915.691C1732.28,915.691 1465.71,1076.88 1684.96,1339.69" style="fill:none;stroke:rgb(51,51,51);stroke-width:1px;"/>
                    </g>
                    <g transform="matrix(-0.103772,1.53106e-17,-1.27085e-17,-0.125021,-417.925,1181.8)">
                        <path d="M1702.65,915.691C1702.65,915.691 1416.62,1072.52 1627.59,1339.69" style="fill:none;stroke:rgb(51,51,51);stroke-width:1px;"/>
                    </g>
                    <g transform="matrix(-0.103772,1.53106e-17,-1.27085e-17,-0.125021,-417.925,1181.8)">
                        <path d="M1665.36,915.691C1665.36,915.691 1367.33,1042.94 1567.45,1339.69" style="fill:none;stroke:rgb(51,51,51);stroke-width:1px;"/>
                    </g>
                    <g transform="matrix(-0.103772,1.53106e-17,-1.27085e-17,-0.125021,-417.925,1181.8)">
                        <path d="M1617.73,915.691C1617.73,915.691 1306.2,1051.82 1518.16,1339.69" style="fill:none;stroke:rgb(51,51,51);stroke-width:1px;"/>
                    </g>
                    <g transform="matrix(-0.103772,1.53106e-17,-1.27085e-17,-0.125021,-417.925,1181.8)">
                        <path d="M1561.53,915.691C1561.53,915.691 1265.79,1038.01 1467.88,1339.69" style="fill:none;stroke:rgb(51,51,51);stroke-width:1px;"/>
                    </g>
                    <g transform="matrix(-0.103772,1.53106e-17,-1.27085e-17,-0.125021,-417.925,1181.8)">
                        <path d="M1490.56,915.691C1490.56,915.691 1208.61,1067.59 1423.52,1339.69" style="fill:none;stroke:rgb(51,51,51);stroke-width:1px;"/>
                    </g>
                    <g transform="matrix(-0.103772,1.53106e-17,-1.27085e-17,-0.125021,-417.925,1181.8)">
                        <path d="M1416.65,915.691C1416.65,915.691 1162.27,1099.14 1387.04,1339.69" style="fill:none;stroke:rgb(51,51,51);stroke-width:1px;"/>
                    </g>
                </g>
                <g transform="matrix(0.103772,0,0,0.125021,-747.734,899.826)">
                    <path d="M451.069,511.039C451.069,511.039 508.319,781.501 604.591,511.039" style="fill:none;stroke:rgb(51,51,51);stroke-width:1px;"/>
                </g>
                <g transform="matrix(0.103772,0,0,0.125021,-747.734,899.826)">
                    <path d="M393.193,511.039C393.193,511.039 518.588,833.771 663.638,511.039" style="fill:none;stroke:rgb(51,51,51);stroke-width:1px;"/>
                </g>
                <g transform="matrix(0.103772,0,0,0.125021,-747.734,899.826)">
                    <path d="M361.985,511.039C361.985,511.039 495.482,904.39 708.565,511.039" style="fill:none;stroke:rgb(51,51,51);stroke-width:1px;"/>
                </g>
                <g transform="matrix(0.103772,0,0,0.125021,-747.734,899.826)">
                    <path d="M551.962,935.043C551.962,935.043 618.711,511.652 750.925,935.043" style="fill:none;stroke:rgb(51,51,51);stroke-width:1px;"/>
                </g>
                <g transform="matrix(0.103772,0,0,0.125021,-747.734,899.826)">
                    <path d="M588.006,935.043C588.006,935.043 636.682,651.568 708.565,935.043" style="fill:none;stroke:rgb(51,51,51);stroke-width:1px;"/>
                </g>
                <g transform="matrix(0.103772,0,0,0.125021,-747.734,899.826)">
                    <path d="M628.98,935.043C628.98,935.043 646.951,826.142 663.638,935.043" style="fill:none;stroke:rgb(51,51,51);stroke-width:1px;"/>
                </g>
                <g transform="matrix(0.103772,0,0,0.125021,-747.734,899.826)">
                    <path d="M852.332,511.039C852.332,511.039 183.56,895.458 390.225,935.043" style="fill:none;stroke:rgb(51,51,51);stroke-width:1px;"/>
                </g>
                <g transform="matrix(0.103772,0,0,0.125021,-747.734,899.826)">
                    <path d="M923.05,511.039C923.05,511.039 191.262,908.294 455.69,935.043" style="fill:none;stroke:rgb(51,51,51);stroke-width:1px;"/>
                </g>
                <g transform="matrix(0.103772,0,0,0.125021,-747.734,899.826)">
                    <path d="M996.099,511.039C996.099,511.039 233.622,908.294 482.646,935.043" style="fill:none;stroke:rgb(51,51,51);stroke-width:1px;"/>
                </g>
                <g transform="matrix(0.103772,0,0,0.125021,-747.734,899.826)">
                    <path d="M1056.43,511.039C1056.43,511.039 266.996,923.698 519.871,935.043" style="fill:none;stroke:rgb(51,51,51);stroke-width:1px;"/>
                </g>
                <g transform="matrix(0.103772,0,0,0.125021,-747.734,899.826)">
                    <path d="M1094.94,511.039C1094.94,511.039 296.52,946.803 539.126,935.043" style="fill:none;stroke:rgb(51,51,51);stroke-width:1px;"/>
                </g>
                <g transform="matrix(0.103772,0,0,0.125021,-747.734,899.826)">
                    <path d="M1024.34,935.043C1024.34,935.043 216.935,567.321 558.38,511.039" style="fill:none;stroke:rgb(51,51,51);stroke-width:1px;"/>
                </g>
                <g transform="matrix(0.103772,0,0,0.125021,-747.734,899.826)">
                    <path d="M1094.94,935.043C1094.94,935.043 279.832,548.067 625.129,511.039" style="fill:none;stroke:rgb(51,51,51);stroke-width:1px;"/>
                </g>
                <g transform="matrix(0.103772,0,0,0.125021,-747.734,899.826)">
                    <path d="M894.035,511.039C894.035,511.039 804.18,1177.55 1053.2,511.039" style="fill:none;stroke:rgb(51,51,51);stroke-width:1px;"/>
                </g>
                <g transform="matrix(0.103772,0,0,0.125021,-747.734,899.826)">
                    <path d="M923.05,511.039C923.05,511.039 830.174,1067.8 1037.16,511.039" style="fill:none;stroke:rgb(51,51,51);stroke-width:1px;"/>
                </g>
                <g transform="matrix(0.103772,0,0,0.125021,-747.734,899.826)">
                    <path d="M722.67,511.039C722.67,511.039 557.402,1324.87 1115.78,511.039" style="fill:none;stroke:rgb(51,51,51);stroke-width:1px;"/>
                </g>
                <g transform="matrix(0.103772,0,0,0.125021,-747.734,899.826)">
                    <path d="M774.015,511.039C774.015,511.039 619.979,1180.46 1037.16,511.039" style="fill:none;stroke:rgb(51,51,51);stroke-width:1px;"/>
                </g>
                <g transform="matrix(0.103772,0,0,0.125021,-747.734,899.826)">
                    <path d="M851.033,511.039C851.033,511.039 621.584,1079.37 995.441,511.039" style="fill:none;stroke:rgb(51,51,51);stroke-width:1px;"/>
                </g>
                <g transform="matrix(0.103772,0,0,0.125021,-747.734,899.826)">
                    <path d="M912.188,935.043C912.188,935.043 1056.98,660.199 811.551,935.043" style="fill:none;stroke:rgb(51,51,51);stroke-width:1px;"/>
                </g>
                <g transform="matrix(0.103772,0,0,0.125021,-747.734,899.826)">
                    <path d="M883.079,935.043C883.079,935.043 997.421,743.378 840.304,935.043" style="fill:none;stroke:rgb(51,51,51);stroke-width:1px;"/>
                </g>
                <g transform="matrix(0.103772,0,0,0.125021,-747.734,899.826)">
                    <path d="M799.228,935.043C799.228,935.043 363.821,573.087 514.776,935.043" style="fill:none;stroke:rgb(51,51,51);stroke-width:1px;"/>
                </g>
            </g>
        </g>
    </g>
</svg>
