<?xml version="1.0" encoding="UTF-8" standalone="no"?>
<!-- Created with Inkscape (http://www.inkscape.org/) -->

<svg
   xmlns:dc="http://purl.org/dc/elements/1.1/"
   xmlns:cc="http://creativecommons.org/ns#"
   xmlns:rdf="http://www.w3.org/1999/02/22-rdf-syntax-ns#"
   xmlns:svg="http://www.w3.org/2000/svg"
   xmlns="http://www.w3.org/2000/svg"
   xmlns:sodipodi="http://sodipodi.sourceforge.net/DTD/sodipodi-0.dtd"
   xmlns:inkscape="http://www.inkscape.org/namespaces/inkscape"
   width="210mm"
   height="297mm"
   viewBox="0 0 210 297"
   version="1.1"
   id="svg8"
   inkscape:version="0.92.3 (2405546, 2018-03-11)"
   sodipodi:docname="User.svg">
  <defs
     id="defs2" />
  <sodipodi:namedview
     id="base"
     pagecolor="#ffffff"
     bordercolor="#666666"
     borderopacity="1.0"
     inkscape:pageopacity="0.0"
     inkscape:pageshadow="2"
     inkscape:zoom="0.7"
     inkscape:cx="228.64785"
     inkscape:cy="582.01288"
     inkscape:document-units="mm"
     inkscape:current-layer="layer1"
     showgrid="false"
     inkscape:window-width="1920"
     inkscape:window-height="1017"
     inkscape:window-x="1672"
     inkscape:window-y="-8"
     inkscape:window-maximized="1" />
  <metadata
     id="metadata5">
    <rdf:RDF>
      <cc:Work
         rdf:about="">
        <dc:format>image/svg+xml</dc:format>
        <dc:type
           rdf:resource="http://purl.org/dc/dcmitype/StillImage" />
        <dc:title></dc:title>
      </cc:Work>
    </rdf:RDF>
  </metadata>
  <g
     inkscape:label="Ebene 1"
     inkscape:groupmode="layer"
     id="layer1">
    <g
       style="clip-rule:evenodd;fill-rule:evenodd;stroke-miterlimit:10"
       id="g859"
       transform="matrix(0.5575619,0,0,0.5626174,-251.4621,-50.931664)">
      <g
         id="g817"
         transform="matrix(2.81501,0,0,2.81501,-3774.64,-218.343)">
        <rect
   id="rect815"
   style="fill:none;stroke:#000000;stroke-width:3px"
   height="129.7"
   width="129.7"
   y="140.10001"
   x="1503.4" />

    </g>
      <g
         id="g821"
         transform="matrix(2.81501,0,0,2.81501,-3774.64,-218.343)">
        <circle
   id="circle819"
   r="27.9"
   cy="176"
   cx="1568" />

    </g>
      <g
         id="g825"
         transform="matrix(2.81501,0,0,2.81501,-3774.64,-218.343)">
        <path
   id="path823"
   style="fill-rule:nonzero"
   d="m 1613.7,270.8 c 0.1,-1.5 0.1,-3 0.1,-4.5 0,-12.4 -1.9,-24.1 -5.4,-34.3 -3.8,-11.2 -14.3,-18.8 -26.1,-18.8 H 1554 c -11.8,0 -22.4,7.5 -26.1,18.8 -3.4,10.2 -5.4,21.9 -5.4,34.3 0,1.5 0,3 0.1,4.5 z"
   inkscape:connector-curvature="0" />

    </g>
      <g
         id="g829"
         transform="matrix(2.81501,0,0,2.81501,-3774.64,-218.343)">
        <rect
   id="rect827"
   style="stroke:#000000;stroke-width:3px"
   height="129.7"
   width="129.7"
   y="140.10001"
   x="1503.4" />

    </g>
      <g
         id="g833"
         transform="matrix(2.81501,0,0,2.81501,-3774.64,-218.343)">
        <circle
   id="circle831"
   style="fill:#ffffff"
   r="27.9"
   cy="176"
   cx="1568" />

    </g>
      <g
         id="g837"
         transform="matrix(2.81501,0,0,2.81501,-3774.64,-218.343)">
        <path
   id="path835"
   style="fill:#ffffff;fill-rule:nonzero"
   d="m 1613.7,270.8 c 0.1,-1.5 0.1,-3 0.1,-4.5 0,-12.4 -1.9,-24.1 -5.4,-34.3 -3.8,-11.2 -14.3,-18.8 -26.1,-18.8 H 1554 c -11.8,0 -22.4,7.5 -26.1,18.8 -3.4,10.2 -5.4,21.9 -5.4,34.3 0,1.5 0,3 0.1,4.5 z"
   inkscape:connector-curvature="0" />

    </g>
    </g>
  </g>
</svg>
