<svg xmlns="http://www.w3.org/2000/svg" style="fill-rule:evenodd;clip-rule:evenodd;stroke-linecap:round;stroke-linejoin:round;stroke-miterlimit:1.5" width="100%" height="100%" version="1.1" viewBox="0 0 534 534"><rect id="Mainboard" width="533.333" height="533.333" x="0" y=".507" style="fill:none"/><rect style="fill:#171c1f;stroke:#fff;stroke-width:12.25px" width="454.081" height="372.346" x="49.503" y="125.32"/><rect style="fill:#171c1f;stroke:#fff;stroke-width:8.33px" width="102.168" height="102.168" x="293.344" y="186.621"/><rect style="fill:#171c1f;stroke:#fff;stroke-width:8.33px" width="61.301" height="61.301" x="313.778" y="207.054"/><rect style="fill:#171c1f;stroke:#fff;stroke-width:8.33px" width="42.23" height="237.03" x="29.75" y="151.202"/><path d="M441.147,165.733l0,143.944" style="fill:none;stroke:#fff;stroke-width:8.33px"/><path d="M458.175,165.733l0,143.944" style="fill:none;stroke:#fff;stroke-width:8.33px"/><rect style="fill:#171c1f;stroke:#fff;stroke-width:8.33px" width="77.648" height="72.199" x="121.701" y="197.519"/><rect style="fill:#171c1f;stroke:#fff;stroke-width:8.33px" width="26.337" height="26.337" x="417.762" y="433.187"/><rect style="fill:#171c1f;stroke:#fff;stroke-width:8.33px" width="26.337" height="26.337" x="368.721" y="433.187"/><rect style="fill:#171c1f;stroke:#fff;stroke-width:8.33px" width="26.337" height="26.337" x="317.41" y="433.187"/><rect style="fill:#171c1f;stroke:#fff;stroke-width:8.33px" width="24.974" height="102.622" x="478.609" y="395.044"/><path d="M113.528,422.289l140.311,0" style="fill:none;stroke:#fff;stroke-width:8.33px"/><path d="M113.528,389.595l140.311,0" style="fill:none;stroke:#fff;stroke-width:8.33px"/><path d="M113.528,356.901l140.311,0" style="fill:none;stroke:#fff;stroke-width:8.33px"/><text style="font-family:'ArialMT','Arial',sans-serif;font-size:83.333px;fill:#fff" x="78.319" y="83.319">Mainboard</text></svg>