<?xml version="1.0" encoding="UTF-8" standalone="no"?>
<!DOCTYPE svg PUBLIC "-//W3C//DTD SVG 1.1//EN" "http://www.w3.org/Graphics/SVG/1.1/DTD/svg11.dtd">
<svg width="100%" height="100%" viewBox="0 0 534 534" version="1.1" xmlns="http://www.w3.org/2000/svg"
     style="fill-rule:evenodd;clip-rule:evenodd;stroke-linecap:round;stroke-linejoin:round;stroke-miterlimit:1.5;">
  <rect id="CPU-Cooler" x="0" y="0.507" width="533.333" height="533.333" style="fill:none;"/>
  <path d="M219.167,440.833c-28.204,-5.942 -52.801,-17.926 -65.167,-51l0,-309.333"
        style="fill:none;stroke:#fff;stroke-width:10px;"/>
  <path d="M314.167,440.833c28.204,-5.942 52.8,-17.926 65.166,-51l0,-309.333"
        style="fill:none;stroke:#fff;stroke-width:10px;"/>
  <path d="M219.167,440.833c-15.904,-0.87 -30.935,-20.916 -31.584,-51l0,-309.333"
        style="fill:none;stroke:#fff;stroke-width:10px;"/>
  <path d="M314.167,440.833c15.903,-0.87 30.934,-20.916 31.583,-51l0,-309.333"
        style="fill:none;stroke:#fff;stroke-width:10px;"/>
  <rect x="119" y="94.5" width="295.333" height="295.333" style="fill:#171c1f;stroke:#fff;stroke-width:10px;"/>
  <rect x="219.167" y="427.5" width="95" height="25" style="fill:#171c1f;stroke:#fff;stroke-width:10px;"/>
  <circle cx="266.667" cy="242.167" r="166.667" style="fill:none;stroke:#fff;stroke-width:10px;"/>
  <circle cx="266.667" cy="242.167" r="166.667" style="fill:#171c1f;stroke:#fff;stroke-width:10px;"/>
  <text x="141.28px" y="271.993px" style="font-family:'ArialMT', 'Arial', sans-serif;font-size:83.333px;fill:#fff;">
    Cooler
  </text>
</svg>
