<?xml version="1.0" encoding="UTF-8" standalone="no"?>
<!DOCTYPE svg PUBLIC "-//W3C//DTD SVG 1.1//EN" "http://www.w3.org/Graphics/SVG/1.1/DTD/svg11.dtd">
<svg height="100%"
     style="fill-rule:evenodd;clip-rule:evenodd;stroke-linecap:round;stroke-linejoin:round;stroke-miterlimit:1.5;"
     version="1.1" viewBox="0 0 534 534" width="100%"
     xmlns="http://www.w3.org/2000/svg">
  <rect height="533.333" id="CPU-Cooler" style="fill:none;" width="533.333" x="0" y="0.507"/>
  <path d="M219.167,440.833c-28.204,-5.942 -52.801,-17.926 -65.167,-51l0,-309.333"
        style="fill:none;stroke:#fff;stroke-width:10px;"/>
  <path d="M314.167,440.833c28.204,-5.942 52.8,-17.926 65.166,-51l0,-309.333"
        style="fill:none;stroke:#fff;stroke-width:10px;"/>
  <path d="M219.167,440.833c-15.904,-0.87 -30.935,-20.916 -31.584,-51l0,-309.333"
        style="fill:none;stroke:#fff;stroke-width:10px;"/>
  <path d="M314.167,440.833c15.903,-0.87 30.934,-20.916 31.583,-51l0,-309.333"
        style="fill:none;stroke:#fff;stroke-width:10px;"/>
  <rect height="295.333" style="fill:#171c1f;stroke:#fff;stroke-width:10px;" width="295.333" x="119" y="94.5"/>
  <rect height="25" style="fill:#171c1f;stroke:#fff;stroke-width:10px;" width="95" x="219.167" y="427.5"/>
  <circle cx="266.667" cy="242.167" r="166.667" style="fill:none;stroke:#fff;stroke-width:10px;"/>
  <circle cx="266.667" cy="242.167" r="166.667" style="fill:#171c1f;stroke:#fff;stroke-width:10px;"/>
  <text style="font-family:'ArialMT', 'Arial', sans-serif;font-size:83.333px;fill:#fff;" x="141.28px" y="271.993px">
    Cooler
  </text>
</svg>
