<?xml version="1.0" encoding="UTF-8" standalone="no"?>
<!-- Created with Inkscape (http://www.inkscape.org/) -->

<svg
   width="128"
   height="128"
   viewBox="0 0 128 128"
   version="1.1"
   id="svg5"
   inkscape:version="1.1 (c68e22c387, 2021-05-23)"
   sodipodi:docname="github_icon.svg"
   xmlns:inkscape="http://www.inkscape.org/namespaces/inkscape"
   xmlns:sodipodi="http://sodipodi.sourceforge.net/DTD/sodipodi-0.dtd"
   xmlns="http://www.w3.org/2000/svg"
   xmlns:svg="http://www.w3.org/2000/svg">
  <sodipodi:namedview
     id="namedview7"
     pagecolor="#0f0f0f"
     bordercolor="#eeeeee"
     borderopacity="1"
     inkscape:pageshadow="0"
     inkscape:pageopacity="0"
     inkscape:pagecheckerboard="0"
     inkscape:document-units="px"
     showgrid="false"
     viewbox-height="128"
     inkscape:zoom="3.5"
     inkscape:cx="81.428571"
     inkscape:cy="81.285714"
     inkscape:window-width="1920"
     inkscape:window-height="1017"
     inkscape:window-x="1912"
     inkscape:window-y="32"
     inkscape:window-maximized="1"
     inkscape:current-layer="layer1" />
  <defs
     id="defs2" />
  <g
     inkscape:label="Ebene 1"
     inkscape:groupmode="layer"
     id="layer1">
    <path
       d="M 106.88013,-1.49e-6 H 21.120093 c -7.232051,0 -13.1201275,5.88793199 -13.1201275,13.18409849 v 86.527824 c 0,7.296169 5.8880765,13.184109 13.1201275,13.184109 h 72.57607 l -3.39207,-11.83997 8.191901,7.61589 7.744066,7.1681 L 120.00003,128 V 13.184097 c 0,-7.2961665 -5.88794,-13.18409849 -13.1199,-13.18409849 z M 82.175933,83.583921 c 0,0 -2.30383,-2.75187 -4.223929,-5.18388 8.38405,-2.36804 11.584069,-7.61602 11.584069,-7.61602 -2.62406,1.72796 -5.12003,2.9439 -7.36014,3.77602 -3.1999,1.34402 -6.27187,2.23997 -9.27988,2.75187 -6.144073,1.15248 -11.776126,0.83262 -16.576056,-0.0622 -3.647934,-0.70442 -6.784016,-1.72809 -9.407949,-2.752 -1.472069,-0.57623 -3.072068,-1.27991 -4.671967,-2.176 -0.191649,-0.1282 -0.384581,-0.19168 -0.576262,-0.31862 -0.128095,-0.0622 -0.191648,-0.1282 -0.256189,-0.19168 -1.15249,-0.63971 -1.791943,-1.08776 -1.791943,-1.08776 0,0 3.071968,5.12004 11.19999,7.55193 -1.919971,2.43214 -4.288012,5.31207 -4.288012,5.31207 -14.14393,-0.44804 -19.519957,-9.72806 -19.519957,-9.72806 0,-20.60795 9.216037,-37.312065 9.216037,-37.312065 9.215905,-6.91184 17.983907,-6.719929 17.983907,-6.719929 l 0.639683,0.7679 c -11.519963,3.327981 -16.83191,8.383919 -16.83191,8.383919 0,0 1.407987,-0.7679 3.776028,-1.855902 6.848095,-3.008125 12.288005,-3.840118 14.527984,-4.032158 0.384548,-0.06224 0.704422,-0.128194 1.087751,-0.128194 3.903959,-0.510271 8.319799,-0.639706 12.927954,-0.128193 6.079981,0.704425 12.608011,2.495983 19.263961,6.144068 0,0 -5.05596,-4.799933 -15.9361,-8.128035 l 0.8961,-1.02428 c 0,0 8.76823,-0.191682 17.98414,6.719928 0,0 9.216037,16.704121 9.216037,37.312071 0,0 -5.440007,9.28001 -19.584177,9.72805 z M 52.416039,53.695961 c -3.647966,0 -6.528023,3.20003 -6.528023,7.104 0,3.90409 2.944038,7.104 6.528023,7.104 3.647967,0 6.528023,-3.19991 6.528023,-7.104 0.06224,-3.90397 -2.880057,-7.104 -6.528023,-7.104 m 23.360065,0 c -3.648067,0 -6.527992,3.20003 -6.527992,7.104 0,3.90409 2.94401,7.104 6.527992,7.104 3.64797,0 6.52789,-3.19991 6.52789,-7.104 0,-3.90397 -2.87992,-7.104 -6.52789,-7.104"
       fill="#7289DA"
       id="path1071"
       inkscape:connector-curvature="0"
       style="display:inline;fill:#e5e5e5;fill-opacity:1;stroke-width:0.437501" />
  </g>
</svg>
