<svg xmlns="http://www.w3.org/2000/svg" viewBox="0 0 128 128"><path fill="#e5e5e5" d="M63.9974 1.582988c-35.340114 0-63.99742 28.651755-63.99742 63.997125 0 28.2757 18.337248 52.264587 43.76523 60.726977 3.19847.5931 4.37257-1.38816 4.37257-3.0787 0-1.52613-.0711-6.56732-.0854-11.91516-17.804047 3.87149-21.560887-7.55069-21.560887-7.55069-2.911144-7.397227-7.10564-9.364127-7.10564-9.364127-5.806559-3.97204.43807-3.8904.43807-3.8904 6.426351.45229 9.810262 6.59505 9.810262 6.59505 5.707964 9.783697 14.971255 6.955167 18.623285 5.319957.57321-4.136187 2.23287-6.959587 4.06324-8.557677-14.214745-1.61829-29.157545-7.1058-29.157545-31.62749 0-6.98731 2.499981-12.696133 6.593925-17.178077-.662806-1.612034-2.855111-8.120892.621523-16.936009 0 0 5.374172-1.720126 17.603917 6.559921 5.10507-1.418031 10.57964-2.129035 16.01835-2.153499 5.43871.0286 10.91769.735329 16.03213 2.153499 12.21484-8.280047 17.58175-6.559921 17.58175-6.559921 3.48334 8.815117 1.29145 15.323975.62725 16.936009 4.10331 4.481944 6.58621 10.190767 6.58621 17.178077 0 24.58015-14.9714 29.99227-29.22197 31.57671 2.29545 1.98596 4.34088 5.88063 4.34088 11.851297 0 8.56308-.0711 15.45468-.0711 17.56253 0 1.70306 1.15205 3.69854 4.39575 3.07017 25.41432-8.47178 43.72824-32.452277 43.72824-60.718447 0-35.34537-28.65302-63.997125-63.99626-63.997125zM23.96895 92.748273c-.142247.31716-.641431.41246-1.096585.19485-.465089-.20908-.725349-.64287-.573167-.96289.142247-.32713.640038-.41816 1.102268-.19911.465089.20908.731069.64714.568914.96574zm3.148111 2.80903c-.305945.28303-.903159.15076-1.307097-.29443-.418124-.44517-.496361-1.04396-.187781-1.32985.314224-.28302.893186-.14932 1.312779.29443.418125.4523.500613 1.04397.180631 1.32985zm2.159641 3.59372c-.391143.27167-1.032612.0117-1.4297-.55185-.391143-.57034-.391143-1.25162.01129-1.52513.396825-.27309 1.029752-.0286 1.430679.53621.389713.57887.389713 1.26157-.0075 1.53978zm3.652299 4.162357c-.351103.38686-1.098015.28302-1.644878-.24465-.55898-.51629-.713985-1.24877-.362769-1.63535.354114-.38687 1.107988-.27878 1.657711.24464.55612.51487.725349 1.25304.351479 1.63536zm4.720322 1.40523c-.155042.50207-.874709.72821-1.599231.51629-.723957-.21905-1.197551-.80644-1.052481-1.31278.149398-.50349.87328-.74244 1.603634-.51345.722527.21762 1.196159.80076 1.046799 1.31136zm5.371877.59594c.0301.52767-.595935.96574-1.356884.97569-.765164.0117-1.383865-.40962-1.392408-.92876 0-.53193.601617-.96574 1.365388-.97853.760949-.0117 1.383904.40819 1.383904.93444zm5.27746-.20054c.0854.51487-.43807 1.04397-1.19334 1.18477-.74243.14225-1.43083-.18206-1.52513-.69266-.0854-.52767.44518-1.05676 1.18761-1.1933.7567-.12803 1.43384.17777 1.53026.70119z"/></svg>
