<?xml version="1.0" encoding="UTF-8" standalone="no"?>
<!-- Created with Inkscape (http://www.inkscape.org/) -->

<svg
   width="128"
   height="128"
   viewBox="0 0 128 128"
   version="1.1"
   id="svg5"
   inkscape:version="1.1 (c68e22c387, 2021-05-23)"
   sodipodi:docname="github_icon.svg"
   xmlns:inkscape="http://www.inkscape.org/namespaces/inkscape"
   xmlns:sodipodi="http://sodipodi.sourceforge.net/DTD/sodipodi-0.dtd"
   xmlns="http://www.w3.org/2000/svg"
   xmlns:svg="http://www.w3.org/2000/svg">
  <sodipodi:namedview
     id="namedview7"
     pagecolor="#0f0f0f"
     bordercolor="#eeeeee"
     borderopacity="1"
     inkscape:pageshadow="0"
     inkscape:pageopacity="0"
     inkscape:pagecheckerboard="0"
     inkscape:document-units="px"
     showgrid="false"
     viewbox-height="128"
     inkscape:zoom="3.5"
     inkscape:cx="68.571429"
     inkscape:cy="81.285714"
     inkscape:window-width="1920"
     inkscape:window-height="1017"
     inkscape:window-x="1912"
     inkscape:window-y="32"
     inkscape:window-maximized="1"
     inkscape:current-layer="layer1" />
  <defs
     id="defs2" />
  <g
     inkscape:label="Ebene 1"
     inkscape:groupmode="layer"
     id="layer1">
    <path
       d="m 63.9974,1.582988 c -35.340114,0 -63.99742,28.651755 -63.99742,63.997125 0,28.2757 18.337248,52.264587 43.76523,60.726977 3.19847,0.5931 4.37257,-1.38816 4.37257,-3.0787 0,-1.52613 -0.0711,-6.56732 -0.0854,-11.91516 -17.804047,3.87149 -21.560887,-7.55069 -21.560887,-7.55069 -2.911144,-7.397227 -7.10564,-9.364127 -7.10564,-9.364127 -5.806559,-3.97204 0.43807,-3.8904 0.43807,-3.8904 6.426351,0.45229 9.810262,6.59505 9.810262,6.59505 5.707964,9.783697 14.971255,6.955167 18.623285,5.319957 0.57321,-4.136187 2.23287,-6.959587 4.06324,-8.557677 -14.214745,-1.61829 -29.157545,-7.1058 -29.157545,-31.62749 0,-6.98731 2.499981,-12.696133 6.593925,-17.178077 -0.662806,-1.612034 -2.855111,-8.120892 0.621523,-16.936009 0,0 5.374172,-1.720126 17.603917,6.559921 5.10507,-1.418031 10.57964,-2.129035 16.01835,-2.153499 5.43871,0.0286 10.91769,0.735329 16.03213,2.153499 12.21484,-8.280047 17.58175,-6.559921 17.58175,-6.559921 3.48334,8.815117 1.29145,15.323975 0.62725,16.936009 4.10331,4.481944 6.58621,10.190767 6.58621,17.178077 0,24.58015 -14.9714,29.99227 -29.22197,31.57671 2.29545,1.98596 4.34088,5.88063 4.34088,11.851297 0,8.56308 -0.0711,15.45468 -0.0711,17.56253 0,1.70306 1.15205,3.69854 4.39575,3.07017 25.41432,-8.47178 43.72824,-32.452277 43.72824,-60.718447 0,-35.34537 -28.65302,-63.997125 -63.99626,-63.997125 z M 23.96895,92.748273 c -0.142247,0.31716 -0.641431,0.41246 -1.096585,0.19485 -0.465089,-0.20908 -0.725349,-0.64287 -0.573167,-0.96289 0.142247,-0.32713 0.640038,-0.41816 1.102268,-0.19911 0.465089,0.20908 0.731069,0.64714 0.568914,0.96574 z m 3.148111,2.80903 c -0.305945,0.28303 -0.903159,0.15076 -1.307097,-0.29443 -0.418124,-0.44517 -0.496361,-1.04396 -0.187781,-1.32985 0.314224,-0.28302 0.893186,-0.14932 1.312779,0.29443 0.418125,0.4523 0.500613,1.04397 0.180631,1.32985 z m 2.159641,3.59372 c -0.391143,0.27167 -1.032612,0.0117 -1.4297,-0.55185 -0.391143,-0.57034 -0.391143,-1.25162 0.01129,-1.52513 0.396825,-0.27309 1.029752,-0.0286 1.430679,0.53621 0.389713,0.57887 0.389713,1.26157 -0.0075,1.53978 z m 3.652299,4.162357 c -0.351103,0.38686 -1.098015,0.28302 -1.644878,-0.24465 -0.55898,-0.51629 -0.713985,-1.24877 -0.362769,-1.63535 0.354114,-0.38687 1.107988,-0.27878 1.657711,0.24464 0.55612,0.51487 0.725349,1.25304 0.351479,1.63536 z m 4.720322,1.40523 c -0.155042,0.50207 -0.874709,0.72821 -1.599231,0.51629 -0.723957,-0.21905 -1.197551,-0.80644 -1.052481,-1.31278 0.149398,-0.50349 0.87328,-0.74244 1.603634,-0.51345 0.722527,0.21762 1.196159,0.80076 1.046799,1.31136 z m 5.371877,0.59594 c 0.0301,0.52767 -0.595935,0.96574 -1.356884,0.97569 -0.765164,0.0117 -1.383865,-0.40962 -1.392408,-0.92876 0,-0.53193 0.601617,-0.96574 1.365388,-0.97853 0.760949,-0.0117 1.383904,0.40819 1.383904,0.93444 z m 5.27746,-0.20054 c 0.0854,0.51487 -0.43807,1.04397 -1.19334,1.18477 -0.74243,0.14225 -1.43083,-0.18206 -1.52513,-0.69266 -0.0854,-0.52767 0.44518,-1.05676 1.18761,-1.1933 0.7567,-0.12803 1.43384,0.17777 1.53026,0.70119 z"
       fill="#161614"
       id="path1097"
       inkscape:connector-curvature="0"
       style="display:inline;fill:#e5e5e5;fill-opacity:1;stroke-width:0.499974" />
  </g>
</svg>
