<svg xmlns="http://www.w3.org/2000/svg" viewBox="0 0 128 128"><path fill="#e5e5e5" d="M113.23381 127.99992H14.766185C6.6120195 127.99992-5e-7 121.38576-5e-7 113.22591V14.766264C-5e-7 6.6108255 6.6120195.0000815 14.766185.0000815h98.467625C121.38922.0000815 128 6.6108255 128 14.766264v98.459646c0 8.15985-6.61078 14.77401-14.76619 14.77401zM63.999511 39.3832c-13.595746 0-24.615515 11.018524-24.615515 24.614519 0 13.59344 11.019769 24.61794 24.615515 24.61794 13.59571 0 24.61762-11.0245 24.61762-24.61794 0-13.595995-11.02191-24.614519-24.61762-24.614519zm49.234299-19.694403c0-2.717579-2.20509-4.922533-4.92795-4.922533H93.53952c-2.719399 0-4.922389 2.204954-4.922389 4.922533v14.771725c0 2.717437 2.20299 4.922678 4.92239 4.922678h14.766339c2.72286 0 4.92795-2.205241 4.92795-4.922678zm0 34.459444h-11.14313c.81217 3.151547 1.29151 6.444467 1.29151 9.849478 0 21.75485-17.631529 39.385401-39.382679 39.385401-21.750024 0-39.382867-17.630551-39.382867-39.385401 0-3.405011.480768-6.69793 1.292937-9.849478h-11.14396v54.158409c0 2.71502 2.205098 4.91926 4.928221 4.91926h88.611448c2.72286 0 4.92796-2.20424 4.92796-4.91926z"/></svg>
