<svg xmlns="http://www.w3.org/2000/svg" viewBox="0 0 128 128"><path fill="#e5e5e5" d="M127.99565 24.30454c-4.70929 2.088531-9.77032 3.500037-15.08236 4.134819 5.422-3.249994 9.58539-8.396222 11.54607-14.52783-5.07353 3.008912-10.6937 5.1943-16.67511 6.372261-4.79049-5.103557-11.615074-8.292817-19.167544-8.292817-14.50282 0-26.26053 11.757443-26.26053 26.259243 0 2.058094.23331 4.062423.67986 5.984259-21.82461-1.095186-41.173964-11.549642-54.1257047-27.436783-2.260337 3.878519-3.555221 8.389397-3.555221 13.201806 0 9.110225 4.636317 17.147881 11.6823337 21.856888-4.304778-.142213-8.3538467-1.317065-11.8945417-3.284273-.0018.09957-.0018.220449-.0018.329996 0 12.723196 9.0518847 23.336813 21.0647787 25.748774-2.203738.60022-4.523684.92024-6.918706.92024-1.692129 0-3.337331-.16216-4.940272-.47079 3.341432 10.43298 13.039233 18.02489 24.530133 18.23709-8.98709 7.042757-20.309839 11.241007-32.6127648 11.241007-2.119668 0-4.2099069-.12802-6.26428295-.36695C11.62132 111.662 25.4246 116.00903 40.254106 116.00903c48.30088 0 74.713754-40.013768 74.713754-74.714747 0-1.137856-.0568-2.271156-.0711-3.396921 5.13032-3.702577 9.58257-8.327808 13.10325-13.593654"/></svg>
