<?xml version="1.0" encoding="UTF-8" standalone="no"?>
<!-- Created with Inkscape (http://www.inkscape.org/) -->

<svg
   width="128"
   height="128"
   viewBox="0 0 128 128"
   version="1.1"
   id="svg5"
   inkscape:version="1.1 (c68e22c387, 2021-05-23)"
   sodipodi:docname="twitter_icon.svg"
   xmlns:inkscape="http://www.inkscape.org/namespaces/inkscape"
   xmlns:sodipodi="http://sodipodi.sourceforge.net/DTD/sodipodi-0.dtd"
   xmlns="http://www.w3.org/2000/svg"
   xmlns:svg="http://www.w3.org/2000/svg">
  <sodipodi:namedview
     id="namedview7"
     pagecolor="#0f0f0f"
     bordercolor="#eeeeee"
     borderopacity="1"
     inkscape:pageshadow="0"
     inkscape:pageopacity="0"
     inkscape:pagecheckerboard="0"
     inkscape:document-units="px"
     showgrid="false"
     viewbox-height="128"
     inkscape:zoom="3.5"
     inkscape:cx="68.571429"
     inkscape:cy="81.285714"
     inkscape:window-width="1920"
     inkscape:window-height="1017"
     inkscape:window-x="1912"
     inkscape:window-y="32"
     inkscape:window-maximized="1"
     inkscape:current-layer="layer1" />
  <defs
     id="defs2" />
  <g
     inkscape:label="Ebene 1"
     inkscape:groupmode="layer"
     id="layer1">
    <path
       style="display:inline;fill:#e5e5e5;fill-opacity:1;stroke-width:0.499981"
       inkscape:connector-curvature="0"
       id="path1311"
       fill="#55acee"
       d="m 127.99565,24.30454 c -4.70929,2.088531 -9.77032,3.500037 -15.08236,4.134819 5.422,-3.249994 9.58539,-8.396222 11.54607,-14.52783 -5.07353,3.008912 -10.6937,5.1943 -16.67511,6.372261 -4.79049,-5.103557 -11.615074,-8.292817 -19.167544,-8.292817 -14.50282,0 -26.26053,11.757443 -26.26053,26.259243 0,2.058094 0.23331,4.062423 0.67986,5.984259 C 41.211426,43.139289 21.862072,32.684833 8.9103313,16.797692 c -2.260337,3.878519 -3.555221,8.389397 -3.555221,13.201806 0,9.110225 4.636317,17.147881 11.6823337,21.856888 -4.304778,-0.142213 -8.3538467,-1.317065 -11.8945417,-3.284273 -0.0018,0.09957 -0.0018,0.220449 -0.0018,0.329996 0,12.723196 9.0518847,23.336813 21.0647787,25.748774 -2.203738,0.60022 -4.523684,0.92024 -6.918706,0.92024 -1.692129,0 -3.337331,-0.16216 -4.940272,-0.47079 3.341432,10.43298 13.039233,18.02489 24.530133,18.23709 -8.98709,7.042757 -20.309839,11.241007 -32.6127648,11.241007 -2.119668,0 -4.2099069,-0.12802 -6.26428295,-0.36695 C 11.62132,111.662 25.4246,116.00903 40.254106,116.00903 c 48.30088,0 74.713754,-40.013768 74.713754,-74.714747 0,-1.137856 -0.0568,-2.271156 -0.0711,-3.396921 5.13032,-3.702577 9.58257,-8.327808 13.10325,-13.593654" />
  </g>
</svg>
