<svg xmlns="http://www.w3.org/2000/svg" viewBox="0 0 128 128"><g fill="#e5e5e5"><path fill="#000" d="m50.8 80.59999552 34.6-17.89999463-34.6-18.04999458Z"/><path d="m50.8 44.6500063 30.35 20.24999393 4.25-2.19999934z" opacity=".12"/><path d="M126.650525 38.40000818s-1.24951-8.79999736-5.098005-12.69999619c-4.84811-5.09999847-10.29598-5.09999847-12.844985-5.39999838C90.864505 19.000014 64.02499 19.000014 64.02499 19.000014h-.05s-26.839516 0-44.782507 1.29999961c-2.499004.29999991-7.946876.29999991-12.8449625 5.39999838-3.7985162 3.89999883-5.0480281 12.69999619-5.0480281 12.69999619S0 48.80000506 0 59.15000196v9.69999709c0 10.34999689 1.2994924 20.69999379 1.2994924 20.69999379s1.2495119 8.79999736 5.0980086 12.69999619c4.848106 5.09999847 11.245607 4.94999851 14.0944945 5.44999836 10.2459975.9999997 43.4830145 1.29999961 43.4830145 1.29999961s26.889495-.04999998 44.782505-1.3499996c2.499025-.2999999 7.946895-.2999999 12.844985-5.39999837 3.848495-3.89999883 5.098005-12.6999962 5.098005-12.6999962S128 79.19999595 128 68.84999906v-9.6999971c-.05-10.34999689-1.349475-20.74999377-1.349475-20.74999377Zm-75.87036 42.19998734V44.65000631l34.58649 18.04999458z"/></g></svg>
