<?xml version="1.0" encoding="UTF-8" standalone="no"?>
<!-- Created with Inkscape (http://www.inkscape.org/) -->

<svg
   width="128"
   height="128"
   viewBox="0 0 128 128"
   version="1.1"
   id="svg5"
   inkscape:version="1.1 (c68e22c387, 2021-05-23)"
   sodipodi:docname="youtube_icon.svg"
   xmlns:inkscape="http://www.inkscape.org/namespaces/inkscape"
   xmlns:sodipodi="http://sodipodi.sourceforge.net/DTD/sodipodi-0.dtd"
   xmlns="http://www.w3.org/2000/svg"
   xmlns:svg="http://www.w3.org/2000/svg">
  <sodipodi:namedview
     id="namedview7"
     pagecolor="#0f0f0f"
     bordercolor="#eeeeee"
     borderopacity="1"
     inkscape:pageshadow="0"
     inkscape:pageopacity="0"
     inkscape:pagecheckerboard="0"
     inkscape:document-units="px"
     showgrid="false"
     viewbox-height="128"
     inkscape:zoom="3.5"
     inkscape:cx="68.571429"
     inkscape:cy="81.285714"
     inkscape:window-width="1920"
     inkscape:window-height="1017"
     inkscape:window-x="1912"
     inkscape:window-y="32"
     inkscape:window-maximized="1"
     inkscape:current-layer="layer1" />
  <defs
     id="defs2" />
  <g
     inkscape:label="Ebene 1"
     inkscape:groupmode="layer"
     id="layer1">
    <g
       style="display:inline;fill:#e5e5e5;fill-opacity:1"
       transform="matrix(0.5,0,0,0.49999985,0,19.000014)"
       id="g1361">
      <path
         style="fill:#000000;fill-opacity:1"
         inkscape:connector-curvature="0"
         id="path1355"
         fill="#FFFFFF"
         d="M 101.6,123.2 170.8,87.4 101.6,51.3 Z" />
      <path
         style="fill:#e5e5e5;fill-opacity:1"
         inkscape:connector-curvature="0"
         id="path1357"
         fill="#420000"
         opacity="0.12"
         d="m 101.6,51.3 60.7,40.5 8.5,-4.4 z" />
      <path
         inkscape:connector-curvature="0"
         style="fill:#e5e5e5;fill-opacity:1"
         id="path1359"
         fill="url(#linearGradient-1)"
         d="m 253.30105,38.8 c 0,0 -2.49902,-17.6 -10.19601,-25.4 C 233.40882,3.2 222.51308,3.2 217.41507,2.6 181.72901,0 128.04998,0 128.04998,0 h -0.1 c 0,0 -53.679032,0 -89.565014,2.6 C 33.386958,3.2 22.491214,3.2 12.695041,13.4 5.0980086,21.2 2.5989848,38.8 2.5989848,38.8 2.5989848,38.8 0,59.6 0,80.3 v 19.4 c 0,20.7 2.5989848,41.4 2.5989848,41.4 0,0 2.4990238,17.6 10.1960172,25.4 9.696212,10.2 22.491214,9.9 28.188989,10.9 20.491995,2 86.966029,2.6 86.966029,2.6 0,0 53.77899,-0.1 89.56501,-2.7 4.99805,-0.6 15.89379,-0.6 25.68997,-10.8 7.69699,-7.8 10.19601,-25.4 10.19601,-25.4 0,0 2.59899,-20.7 2.59899,-41.4 V 80.3 C 255.9,59.6 253.30105,38.8 253.30105,38.8 Z M 101.56033,123.2 V 51.3 l 69.17298,36.1 z" />
    </g>
  </g>
</svg>
