<svg xmlns="http://www.w3.org/2000/svg" xmlns:xlink="http://www.w3.org/1999/xlink" id="svg8" width="128" height="128" version="1.1" viewBox="0 0 33.834 33.867"><defs id="defs2"><linearGradient id="linearGradient9620"><stop id="stop9622" offset="0" style="stop-color:#71d8c8;stop-opacity:1"/><stop id="stop9624" offset="1" style="stop-color:#37abc8;stop-opacity:1"/></linearGradient><linearGradient id="linearGradient9559"><stop id="stop9561" offset="0" style="stop-color:#000;stop-opacity:1"/><stop id="stop9563" offset="1" style="stop-color:#b3b3b3;stop-opacity:0"/></linearGradient><linearGradient id="linearGradient9565" x1="-265.342" x2="142.591" y1="369.167" y2="715.104" gradientTransform="matrix(1.3229959,0,0,1.3229959,602.62364,67.656379)" gradientUnits="userSpaceOnUse" xlink:href="#linearGradient9559"/><linearGradient id="linearGradient9626" x1="-468.774" x2="-312.594" y1="113.463" y2="542.221" gradientTransform="matrix(1.3281881,0,0,1.3281881,494.92413,349.52087)" gradientUnits="userSpaceOnUse" xlink:href="#linearGradient9620"/></defs><metadata id="metadata5"/><g id="layer1" transform="translate(368.09796,-92.882909)"><g id="layer1-8" transform="matrix(0.17090754,0,0,0.17393082,-369.22315,83.666572)"><g id="layer1-1" transform="matrix(0.28222223,0,0,0.28222223,-1.9217258,-40.425672)"><path id="path9404" d="M 683.76755,521.6618 A 350.31098,336.36752 15.717379 0 1 554.90524,979.57088 350.31098,336.36752 15.717379 0 1 78.014433,845.36682 350.31098,336.36752 15.717379 0 1 206.87675,387.45775 350.31098,336.36752 15.717379 0 1 683.76755,521.6618 Z" style="opacity:1;fill:gray;fill-opacity:1;stroke:none;stroke-width:1.02404583"/><circle id="circle9406" cx="-8.044" cy="762.154" r="337.703" transform="rotate(-29.282621)" style="opacity:1;fill:url(#linearGradient9626);fill-opacity:1;stroke:none;stroke-width:1.00392461"/><path id="path9408" d="m 209.65141,558.58771 a 427.65683,427.65683 0 0 1 -6e-5,0.23759" transform="rotate(-29.282621)" style="opacity:1;fill:#000;fill-opacity:1;stroke:red;stroke-width:1.3229959"/><path id="path4136" d="m 586.60596,459.76553 a 427.65683,427.65683 0 0 1 -7e-5,0.2376" style="opacity:1;fill:#000;fill-opacity:1;stroke:red;stroke-width:1.3229959"/><path id="path9524" d="M 527.80719,497.17527 203.60343,826.59866 383.75568,1006.7509 a 336.38333,336.38333 0 0 0 147.45461,-42.14724 336.38333,336.38333 0 0 0 171.64579,-292.3795 z" style="fill:url(#linearGradient9565);fill-opacity:1;fill-rule:evenodd;stroke:none;stroke-width:1px;stroke-linecap:butt;stroke-linejoin:miter;stroke-opacity:1"/><g id="g9529" transform="matrix(1.3420593,0,0,1.3420593,368.9106,663.33189)" style="fill:#37abc8;fill-opacity:1;stroke:none;stroke-width:5;stroke-miterlimit:4;stroke-dasharray:none"><g id="g9531" style="fill:#37abc8;fill-opacity:1;stroke:none;stroke-width:5;stroke-miterlimit:4;stroke-dasharray:none"><ellipse id="ellipse9533" cx="0" cy="0" rx="48.501" ry="172.1" transform="rotate(1.0293546)" style="fill:#37abc8;fill-opacity:1;stroke:none;stroke-width:5;stroke-miterlimit:4;stroke-dasharray:none"/><ellipse id="ellipse9535" cx="0" cy="0" rx="150.82" ry="172.1" transform="rotate(6.3888512)" style="fill:#37abc8;fill-opacity:1;stroke:none;stroke-width:5;stroke-miterlimit:4;stroke-dasharray:none"/><ellipse id="ellipse9537" cx="0" cy="0" rx="164.791" ry="172.1" transform="rotate(-11.718409)" style="fill:#37abc8;fill-opacity:1;stroke:none;stroke-width:5;stroke-miterlimit:4;stroke-dasharray:none"/><ellipse id="ellipse9539" cx="0" cy="0" rx="82.23" ry="172.1" transform="rotate(-1.9063715)" style="fill:#37abc8;fill-opacity:1;stroke:none;stroke-width:5;stroke-miterlimit:4;stroke-dasharray:none"/></g><g id="g9541" style="fill:#37abc8;fill-opacity:1;stroke:none;stroke-width:5;stroke-miterlimit:4;stroke-dasharray:none"><ellipse id="ellipse9543" cx="0" cy="158.703" rx="65.86" ry="4.022" style="fill:#37abc8;fill-opacity:1;stroke:none;stroke-width:5;stroke-miterlimit:4;stroke-dasharray:none"/><ellipse id="ellipse9545" cx="0" cy="121.466" rx="121.693" ry="7.43" style="fill:#37abc8;fill-opacity:1;stroke:none;stroke-width:5;stroke-miterlimit:4;stroke-dasharray:none"/><ellipse id="ellipse9547" cx="0" cy="65.737" rx="159" ry="9.708" style="fill:#37abc8;fill-opacity:1;stroke:none;stroke-width:5;stroke-miterlimit:4;stroke-dasharray:none"/><ellipse id="ellipse9549" cx="0" cy="0" rx="172.1" ry="10.507" style="fill:#37abc8;fill-opacity:1;stroke:none;stroke-width:5;stroke-miterlimit:4;stroke-dasharray:none"/><ellipse id="ellipse9551" cx="0" cy="-65.737" rx="159" ry="9.708" style="fill:#37abc8;fill-opacity:1;stroke:none;stroke-width:5;stroke-miterlimit:4;stroke-dasharray:none"/><ellipse id="ellipse9553" cx="0" cy="-121.466" rx="121.693" ry="7.43" style="fill:#37abc8;fill-opacity:1;stroke:none;stroke-width:5;stroke-miterlimit:4;stroke-dasharray:none"/><ellipse id="ellipse9555" cx="0" cy="-158.703" rx="65.86" ry="4.022" style="fill:#37abc8;fill-opacity:1;stroke:none;stroke-width:5;stroke-miterlimit:4;stroke-dasharray:none"/></g><circle id="circle9557" cx="0" cy="0" r="172.1" style="fill:#37abc8;fill-opacity:1;stroke:none;stroke-width:5;stroke-miterlimit:4;stroke-dasharray:none"/></g><g id="g9040" transform="matrix(1.3229959,0,0,1.3229959,368.9106,663.33189)" style="stroke:#afdde9;stroke-width:5;stroke-miterlimit:4;stroke-dasharray:none"><g id="g9042" style="stroke:#afdde9;stroke-width:5;stroke-miterlimit:4;stroke-dasharray:none"><ellipse id="path9044" cx="0" cy="0" rx="48.501" ry="172.1" transform="rotate(1.0293546)" style="fill:none;stroke:#afdde9;stroke-width:5;stroke-miterlimit:4;stroke-dasharray:none"/><ellipse id="path9046" cx="0" cy="0" rx="150.82" ry="172.1" transform="rotate(6.3888512)" style="fill:none;stroke:#afdde9;stroke-width:5;stroke-miterlimit:4;stroke-dasharray:none"/><ellipse id="path9048" cx="0" cy="0" rx="164.791" ry="172.1" transform="rotate(-11.718409)" style="fill:none;stroke:#afdde9;stroke-width:5;stroke-miterlimit:4;stroke-dasharray:none"/><ellipse id="path9050" cx="0" cy="0" rx="82.23" ry="172.1" transform="rotate(-1.9063715)" style="fill:none;stroke:#afdde9;stroke-width:5;stroke-miterlimit:4;stroke-dasharray:none"/></g><g id="g9052" style="stroke:#afdde9;stroke-width:5;stroke-miterlimit:4;stroke-dasharray:none"><ellipse id="path9054" cx="0" cy="158.703" rx="65.86" ry="4.022" style="fill:none;stroke:#afdde9;stroke-width:5;stroke-miterlimit:4;stroke-dasharray:none"/><ellipse id="path9056" cx="0" cy="121.466" rx="121.693" ry="7.43" style="fill:none;stroke:#afdde9;stroke-width:5;stroke-miterlimit:4;stroke-dasharray:none"/><ellipse id="path9058" cx="0" cy="65.737" rx="159" ry="9.708" style="fill:none;stroke:#afdde9;stroke-width:5;stroke-miterlimit:4;stroke-dasharray:none"/><ellipse id="path9060" cx="0" cy="0" rx="172.1" ry="10.507" style="fill:none;stroke:#afdde9;stroke-width:5;stroke-miterlimit:4;stroke-dasharray:none"/><ellipse id="path9062" cx="0" cy="-65.737" rx="159" ry="9.708" style="fill:none;stroke:#afdde9;stroke-width:5;stroke-miterlimit:4;stroke-dasharray:none"/><ellipse id="path9064" cx="0" cy="-121.466" rx="121.693" ry="7.43" style="fill:none;stroke:#afdde9;stroke-width:5;stroke-miterlimit:4;stroke-dasharray:none"/><ellipse id="path9066" cx="0" cy="-158.703" rx="65.86" ry="4.022" style="fill:none;stroke:#afdde9;stroke-width:5;stroke-miterlimit:4;stroke-dasharray:none"/></g><circle id="path9068" cx="0" cy="0" r="172.1" style="fill:none;stroke:#afdde9;stroke-width:5;stroke-miterlimit:4;stroke-dasharray:none"/></g></g></g></g></svg>