<?xml version="1.0" encoding="UTF-8"?><svg width="128" height="128" version="1.1" viewBox="0 0 128 128" xmlns="http://www.w3.org/2000/svg" xmlns:cc="http://creativecommons.org/ns#" xmlns:dc="http://purl.org/dc/elements/1.1/" xmlns:rdf="http://www.w3.org/1999/02/22-rdf-syntax-ns#"><metadata><rdf:RDF><cc:Work rdf:about=""><dc:format>image/svg+xml</dc:format><dc:type rdf:resource="http://purl.org/dc/dcmitype/StillImage"/><dc:title/></cc:Work></rdf:RDF></metadata><g data-name="Gruppe 1296"><g fill="none" stroke-linecap="square" data-name="Pfad 12911"><path d="M30 68h68a30 30 0 0 1 0 60H30a30 30 0 0 1 0-60Z"/><path d="m30 78c-11.028 0-20 8.972-20 20s8.972 20 20 20h68c11.028 0 20-8.972 20-20s-8.972-20-20-20h-68m0-10h68c16.569 0 30 13.431 30 30s-13.431 30-30 30h-68c-16.569 0-30-13.431-30-30s13.431-30 30-30z" fill="#fff"/></g><g fill="#fff" stroke-linecap="square" data-name="Pfad 12910"><path d="M98 55H30c-3.377 0-6.65-.66-9.73-1.962a24.922 24.922 0 0 1-7.948-5.36 24.924 24.924 0 0 1-5.36-7.948A24.84 24.84 0 0 1 5 30a24.923 24.923 0 0 1 7.322-17.677 24.923 24.923 0 0 1 7.948-5.36A24.837 24.837 0 0 1 30 5h68a24.924 24.924 0 0 1 17.677 7.322 24.923 24.923 0 0 1 5.36 7.948A24.837 24.837 0 0 1 123 30a24.924 24.924 0 0 1-7.322 17.678 24.922 24.922 0 0 1-7.949 5.36A24.837 24.837 0 0 1 98 55Zm0-45c-11.028 0-20 8.972-20 20s8.972 20 20 20 20-8.972 20-20-8.972-20-20-20Z"/><path d="M83.016 50C76.938 45.435 73 38.17 73 30s3.938-15.435 10.016-20H30c-2.705 0-5.323.527-7.782 1.568a19.946 19.946 0 0 0-6.36 4.29 19.947 19.947 0 0 0-4.29 6.36A19.865 19.865 0 0 0 10 30c0 2.704.527 5.323 1.568 7.782a19.947 19.947 0 0 0 4.29 6.36 19.945 19.945 0 0 0 6.36 4.29A19.864 19.864 0 0 0 30 50h53.016M98 60H30a29.9 29.9 0 0 1-21.213-8.787A29.9 29.9 0 0 1 0 30c0-4.05.793-7.979 2.358-11.677a29.9 29.9 0 0 1 6.429-9.536A29.9 29.9 0 0 1 30 0h68c4.05 0 7.979.793 11.677 2.358a29.9 29.9 0 0 1 9.536 6.429A29.9 29.9 0 0 1 128 30c0 4.05-.793 7.979-2.358 11.677a29.9 29.9 0 0 1-6.429 9.536A29.9 29.9 0 0 1 98 60Zm0-45c-8.271 0-15 6.729-15 15 0 8.27 6.729 15 15 15s15-6.73 15-15c0-8.271-6.729-15-15-15Z"/></g><path d="m30 83a15 15 0 1 1-15 15 15 15 0 0 1 15-15z" fill="#fff" data-name="Pfad 12912"/></g></svg>