<svg xmlns="http://www.w3.org/2000/svg" viewBox="0 0 363 363" fill-rule="evenodd" stroke-linecap="round"
     stroke-linejoin="round" stroke-miterlimit="1.5">
  <clipPath id="A">
    <path d="M0 0h362.835v362.835H0z"/>
  </clipPath>
  <g clip-path="url(#A)" stroke="#000" stroke-width=".13">
    <path
      d="M250.74 61.68l-.096-.166H112.19L42.965 181.417 112.19 301.32h138.452l69.226-119.903-.063-.1h42.965l.064.1-90.71 157.112H90.71L0 181.417 90.71 24.305h181.417l.096.167L250.74 61.68zM134.692 262.123l.065.112h93.32l46.66-80.818-46.66-80.817h-93.32L88.14 181.492H59.18l-.043-.075 61.14-105.897h122.28l61.14 105.897-61.14 105.898h-122.28l-.064-.112 14.48-25.08z"
      fill="url(#B)"/>
    <path
      d="M189.96 218.243v-24.578l-23.13-23.13V145.3a11.05 11.05 0 0 1-4.997-2.879 11.11 11.11 0 0 1 0-15.704 11.11 11.11 0 0 1 15.703 0 11.11 11.11 0 0 1 0 15.704 11.06 11.06 0 0 1-4.33 2.68v22.792l23.163 23.164-.033.033v27.152c1.708.5 3.317 1.438 4.664 2.786a11.11 11.11 0 0 1 0 15.703 11.11 11.11 0 0 1-15.704 0c-4.333-4.333-4.333-11.37 0-15.703a11.05 11.05 0 0 1 4.664-2.786z"
      fill="url(#B)"/>
  </g>
  <defs>
    <linearGradient id="B" x1="91.586" y1="24.305" x2="274.227" y2="338.529" gradientUnits="userSpaceOnUse">
      <stop offset="0" stop-color="#ff6100"/>
      <stop offset="1" stop-color="#632600"/>
    </linearGradient>
  </defs>
</svg>
