<svg xmlns="http://www.w3.org/2000/svg" xmlns:xlink="http://www.w3.org/1999/xlink" id="svg8" viewBox="0 0 33.66 33.85"><defs id="defs2"><linearGradient id="linear-gradient-33" x1="304.88" x2="328.14" y1="157.16" y2="157.16" gradientUnits="userSpaceOnUse"><stop id="stop40" offset="0" stop-color="#95c11f"/><stop id="stop42" offset=".67" stop-color="#3aaa35"/><stop id="stop44" offset="1" stop-color="#008d36"/></linearGradient><linearGradient id="linear-gradient-34" x1="304.88" x2="328.14" y1="195.99" y2="195.99" gradientTransform="translate(4.9 -140.38) scale(2.42372)" xlink:href="#linear-gradient-33"/><linearGradient id="linear-gradient-35" x1="293.14" x2="305.8" y1="171.38" y2="171.38" xlink:href="#linear-gradient-33"/><linearGradient id="linear-gradient-36" x1="30.59" x2="73.1" y1="131.66" y2="131.66" xlink:href="#linear-gradient-33"/><linearGradient id="linear-gradient-37" x1="0" x2="32.71" y1="145.15" y2="145.15" xlink:href="#linear-gradient-33"/><linearGradient id="linear-gradient-38" x1="0" x2="9.97" y1="173.45" y2="173.45" xlink:href="#linear-gradient-33"/><linearGradient id="linear-gradient-39" x1=".01" x2="27.62" y1="200.94" y2="200.94" xlink:href="#linear-gradient-33"/><linearGradient id="linear-gradient-40" x1="55.83" x2="84.07" y1="207.29" y2="207.29" xlink:href="#linear-gradient-33"/><linearGradient id="linear-gradient-41" x1="23.99" x2="65.67" y1="217.67" y2="217.67" xlink:href="#linear-gradient-33"/><linearGradient id="linear-gradient-42" x1="61" x2="84.19" y1="145.11" y2="145.11" xlink:href="#linear-gradient-33"/><linearGradient id="linear-gradient-43" x1="26.59" x2="65.68" y1="155.7" y2="155.7" xlink:href="#linear-gradient-33"/><linearGradient id="linear-gradient-44" x1="16.88" x2="73.9" y1="172.97" y2="172.97" xlink:href="#linear-gradient-33"/><linearGradient id="linear-gradient-45" x1="14.39" x2="42.52" y1="192.89" y2="192.89" xlink:href="#linear-gradient-33"/><linearGradient id="linear-gradient-46" x1="45.51" x2="79.12" y1="194.63" y2="194.63" xlink:href="#linear-gradient-33"/><linearGradient id="linear-gradient-47" x1="99.77" x2="118.38" y1="167.96" y2="167.96" gradientTransform="translate(4.9 -140.38) scale(2.42372)" xlink:href="#linear-gradient-33"/><linearGradient id="linear-gradient-48" x1="88.32" x2="102.06" y1="176.59" y2="176.59" gradientTransform="translate(4.9 -140.38) scale(2.42372)" xlink:href="#linear-gradient-33"/><linearGradient id="linear-gradient-49" x1="274.53" x2="288.01" y1="185.76" y2="185.76" xlink:href="#linear-gradient-33"/><linearGradient id="linear-gradient-50" x1="274.12" x2="288.41" y1="158.58" y2="158.58" xlink:href="#linear-gradient-33"/><linearGradient id="linear-gradient-51" x1="226.52" x2="269.94" y1="166.74" y2="166.74" gradientTransform="translate(4.9 -140.38) scale(2.42372)" xlink:href="#linear-gradient-33"/><linearGradient id="linear-gradient-52" x1="174.83" x2="222.37" y1="196.17" y2="196.17" gradientTransform="translate(4.9 -140.38) scale(2.42372)" xlink:href="#linear-gradient-33"/><linearGradient id="linear-gradient-53" x1="122.56" x2="171.21" y1="196.26" y2="196.26" gradientTransform="translate(4.9 -140.38) scale(2.42372)" xlink:href="#linear-gradient-33"/><linearGradient id="linearGradient4994" x1="304.88" x2="328.14" y1="157.16" y2="157.16" gradientTransform="translate(4.9 -140.38) scale(2.42372)" gradientUnits="userSpaceOnUse" xlink:href="#linear-gradient-33"/><linearGradient id="linear-gradient-38-7" x1="0" x2="9.97" y1="173.45" y2="173.45" gradientTransform="matrix(.91743 0 0 .91743 24.9 19.44)" xlink:href="#linear-gradient-33"/><linearGradient id="linear-gradient-39-7" x1=".01" x2="27.62" y1="200.94" y2="200.94" gradientTransform="matrix(.91743 0 0 .91743 24.9 19.44)" xlink:href="#linear-gradient-33"/><linearGradient id="linear-gradient-40-9" x1="55.83" x2="84.07" y1="207.29" y2="207.29" gradientTransform="matrix(.91743 0 0 .91743 24.9 19.44)" xlink:href="#linear-gradient-33"/><linearGradient id="linear-gradient-41-7" x1="23.99" x2="65.67" y1="217.67" y2="217.67" gradientTransform="matrix(.91743 0 0 .91743 24.9 19.44)" xlink:href="#linear-gradient-33"/><linearGradient id="linear-gradient-46-3" x1="45.51" x2="79.12" y1="194.63" y2="194.63" gradientTransform="matrix(.91743 0 0 .91743 24.9 19.44)" xlink:href="#linear-gradient-33"/><linearGradient id="linear-gradient-45-9" x1="14.39" x2="42.52" y1="192.89" y2="192.89" gradientTransform="matrix(.91743 0 0 .91743 24.9 19.44)" xlink:href="#linear-gradient-33"/><linearGradient id="linear-gradient-44-6" x1="16.88" x2="73.9" y1="172.97" y2="172.97" gradientTransform="matrix(.91743 0 0 .91743 24.9 19.44)" xlink:href="#linear-gradient-33"/><linearGradient id="linear-gradient-43-5" x1="26.59" x2="65.68" y1="155.7" y2="155.7" gradientTransform="matrix(.91743 0 0 .91743 24.9 19.44)" xlink:href="#linear-gradient-33"/><linearGradient id="linear-gradient-42-4" x1="61" x2="84.19" y1="145.11" y2="145.11" gradientTransform="matrix(.91743 0 0 .91743 24.9 19.44)" xlink:href="#linear-gradient-33"/><linearGradient id="linear-gradient-36-0" x1="30.59" x2="73.1" y1="131.66" y2="131.66" gradientTransform="matrix(.91743 0 0 .91743 24.9 19.44)" xlink:href="#linear-gradient-33"/><linearGradient id="linear-gradient-37-7" x1="0" x2="32.71" y1="145.15" y2="145.15" gradientTransform="matrix(.91743 0 0 .91743 24.9 19.44)" xlink:href="#linear-gradient-33"/><linearGradient id="linear-gradient-38-6" x1="0" x2="9.97" y1="173.45" y2="173.45" gradientTransform="matrix(.64128 0 0 .64128 449.8 294.75)" xlink:href="#linear-gradient-33"/><linearGradient id="linear-gradient-39-0" x1=".01" x2="27.62" y1="200.94" y2="200.94" gradientTransform="matrix(.64128 0 0 .64128 449.8 294.75)" xlink:href="#linear-gradient-33"/><linearGradient id="linear-gradient-40-1" x1="55.83" x2="84.07" y1="207.29" y2="207.29" gradientTransform="matrix(.64128 0 0 .64128 449.8 294.75)" xlink:href="#linear-gradient-33"/><linearGradient id="linear-gradient-41-1" x1="23.99" x2="65.67" y1="217.67" y2="217.67" gradientTransform="matrix(.64128 0 0 .64128 449.8 294.75)" xlink:href="#linear-gradient-33"/><linearGradient id="linear-gradient-46-9" x1="45.51" x2="79.12" y1="194.63" y2="194.63" gradientTransform="matrix(.64128 0 0 .64128 449.8 294.75)" xlink:href="#linear-gradient-33"/><linearGradient id="linear-gradient-45-4" x1="14.39" x2="42.52" y1="192.89" y2="192.89" gradientTransform="matrix(.64128 0 0 .64128 449.8 294.75)" xlink:href="#linear-gradient-33"/><linearGradient id="linear-gradient-44-1" x1="16.88" x2="73.9" y1="172.97" y2="172.97" gradientTransform="matrix(.64128 0 0 .64128 449.8 294.75)" xlink:href="#linear-gradient-33"/><linearGradient id="linear-gradient-43-3" x1="26.59" x2="65.68" y1="155.7" y2="155.7" gradientTransform="matrix(.64128 0 0 .64128 449.8 294.75)" xlink:href="#linear-gradient-33"/><linearGradient id="linear-gradient-42-8" x1="61" x2="84.19" y1="145.11" y2="145.11" gradientTransform="matrix(.64128 0 0 .64128 449.8 294.75)" xlink:href="#linear-gradient-33"/><linearGradient id="linear-gradient-36-8" x1="30.59" x2="73.1" y1="131.66" y2="131.66" gradientTransform="matrix(.64128 0 0 .64128 449.8 294.75)" xlink:href="#linear-gradient-33"/><linearGradient id="linear-gradient-37-4" x1="0" x2="32.71" y1="145.15" y2="145.15" gradientTransform="matrix(.64128 0 0 .64128 449.8 294.75)" xlink:href="#linear-gradient-33"/><linearGradient id="linearGradient4887" x1="304.88" x2="328.14" y1="157.16" y2="157.16" gradientUnits="userSpaceOnUse"><stop id="stop4883" offset="0" stop-color="#3aaa35"/><stop id="stop4885" offset="1" stop-color="#008d36"/></linearGradient><linearGradient id="linearGradient4879" x1="304.88" x2="328.14" y1="157.16" y2="157.16" gradientUnits="userSpaceOnUse"><stop id="stop4873" offset="0" stop-color="#95c11f"/><stop id="stop4875" offset="1" stop-color="#3aaa35"/></linearGradient><linearGradient id="linear-gradient-35-1" x1="301.62" x2="305.8" y1="171.38" y2="171.38" xlink:href="#linearGradient4887"/><linearGradient id="linear-gradient-48-5" x1="88.32" x2="97.53" y1="176.59" y2="176.59" gradientTransform="translate(4.9 -140.38) scale(2.42372)" xlink:href="#linearGradient4879"/><linearGradient id="linear-gradient-38-7-5" x1="0" x2="9.97" y1="173.45" y2="173.45" gradientTransform="matrix(.91743 0 0 .91743 .8 86.5)" xlink:href="#linear-gradient-33"/><linearGradient id="linear-gradient-39-7-6" x1=".01" x2="27.62" y1="200.94" y2="200.94" gradientTransform="matrix(.91743 0 0 .91743 .8 86.5)" xlink:href="#linear-gradient-33"/><linearGradient id="linear-gradient-40-9-4" x1="55.83" x2="84.07" y1="207.29" y2="207.29" gradientTransform="matrix(.91743 0 0 .91743 .8 86.5)" xlink:href="#linear-gradient-33"/><linearGradient id="linear-gradient-41-7-3" x1="23.99" x2="65.67" y1="217.67" y2="217.67" gradientTransform="matrix(.91743 0 0 .91743 .8 86.5)" xlink:href="#linear-gradient-33"/><linearGradient id="linear-gradient-46-3-4" x1="45.51" x2="79.12" y1="194.63" y2="194.63" gradientTransform="matrix(.91743 0 0 .91743 .8 86.5)" xlink:href="#linear-gradient-33"/><linearGradient id="linear-gradient-45-9-1" x1="14.39" x2="42.52" y1="192.89" y2="192.89" gradientTransform="matrix(.91743 0 0 .91743 .8 86.5)" xlink:href="#linear-gradient-33"/><linearGradient id="linear-gradient-44-6-5" x1="16.88" x2="73.9" y1="172.97" y2="172.97" gradientTransform="matrix(.91743 0 0 .91743 .8 86.5)" xlink:href="#linear-gradient-33"/><linearGradient id="linear-gradient-43-5-46" x1="26.59" x2="65.68" y1="155.7" y2="155.7" gradientTransform="matrix(.91743 0 0 .91743 .8 86.5)" xlink:href="#linear-gradient-33"/><linearGradient id="linear-gradient-42-4-0" x1="61" x2="84.19" y1="145.11" y2="145.11" gradientTransform="matrix(.91743 0 0 .91743 .8 86.5)" xlink:href="#linear-gradient-33"/><linearGradient id="linear-gradient-36-0-7" x1="30.59" x2="73.1" y1="131.66" y2="131.66" gradientTransform="matrix(.91743 0 0 .91743 .8 86.5)" xlink:href="#linear-gradient-33"/><linearGradient id="linear-gradient-37-7-2" x1="0" x2="32.71" y1="145.15" y2="145.15" gradientTransform="matrix(.91743 0 0 .91743 .8 86.5)" xlink:href="#linear-gradient-33"/><linearGradient id="linear-gradient-43-5-4" x1="26.59" x2="65.68" y1="155.7" y2="155.7" gradientTransform="matrix(.91743 0 0 .91743 490.92 -9.85)" xlink:href="#linear-gradient-33"/><linearGradient id="linear-gradient-44-6-6" x1="16.88" x2="73.9" y1="172.97" y2="172.97" gradientTransform="matrix(.91743 0 0 .91743 490.92 -9.85)" xlink:href="#linear-gradient-33"/><linearGradient id="linear-gradient-45-9-0" x1="14.39" x2="42.52" y1="192.89" y2="192.89" gradientTransform="matrix(.91743 0 0 .91743 490.92 -9.85)" xlink:href="#linear-gradient-33"/><linearGradient id="linear-gradient-46-3-7" x1="45.51" x2="79.12" y1="194.63" y2="194.63" gradientTransform="matrix(.91743 0 0 .91743 490.92 -9.85)" xlink:href="#linear-gradient-33"/><linearGradient id="linear-gradient-40-9-5" x1="55.83" x2="84.07" y1="207.29" y2="207.29" gradientTransform="matrix(.91743 0 0 .91743 490.92 -9.85)" xlink:href="#linear-gradient-33"/><linearGradient id="linear-gradient-41-7-0" x1="23.99" x2="65.67" y1="217.67" y2="217.67" gradientTransform="matrix(.91743 0 0 .91743 490.92 -9.85)" xlink:href="#linear-gradient-33"/><linearGradient id="linear-gradient-39-7-5" x1=".01" x2="27.62" y1="200.94" y2="200.94" gradientTransform="matrix(.91743 0 0 .91743 490.92 -9.85)" xlink:href="#linear-gradient-33"/><linearGradient id="linear-gradient-38-7-7" x1="0" x2="9.97" y1="173.45" y2="173.45" gradientTransform="matrix(.91743 0 0 .91743 490.92 -9.85)" xlink:href="#linear-gradient-33"/><linearGradient id="linear-gradient-37-7-1" x1="0" x2="32.71" y1="145.15" y2="145.15" gradientTransform="matrix(.91743 0 0 .91743 490.92 -9.85)" xlink:href="#linear-gradient-33"/><linearGradient id="linear-gradient-36-0-1" x1="30.59" x2="73.1" y1="131.66" y2="131.66" gradientTransform="matrix(.91743 0 0 .91743 490.92 -9.85)" xlink:href="#linear-gradient-33"/><linearGradient id="linear-gradient-42-4-5" x1="61" x2="84.19" y1="145.11" y2="145.11" gradientTransform="matrix(.91743 0 0 .91743 490.92 -9.85)" xlink:href="#linear-gradient-33"/></defs><g id="layer1" transform="translate(72.28 -144.03)"><g id="layer1-0" transform="matrix(.50454 0 0 .36121 75.47 80.15)"><g id="layer1-8" fill-opacity="1" stroke="#000" stroke-dasharray="none" stroke-linecap="butt" stroke-linejoin="bevel" stroke-miterlimit="4" stroke-opacity="0" transform="translate(-308.2 165.42) scale(.09496)"><rect id="rect7220" width="701.52" height="985.76" x="162.11" y="121.05" fill="#1e1e1e" stroke-width="1" opacity="1" ry="54.43"/><rect id="rect7222" width="524.63" height="12.1" x="257.1" y="981.62" fill="#fff" stroke-width="1" opacity="1" ry="6.05"/><rect id="rect7222-56" width="524.63" height="12.1" x="257.19" y="887.79" fill="#fff" stroke-width="1" opacity="1" ry="6.05"/><rect id="rect7222-9" width="524.63" height="12.1" x="257.1" y="793.96" fill="#fff" stroke-width="1" opacity="1" ry="6.05"/><rect id="rect7222-46-0" width="524.63" height="12.1" x="257.29" y="700.32" fill="#fff" stroke-width="1" opacity="1" ry="6.05"/><rect id="rect7222-46-5" width="524.63" height="12.1" x="257.19" y="606.39" fill="#fff" stroke-width="1" opacity="1" ry="6.05"/><rect id="rect7222-46-53" width="524.63" height="12.1" x="257.13" y="512.57" fill="#fff" stroke-width="1" opacity="1" ry="6.05"/><rect id="rect7222-46-1" width="524.63" height="12.1" x="257.13" y="417.69" fill="#fff" stroke-width="1" opacity="1" ry="6.05"/><rect id="rect7222-46-17" width="524.63" height="12.1" x="256.59" y="323.07" fill="#fff" stroke-width="1" opacity="1" ry="6.05"/><rect id="rect7336" width="167.38" height="25.68" x="249.11" y="156.54" fill="red" stroke-width="1.5" opacity="1" ry="9.08"/><rect id="rect7338" width="30.58" height="143.3" x="315.09" y="165.69" fill="red" stroke-width="1.55" opacity="1" ry="16.21"/><rect id="rect7222-46-17-1" width="352.08" height="12.1" x="429.69" y="235.16" fill="#fff" stroke-width=".82" opacity="1" ry="6.05"/><rect id="rect7222-46-17-1-2" width="352.08" height="12.1" x="428.81" y="158.15" fill="#fff" stroke-width=".82" opacity="1" ry="6.05"/></g></g></g></svg>