<svg clip-rule="evenodd" fill-rule="evenodd" stroke-linejoin="round" stroke-miterlimit="2"
     viewBox="0 0 363 363" xmlns="http://www.w3.org/2000/svg">
  <defs/>
  <path d="M0 0h363v363H0z" fill="none"/>
  <clipPath id="a">
    <path d="M0 0h363v363H0z"/>
  </clipPath>
  <g clip-path="url(#a)">
    <path d="M363 53c0-9-7-17-16-17H16C7 36 0 44 0 53v294c0 9 7 16 16 16h331c9 0 16-7 16-16V53z" fill="url(#_Linear2)"/>
    <path d="M202 36L173 6c-4-4-10-6-15-6H36C16 0 0 16 0 36v29c0 4 3 8 7 8h152c5 0 10-2 13-6l30-30v-1z"
          fill="url(#_Linear3)"/>
  </g>
  <defs>
    <linearGradient gradientTransform="rotate(90 28 153) scale(177.872)" gradientUnits="userSpaceOnUse" id="_Linear2"
                    x1="0" x2="1" y1="0"
                    y2="0">
      <stop offset="0" stop-color="#ff8700"/>
      <stop offset="1" stop-color="#c56800"/>
    </linearGradient>
    <linearGradient gradientTransform="rotate(90 47 54) scale(58.8817)" gradientUnits="userSpaceOnUse" id="_Linear3"
                    x1="0" x2="1" y1="0"
                    y2="0">
      <stop offset="0" stop-color="#b05d00"/>
      <stop offset="1" stop-color="#a75800"/>
    </linearGradient>
  </defs>
</svg>
