<?xml version="1.0" encoding="UTF-8" standalone="no"?>
<svg
   xmlns:dc="http://purl.org/dc/elements/1.1/"
   xmlns:cc="http://creativecommons.org/ns#"
   xmlns:rdf="http://www.w3.org/1999/02/22-rdf-syntax-ns#"
   xmlns:svg="http://www.w3.org/2000/svg"
   xmlns="http://www.w3.org/2000/svg"
   xmlns:xlink="http://www.w3.org/1999/xlink"
   id="svg8"
   version="1.1"
   viewBox="0 0 33.834415 33.866665"
   height="33.866665mm"
   width="33.866669mm">
  <defs
     id="defs2">
    <linearGradient
       id="linearGradient9620">
      <stop
         style="stop-color:#71d8c8;stop-opacity:1"
         offset="0"
         id="stop9622" />
      <stop
         style="stop-color:#37abc8;stop-opacity:1"
         offset="1"
         id="stop9624" />
    </linearGradient>
    <linearGradient
       id="linearGradient9559">
      <stop
         style="stop-color:#000000;stop-opacity:1"
         offset="0"
         id="stop9561" />
      <stop
         style="stop-color:#b3b3b3;stop-opacity:0"
         offset="1"
         id="stop9563" />
    </linearGradient>
    <linearGradient
       xlink:href="#linearGradient9559"
       id="linearGradient9565"
       x1="-265.34247"
       y1="369.16733"
       x2="142.59059"
       y2="715.10449"
       gradientUnits="userSpaceOnUse"
       gradientTransform="matrix(1.3229959,0,0,1.3229959,602.62364,67.656379)" />
    <linearGradient
       xlink:href="#linearGradient9620"
       id="linearGradient9626"
       x1="-468.77432"
       y1="113.46263"
       x2="-312.59372"
       y2="542.2215"
       gradientUnits="userSpaceOnUse"
       gradientTransform="matrix(1.3281881,0,0,1.3281881,494.92413,349.52087)" />
    <linearGradient
       id="linearGradient5169">
      <stop
         style="stop-color:#818181;stop-opacity:0.42745098"
         offset="0"
         id="stop5165" />
      <stop
         style="stop-color:#818181;stop-opacity:1"
         offset="1"
         id="stop5167" />
    </linearGradient>
    <linearGradient
       id="linearGradient5000">
      <stop
         style="stop-color:#0079f8;stop-opacity:1"
         offset="0"
         id="stop4996" />
      <stop
         style="stop-color:#ffec9c;stop-opacity:1"
         offset="1"
         id="stop4998" />
    </linearGradient>
    <linearGradient
       xlink:href="#linearGradient5000"
       id="linearGradient5002"
       x1="199.57143"
       y1="237.27975"
       x2="8.3154669"
       y2="46.023804"
       gradientUnits="userSpaceOnUse"
       gradientTransform="translate(-3.0238096)" />
    <linearGradient
       xlink:href="#linearGradient5169"
       id="linearGradient5171"
       x1="198.89809"
       y1="240.0282"
       x2="31.844433"
       y2="101.31093"
       gradientUnits="userSpaceOnUse" />
  </defs>
  <metadata
     id="metadata5">
    <rdf:RDF>
      <cc:Work
         rdf:about="">
        <dc:format>image/svg+xml</dc:format>
        <dc:type
           rdf:resource="http://purl.org/dc/dcmitype/StillImage" />
        <dc:title></dc:title>
      </cc:Work>
    </rdf:RDF>
  </metadata>
  <g
     transform="translate(388.13069,-159.0287)"
     id="layer1">
    <g
       transform="matrix(0.16779029,0,0,0.16779033,-388.78103,151.68687)"
       id="layer1-4">
      <circle
         r="98.273804"
         cy="147.32135"
         cx="107.34523"
         id="circle5004"
         style="opacity:1;fill:#818181;fill-opacity:1;stroke:none;stroke-width:1.32291663;stroke-linecap:square;stroke-linejoin:miter;stroke-miterlimit:4;stroke-dasharray:none;stroke-opacity:1;paint-order:stroke fill markers" />
      <circle
         style="opacity:1;fill:url(#linearGradient5002);fill-opacity:1;stroke:none;stroke-width:1.32291663;stroke-linecap:square;stroke-linejoin:miter;stroke-miterlimit:4;stroke-dasharray:none;stroke-opacity:1;paint-order:stroke fill markers"
         id="path4994"
         cx="102.05358"
         cy="142.02975"
         r="98.273804" />
      <path
         style="fill:url(#linearGradient5171);fill-opacity:1;stroke:none;stroke-width:0.26458332px;stroke-linecap:butt;stroke-linejoin:miter;stroke-opacity:1"
         d="m 164.0416,101.26357 -71.34294,54.14502 -60.866051,35.70221 46.215265,46.21527 a 98.273803,98.273803 0 0 0 24.100346,3.12746 98.273803,98.273803 0 0 0 98.27359,-98.27411 98.273803,98.273803 0 0 0 -0.1664,-4.70152 z"
         id="path5160" />
      <g
         id="g5158"
         transform="translate(-0.04337883,-6.5271733)">
        <g
           style="stroke-width:1.0505898"
           transform="matrix(0.95184625,0,0,0.95184625,4.8919002,6.3507227)"
           id="g5048">
          <path
             style="opacity:1;fill:#d8b200;fill-opacity:1;stroke:none;stroke-width:1.38984275;stroke-linecap:square;stroke-linejoin:miter;stroke-miterlimit:4;stroke-dasharray:none;stroke-opacity:1;paint-order:stroke fill markers"
             d="m 37.390682,96.064498 c -1.33261,0 -2.40554,1.072419 -2.40554,2.40502 v 19.640172 c 0,1.33261 1.07293,2.40554 2.40554,2.40554 h 51.15605 c 1.33261,0 2.40554,-1.07293 2.40554,-2.40554 v -3.12642 l 26.741518,-1.12551 -27.449488,-17.102867 -0.007,0.0016 c -0.55914,-0.369628 -1.02984,-0.691946 -1.69033,-0.691946 z"
             id="rect4329" />
          <path
             style="opacity:1;fill:#f1c600;fill-opacity:1;stroke:none;stroke-width:1.38984275;stroke-linecap:square;stroke-linejoin:miter;stroke-miterlimit:4;stroke-dasharray:none;stroke-opacity:1;paint-order:stroke fill markers"
             d="M 37.765682,105.86805 H 165.52052 c 1.48067,0 2.6727,1.19202 2.6727,2.67269 v 78.46884 c 0,1.48067 -1.19203,2.67269 -2.6727,2.67269 H 37.765682 c -1.48067,0 -2.67269,-1.19202 -2.67269,-2.67269 v -78.46884 c 0,-1.48067 1.19202,-2.67269 2.67269,-2.67269 z"
             id="rect4327" />
        </g>
        <rect
           ry="5.3453903"
           y="123.41996"
           x="30.468725"
           height="75.904541"
           width="143.25647"
           id="rect5050"
           style="opacity:1;fill:#19d0ff;fill-opacity:1;stroke:none;stroke-width:1.32291663;stroke-linecap:square;stroke-linejoin:miter;stroke-miterlimit:4;stroke-dasharray:none;stroke-opacity:1;paint-order:stroke fill markers" />
        <path
           id="rect5132"
           d="m 98.165315,136.68798 c -0.91637,0 -1.59758,0.73938 -1.65418,1.654 l -0.29903,4.83171 a 19.21302,19.21302 0 0 0 -2.82892,1.16309 l -3.6213,-3.1991 c -0.68677,-0.60672 -1.69126,-0.64798 -2.33923,0 l -5.56026,5.56025 c -0.64794,0.64797 -0.6067,1.65247 0,2.33922 l 3.11283,3.52354 a 19.21302,19.21302 0 0 0 -1.23146,2.93626 l -4.67705,0.28946 c -0.91463,0.0566 -1.65401,0.7378 -1.65401,1.65418 v 7.86329 c 0,0.91638 0.73938,1.59758 1.65401,1.65418 l 4.57146,0.28285 a 19.21302,19.21302 0 0 0 1.25877,3.03141 l -3.03455,3.43499 c -0.6067,0.68676 -0.64794,1.69126 0,2.33923 l 5.56026,5.56025 c 0.64797,0.64797 1.65246,0.60672 2.33923,0 l 3.42351,-3.02445 a 19.21302,19.21302 0 0 0 3.04166,1.22954 l 0.28408,4.59043 c 0.0566,0.91462 0.73781,1.65418 1.65418,1.65418 h 7.863295 c 0.91637,0 1.5974,-0.73956 1.654,-1.65418 l 0.28877,-4.66628 a 19.21302,19.21302 0 0 0 2.93574,-1.24328 l 3.52492,3.11404 c 0.68676,0.60672 1.69126,0.64797 2.33923,0 l 5.56025,-5.56025 c 0.64797,-0.64797 0.60671,-1.65247 0,-2.33923 l -3.18762,-3.60808 a 19.21302,19.21302 0 0 0 1.13281,-2.8411 l 4.85033,-0.30007 c 0.91462,-0.0566 1.65418,-0.7378 1.65418,-1.65418 v -7.86329 c 0,-0.91638 -0.73956,-1.59758 -1.65418,-1.65418 l -4.92669,-0.30477 a 19.21302,19.21302 0 0 0 -1.14743,-2.73342 l 3.2786,-3.71107 c 0.60671,-0.68675 0.64797,-1.69125 0,-2.33922 l -5.56025,-5.56025 c -0.64797,-0.64797 -1.65247,-0.60672 -2.33923,0 l -3.69836,3.26729 a 19.21302,19.21302 0 0 0 -2.7456,-1.12621 l -0.30547,-4.93678 c -0.0566,-0.91462 -0.73763,-1.654 -1.654,-1.654 z m 3.931645,11.06971 a 13.614524,13.614524 0 0 1 13.61456,13.61454 13.614524,13.614524 0 0 1 -13.61456,13.61455 13.614524,13.614524 0 0 1 -13.614555,-13.61455 13.614524,13.614524 0 0 1 13.614555,-13.61454 z m 0,4.83501 a 8.7794596,8.7794596 0 0 0 -8.779535,8.77953 8.7794596,8.7794596 0 0 0 8.779535,8.77936 8.7794596,8.7794596 0 0 0 8.77936,-8.77936 8.7794596,8.7794596 0 0 0 -8.77936,-8.77953 z"
           style="opacity:1;fill:#ffffff;fill-opacity:1;stroke:none;stroke-width:1.32291663;stroke-linecap:square;stroke-linejoin:miter;stroke-miterlimit:4;stroke-dasharray:none;stroke-opacity:1;paint-order:stroke fill markers" />
      </g>
    </g>
  </g>
</svg>
