<?xml version="1.0" encoding="UTF-8" standalone="no"?><!DOCTYPE svg PUBLIC "-//W3C//DTD SVG 1.1//EN" "http://www.w3.org/Graphics/SVG/1.1/DTD/svg11.dtd"><svg width="100%" height="100%" viewBox="0 0 363 363" version="1.1" xmlns="http://www.w3.org/2000/svg" xmlns:xlink="http://www.w3.org/1999/xlink" xml:space="preserve" xmlns:serif="http://www.serif.com/" style="fill-rule:evenodd;clip-rule:evenodd;stroke-linejoin:round;stroke-miterlimit:2;"><rect id="filemanager" x="0" y="0" width="362.835" height="362.835" style="fill:none;"/><clipPath id="_clip1"><rect x="0" y="0" width="362.835" height="362.835"/></clipPath><g clip-path="url(#_clip1)"><path d="M362.835,52.677c0,-9.009 -7.315,-16.324 -16.324,-16.324l-330.187,0c-9.009,0 -16.324,7.315 -16.324,16.324l0,293.834c0,9.009 7.315,16.324 16.324,16.324l330.187,0c9.009,0 16.324,-7.315 16.324,-16.324l0,-293.834Z" style="fill:url(#_Linear2);"/><path d="M202.273,35.626c0,0 -18.971,-18.971 -29.226,-29.225c-4.098,-4.099 -9.656,-6.401 -15.452,-6.401l-121.242,0c-20.064,0 -36.353,16.289 -36.353,36.353l0,29.082c0,4.013 3.258,7.271 7.271,7.271l151.38,0c5.12,0 10.029,-2.034 13.649,-5.654c10.049,-10.048 29.973,-29.972 29.973,-29.972l0,-1.454Z" style="fill:url(#_Linear3);"/></g><defs><linearGradient id="_Linear2" x1="0" y1="0" x2="1" y2="0" gradientUnits="userSpaceOnUse" gradientTransform="matrix(1.08915e-14,177.872,-177.872,1.08915e-14,181.417,124.847)"><stop offset="0" style="stop-color:#ff8700;stop-opacity:1"/><stop offset="1" style="stop-color:#c56800;stop-opacity:1"/></linearGradient><linearGradient id="_Linear3" x1="0" y1="0" x2="1" y2="0" gradientUnits="userSpaceOnUse" gradientTransform="matrix(3.60546e-15,58.8817,-58.8817,3.60546e-15,101.136,6.99121)"><stop offset="0" style="stop-color:#b05d00;stop-opacity:1"/><stop offset="1" style="stop-color:#a75800;stop-opacity:1"/></linearGradient></defs></svg>