<svg xmlns="http://www.w3.org/2000/svg" fill-rule="evenodd" stroke-linejoin="bevel" clip-rule="evenodd"
     viewBox="0 0 128 128">
  <g fill-rule="nonzero">
    <path fill="url(#_Linear1)" d="M.17.05l128.05.66v117.73l-103.29-.32L.17.05z"/>
    <path fill="#999" d="M.17.05l126.2 3.3V121.1l-107.62-4.62L.17.05z"/>
    <path fill="#b3b3b3" d="M.22.13L121.72 5v117.73l-107.6-4.61L.22.13z"/>
    <path fill="url(#_Linear2)" d="M.25.2l115.1 7.76v117.73l-108.08-7.8L.25.2z"/>
    <path fill="url(#_Linear3)" d="M.29.26l107.13 9.86v117.73L.29 117.99V.26z"/>
    <path d="M.17.05l.11.2v117.67l-.1-.2V.05z"/>
    <g stroke="#010101" stroke-width=".83">
      <path fill="url(#_Linear4)" stroke-linecap="round" stroke-linejoin="round"
            d="M45.19 36.52c3.69-2.1 7.41-4.14 11.1-6.26 1.56-.88 1.7-.8 3.13.05l10.79 6.62 10.05-3.62L59.5 20.7c-1.33-.84-1.45-.85-2.74-.05-3.14 1.83-6.36 3.51-9.56 5.24L45.2 36.52z"/>
      <path fill="url(#_Linear4)" stroke-linecap="round" stroke-linejoin="round"
            d="M27.83 52.3l.12-4.58c.03-1.35.04-1.51 1.1-2.13 5.6-3.1 11.34-6.4 16.14-9.07l2.01-10.64-6.83 3.84c-6.78 3.87-12.69 7.06-18.74 10.56-1.46.8-1.45 1.23-1.72 2.73l-.14 5.32 8.06 3.97z"/>
      <path fill="url(#_Linear4)" stroke-linecap="round" stroke-linejoin="round"
            d="M27.3 72.19l.53-19.9-8.06-3.96-.78 27.33 8.32-3.47z"/>
      <path fill="url(#_Linear4)" stroke-linecap="round" stroke-linejoin="round"
            d="M41.35 89.5c-4.48-2.71-8.94-5.44-13.4-8.18-.88-.54-.9-.65-.87-1.65l.23-7.48-8.32 3.47-.26 8.32c-.03 1.32-.03 1.38 1.25 2.14 6.97 4.3 11.55 7.14 18.16 11.18l3.21-7.8z"/>
      <path fill="url(#_Linear4)" stroke-linecap="round" stroke-linejoin="round"
            d="M72.4 98.81c4.87-2.77 9.74-5.5 14.63-8.24.66-.36.9-.9.72-1.63-.4-1.74-.85-3.49-1.26-5.22-.39-1.68-2.06-1.2-3.2-.57-6.24 3.64-13.17 7.47-18.83 10.65l7.95 5.01z"/>
      <path fill="url(#_Linear4)" stroke-linecap="round" stroke-linejoin="round"
            d="M38.17 97.32l16.54 10.11c1.04.64 1.14.66 2.15.1 5.93-3.34 10-5.61 15.64-8.77l-7.97-5c-2.72 1.55-4.92 2.74-7.42 4.14-.66.37-1.32.4-1.97.03L41.35 89.5l-3.18 7.82z"/>
      <path fill="url(#_Linear4)" stroke-linecap="round" stroke-linejoin="round"
            d="M70.2 36.93c4.85 3 9.81 5.81 14.59 8.93 1.19.72 2.3.51 2.7-.78l1.55-5.14.16-.53a.76.76 0 00-.41-.82c-2.86-1.74-5.7-3.5-8.53-5.28L70.2 36.93z"/>
      <path fill="url(#_Linear4)" stroke-linejoin="miter"
            d="M46.8 38.58l12.4-2.15 13.02 5.68 1.24 15.25-15.7 2.36-16.43-4.8 5.47-16.34z"/>
      <path fill="url(#_Linear4)" stroke-linejoin="miter"
            d="M33.34 58.05l8-3.13 16.43 4.8 15.7-2.35 6.68 6.13-22.06 5.15-11.88-5.06-12.87-5.54z"/>
      <path fill="url(#_Linear4)" stroke-linejoin="miter"
            d="M31.1 64.96l5.83-2.36 5.3 1.72-.32 11.83 11.62 9.98v7.96L38.95 78.13l-7.85-13.18z"/>
      <path fill="url(#_Linear4)" stroke-linejoin="miter"
            d="M84.3 67.85L72.5 80.3 55.98 93.7l1-6.91 12.73-8.58 6.04-10.5 3.71-1.18 4.86 1.3z"/>
      <path fill="url(#_Linear4)" stroke-linejoin="miter"
            d="M53.62 67.02a6.83 6.83 0 01-2.59 1.17 4.31 4.31 0 01-4.36-2.28 3.86 3.86 0 01-.28-2.04"/>
      <path fill="url(#_Linear4)" stroke-linejoin="miter"
            d="M70.02 65.99c.02.61-1.11 1.99-2.01 2.69a6.04 6.04 0 01-4.97 1.08c-.96-.25-2.3-.73-2.53-1.48"/>
    </g>
  </g>
  <defs>
    <linearGradient id="_Linear1" x1="0" x2="1" y1="0" y2=".21"
                    gradientTransform="matrix(-112.887 -119.984 152.757 -88.6671 198.1 103.08)"
                    gradientUnits="userSpaceOnUse">
      <stop offset="0" stop-color="#4d4d4d"/>
      <stop offset="1"/>
    </linearGradient>
    <linearGradient id="_Linear2" x1="0" x2="1" y1="0" y2=".21"
                    gradientTransform="matrix(-115.184 -125.634 159.951 -90.4719 115.36 125.69)"
                    gradientUnits="userSpaceOnUse">
      <stop offset="0" stop-color="#ccc"/>
      <stop offset="1" stop-color="#ccc" stop-opacity="0"/>
    </linearGradient>
    <linearGradient id="_Linear3" x1="0" x2="1" y1="0" y2=".2"
                    gradientTransform="matrix(-107.133 -127.592 162.443 -84.1483 107.42 127.85)"
                    gradientUnits="userSpaceOnUse">
      <stop offset="0" stop-color="#1a1a1a"/>
      <stop offset="1"/>
    </linearGradient>
    <linearGradient id="_Linear4" x1="0" x2="1" y1="0" y2="0"
                    gradientTransform="matrix(87.1552 107.298 -108.662 87.8664 -2.7 -10.75)"
                    gradientUnits="userSpaceOnUse">
      <stop offset="0" stop-color="#35bd2d"/>
      <stop offset="1" stop-color="#008000"/>
    </linearGradient>
  </defs>
</svg>
