<?xml version="1.0" standalone="no"?><!-- Generator: Gravit.io -->
<svg xmlns="http://www.w3.org/2000/svg" style="isolation:isolate" viewBox="0 0 512 512" width="512" height="512">
  <defs>
    <clipPath id="_clipPath_fcwiuEASQpTFdcX3egSCj8Nl7KyWhH4x">
      <rect width="512" height="512"/>
    </clipPath>
  </defs>
  <g clip-path="url(#_clipPath_fcwiuEASQpTFdcX3egSCj8Nl7KyWhH4x)">
    <rect width="512" height="512" style="fill:rgb(130,97,97)" fill-opacity="0"/>
    <g>
      <g>
        <path
          d=" M 478.338 141.428 C 548.038 260.648 506.035 412.406 384.334 481.065 C 324.742 513.103 254.514 520.611 189.212 501.927 C 123.91 483.242 68.927 439.907 36.446 381.524 C -33.254 262.304 8.749 110.546 130.45 41.887 C 190.042 9.849 260.27 2.341 325.572 21.025 C 390.874 39.71 445.857 83.045 478.338 141.428 Z "
          fill="rgb(128,128,128)"/>
        <linearGradient id="_lgradient_12" x1="0.32284393772538145" y1="0.11218424920734915" x2="0.6299731509456232"
                        y2="0.9553387408938976"
                        gradientTransform="matrix(429.745,-245.028,240.99,436.945,-89.008,154.528)"
                        gradientUnits="userSpaceOnUse">
          <stop offset="0.43478260869565216%" stop-opacity="1" style="stop-color:rgb(113,216,200)"/>
          <stop offset="100%" stop-opacity="1" style="stop-color:rgb(55,171,200)"/>
        </linearGradient>
        <path
          d=" M 31.487 373.001 C -35.016 252.423 7.273 99.632 125.864 32.014 C 244.456 -35.603 394.729 7.395 461.232 127.973 C 527.735 248.551 485.446 401.342 366.854 468.96 C 248.263 536.577 97.99 493.579 31.487 373.001 Z "
          fill="url(#_lgradient_12)"/>
        <mask id="_mask_9JYNyNfuJUZ2IWV12iXVNxOYQh10PTTJ" x="-200%" y="-200%" width="400%" height="400%">
          <rect x="-200%" y="-200%" width="400%" height="400%" style="fill:white;"/>
          <path d=" M 312.239 39.816 C 312.268 39.867 312.296 39.918 312.324 39.97" fill="black" stroke="none"/>
        </mask>
        <path d=" M 312.239 39.816 C 312.268 39.867 312.296 39.918 312.324 39.97" fill="rgb(0,0,0)"
              mask="url(#_mask_9JYNyNfuJUZ2IWV12iXVNxOYQh10PTTJ)" stroke-width="1.93"
              stroke="rgb(255,0,0)" stroke-linejoin="miter" stroke-linecap="butt" stroke-miterlimit="4"/>
        <mask id="_mask_9nWCWNhPC3sJWYth8eCKIMPjfXUavYSo" x="-200%" y="-200%" width="400%" height="400%">
          <rect x="-200%" y="-200%" width="400%" height="400%" style="fill:white;"/>
          <path d=" M 407.459 95.518 C 407.459 95.577 407.459 95.636 407.459 95.695" fill="black" stroke="none"/>
        </mask>
        <path d=" M 407.459 95.518 C 407.459 95.577 407.459 95.636 407.459 95.695" fill="rgb(0,0,0)"
              mask="url(#_mask_9nWCWNhPC3sJWYth8eCKIMPjfXUavYSo)" stroke-width="1.93"
              stroke="rgb(255,0,0)" stroke-linejoin="miter" stroke-linecap="butt" stroke-miterlimit="4"/>
      </g>
    </g>
    <clipPath id="_clipPath_WQLcKGtXbJOZybaZVHPP8iShuDZpep8N">
      <path
        d=" M 0 54 L 0 0 L 512 0 L 512 512 L 0 512 L 0 54 Z  M 210 256 C 210 238.339 238.339 211 256 211 C 273.661 211 301 238.339 301 256 C 301 273.661 273.661 305 256 305 C 238.339 305 210 273.661 210 256 Z "
        fill-rule="evenodd" fill="rgb(255,255,255)"/>
    </clipPath>
    <g clip-path="url(#_clipPath_WQLcKGtXbJOZybaZVHPP8iShuDZpep8N)">
      <clipPath id="_clipPath_GCELw9UYP2ZnAF7u9jEy8mbCmkgNiall">
        <path
          d=" M 112.051 169.562 L 172.148 109.466 L 171.964 35.601 L 248.424 33.19 L 257.475 94.34 Q 306.803 99.12 335.172 114.054 Q 364.602 86.916 391.74 57.486 L 443.997 145.098 Q 423.744 158.814 396.775 175.658 Q 421.513 204.434 417.988 256.268 L 475.485 260.251 L 468.164 353.17 Q 431.586 348.771 393.946 336.878 Q 370.891 376.161 336.657 394.168 L 360.635 466.356 L 266.806 489.772 Q 257.493 440.579 258.182 416.074 Q 212.22 418.902 177.572 394.861 L 124.673 457.928 L 57.936 382.706 Q 88.476 355.263 118.175 335.464 Q 98.729 309.654 96.255 254.146 Q 95.922 253.545 24.607 248.189 L 44.99 147.019 L 112.051 169.562 Z "
          fill="rgb(255,255,255)"/>
      </clipPath>
      <g clip-path="url(#_clipPath_GCELw9UYP2ZnAF7u9jEy8mbCmkgNiall)">
        <linearGradient id="_lgradient_13" x1="0.84719552188998" y1="1.0213934456980387" x2="0.20185983104193272"
                        y2="0.03143971585970773"
                        gradientTransform="matrix(314.91,-314.91,314.91,314.91,-58.096,254.807)"
                        gradientUnits="userSpaceOnUse">
          <stop offset="1.3043478260869565%" stop-opacity="1" style="stop-color:rgb(0,123,255)"/>
          <stop offset="98.26086956521739%" stop-opacity="0.65" style="stop-color:rgb(98,66,255)"/>
        </linearGradient>
        <path
          d=" M 146.936 256.159 C 133.998 243.221 133.998 222.214 146.936 209.276 C 159.873 196.338 180.881 196.338 193.819 209.276 C 206.757 222.214 206.757 243.221 193.819 256.159 C 180.881 269.097 159.873 269.097 146.936 256.159 L 146.936 256.159 L 146.936 256.159 L 146.936 256.159 L 146.936 256.159 L 146.936 256.159 Z  M 209.447 193.648 C 196.509 180.71 196.509 159.703 209.447 146.765 C 222.385 133.827 243.392 133.827 256.33 146.765 C 269.268 159.703 269.268 180.71 256.33 193.648 C 243.392 206.586 222.385 206.586 209.447 193.648 L 209.447 193.648 L 209.447 193.648 L 209.447 193.648 L 209.447 193.648 Z  M 295.4 216.222 C 282.462 203.284 282.462 182.276 295.4 169.338 C 308.338 156.4 329.345 156.4 342.283 169.338 C 355.221 182.276 355.221 203.284 342.283 216.222 C 329.345 229.159 308.338 229.159 295.4 216.222 L 295.4 216.222 L 295.4 216.222 L 295.4 216.222 Z  M 317.973 302.175 C 305.035 289.237 305.035 268.229 317.973 255.291 C 330.911 242.353 351.919 242.353 364.857 255.291 C 377.794 268.229 377.794 289.237 364.857 302.175 C 351.919 315.112 330.911 315.112 317.973 302.175 L 317.973 302.175 L 317.973 302.175 Z  M 255.462 364.686 C 242.524 351.748 242.524 330.74 255.462 317.802 C 268.4 304.864 289.408 304.864 302.345 317.802 C 315.283 330.74 315.283 351.748 302.345 364.686 C 289.408 377.624 268.4 377.624 255.462 364.686 L 255.462 364.686 Z  M 145.455 366.166 C 83.994 304.705 83.994 204.909 145.455 143.448 C 206.916 81.987 306.713 81.987 368.174 143.448 C 429.635 204.909 429.635 304.705 368.174 366.166 C 306.713 427.627 206.916 427.627 145.455 366.166 L 145.455 366.166 L 145.455 366.166 L 145.455 366.166 L 145.455 366.166 L 145.455 366.166 Z  M 169.859 341.763 C 156.921 328.825 156.921 307.817 169.859 294.879 C 182.796 281.942 203.804 281.942 216.742 294.879 C 229.68 307.817 229.68 328.825 216.742 341.763 C 203.804 354.701 182.796 354.701 169.859 341.763 Z "
          fill-rule="evenodd" fill="url(#_lgradient_13)"/>
        <path
          d=" M 118.748 256.475 C 102.488 240.215 102.488 213.812 118.748 197.551 C 135.009 181.291 161.412 181.291 177.672 197.551 C 193.933 213.812 193.933 240.215 177.672 256.475 C 161.412 272.736 135.009 272.736 118.748 256.475 L 118.748 256.475 L 118.748 256.475 L 118.748 256.475 L 118.748 256.475 L 118.748 256.475 Z  M 197.314 177.91 C 181.053 161.65 181.053 135.247 197.314 118.986 C 213.574 102.726 239.977 102.726 256.237 118.986 C 272.498 135.247 272.498 161.65 256.237 177.91 C 239.977 194.171 213.574 194.171 197.314 177.91 L 197.314 177.91 L 197.314 177.91 L 197.314 177.91 L 197.314 177.91 Z  M 305.341 206.281 C 289.08 190.02 289.08 163.617 305.341 147.357 C 321.601 131.096 348.004 131.096 364.264 147.357 C 380.525 163.617 380.525 190.02 364.264 206.281 C 348.004 222.541 321.601 222.541 305.341 206.281 L 305.341 206.281 L 305.341 206.281 L 305.341 206.281 Z  M 333.711 314.308 C 317.451 298.047 317.451 271.644 333.711 255.384 C 349.972 239.123 376.375 239.123 392.635 255.384 C 408.896 271.644 408.896 298.047 392.635 314.308 C 376.375 330.568 349.972 330.568 333.711 314.308 L 333.711 314.308 L 333.711 314.308 Z  M 255.146 392.873 C 238.886 376.612 238.886 350.21 255.146 333.949 C 271.407 317.689 297.81 317.689 314.07 333.949 C 330.33 350.21 330.33 376.612 314.07 392.873 C 297.81 409.133 271.407 409.133 255.146 392.873 L 255.146 392.873 Z  M 112.974 332.589 L 75.612 331.973 L 68.459 305.277 L 68.459 305.277 L 61.306 278.581 L 93.586 259.226 C 93.516 256.286 93.526 253.344 93.614 250.404 L 61.306 231.033 L 68.459 204.337 L 68.459 204.337 L 75.612 177.641 L 113.55 177.015 C 114.909 174.539 116.337 172.09 117.835 169.672 L 99.386 136.464 L 105.557 130.293 L 105.557 130.293 L 118.928 116.921 L 118.928 116.921 L 138.471 97.378 L 172.028 116.021 C 174.331 114.627 176.66 113.295 179.015 112.026 L 179.649 73.605 L 206.345 66.451 L 206.345 66.451 L 206.345 66.451 L 206.345 66.451 L 206.345 66.451 L 206.345 66.451 L 206.345 66.451 L 206.345 66.451 L 233.041 59.298 L 253.016 92.615 C 255.543 92.565 258.071 92.573 260.598 92.639 L 280.588 59.298 L 307.284 66.451 L 307.284 66.451 L 307.284 66.451 L 307.284 66.451 L 307.284 66.451 L 307.284 66.451 L 307.284 66.451 L 333.98 73.605 L 334.624 112.602 C 336.788 113.79 338.932 115.032 341.052 116.326 L 375.157 97.378 L 394.7 116.921 L 394.7 116.921 L 394.7 116.921 L 394.7 116.921 L 394.7 116.921 L 394.7 116.921 L 414.243 136.464 L 395.296 170.569 C 396.59 172.69 397.831 174.833 399.019 176.998 L 438.017 177.641 L 445.17 204.337 L 445.17 204.337 L 445.17 204.337 L 445.17 204.337 L 445.17 204.337 L 452.323 231.033 L 418.982 251.023 C 419.048 253.55 419.056 256.078 419.006 258.605 L 452.323 278.581 L 445.17 305.277 L 445.17 305.277 L 445.17 305.277 L 438.017 331.973 L 399.596 332.607 C 398.326 334.961 396.994 337.291 395.6 339.593 L 414.243 373.15 L 394.7 392.693 L 394.7 392.693 L 394.7 392.693 L 394.7 392.693 L 375.157 412.236 L 341.949 393.787 C 339.531 395.284 337.083 396.712 334.606 398.071 L 333.98 436.009 L 307.284 443.163 L 307.284 443.163 L 307.284 443.163 L 280.588 450.316 L 261.217 418.007 C 258.277 418.096 255.335 418.105 252.395 418.035 L 233.041 450.316 L 206.345 443.163 L 206.345 443.163 L 206.345 443.163 L 206.345 443.163 L 206.345 443.163 L 206.345 443.163 L 206.345 443.163 L 206.345 443.163 L 179.649 436.009 L 179.032 398.648 C 176.364 397.21 173.728 395.691 171.127 394.094 L 138.471 412.236 L 118.928 392.693 L 118.928 392.693 L 99.386 373.15 L 117.528 340.494 C 115.93 337.893 114.412 335.257 112.974 332.589 L 112.974 332.589 L 112.974 332.589 L 112.974 332.589 L 112.974 332.589 L 112.974 332.589 Z  M 147.558 364.063 C 131.298 347.802 131.298 321.4 147.558 305.139 C 163.819 288.879 190.222 288.879 206.482 305.139 C 222.743 321.4 222.743 347.802 206.482 364.063 C 190.222 380.323 163.819 380.323 147.558 364.063 Z "
          fill-rule="evenodd" fill="rgb(255,255,255)"/>
        <path
          d=" M 115.212 260.008 C 106.465 251.261 101.544 239.382 101.544 227.008 C 101.551 214.64 106.465 202.768 115.212 194.021 C 123.966 185.267 135.838 180.353 148.206 180.346 C 160.58 180.346 172.459 185.267 181.206 194.014 C 189.953 202.761 194.875 214.64 194.875 227.015 C 194.875 239.389 189.96 251.261 181.206 260.015 C 172.459 268.762 160.587 273.677 148.213 273.677 C 135.838 273.677 123.959 268.755 115.212 260.008 Z  M 122.283 252.937 C 115.41 246.064 111.542 236.737 111.549 227.015 C 111.542 217.292 115.41 207.965 122.283 201.092 C 129.156 194.219 138.49 190.344 148.213 190.351 C 157.928 190.351 167.262 194.212 174.135 201.085 C 181.008 207.958 184.876 217.299 184.876 227.015 C 184.876 236.73 181.008 246.071 174.135 252.944 C 167.262 259.817 157.928 263.678 148.213 263.678 C 138.49 263.685 129.156 259.81 122.283 252.937 Z  M 193.779 181.442 C 185.032 172.695 180.11 160.815 180.103 148.448 C 180.11 136.081 185.032 124.201 193.779 115.455 C 202.526 106.708 214.405 101.786 226.772 101.779 C 239.147 101.779 251.026 106.701 259.773 115.447 C 268.52 124.194 273.441 136.074 273.441 148.448 C 273.441 160.822 268.52 172.702 259.773 181.449 C 251.026 190.196 239.147 195.117 226.772 195.117 C 214.405 195.11 202.526 190.189 193.779 181.442 Z  M 200.85 174.371 C 193.977 167.498 190.109 158.171 190.116 148.448 C 190.109 138.725 193.977 129.399 200.85 122.526 C 207.723 115.653 217.057 111.778 226.779 111.785 C 236.495 111.785 245.829 115.645 252.702 122.519 C 259.575 129.392 263.443 138.732 263.443 148.448 C 263.443 158.164 259.575 167.505 252.702 174.378 C 245.829 181.251 236.495 185.112 226.779 185.112 C 217.057 185.119 207.723 181.244 200.85 174.371 Z  M 301.803 209.818 C 293.056 201.071 288.135 189.192 288.135 176.817 C 288.135 164.443 293.056 152.563 301.803 143.817 C 310.55 135.07 322.43 130.148 334.804 130.148 C 347.171 130.155 359.051 135.077 367.798 143.824 C 376.545 152.571 381.466 164.45 381.473 176.817 C 381.473 189.192 376.552 201.071 367.805 209.818 C 359.058 218.565 347.178 223.486 334.804 223.486 C 322.43 223.486 310.55 218.565 301.803 209.818 Z  M 308.874 202.747 C 302.001 195.874 298.141 186.54 298.134 176.817 C 298.134 167.102 302.001 157.761 308.874 150.888 C 315.748 144.015 325.081 140.154 334.797 140.154 C 344.527 140.154 353.854 144.022 360.727 150.895 C 367.6 157.768 371.468 167.095 371.468 176.824 C 371.468 186.54 367.607 195.874 360.734 202.747 C 353.861 209.62 344.52 213.488 334.804 213.488 C 325.081 213.481 315.748 209.62 308.874 202.747 Z  M 330.18 317.843 C 321.433 309.096 316.511 297.216 316.504 284.849 C 316.504 272.475 321.426 260.595 330.173 251.848 C 338.919 243.101 350.799 238.18 363.173 238.18 C 375.548 238.18 387.427 243.101 396.174 251.848 C 404.921 260.595 409.842 272.475 409.842 284.849 C 409.835 297.216 404.914 309.096 396.167 317.843 C 387.42 326.59 375.54 331.511 363.173 331.518 C 350.806 331.511 338.927 326.59 330.18 317.843 Z  M 337.251 310.772 C 330.378 303.898 326.503 294.565 326.51 284.842 C 326.51 275.126 330.371 265.792 337.244 258.919 C 344.117 252.046 353.458 248.178 363.173 248.178 C 372.889 248.178 382.23 252.046 389.103 258.919 C 395.976 265.792 399.837 275.126 399.837 284.842 C 399.844 294.565 395.969 303.898 389.096 310.772 C 382.223 317.645 372.896 321.513 363.173 321.505 C 353.45 321.513 344.124 317.645 337.251 310.772 Z  M 251.613 396.409 C 242.866 387.662 237.945 375.783 237.945 363.409 C 237.945 351.034 242.859 339.162 251.606 330.415 C 260.36 321.661 272.232 316.747 284.607 316.747 C 296.981 316.747 308.86 321.668 317.607 330.415 C 326.354 339.162 331.276 351.041 331.276 363.416 C 331.269 375.783 326.354 387.655 317.6 396.409 C 308.853 405.156 296.981 410.071 284.614 410.078 C 272.239 410.078 260.36 405.156 251.613 396.409 Z  M 258.684 389.338 C 251.811 382.465 247.936 373.131 247.943 363.409 C 247.943 353.693 251.804 344.359 258.677 337.486 C 265.55 330.613 274.891 326.745 284.607 326.745 C 294.322 326.745 303.663 330.613 310.536 337.486 C 317.409 344.359 321.27 353.693 321.27 363.409 C 321.277 373.131 317.402 382.465 310.529 389.338 C 303.656 396.211 294.329 400.079 284.607 400.072 C 274.884 400.079 265.557 396.211 258.684 389.338 Z  M 109.994 337.536 L 71.76 336.906 L 63.629 306.571 L 55.504 276.229 L 88.547 256.423 C 88.533 255.349 88.54 254.267 88.554 253.206 L 55.497 233.386 L 63.629 203.037 L 71.76 172.702 L 110.595 172.065 C 111.068 171.224 111.563 170.39 112.051 169.562 L 93.186 135.593 L 102.025 126.754 L 115.396 113.383 L 137.606 91.172 L 171.95 110.257 C 172.643 109.847 173.357 109.444 174.065 109.048 L 174.708 69.754 L 205.05 61.615 L 235.392 53.491 L 255.827 87.587 C 256.485 87.58 257.143 87.587 257.793 87.587 L 278.243 53.491 L 308.577 61.622 L 338.919 69.747 L 339.577 109.649 C 340.1 109.946 340.624 110.243 341.147 110.554 L 376.028 91.172 L 398.239 113.383 L 420.449 135.593 L 401.067 170.475 C 401.378 170.998 401.675 171.521 401.972 172.044 L 441.874 172.702 L 449.999 203.044 L 458.131 233.379 L 424.034 253.828 C 424.034 254.479 424.041 255.136 424.034 255.794 L 458.131 276.229 L 450.006 306.571 L 441.867 336.913 L 402.573 337.557 C 402.177 338.264 401.774 338.978 401.364 339.671 L 420.449 374.015 L 398.239 396.225 L 376.028 418.436 L 342.059 399.57 C 341.232 400.058 340.397 400.553 339.556 401.027 L 338.919 439.861 L 308.585 447.993 L 278.236 456.124 L 258.415 423.067 C 257.355 423.081 256.273 423.088 255.198 423.074 L 235.392 456.117 L 205.05 447.993 L 174.715 439.861 L 174.086 401.628 C 173.06 401.055 172.035 400.468 171.024 399.867 L 137.606 418.436 L 115.396 396.225 L 93.186 374.015 L 111.754 340.597 C 111.153 339.586 110.566 338.561 109.994 337.536 Z  M 113.055 327.587 L 79.468 327.035 L 73.288 303.983 L 67.108 280.932 L 96.163 263.516 C 97.697 262.589 98.63 260.906 98.588 259.11 C 98.517 256.254 98.524 253.404 98.616 250.554 C 98.666 248.751 97.739 247.047 96.184 246.114 L 67.115 228.684 L 73.295 205.632 L 79.461 182.58 L 113.628 182.014 C 115.424 181.986 117.072 180.989 117.934 179.419 C 119.257 177.008 120.636 174.639 122.085 172.299 C 123.04 170.764 123.082 168.827 122.205 167.243 L 105.588 137.332 L 109.096 133.825 L 122.467 120.454 L 139.339 103.582 L 169.596 120.39 C 171.165 121.267 173.089 121.225 174.623 120.298 C 176.843 118.955 179.099 117.661 181.39 116.43 C 182.974 115.568 183.985 113.92 184.014 112.11 L 184.586 77.455 L 207.645 71.282 L 230.69 65.109 L 248.728 95.182 C 249.647 96.723 251.323 97.65 253.112 97.614 C 255.566 97.565 258.019 97.572 260.466 97.643 C 262.262 97.685 263.959 96.752 264.892 95.21 L 282.938 65.101 L 305.989 71.282 L 329.041 77.462 L 329.628 112.683 C 329.656 114.479 330.646 116.119 332.216 116.982 C 334.323 118.142 336.402 119.344 338.446 120.595 C 339.98 121.536 341.91 121.571 343.48 120.694 L 374.289 103.575 L 391.168 120.454 L 408.046 137.332 L 390.927 168.141 C 390.05 169.711 390.086 171.641 391.026 173.176 C 392.278 175.219 393.48 177.298 394.639 179.405 C 395.502 180.975 397.143 181.965 398.939 181.993 L 434.16 182.58 L 440.34 205.632 L 446.52 228.684 L 416.411 246.729 C 414.87 247.662 413.936 249.359 413.979 251.155 C 414.05 253.602 414.057 256.056 414.007 258.509 C 413.972 260.298 414.898 261.974 416.44 262.893 L 446.513 280.932 L 440.34 303.976 L 434.167 327.035 L 399.511 327.608 C 397.701 327.636 396.054 328.647 395.191 330.231 C 393.961 332.522 392.667 334.778 391.323 336.998 C 390.397 338.533 390.354 340.456 391.231 342.026 L 408.039 372.283 L 391.168 389.154 L 374.289 406.033 L 344.378 389.416 C 342.794 388.539 340.857 388.582 339.322 389.536 C 336.982 390.986 334.613 392.365 332.202 393.687 C 330.632 394.55 329.635 396.197 329.607 397.993 L 329.041 432.161 L 305.989 438.327 L 282.938 444.507 L 265.508 415.438 C 264.574 413.882 262.87 412.956 261.067 413.005 C 258.217 413.097 255.368 413.104 252.511 413.033 C 250.715 412.991 249.032 413.924 248.106 415.459 L 230.69 444.514 L 207.638 438.334 L 184.586 432.154 L 184.035 398.566 C 183.999 396.763 182.995 395.108 181.404 394.253 C 178.809 392.845 176.257 391.382 173.746 389.833 C 172.205 388.886 170.274 388.85 168.698 389.72 L 139.346 406.033 L 122.467 389.154 L 105.588 372.276 L 121.901 342.924 C 122.771 341.347 122.736 339.416 121.788 337.875 C 120.24 335.365 118.776 332.812 117.369 330.217 C 116.513 328.626 114.859 327.622 113.055 327.587 Z  M 144.02 367.602 C 135.273 358.855 130.351 346.975 130.351 334.601 C 130.351 322.227 135.273 310.347 144.02 301.6 C 152.767 292.853 164.646 287.932 177.02 287.932 C 189.395 287.932 201.274 292.853 210.021 301.6 C 218.768 310.347 223.689 322.227 223.689 334.601 C 223.689 346.975 218.768 358.855 210.021 367.602 C 201.274 376.349 189.395 381.27 177.02 381.27 C 164.646 381.27 152.767 376.349 144.02 367.602 Z  M 151.091 360.531 C 144.218 353.658 140.357 344.324 140.35 334.601 C 140.357 324.878 144.218 315.545 151.091 308.671 C 157.964 301.798 167.298 297.938 177.02 297.93 C 186.743 297.938 196.077 301.798 202.95 308.671 C 209.823 315.545 213.684 324.878 213.691 334.601 C 213.684 344.324 209.823 353.658 202.95 360.531 C 196.077 367.404 186.743 371.265 177.02 371.272 C 167.298 371.265 157.964 367.404 151.091 360.531 Z "
          fill-rule="evenodd" fill="rgb(0,0,0)"/>
        <radialGradient id="_rgradient_3" fx="0.5" fy="0.5" cx="0.5" cy="0.5" r="0.5"
                        gradientTransform="matrix(228.509,-228.509,228.509,228.509,28.306,254.807)"
                        gradientUnits="userSpaceOnUse">
          <stop offset="0%" stop-opacity="0.63" style="stop-color:rgb(255,255,255)"/>
          <stop offset="98.26086956521739%" stop-opacity="1" style="stop-color:rgb(255,255,255)"/>
        </radialGradient>
        <path
          d=" M 142.56 369.061 C 79.501 306.003 79.501 203.611 142.56 140.553 C 205.619 77.494 308.01 77.494 371.069 140.553 C 434.127 203.611 434.127 306.003 371.069 369.061 C 308.01 432.12 205.619 432.12 142.56 369.061 Z "
          fill="url(#_rgradient_3)"/>
      </g>
      <clipPath id="_clipPath_PHTNvG28nOLn61OngEl5bNMvzzWIKK8k">
        <path
          d=" M 77.87 235.762 L 106.154 249.904 L 124.525 182.036 L 85.648 182.729 L 184.731 88.065 L 182.522 131.11 L 256.768 109.19 L 237.676 75.956 L 364.248 107.775 L 324.655 131.822 L 376.269 187.678 L 404.553 148.08 L 436.373 274.653 L 399.603 252.025 L 384.225 326.801 L 439.201 329.807 L 331.014 421.024 L 329.677 368.775 L 250.404 394.154 L 282.224 442.944 L 136.045 411.317 L 184.998 378.949 L 129.575 331.134 L 101.204 376.476 L 77.87 235.762 Z "
          fill="rgb(255,255,255)"/>
      </clipPath>
      <g clip-path="url(#_clipPath_PHTNvG28nOLn61OngEl5bNMvzzWIKK8k)">
        <path
          d=" M 93.37 300.88 C 89.57 286.72 87.64 272.12 87.63 257.45 C 87.64 239.18 90.64 221.04 96.52 203.74 C 102.32 186.68 110.82 170.65 121.7 156.28 C 132.65 141.78 145.9 129.16 160.91 118.91 C 176.48 108.32 193.72 100.43 211.91 95.56 C 226.08 91.76 240.68 89.83 255.35 89.82 C 273.61 89.83 291.76 92.83 309.05 98.71 C 326.12 104.51 342.14 113.01 356.52 123.89 C 371.02 134.84 383.64 148.09 393.88 163.1 C 404.48 178.67 412.37 195.91 417.23 214.1 C 421.03 228.27 422.97 242.87 422.97 257.54 C 422.97 275.8 419.96 293.95 414.08 311.24 C 408.28 328.31 399.78 344.33 388.91 358.71 C 377.95 373.21 364.71 385.83 349.69 396.07 C 334.13 406.67 316.88 414.56 298.69 419.42 C 284.53 423.22 269.93 425.16 255.26 425.16 C 236.99 425.16 218.85 422.15 201.55 416.27 C 184.49 410.47 168.46 401.97 154.09 391.1 C 139.59 380.14 126.97 366.9 116.72 351.88 C 106.13 336.32 98.24 319.07 93.37 300.88 Z  M 103.03 298.29 C 99.46 284.97 97.64 271.24 97.63 257.45 C 97.64 240.28 100.46 223.22 105.99 206.96 C 111.45 190.91 119.44 175.83 129.67 162.31 C 139.97 148.67 152.43 136.81 166.54 127.18 C 181.18 117.22 197.4 109.79 214.5 105.22 C 227.82 101.65 241.55 99.83 255.35 99.82 C 272.52 99.83 289.58 102.65 305.83 108.18 C 321.89 113.64 336.97 121.63 350.49 131.86 C 364.12 142.16 375.99 154.62 385.62 168.73 C 395.58 183.37 403 199.59 407.57 216.69 C 411.15 230.01 412.97 243.74 412.97 257.54 C 412.97 274.71 410.14 291.77 404.61 308.02 C 399.16 324.08 391.16 339.15 380.93 352.68 C 370.63 366.31 358.18 378.18 344.06 387.81 C 329.42 397.77 313.21 405.19 296.1 409.76 C 282.78 413.34 269.05 415.16 255.26 415.16 C 238.09 415.16 221.03 412.33 204.77 406.8 C 188.72 401.35 173.64 393.35 160.12 383.12 C 146.48 372.82 134.62 360.37 124.99 346.25 C 115.03 331.61 107.6 315.4 103.03 298.29 Z "
          fill-rule="evenodd" fill="rgb(0,0,0)"/>
      </g>
    </g>
    <path
      d=" M 202 256 C 202 241.683 207.692 227.935 217.821 217.821 C 227.935 207.692 241.683 202 256 202 C 270.317 202 284.065 207.692 294.179 217.821 C 304.308 227.935 310 241.683 310 256 C 310 270.317 304.308 284.065 294.179 294.179 C 284.065 304.308 270.317 310 256 310 C 241.683 310 227.935 304.308 217.821 294.179 C 207.692 284.065 202 270.317 202 256 Z  M 216.595 256 C 216.595 245.55 220.754 235.524 228.139 228.139 C 235.524 220.754 245.55 216.595 256 216.595 C 266.45 216.595 276.476 220.754 283.861 228.139 C 291.246 235.524 295.405 245.55 295.405 256 C 295.405 266.45 291.246 276.476 283.861 283.861 C 276.476 291.246 266.45 295.405 256 295.405 C 245.55 295.405 235.524 291.246 228.139 283.861 C 220.754 276.476 216.595 266.45 216.595 256 Z "
      fill-rule="evenodd" fill="rgb(0,0,0)"/>
    <circle cx="256.00000021699134" cy="256" r="44.99999978300866"
            fill="rgb(85,194,200)"/>
  </g>
</svg>
