<svg xmlns="http://www.w3.org/2000/svg" fill-rule="evenodd" stroke-linejoin="round" stroke-miterlimit="2" clip-rule="evenodd" viewBox="0 0 363 363"><defs/><path fill="none" d="M0 0h363v363H0z"/><path fill="url(#_Radial1)" d="M363 54c0-30-25-54-55-54H54C24 0 0 24 0 54v254c0 30 24 55 54 55h254c30 0 55-25 55-55V54z"/><path fill="url(#_Radial2)" d="M198 13h-33l-9 19c-9 1-19 4-28 7l-17-12c-10 5-19 10-28 17l2 20c-8 6-15 13-21 21l-20-2c-7 9-12 18-17 28l12 17c-3 9-6 19-7 28l-19 9v33l19 8c1 10 4 20 7 29l-12 17c5 10 10 19 17 28l20-2c6 8 13 15 21 21l-2 20c9 7 18 12 28 17l17-12c9 3 19 6 28 7l9 19h33l8-19c10-1 20-4 29-7l17 12c10-5 19-10 28-17l-2-20c8-6 15-13 21-21l20 2c7-9 12-18 17-28l-12-17c3-9 6-19 7-29l19-8v-33l-19-9c-1-9-4-19-7-28l12-17c-5-10-10-19-17-28l-20 2c-6-8-13-15-21-21l2-20c-9-7-18-12-28-17l-17 12c-9-3-19-6-29-7l-8-19zm72 266a9 9 0 000-13l-74-60-2-1c-8 5-17 5-25 0l-2 1-74 60a8 8 0 000 13 131 131 0 00177 0zM153 63a9 9 0 00-11-7 132 132 0 00-89 154 8 8 0 0011 6l89-34 1-2c1-9 5-17 13-22l1-1-15-94zm68-7a8 8 0 00-11 7l-15 94 1 1c7 5 12 13 13 22v2l90 34a8 8 0 0011-6 132 132 0 00-89-154zm-40 117a8 8 0 110 17 8 8 0 010-17z"/><path fill="url(#_Radial3)" d="M198 13h-33l-9 19c-9 1-19 4-28 7l-17-12c-10 5-19 10-28 17l2 20c-8 6-15 13-21 21l-20-2c-7 9-12 18-17 28l12 17c-3 9-6 19-7 28l-19 9v33l19 8c1 10 4 20 7 29l-12 17c5 10 10 19 17 28l20-2c6 8 13 15 21 21l-2 20c9 7 18 12 28 17l17-12c9 3 19 6 28 7l9 19h33l8-19c10-1 20-4 29-7l17 12c10-5 19-10 28-17l-2-20c8-6 15-13 21-21l20 2c7-9 12-18 17-28l-12-17c3-9 6-19 7-29l19-8v-33l-19-9c-1-9-4-19-7-28l12-17c-5-10-10-19-17-28l-20 2c-6-8-13-15-21-21l2-20c-9-7-18-12-28-17l-17 12c-9-3-19-6-29-7l-8-19zm72 266a9 9 0 000-13l-74-60-2-1c-8 5-17 5-25 0l-2 1-74 60a8 8 0 000 13 131 131 0 00177 0zM153 63a9 9 0 00-11-7 132 132 0 00-89 154 8 8 0 0011 6l89-34 1-2c1-9 5-17 13-22l1-1-15-94zm68-7a8 8 0 00-11 7l-15 94 1 1c7 5 12 13 13 22v2l90 34a8 8 0 0011-6 132 132 0 00-89-154zm-40 117a8 8 0 110 17 8 8 0 010-17z"/><defs><radialGradient id="_Radial1" cx="0" cy="0" r="1" gradientTransform="translate(181 181) scale(181.417)" gradientUnits="userSpaceOnUse"><stop offset="0" stop-color="#464646"/><stop offset=".4" stop-color="#1e1e1e"/><stop offset="1" stop-color="#141414"/></radialGradient><radialGradient id="_Radial2" cx="0" cy="0" r="1" gradientTransform="translate(181 181) scale(169.438)" gradientUnits="userSpaceOnUse"><stop offset="0" stop-color="#ff5b00"/><stop offset="1" stop-color="#b01f00"/></radialGradient><radialGradient id="_Radial3" cx="0" cy="0" r="1" gradientTransform="translate(181 181) scale(169.438)" gradientUnits="userSpaceOnUse"><stop offset="0" stop-color="#ff5b00"/><stop offset="1" stop-color="#b01f00"/></radialGradient></defs></svg>