<?xml version="1.0" encoding="UTF-8" standalone="no"?><!DOCTYPE svg PUBLIC "-//W3C//DTD SVG 1.1//EN" "http://www.w3.org/Graphics/SVG/1.1/DTD/svg11.dtd"><svg width="100%" height="100%" viewBox="0 0 363 363" version="1.1" xmlns="http://www.w3.org/2000/svg" xmlns:xlink="http://www.w3.org/1999/xlink" xml:space="preserve" xmlns:serif="http://www.serif.com/" style="fill-rule:evenodd;clip-rule:evenodd;stroke-linejoin:round;stroke-miterlimit:2;"><rect id="filemanager" x="0" y="0" width="362.835" height="362.835" style="fill:none;"/><path d="M362.835,54.425c0,-30.038 -24.387,-54.425 -54.426,-54.425l-253.984,0c-30.038,0 -54.425,24.387 -54.425,54.425l0,253.984c0,30.039 24.387,54.426 54.425,54.426l253.984,0c30.039,0 54.426,-24.387 54.426,-54.426l0,-253.984Z" style="fill:url(#_Radial1);"/><path d="M197.804,12.774c-10.899,-1.059 -21.875,-1.059 -32.774,0l-8.56,18.763c-9.686,1.612 -19.193,4.16 -28.388,7.607l-16.795,-11.97c-9.968,4.533 -19.474,10.021 -28.383,16.387l1.968,20.53c-7.582,6.239 -14.542,13.199 -20.781,20.781l-20.53,-1.968c-6.366,8.909 -11.854,18.415 -16.387,28.383l11.97,16.795c-3.447,9.195 -5.995,18.702 -7.607,28.388l-18.763,8.56c-1.059,10.899 -1.059,21.875 0,32.774l18.763,8.56c1.612,9.687 4.16,19.194 7.607,28.389l-11.97,16.794c4.533,9.969 10.021,19.474 16.387,28.384l20.53,-1.969c6.239,7.583 13.199,14.543 20.781,20.782l-1.968,20.529c8.909,6.367 18.415,11.855 28.383,16.387l16.795,-11.969c9.195,3.447 18.702,5.994 28.388,7.607l8.56,18.763c10.899,1.059 21.875,1.059 32.774,0l8.56,-18.763c9.687,-1.613 19.194,-4.16 28.389,-7.607l16.794,11.969c9.969,-4.532 19.474,-10.02 28.384,-16.387l-1.969,-20.529c7.583,-6.239 14.543,-13.199 20.782,-20.782l20.529,1.969c6.367,-8.91 11.855,-18.415 16.387,-28.384l-11.969,-16.794c3.447,-9.195 5.994,-18.702 7.607,-28.389l18.763,-8.56c1.059,-10.899 1.059,-21.875 0,-32.774l-18.763,-8.56c-1.613,-9.686 -4.16,-19.193 -7.607,-28.388l11.969,-16.795c-4.532,-9.968 -10.02,-19.474 -16.387,-28.383l-20.529,1.968c-6.239,-7.582 -13.199,-14.542 -20.782,-20.781l1.969,-20.53c-8.91,-6.366 -18.415,-11.854 -28.384,-16.387l-16.794,11.97c-9.195,-3.447 -18.702,-5.995 -28.389,-7.607l-8.56,-18.763Zm72.413,265.849c1.843,-1.679 2.863,-4.079 2.792,-6.571c-0.071,-2.493 -1.225,-4.831 -3.162,-6.402c-18.83,-15.281 -67.441,-54.725 -74.114,-60.14c-0.457,-0.371 -1.094,-0.431 -1.613,-0.151c-7.94,4.217 -17.462,4.217 -25.404,0.003c-0.52,-0.28 -1.157,-0.22 -1.616,0.152c-6.696,5.431 -55.444,44.986 -74.206,60.21c-1.912,1.552 -3.053,3.86 -3.125,6.322c-0.071,2.462 0.935,4.833 2.754,6.493c23.432,21.459 54.645,34.563 88.894,34.563c34.204,0 65.38,-13.069 88.8,-34.479Zm-117.532,-215.913c-0.395,-2.474 -1.848,-4.654 -3.981,-5.969c-2.132,-1.315 -4.733,-1.635 -7.121,-0.877c-53.233,16.909 -91.85,66.757 -91.85,125.553c0,9.748 1.061,19.25 3.074,28.393c0.526,2.417 2.081,4.484 4.257,5.66c2.176,1.176 4.757,1.344 7.068,0.459c22.598,-8.646 81.201,-31.075 89.257,-34.158c0.554,-0.212 0.925,-0.736 0.943,-1.328c0.32,-8.971 5.068,-17.206 12.669,-21.979c0.52,-0.322 0.797,-0.926 0.7,-1.531c-1.374,-8.637 -11.199,-70.274 -15.016,-94.223Zm68.367,-6.897c-2.338,-0.738 -4.882,-0.422 -6.968,0.867c-2.086,1.289 -3.508,3.423 -3.894,5.844c-3.807,23.816 -13.683,85.776 -15.06,94.414c-0.096,0.603 0.179,1.204 0.698,1.526c7.604,4.769 12.354,13.004 12.677,21.976c0.017,0.593 0.39,1.117 0.944,1.33c8.079,3.094 66.831,25.58 89.353,34.2c2.284,0.874 4.837,0.709 6.99,-0.453c2.152,-1.162 3.691,-3.205 4.214,-5.595c2.026,-9.178 3.096,-18.717 3.096,-28.505c0,-58.868 -38.712,-108.766 -92.05,-125.604Zm-39.635,117.111c4.688,0 8.493,3.806 8.493,8.493c0,4.688 -3.805,8.493 -8.493,8.493c-4.687,0 -8.493,-3.805 -8.493,-8.493c0,-4.687 3.806,-8.493 8.493,-8.493Z" style="fill:url(#_Radial2);"/><path d="M197.804,12.774c-10.899,-1.059 -21.875,-1.059 -32.774,0l-8.56,18.763c-9.686,1.612 -19.193,4.16 -28.388,7.607l-16.795,-11.97c-9.968,4.533 -19.474,10.021 -28.383,16.387l1.968,20.53c-7.582,6.239 -14.542,13.199 -20.781,20.781l-20.53,-1.968c-6.366,8.909 -11.854,18.415 -16.387,28.383l11.97,16.795c-3.447,9.195 -5.995,18.702 -7.607,28.388l-18.763,8.56c-1.059,10.899 -1.059,21.875 0,32.774l18.763,8.56c1.612,9.687 4.16,19.194 7.607,28.389l-11.97,16.794c4.533,9.969 10.021,19.474 16.387,28.384l20.53,-1.969c6.239,7.583 13.199,14.543 20.781,20.782l-1.968,20.529c8.909,6.367 18.415,11.855 28.383,16.387l16.795,-11.969c9.195,3.447 18.702,5.994 28.388,7.607l8.56,18.763c10.899,1.059 21.875,1.059 32.774,0l8.56,-18.763c9.687,-1.613 19.194,-4.16 28.389,-7.607l16.794,11.969c9.969,-4.532 19.474,-10.02 28.384,-16.387l-1.969,-20.529c7.583,-6.239 14.543,-13.199 20.782,-20.782l20.529,1.969c6.367,-8.91 11.855,-18.415 16.387,-28.384l-11.969,-16.794c3.447,-9.195 5.994,-18.702 7.607,-28.389l18.763,-8.56c1.059,-10.899 1.059,-21.875 0,-32.774l-18.763,-8.56c-1.613,-9.686 -4.16,-19.193 -7.607,-28.388l11.969,-16.795c-4.532,-9.968 -10.02,-19.474 -16.387,-28.383l-20.529,1.968c-6.239,-7.582 -13.199,-14.542 -20.782,-20.781l1.969,-20.53c-8.91,-6.366 -18.415,-11.854 -28.384,-16.387l-16.794,11.97c-9.195,-3.447 -18.702,-5.995 -28.389,-7.607l-8.56,-18.763Zm72.413,265.849c1.843,-1.679 2.863,-4.079 2.792,-6.571c-0.071,-2.493 -1.225,-4.831 -3.162,-6.402c-18.83,-15.281 -67.441,-54.725 -74.114,-60.14c-0.457,-0.371 -1.094,-0.431 -1.613,-0.151c-7.94,4.217 -17.462,4.217 -25.404,0.003c-0.52,-0.28 -1.157,-0.22 -1.616,0.152c-6.696,5.431 -55.444,44.986 -74.206,60.21c-1.912,1.552 -3.053,3.86 -3.125,6.322c-0.071,2.462 0.935,4.833 2.754,6.493c23.432,21.459 54.645,34.563 88.894,34.563c34.204,0 65.38,-13.069 88.8,-34.479Zm-117.532,-215.913c-0.395,-2.474 -1.848,-4.654 -3.981,-5.969c-2.132,-1.315 -4.733,-1.635 -7.121,-0.877c-53.233,16.909 -91.85,66.757 -91.85,125.553c0,9.748 1.061,19.25 3.074,28.393c0.526,2.417 2.081,4.484 4.257,5.66c2.176,1.176 4.757,1.344 7.068,0.459c22.598,-8.646 81.201,-31.075 89.257,-34.158c0.554,-0.212 0.925,-0.736 0.943,-1.328c0.32,-8.971 5.068,-17.206 12.669,-21.979c0.52,-0.322 0.797,-0.926 0.7,-1.531c-1.374,-8.637 -11.199,-70.274 -15.016,-94.223Zm68.367,-6.897c-2.338,-0.738 -4.882,-0.422 -6.968,0.867c-2.086,1.289 -3.508,3.423 -3.894,5.844c-3.807,23.816 -13.683,85.776 -15.06,94.414c-0.096,0.603 0.179,1.204 0.698,1.526c7.604,4.769 12.354,13.004 12.677,21.976c0.017,0.593 0.39,1.117 0.944,1.33c8.079,3.094 66.831,25.58 89.353,34.2c2.284,0.874 4.837,0.709 6.99,-0.453c2.152,-1.162 3.691,-3.205 4.214,-5.595c2.026,-9.178 3.096,-18.717 3.096,-28.505c0,-58.868 -38.712,-108.766 -92.05,-125.604Zm-39.635,117.111c4.688,0 8.493,3.806 8.493,8.493c0,4.688 -3.805,8.493 -8.493,8.493c-4.687,0 -8.493,-3.805 -8.493,-8.493c0,-4.687 3.806,-8.493 8.493,-8.493Z" style="fill:url(#_Radial3);"/><defs><radialGradient id="_Radial1" cx="0" cy="0" r="1" gradientUnits="userSpaceOnUse" gradientTransform="matrix(181.417,0,0,181.417,181.417,181.417)"><stop offset="0" style="stop-color:#464646;stop-opacity:1"/><stop offset="0.44" style="stop-color:#1e1e1e;stop-opacity:1"/><stop offset="1" style="stop-color:#141414;stop-opacity:1"/></radialGradient><radialGradient id="_Radial2" cx="0" cy="0" r="1" gradientUnits="userSpaceOnUse" gradientTransform="matrix(169.438,0,0,169.438,181.417,181.417)"><stop offset="0" style="stop-color:#ff5b00;stop-opacity:1"/><stop offset="1" style="stop-color:#b01f00;stop-opacity:1"/></radialGradient><radialGradient id="_Radial3" cx="0" cy="0" r="1" gradientUnits="userSpaceOnUse" gradientTransform="matrix(169.438,0,0,169.438,181.417,181.417)"><stop offset="0" style="stop-color:#ff5b00;stop-opacity:1"/><stop offset="1" style="stop-color:#b01f00;stop-opacity:1"/></radialGradient></defs></svg>