<?xml version="1.0" encoding="UTF-8" standalone="no"?><!DOCTYPE svg PUBLIC "-//W3C//DTD SVG 1.1//EN" "http://www.w3.org/Graphics/SVG/1.1/DTD/svg11.dtd"><svg width="100%" height="100%" viewBox="0 0 363 363" version="1.1" xmlns="http://www.w3.org/2000/svg" xmlns:xlink="http://www.w3.org/1999/xlink" xml:space="preserve" xmlns:serif="http://www.serif.com/" style="fill-rule:evenodd;clip-rule:evenodd;stroke-linejoin:round;stroke-miterlimit:2;"><rect id="ArtBoard1" x="0" y="0" width="362.835" height="362.835" style="fill:none;"/><path d="M362.835,54.425c0,-30.038 -24.387,-54.425 -54.426,-54.425l-253.984,0c-30.038,0 -54.425,24.387 -54.425,54.425l0,253.984c0,30.039 24.387,54.426 54.425,54.426l253.984,0c30.039,0 54.426,-24.387 54.426,-54.426l0,-253.984Z" style="fill:url(#_Linear1);"/><path d="M85.351,207.964l-41.165,-174.23l-14.139,0c-2.855,0 -5.173,-2.318 -5.173,-5.173l0,-10.346c0,-2.855 2.318,-5.174 5.173,-5.174l23.902,0c0.116,0 0.231,0.004 0.345,0.012c2.152,-0.257 4.155,1.098 4.675,3.3l4.661,19.724l269.099,0c2.855,0 5.173,2.318 5.173,5.173c0,0 0.151,12.708 -0.033,13.486l-36.193,153.188c6.968,2.515 12.913,8.263 16.823,15.927l-220.922,0c-9.076,0 -16.444,9.617 -16.444,21.463c0,11.846 7.368,21.464 16.444,21.464l220.922,0c-1.002,1.963 -2.138,3.801 -3.39,5.491c12.955,6.005 22.092,20.444 22.092,37.285c0,22.219 -15.907,40.259 -35.499,40.259c-19.593,0 -35.499,-18.04 -35.499,-40.259c0,-9.65 3,-18.512 8.001,-25.452l-147.535,0c5.001,6.94 8.001,15.802 8.001,25.452c0,22.219 -15.906,40.259 -35.499,40.259c-19.592,0 -35.499,-18.04 -35.499,-40.259c0,-12.845 5.316,-24.294 13.586,-31.666c-8.174,-6.916 -13.586,-18.926 -13.586,-32.574c0,-17.772 9.177,-32.769 21.679,-37.35Zm13.82,83.811c8.652,0 15.677,7.966 15.677,17.779c0,9.812 -7.025,17.779 -15.677,17.779c-8.652,0 -15.677,-7.967 -15.677,-17.779c0,-9.813 7.025,-17.779 15.677,-17.779Zm202.531,0c8.652,0 15.676,7.966 15.676,17.779c0,9.812 -7.024,17.779 -15.676,17.779c-8.652,0 -15.677,-7.967 -15.677,-17.779c0,-9.813 7.025,-17.779 15.677,-17.779Zm-162.493,-89.757l-8.24,-34.879l-36.373,0l8.24,34.879l36.373,0Zm10.65,-34.879l8.24,34.879l26.15,0l0,-34.879l-34.39,0Zm83.655,0l-31.019,0l0,34.879l22.779,0c0.007,-0.031 0.014,-0.062 0.021,-0.093l8.219,-34.786Zm18.889,0l-8.24,34.879l40.018,0l8.241,-34.879l-40.019,0Zm-126.323,-20.692l-8.241,-34.878l-36.373,0l8.241,34.878l36.373,0Zm10.649,-34.878l8.241,34.878l39.279,0l0,-34.878l-47.52,0Zm65.766,0l0,34.878l35.908,0l8.24,-34.878l-44.148,0Zm63.038,0l-8.241,34.878l40.019,0l8.241,-34.878l-40.019,0Zm-152.583,-20.693l-8.058,-34.106l-36.373,0l8.058,34.106l36.373,0Zm10.832,-34.106l8.058,34.106l52.409,0l0,-34.106l-60.467,0Zm78.713,0l0,34.106l49.037,0l8.059,-34.106l-57.096,0Zm75.985,0l-8.058,34.106l40.019,0l8.058,-34.106l-40.019,0Z" style="fill:url(#_Linear2);"/><defs><linearGradient id="_Linear1" x1="0" y1="0" x2="1" y2="0" gradientUnits="userSpaceOnUse" gradientTransform="matrix(9.06634e-13,332.616,-332.616,9.06634e-13,183.844,12.9304)"><stop offset="0" style="stop-color:#000;stop-opacity:1"/><stop offset="1" style="stop-color:#323232;stop-opacity:1"/></linearGradient><linearGradient id="_Linear2" x1="0" y1="0" x2="1" y2="0" gradientUnits="userSpaceOnUse" gradientTransform="matrix(1.48023e-14,241.741,-241.741,1.48023e-14,202.495,36.8531)"><stop offset="0" style="stop-color:#57eb59;stop-opacity:1"/><stop offset="1" style="stop-color:#009a02;stop-opacity:1"/></linearGradient></defs></svg>