<svg xmlns="http://www.w3.org/2000/svg" fill-rule="evenodd" stroke-linejoin="round" stroke-miterlimit="2" clip-rule="evenodd" viewBox="0 0 363 363"><path fill="none" d="M0 0h363v363H0z"/><path fill="url(#_Linear1)" d="M363 54c0-30-25-54-55-54H54C24 0 0 24 0 54v254c0 30 24 55 54 55h254c30 0 55-25 55-55V54z"/><path fill="url(#_Linear2)" d="M85 208L44 34H30c-3 0-5-3-5-5V18c0-3 2-5 5-5h24c2 0 4 1 5 3l5 20h269c3 0 5 2 5 5v14l-36 153c7 2 13 8 16 16H98c-9 0-17 9-17 21s8 22 17 22h220l-3 5c13 6 22 21 22 38 0 22-16 40-35 40-20 0-36-18-36-40 0-10 3-19 8-26H127c5 7 8 16 8 26 0 22-16 40-36 40-19 0-35-18-35-40 0-13 5-25 13-32-8-7-13-19-13-33 0-17 9-32 21-37zm14 84c9 0 16 8 16 18 0 9-7 17-16 17-8 0-16-8-16-17 0-10 8-18 16-18zm203 0c8 0 15 8 15 18 0 9-7 17-15 17-9 0-16-8-16-17 0-10 7-18 16-18zm-163-90l-8-35H95l8 35h36zm11-35l8 35h26v-35h-34zm84 0h-32v35h23l9-35zm18 0l-8 35h40l8-35h-40zm-126-21l-8-34H81l9 34h36zm11-34l8 34h39v-34h-47zm65 0v34h36l9-34h-45zm64 0l-9 34h40l9-34h-40zM113 91l-8-34H69l8 34h36zm11-34l8 34h52V57h-60zm78 0v34h50l8-34h-58zm76 0l-8 34h40l8-34h-40z"/><defs><linearGradient id="_Linear1" x1="0" x2="1" y1="0" y2="0" gradientTransform="rotate(90 85 98) scale(332.616)" gradientUnits="userSpaceOnUse"><stop offset="0"/><stop offset="1" stop-color="#323232"/></linearGradient><linearGradient id="_Linear2" x1="0" x2="1" y1="0" y2="0" gradientTransform="rotate(90 83 120) scale(241.741)" gradientUnits="userSpaceOnUse"><stop offset="0" stop-color="#57eb59"/><stop offset="1" stop-color="#009a02"/></linearGradient></defs></svg>