<svg xmlns="http://www.w3.org/2000/svg" width="128" height="128"><defs/><defs><linearGradient id="a" x1=".5" x2=".5" y2="1" gradientUnits="objectBoundingBox"><stop offset="0" stop-color="#88c5cc"/><stop offset=".406" stop-color="#85c1c8"/><stop offset="1" stop-color="#4c8085"/></linearGradient></defs><g transform="translate(7594 -1903)"><rect data-name="Rechteck 126" width="128" height="128" rx="12" transform="translate(-7594 1903)" fill="url(#a)"/><g data-name="Gruppe 207"><path data-name="Rechteck 127" fill="#8d6236" d="M-7572 1924h28v86h-28z"/><path data-name="Rechteck 128" fill="#80522b" d="M-7552 1924h8v86h-8z"/></g><g data-name="Gruppe 208"><path data-name="Rechteck 127" fill="#c22229" d="M-7544 1936h28v74h-28z"/><path data-name="Rechteck 128" fill="#af1925" d="M-7524 1936h8v74h-8z"/></g><g data-name="Gruppe 209"><path data-name="Rechteck 127" fill="#0072bd" d="M-7516 1927h28v83h-28z"/><path data-name="Rechteck 128" fill="#00679f" d="M-7496 1927h8v83h-8z"/></g><path data-name="Rechteck 129" fill="#60350b" d="M-7572 1984h28v4h-28z"/><path data-name="Rechteck 130" fill="#60350b" d="M-7572 1990h28v10h-28z"/><path data-name="Rechteck 131" fill="#60350b" d="M-7572 1934h28v10h-28z"/><path data-name="Rechteck 132" fill="#fbb238" d="M-7544 2000h28v4h-28z"/><path data-name="Rechteck 133" fill="#fbb238" d="M-7544 1942h28v10h-28z"/><rect data-name="Rechteck 135" width="14" height="37" rx="2" transform="translate(-7509 1951)" fill="#2a2d93"/><path data-name="Rechteck 136" fill="#fbb238" d="M-7544 1996h28v2h-28z"/><path data-name="Rechteck 137" fill="#2a2d93" d="M-7516 1994h28v2h-28z"/><path data-name="Rechteck 138" fill="#2a2d93" d="M-7516 1998h28v2h-28z"/><path data-name="Rechteck 139" fill="#2a2d93" d="M-7516 1939h28v2h-28z"/><path data-name="Rechteck 140" fill="#2a2d93" d="M-7516 1943h28v2h-28z"/><rect data-name="Rechteck 141" width="14" height="24" rx="2" transform="translate(-7565 1952)" fill="#60350b"/><rect data-name="Rechteck 142" width="14" height="14" rx="7" transform="translate(-7537 1958)" fill="#fbb238"/></g></svg>