<svg id="svg5826" version="1.1" viewBox="0 0 211.109 77.312" xmlns="http://www.w3.org/2000/svg"
     xmlns:xlink="http://www.w3.org/1999/xlink">
  <defs id="defs5820">
    <linearGradient gradientUnits="userSpaceOnUse" id="linear-gradient-33" x1="304.88" x2="328.14" y1="157.16"
                    y2="157.16">
      <stop id="stop40" offset="0" stop-color="#95c11f"/>
      <stop id="stop42" offset=".67" stop-color="#3aaa35"/>
      <stop id="stop44" offset="1" stop-color="#008d36"/>
    </linearGradient>
    <linearGradient gradientTransform="translate(4.91 -140.38) scale(2.42372)" id="linear-gradient-34" x1="304.88"
                    x2="328.14" xlink:href="#linear-gradient-33"
                    y1="195.99" y2="195.99"/>
    <linearGradient id="linear-gradient-35" x1="293.14" x2="305.8" xlink:href="#linear-gradient-33" y1="171.38"
                    y2="171.38"/>
    <linearGradient id="linear-gradient-36" x1="30.59" x2="73.1" xlink:href="#linear-gradient-33" y1="131.66"
                    y2="131.66"/>
    <linearGradient id="linear-gradient-37" x1="0" x2="32.71" xlink:href="#linear-gradient-33" y1="145.15" y2="145.15"/>
    <linearGradient id="linear-gradient-38" x1="0" x2="9.97" xlink:href="#linear-gradient-33" y1="173.45" y2="173.45"/>
    <linearGradient id="linear-gradient-39" x1=".009" x2="27.62" xlink:href="#linear-gradient-33" y1="200.94"
                    y2="200.94"/>
    <linearGradient id="linear-gradient-40" x1="55.83" x2="84.07" xlink:href="#linear-gradient-33" y1="207.29"
                    y2="207.29"/>
    <linearGradient id="linear-gradient-41" x1="23.99" x2="65.67" xlink:href="#linear-gradient-33" y1="217.67"
                    y2="217.67"/>
    <linearGradient id="linear-gradient-42" x1="61" x2="84.19" xlink:href="#linear-gradient-33" y1="145.11"
                    y2="145.11"/>
    <linearGradient id="linear-gradient-43" x1="26.59" x2="65.68" xlink:href="#linear-gradient-33" y1="155.7"
                    y2="155.7"/>
    <linearGradient id="linear-gradient-44" x1="16.88" x2="73.9" xlink:href="#linear-gradient-33" y1="172.97"
                    y2="172.97"/>
    <linearGradient id="linear-gradient-45" x1="14.39" x2="42.52" xlink:href="#linear-gradient-33" y1="192.89"
                    y2="192.89"/>
    <linearGradient id="linear-gradient-46" x1="45.51" x2="79.12" xlink:href="#linear-gradient-33" y1="194.63"
                    y2="194.63"/>
    <linearGradient gradientTransform="translate(4.91 -140.38) scale(2.42372)" id="linear-gradient-47" x1="99.77"
                    x2="118.38" xlink:href="#linear-gradient-33"
                    y1="167.96" y2="167.96"/>
    <linearGradient gradientTransform="translate(4.91 -140.38) scale(2.42372)" id="linear-gradient-48" x1="88.32"
                    x2="102.06" xlink:href="#linear-gradient-33"
                    y1="176.59" y2="176.59"/>
    <linearGradient id="linear-gradient-49" x1="274.53" x2="288.01" xlink:href="#linear-gradient-33" y1="185.76"
                    y2="185.76"/>
    <linearGradient id="linear-gradient-50" x1="274.12" x2="288.41" xlink:href="#linear-gradient-33" y1="158.58"
                    y2="158.58"/>
    <linearGradient gradientTransform="translate(4.91 -140.38) scale(2.42372)" id="linear-gradient-51" x1="226.52"
                    x2="269.94" xlink:href="#linear-gradient-33"
                    y1="166.74" y2="166.74"/>
    <linearGradient gradientTransform="translate(4.91 -140.38) scale(2.42372)" id="linear-gradient-52" x1="174.83"
                    x2="222.37" xlink:href="#linear-gradient-33"
                    y1="196.17" y2="196.17"/>
    <linearGradient gradientTransform="translate(4.91 -140.38) scale(2.42372)" id="linear-gradient-53" x1="122.56"
                    x2="171.21" xlink:href="#linear-gradient-33"
                    y1="196.26" y2="196.26"/>
    <linearGradient gradientTransform="translate(4.91 -140.38) scale(2.42372)" gradientUnits="userSpaceOnUse"
                    id="linearGradient4994" x1="304.88" x2="328.14"
                    xlink:href="#linear-gradient-33" y1="157.16"
                    y2="157.16"/>
    <linearGradient gradientTransform="matrix(.91743 0 0 .91743 24.904 19.435)" id="linear-gradient-38-7" x1="0"
                    x2="9.97" xlink:href="#linear-gradient-33"
                    y1="173.45" y2="173.45"/>
    <linearGradient gradientTransform="matrix(.91743 0 0 .91743 24.904 19.435)" id="linear-gradient-39-7" x1=".009"
                    x2="27.62" xlink:href="#linear-gradient-33"
                    y1="200.94" y2="200.94"/>
    <linearGradient gradientTransform="matrix(.91743 0 0 .91743 24.904 19.435)" id="linear-gradient-40-9" x1="55.83"
                    x2="84.07" xlink:href="#linear-gradient-33"
                    y1="207.29" y2="207.29"/>
    <linearGradient gradientTransform="matrix(.91743 0 0 .91743 24.904 19.435)" id="linear-gradient-41-7" x1="23.99"
                    x2="65.67" xlink:href="#linear-gradient-33"
                    y1="217.67" y2="217.67"/>
    <linearGradient gradientTransform="matrix(.91743 0 0 .91743 24.904 19.435)" id="linear-gradient-46-3" x1="45.51"
                    x2="79.12" xlink:href="#linear-gradient-33"
                    y1="194.63" y2="194.63"/>
    <linearGradient gradientTransform="matrix(.91743 0 0 .91743 24.904 19.435)" id="linear-gradient-45-9" x1="14.39"
                    x2="42.52" xlink:href="#linear-gradient-33"
                    y1="192.89" y2="192.89"/>
    <linearGradient gradientTransform="matrix(.91743 0 0 .91743 24.904 19.435)" id="linear-gradient-44-6" x1="16.88"
                    x2="73.9" xlink:href="#linear-gradient-33"
                    y1="172.97" y2="172.97"/>
    <linearGradient gradientTransform="matrix(.91743 0 0 .91743 24.904 19.435)" id="linear-gradient-43-5" x1="26.59"
                    x2="65.68" xlink:href="#linear-gradient-33"
                    y1="155.7" y2="155.7"/>
    <linearGradient gradientTransform="matrix(.91743 0 0 .91743 24.904 19.435)" id="linear-gradient-42-4" x1="61"
                    x2="84.19" xlink:href="#linear-gradient-33"
                    y1="145.11" y2="145.11"/>
    <linearGradient gradientTransform="matrix(.91743 0 0 .91743 24.904 19.435)" id="linear-gradient-36-0" x1="30.59"
                    x2="73.1" xlink:href="#linear-gradient-33"
                    y1="131.66" y2="131.66"/>
    <linearGradient gradientTransform="matrix(.91743 0 0 .91743 24.904 19.435)" id="linear-gradient-37-7" x1="0"
                    x2="32.71" xlink:href="#linear-gradient-33"
                    y1="145.15" y2="145.15"/>
    <linearGradient gradientTransform="matrix(.64128 0 0 .64128 449.803 294.751)" id="linear-gradient-38-6" x1="0"
                    x2="9.97" xlink:href="#linear-gradient-33"
                    y1="173.45" y2="173.45"/>
    <linearGradient gradientTransform="matrix(.64128 0 0 .64128 449.803 294.751)" id="linear-gradient-39-0" x1=".009"
                    x2="27.62" xlink:href="#linear-gradient-33"
                    y1="200.94" y2="200.94"/>
    <linearGradient gradientTransform="matrix(.64128 0 0 .64128 449.803 294.751)" id="linear-gradient-40-1" x1="55.83"
                    x2="84.07" xlink:href="#linear-gradient-33"
                    y1="207.29" y2="207.29"/>
    <linearGradient gradientTransform="matrix(.64128 0 0 .64128 449.803 294.751)" id="linear-gradient-41-1" x1="23.99"
                    x2="65.67" xlink:href="#linear-gradient-33"
                    y1="217.67" y2="217.67"/>
    <linearGradient gradientTransform="matrix(.64128 0 0 .64128 449.803 294.751)" id="linear-gradient-46-9" x1="45.51"
                    x2="79.12" xlink:href="#linear-gradient-33"
                    y1="194.63" y2="194.63"/>
    <linearGradient gradientTransform="matrix(.64128 0 0 .64128 449.803 294.751)" id="linear-gradient-45-4" x1="14.39"
                    x2="42.52" xlink:href="#linear-gradient-33"
                    y1="192.89" y2="192.89"/>
    <linearGradient gradientTransform="matrix(.64128 0 0 .64128 449.803 294.751)" id="linear-gradient-44-1" x1="16.88"
                    x2="73.9" xlink:href="#linear-gradient-33"
                    y1="172.97" y2="172.97"/>
    <linearGradient gradientTransform="matrix(.64128 0 0 .64128 449.803 294.751)" id="linear-gradient-43-3" x1="26.59"
                    x2="65.68" xlink:href="#linear-gradient-33"
                    y1="155.7" y2="155.7"/>
    <linearGradient gradientTransform="matrix(.64128 0 0 .64128 449.803 294.751)" id="linear-gradient-42-8" x1="61"
                    x2="84.19" xlink:href="#linear-gradient-33"
                    y1="145.11" y2="145.11"/>
    <linearGradient gradientTransform="matrix(.64128 0 0 .64128 449.803 294.751)" id="linear-gradient-36-8" x1="30.59"
                    x2="73.1" xlink:href="#linear-gradient-33"
                    y1="131.66" y2="131.66"/>
    <linearGradient gradientTransform="matrix(.64128 0 0 .64128 449.803 294.751)" id="linear-gradient-37-4" x1="0"
                    x2="32.71" xlink:href="#linear-gradient-33"
                    y1="145.15" y2="145.15"/>
  </defs>
  <g id="layer1" stroke-dasharray="none" stroke-miterlimit="7.95" transform="translate(-317.84 35.679)">
    <g id="g933" stroke-width="2.423" transform="matrix(.26458 0 0 .26458 316.888 -76.138)">
      <path
        d="M800.23 254.371h-56.376l-.089-27.657 42.092-.022a21.353 21.353 0 019.961 9.235 36.356 36.356 0 014.411 18.444z"
        fill="url(#linearGradient4994)" id="path4815-6-2" stroke="#010101"
        stroke-width="2.423"/>
      <path d="M783.651 348.872h-38.95l-.847-28.43 56.375.751c-.557 13.306-7.27 24.528-16.578 27.68z"
            fill="url(#linear-gradient-34)" id="path4817-7-2" stroke="#010101"
            stroke-width="2.423"/>
      <path d="M305.8 196.59h-12.66v-50.41h12.66v11.34z" fill="url(#linear-gradient-35)" id="polygon4813-8-2"
            stroke="#010101"
            stroke-width="1" transform="translate(3.528 -127.607) scale(2.42372)"/>
      <g id="g984-5-60-2" stroke="#010101" stroke-linecap="round" stroke-linejoin="round" stroke-width="1"
         transform="translate(3.528 -127.607) scale(2.42372)">
        <path
          d="M30.59 141.85c4.415-2.637 8.877-5.194 13.28-7.85 1.87-1.1 2.06-1 3.81 0 4.497 2.652 8.676 5.115 13.32 7.87l12.1-4.61c-8.497-4.974-17.442-10.217-25.62-15-1.65-1-1.8-1-3.34 0-3.754 2.293-7.617 4.405-11.44 6.58z"
          fill="url(#linear-gradient-36)"
          id="path970-5-5-2"
          transform="translate(.57 -5.27)"/>
        <path
          d="M10 161.44v-5.59c0-1.64 0-1.84 1.28-2.62 6.686-3.889 13.566-8.027 19.31-11.38l2.11-13.01-8.18 4.81c-8.122 4.86-15.195 8.867-22.44 13.25-1.75 1-2 1.5-2 3.37v6.49z"
          fill="url(#linear-gradient-37)"
          id="path972-8-25-2"
          transform="translate(.57 -5.27)"/>
        <path d="M10 185.72v-24.28l-9.92-4.68L0 190.12z" fill="url(#linear-gradient-38)" id="path974-2-1-2"
              transform="translate(.57 -5.27)"/>
        <path
          d="M27.62 206.57a3003.682 3003.682 0 01-16.55-9.72c-1.09-.64-1.11-.78-1.11-2l.04-9.13-10 4.4-.04 10.16c0 1.602-.004 1.675 1.577 2.588 8.606 5.097 14.263 8.481 22.423 13.282z"
          fill="url(#linear-gradient-39)"
          id="path976-7-6-2"
          transform="translate(.57 -5.27)"/>
        <path
          d="M65.645 217.334A2384.114 2384.114 0 0183.15 206.99c.788-.455 1.065-1.123.83-2-.557-2.117-1.154-4.24-1.7-6.34-.53-2.05-2.54-1.44-3.9-.64-7.48 4.568-15.775 9.373-22.55 13.36z"
          fill="url(#linear-gradient-40)"
          id="path978-9-7-2"
          transform="translate(.57 -5.27)"/>
        <path
          d="M24 216.17c7.518 4.42 13.984 8.234 20.42 12.02 1.29.76 1.41.78 2.61.07 7.105-4.183 11.974-7.031 18.73-10.99l-9.846-5.95c-3.254 1.947-5.889 3.44-8.884 5.2-.786.454-1.588.516-2.39.07-5.67-3.346-11.345-6.683-17.02-10.02z"
          fill="url(#linear-gradient-41)"
          id="path980-7-5-2"
          transform="translate(.57 -5.27)"/>
        <path
          d="M61 141.87c5.983 3.564 12.104 6.902 18 10.61 1.47.86 2.82.58 3.26-1 .58-2.102 1.152-4.205 1.72-6.31l.18-.64a.94.94 0 00-.53-1c-3.528-2.06-7.028-4.166-10.53-6.27z"
          fill="url(#linear-gradient-42)"
          id="path982-3-2-2"
          transform="translate(.57 -5.27)"/>
      </g>
      <g id="g1006-3-0" stroke-width="1" transform="translate(3.528 -127.607) scale(2.42372)">
        <path d="M32.61 144.34l15-2.87 16 6.68 2 18.59-19 3.18-20.12-5.54z" fill="url(#linear-gradient-43)"
              id="path986-5-0-2" stroke="#010101"
              stroke-dasharray="none" stroke-miterlimit="7.95" stroke-width="1"
              transform="translate(.57 -5.27)"/>
        <path d="M16.88 168.36l9.61-3.98 20.12 5.54 19-3.18 8.32 7.35-26.64 6.72-14.59-5.95z"
              fill="url(#linear-gradient-44)" id="path988-0-7-2" stroke="#010101"
              stroke-dasharray="none" stroke-miterlimit="7.95"
              stroke-width="1"
              transform="translate(.57 -5.27)"/>
        <path d="M14.39 176.83l7-3 6.48 2v14.44l14.44 11.95.24 9.71-18.2-19.17z" fill="url(#linear-gradient-45)"
              id="path990-2-6-2" stroke="#010101"
              stroke-dasharray="none" stroke-miterlimit="7.95"
              stroke-width="1" transform="translate(.57 -5.27)"/>
        <path d="M79.12 179.32l-13.94 15.43-19.67 16.68 1-8.46 15.19-10.71 7-12.94 4.48-1.5z"
              fill="url(#linear-gradient-46)" id="path992-3-6-2" stroke="#010101"
              stroke-dasharray="none" stroke-miterlimit="7.95"
              stroke-width="1"
              transform="translate(.57 -5.27)"/>
        <path class="cls-15"
              d="M42.375 173.631c-.074.17-1.937 1.304-3.105 1.479a5.29 5.29 0 01-5.37-2.69 4.75 4.75 0 01-.41-2.49"
              fill="#fff" id="path996-9-8-2" stroke="#010101"
              stroke-dasharray="none"
              stroke-miterlimit="7.95"
              stroke-width="1"/>
        <path class="cls-15"
              d="M62.27 172.06c.048.744-1.287 2.448-2.36 3.32a7.27 7.27 0 01-6 1.42c-1.181-.291-2.814-.845-3.12-1.76"
              fill="#fff" id="path1004-8-7-2" stroke="#010101"
              stroke-dasharray="none"
              stroke-miterlimit="7.95"
              stroke-width="1"/>
      </g>
      <path d="M246.724 253.135h45.105c-.872 12.119-12.23 27.17-21.813 27.17h-23.292z" fill="url(#linear-gradient-47)"
            id="path1010-9-4-2" stroke="#010101"
            stroke-width="2.423"/>
      <path d="M218.972 226.813h8.338c13.693 0 24.964 6.68 24.964 22.614l.004 99.337h-33.302V225.606"
            fill="url(#linear-gradient-48)" id="path1012-9-9-2" stroke="#010101"
            stroke-width="2.423"/>
      <g id="g1024-5-4-2" stroke="#010101" stroke-width="1" transform="translate(3.528 -127.607) scale(2.42372)">
        <path d="M274.53 173.58c0-2.364 3.91-4.17 7.63-3.85 3 .27 5.85 1.816 5.85 3.85v28.26h-13.48z"
              fill="url(#linear-gradient-49)"
              id="path1020-7-2-2"
              transform="translate(.57 -5.27)"/>
        <path
          d="M288.34 159.7a7.24 7.24 0 01-6.29 6 7.4 7.4 0 01-7.86-6c-.67-4.31 3.46-8.66 7.86-8.24a7.36 7.36 0 016.29 8.24z"
          fill="url(#linear-gradient-50)"
          id="path1022-3-5-2"
          transform="translate(.57 -5.27)"/>
      </g>
      <path
        d="M585.318 178.703a45.614 45.614 0 0118.832 4.508c6.769 3.773 12.419 9.95 12.419 17.984.248 8.775.15 17.036.187 25.497h42.1c-1.672 13.04-14.11 28.479-27.39 28.479h-14.76v93.653h-31.388V255.17H553.93v-28.479h31.387z"
        fill="url(#linear-gradient-51)" id="path1026-1-1-2" stroke="#010101"
        stroke-width="2.423"/>
      <path
        d="M428.649 240.338v203.035h16.214c13.713 0 13.815.001 13.815-10.519V348.63h85.194V242.035c0-9.308-6.01-15.246-15.778-15.246h-83.667c-9.695 0-15.778 5.114-15.778 13.549zm85.533 79.159h-55.504v-63.914h55.504z"
        fill="url(#linear-gradient-52)" id="path1028-6-5-2" stroke="#010101"
        stroke-width="2.423"/>
      <path
        d="M301.96 226.692c5.55.17 14.373 1.745 18.93 4.484 6.468 3.942 12.118 11.812 12.118 17.984v68.18h53.831v-90.648c6.35.364 16.142 2.424 21.014 5.987 5.47 3.931 12.1 9.838 12.1 16.481.581 56.44-.595 112.873-.03 169.297 0 12.201-14.558 25.45-25.861 25.45h-91.374V427.91c0-11.76.032-11.82 12.07-11.974h72.272l-.196-67.864h-84.873z"
        fill="url(#linear-gradient-53)" id="path1030-8-6-2" stroke="#010101"
        stroke-width="2.423"/>
    </g>
    <rect fill="#010101" fill-opacity="1" height="9.078" id="rect935" opacity="1" paint-order="markers stroke fill"
          ry="0" stroke="none"
          stroke-linecap="butt" stroke-linejoin="bevel" stroke-opacity="1" stroke-width=".861" width=".64"
          x="418.921" y="7.752"/>
    <rect fill="#010101" fill-opacity="1" height="37.141" id="rect935-1" opacity="1" paint-order="markers stroke fill"
          ry="0"
          stroke="none" stroke-linecap="butt" stroke-linejoin="bevel" stroke-opacity="1" stroke-width="1.742"
          width=".64" x="437.926" y="-16.387"/>
    <rect fill="#010101" fill-opacity="1" height="27.334" id="rect935-2" opacity="1" paint-order="markers stroke fill"
          ry="0"
          stroke="none" stroke-linecap="butt" stroke-linejoin="bevel" stroke-opacity="1" stroke-width="1.494"
          width=".64" x="479.738" y="-20.846"/>
    <rect fill="#010101" fill-opacity="1" height="27.334" id="rect935-2-6" opacity="1" paint-order="markers stroke fill"
          ry="0"
          stroke="none" stroke-linecap="butt" stroke-linejoin="bevel" stroke-opacity="1" stroke-width="1.494"
          width=".64" x="471.434" y="-20.89"/>
  </g>
</svg>
