<svg xmlns="http://www.w3.org/2000/svg" fill-rule="evenodd" stroke-linejoin="round" stroke-miterlimit="2" clip-rule="evenodd" viewBox="0 0 363 363"><defs/><path fill="none" d="M0 0h363v363H0z"/><clipPath id="a"><path d="M0 0h363v363H0z"/></clipPath><g clip-path="url(#a)"><path fill="url(#_Linear2)" d="M363 36c0-20-16-36-36-36H36C16 0 0 16 0 36v291c0 20 16 36 36 36h291c20 0 36-16 36-36V36z"/><path fill="#110d00" d="M181 319l32 13-27 26-5 5v-44zm0 0v44a690 690 0 01-64-69l64 25zm32 13l-96-38a636 636 0 01-69-106l214 85a665 665 0 01-49 59zm49-59L48 188l-22-47-1-2-9-26 5-14 282 112a583 583 0 01-41 62zm41-62L21 99a475 475 0 0114-35v-1l3-7 26-18 271 107a511 511 0 01-32 66zm32-66L64 38l4-3 31-20 6-1a1279 1279 0 0165-12l158 62a497 497 0 0117 44l2 5-10 28-2 4zM181 0a1345 1345 0 0183 15 905 905 0 0161 41l3 8L181 6V0zm0 0v6l-11-4 11-2z"/><path fill="#110d00" d="M181 313l30 11-25 26-5 4v-41zm0-75l77 30a635 635 0 01-47 56l-30-11v-75zm0-74l116 45a556 556 0 01-39 59l-77-30v-74zm0-75l147 57a486 486 0 01-31 63l-116-45V89zm0-74l140 55a472 472 0 0116 42l2 4-10 27-1 3-147-57V15zm0-6a1277 1277 0 0179 14 862 862 0 0158 39l3 8-140-55V9z"/><path fill="#dfa900" d="M181 313v41a654 654 0 01-61-65l61 24zm0-75v75l-61-24a606 606 0 01-66-101l127 50zm0-74v74L54 188l-20-45-1-2-9-25 4-13 153 61zm0-75v75L28 103a454 454 0 0114-34l3-7 25-17 111 44zm0-74v74L70 45l3-3 30-19 6-1a1219 1219 0 0161-12l11 5zm0-6v6l-11-5 11-1z"/><path fill="#110d00" d="M157 301l-24-27 13-6 22 9v19l-11 5zm11-24l-22-9 22-10v19zm-44-17l-3 1-3-3 6 2zm0 0l-6-2-17-23 53-24 14 6v22l-44 21zm8-57l-41 18a465 465 0 01-16-26l17-8 40 16zm36 14l-14-6 14-7v13zm-36-14l-40-16 70-33 6 2v30l-36 17zm-62-25l-3 2-2-4 5 2zm71-32l-71 32-5-2-10-21 50-23 36 14zm27 10l-6-2 6-2v4zm0-23l-27 13-36-14 63-29v30zm-84-10l-36 17-1-2-7-20 2-4 8-4 34 13zm71-33l-71 33-34-13 71-33 34 13zm-55-21L50 92l5-12 2-6 20-14 23 9zm68 15l-13 6-34-13 47-21v28zm-68-15l-23-9 3-2 24-16 5-1a986 986 0 0150-9l9 4v1l-68 32zm68-38v5l-9-4 9-1z"/><path fill="#dfa900" d="M214 293l-14 14-4 4v-10l18-8zm-11-13l-7 3v-6l7 3zm0 0l-7-3v-32l33-15 29 11-16 20-39 19zm80-75a457 457 0 01-25 36l-29-11 54-25zm-76 16l-11 5v-9l11 4zm71-32l-71 32-11-4v-26l41-18 41 16zm0 0l-41-16 71-33 7 2a393 393 0 01-18 38l-19 9zm-63-25l-19 9v-17l19 8zm71-33l-71 33-19-8v-17l50-24 40 16zm31 4l-1 5-1 2-7-2 9-5zm-31-4l-40-16 65-30a382 382 0 0111 29v1l-36 16zm-61-24l-29 13V96l29 11zm70-32l-70 32-29-11v-6l63-29 36 14zm0 0l-36-14 17-8a683 683 0 0126 18l-7 4zm-57-23l-42 19V43l8-4 34 13zm0 0l-34-13 11-5a1026 1026 0 0144 8l-21 10z"/></g><defs><linearGradient id="_Linear2" x1="0" x2="1" y1="0" y2="0" gradientTransform="rotate(45) scale(513.126)" gradientUnits="userSpaceOnUse"><stop offset="0" stop-color="#c9ad00"/><stop offset="1" stop-color="#5d5100"/></linearGradient></defs></svg>