<?xml version="1.0" encoding="UTF-8" standalone="no"?><!DOCTYPE svg PUBLIC "-//W3C//DTD SVG 1.1//EN" "http://www.w3.org/Graphics/SVG/1.1/DTD/svg11.dtd"><svg width="100%" height="100%" viewBox="0 0 363 363" version="1.1" xmlns="http://www.w3.org/2000/svg" xmlns:xlink="http://www.w3.org/1999/xlink" xml:space="preserve" xmlns:serif="http://www.serif.com/" style="fill-rule:evenodd;clip-rule:evenodd;stroke-linejoin:round;stroke-miterlimit:2;"><rect id="filemanager" x="0" y="0" width="362.835" height="362.835" style="fill:none;"/><clipPath id="_clip1"><rect x="0" y="0" width="362.835" height="362.835"/></clipPath><g clip-path="url(#_clip1)"><path d="M362.835,35.913c0,-19.821 -16.092,-35.913 -35.913,-35.913l-291.009,0c-19.821,0 -35.913,16.092 -35.913,35.913l0,291.009c0,19.821 16.092,35.913 35.913,35.913l291.009,0c19.821,0 35.913,-16.092 35.913,-35.913l0,-291.009Z" style="fill:url(#_Linear2);"/><path d="M181.417,319.237l31.275,12.313c-8.651,9.209 -17.524,18.154 -26.585,26.82l-4.69,4.465c0,0 0,-43.598 0,-43.598Zm0,0l0,43.598c-3.735,-3.516 -7.442,-7.077 -11.106,-10.684c-18.624,-18.275 -36.437,-37.718 -53.082,-58.185l64.188,25.271Zm31.275,12.313l-95.463,-37.584c-14.911,-18.332 -28.888,-37.487 -41.67,-57.375c-10.08,-15.654 -19.423,-31.762 -27.898,-48.27l214.482,84.441c-7.241,9.688 -14.752,19.17 -22.495,28.431c-8.702,10.403 -17.7,20.529 -26.956,30.357Zm49.451,-58.788l-214.482,-84.441c-7.923,-15.415 -15.088,-31.176 -21.403,-47.245l-0.973,-2.534c-3.337,-8.596 -6.387,-17.2 -9.176,-25.817c1.436,-4.437 2.942,-8.87 4.525,-13.302l282.436,111.196c-5.83,10.186 -11.981,20.204 -18.425,30.033c-7.154,10.932 -14.667,21.641 -22.502,32.11Zm40.927,-62.143l-282.436,-111.196c1.778,-5.018 3.654,-10.034 5.624,-15.048c2.742,-6.976 5.643,-13.894 8.703,-20.758l0.202,-0.455c1.013,-2.272 2.045,-4.539 3.093,-6.799c8.419,-6.277 17.039,-12.461 25.884,-18.545l271.045,106.71c-4.307,10.73 -8.992,21.319 -14.033,31.762c-5.611,11.638 -11.654,23.087 -18.082,34.329Zm32.115,-66.091l-271.045,-106.71l3.693,-2.547c10.134,-6.911 20.445,-13.629 30.93,-20.169l6.684,-1.414c11.361,-2.399 22.824,-4.653 34.396,-6.767c10.018,-1.831 20.043,-3.543 30.077,-5.137l158.141,62.26c2.992,6.723 5.831,13.499 8.515,20.331c3.101,7.891 5.969,15.787 8.603,23.696l1.546,4.654c-3.062,9.463 -6.439,18.91 -10.149,28.351l-1.391,3.452Zm-153.768,-144.528c13.876,2.089 27.731,4.391 41.575,6.921c13.844,2.529 27.531,5.259 41.079,8.181c10.486,6.54 20.796,13.258 30.931,20.169c10.134,6.911 19.986,13.941 29.576,21.092c1.184,2.552 2.347,5.112 3.483,7.681l-146.644,-57.733l0,-6.311Zm0,0c0,0 0,6.311 0,6.311l-11.497,-4.527c3.831,-0.614 7.663,-1.207 11.497,-1.784Z" style="fill:#110d00;"/><path d="M181.417,312.659l29.782,11.725c-8.238,8.769 -16.687,17.287 -25.316,25.54l-4.466,4.251c0,0 0,-41.516 0,-41.516Zm0,-74.521l76.872,30.264c-6.895,9.225 -14.047,18.254 -21.42,27.074c-8.287,9.906 -16.856,19.549 -25.67,28.908l-29.782,-11.725l0,-74.521Zm0,-74.521l115.846,45.608c-5.552,9.7 -11.409,19.24 -17.545,28.6c-6.813,10.41 -13.967,20.607 -21.429,30.577l-76.872,-30.264l0,-74.521Zm0,-74.977l146.428,57.649c-4.101,10.217 -8.562,20.301 -13.363,30.246c-5.343,11.082 -11.098,21.984 -17.219,32.69l-115.846,-45.608l0,-74.977Zm0,-73.971l139.644,54.978c2.85,6.402 5.553,12.854 8.109,19.36c2.953,7.515 5.684,15.034 8.193,22.565l1.472,4.432c-2.917,9.011 -6.133,18.008 -9.665,26.997l-1.325,3.288l-146.428,-57.649l0,-73.971Zm0,-6.009c13.214,1.988 26.408,4.181 39.591,6.59c13.182,2.409 26.216,5.008 39.118,7.791c9.985,6.228 19.803,12.625 29.454,19.206c9.65,6.581 19.032,13.276 28.165,20.085c1.127,2.431 2.234,4.868 3.316,7.315l-139.644,-54.978l0,-6.009Z" style="fill:#110d00;"/><path d="M181.417,312.659l0,41.516c-3.557,-3.347 -7.087,-6.739 -10.576,-10.173c-17.734,-17.404 -34.697,-35.918 -50.548,-55.408l61.124,24.065Zm0,-74.521l0,74.521l-61.124,-24.065c-14.199,-17.457 -27.51,-35.698 -39.681,-54.637c-9.599,-14.907 -18.496,-30.245 -26.566,-45.966l127.371,50.147Zm0,-74.521l0,74.521l-127.371,-50.147c-7.545,-14.679 -14.368,-29.687 -20.381,-44.99l-0.927,-2.413c-3.178,-8.185 -6.082,-16.379 -8.738,-24.584c1.368,-4.225 2.801,-8.447 4.308,-12.667l153.109,60.28Zm0,-74.977l0,74.977l-153.109,-60.28c1.694,-4.779 3.481,-9.555 5.357,-14.33c2.61,-6.643 5.373,-13.231 8.287,-19.767l0.192,-0.433c0.965,-2.164 1.947,-4.322 2.946,-6.475c8.017,-5.977 16.225,-11.866 24.648,-17.66l111.679,43.968Zm0,-73.971l0,73.971l-111.679,-43.968l3.517,-2.425c9.65,-6.581 19.468,-12.978 29.454,-19.206l6.365,-1.347c10.818,-2.284 21.734,-4.431 32.753,-6.444c9.541,-1.743 19.087,-3.373 28.642,-4.891l10.948,4.31Zm0,-6.009c0,0 0,6.009 0,6.009l-10.948,-4.31c3.648,-0.585 7.297,-1.15 10.948,-1.699Z" style="fill:#dfa900;"/><path d="M157.414,300.566c-8.538,-8.46 -16.85,-17.239 -24.876,-26.313l12.986,-5.997l22.382,8.812l0,18.652l-10.492,4.846Zm10.492,-23.498l-22.382,-8.812l22.382,-10.336l0,19.148Zm-44.034,-17.336l-2.695,1.244c-0.937,-1.132 -1.867,-2.266 -2.793,-3.405l5.488,2.161Zm0,0l-5.488,-2.161c-5.919,-7.277 -11.647,-14.722 -17.156,-22.324l52.376,-24.186l14.302,5.631l0,22.706l-44.034,20.334Zm8.08,-57.195l-40.502,18.703c-1.766,-2.628 -3.504,-5.273 -5.215,-7.935c-3.957,-6.145 -7.767,-12.381 -11.417,-18.703l17.019,-7.859l40.115,15.794Zm35.954,14.155l-14.302,-5.631l14.302,-6.605l0,12.236Zm-35.954,-14.155l-40.115,-15.794l70.577,-32.59l5.492,2.162l0,29.619l-35.954,16.603Zm-61.766,-24.318l-3.512,1.622c-0.661,-1.256 -1.315,-2.515 -1.963,-3.778l5.475,2.156Zm70.576,-32.591l-70.576,32.591l-5.475,-2.156c-3.551,-6.907 -6.904,-13.904 -10.046,-20.987l50.666,-23.397l35.431,13.949Zm27.144,10.687l-5.492,-2.162l5.492,-2.537l0,4.699Zm0,-23.221l-27.144,12.534l-35.431,-13.949l62.575,-28.896l0,30.311Zm-84.227,-9.939l-35.505,16.396l-0.727,-1.893c-2.575,-6.632 -4.927,-13.27 -7.079,-19.918c0.379,-1.17 0.763,-2.34 1.155,-3.509l8.969,-4.142l33.187,13.066Zm71.007,-32.79l-71.007,32.79l-33.187,-13.066l71.007,-32.79l33.187,13.066Zm-54.839,-21.59l-50.061,23.117c1.639,-4.038 3.348,-8.051 5.126,-12.04l0.156,-0.351c0.782,-1.753 1.578,-3.502 2.387,-5.246c6.495,-4.842 13.145,-9.614 19.97,-14.308l22.422,8.828Zm68.059,15.486l-13.22,6.104l-33.187,-13.066l46.407,-21.429l0,28.391Zm-68.059,-15.486l-22.422,-8.828l2.849,-1.964c7.819,-5.332 15.773,-10.515 23.863,-15.561l5.157,-1.091c8.765,-1.851 17.609,-3.59 26.537,-5.221c7.729,-1.413 15.463,-2.733 23.205,-3.963l8.87,3.492l0,1.708l-68.059,31.428Zm68.059,-38.005c0,0 0,4.869 0,4.869l-8.87,-3.492c2.956,-0.474 5.912,-0.932 8.87,-1.377Z" style="fill:#110d00;"/><path d="M214.02,292.949c-4.729,4.872 -9.538,9.644 -14.417,14.311l-3.619,3.445l0,-9.428l18.036,-8.328Zm-11.389,-13.264l-6.647,3.07l0,-5.687l6.647,2.617Zm0,0l-6.647,-2.617l0,-32.113l33.038,-15.256l29.244,11.513c-5.106,6.83 -10.385,13.529 -15.817,20.086l-39.818,18.387Zm80.403,-74.928c-2.409,3.93 -4.879,7.824 -7.407,11.681c-5.52,8.434 -11.316,16.696 -17.361,24.774l-29.244,-11.513l54.012,-24.942Zm-75.664,16.417l-11.386,5.258l0,-9.74l11.386,4.482Zm70.576,-32.59l-70.576,32.59l-11.386,-4.482l0,-25.201l41.118,-18.988l40.844,16.081Zm0,0l-40.844,-16.081l71.007,-32.789l6.51,2.563c-3.322,8.278 -6.937,16.447 -10.827,24.505c-2.082,4.319 -4.242,8.605 -6.476,12.857l-19.37,8.945Zm-62.496,-24.605l-19.466,8.989l0,-16.653l19.466,7.664Zm71.007,-32.79l-71.007,32.79l-19.466,-7.664l0,-17.664l50.358,-23.255l40.115,15.793Zm30.834,4.285c-0.524,1.38 -1.056,2.759 -1.598,4.139l-1.074,2.664l-6.51,-2.563l9.182,-4.24Zm-30.834,-4.285l-40.115,-15.793l65.041,-30.034c1.49,3.483 2.926,6.984 4.31,10.505c2.392,6.088 4.605,12.181 6.637,18.282l0.137,0.412l-36.01,16.628Zm-61.766,-24.317l-28.707,13.256l0,-24.558l28.707,11.302Zm70.055,-32.35l-70.055,32.35l-28.707,-11.302l0,-5.752l63.331,-29.245l35.431,13.949Zm0,0l-35.431,-13.949l16.689,-7.707c2.552,1.691 5.09,3.396 7.613,5.117c6.321,4.31 12.5,8.681 18.546,13.114l-7.417,3.425Zm-57.082,-22.474l-41.68,19.247l0,-28.391l8.492,-3.922l33.188,13.066Zm0,0l-33.188,-13.066l11.018,-5.087c4.191,0.712 8.379,1.45 12.566,2.215c10.392,1.899 20.67,3.944 30.845,6.129l-21.241,9.809Z" style="fill:#dfa900;"/></g><defs><linearGradient id="_Linear2" x1="0" y1="0" x2="1" y2="0" gradientUnits="userSpaceOnUse" gradientTransform="matrix(362.835,362.835,-362.835,362.835,0,0)"><stop offset="0" style="stop-color:#c9ad00;stop-opacity:1"/><stop offset="1" style="stop-color:#5d5100;stop-opacity:1"/></linearGradient></defs></svg>