<svg xmlns="http://www.w3.org/2000/svg" xmlns:xlink="http://www.w3.org/1999/xlink" id="svg8" width="128.068" height="128.068" version="1.1" viewBox="0 0 33.885 33.885"><defs id="defs2"><style id="style2">.cls-1,.cls-2,.cls-3,.cls-4,.cls-5,.cls-6{stroke:#010101}.cls-1,.cls-2,.cls-3{stroke-miterlimit:7.95}.cls-1{fill:url(#linear-gradient)}.cls-2{fill:url(#linear-gradient-2)}.cls-3{stroke-width:.57px;fill:url(#linear-gradient-3)}.cls-4,.cls-5,.cls-6{stroke-linecap:round;stroke-linejoin:round;stroke-width:.9px}.cls-4{fill:url(#linear-gradient-4)}.cls-5{fill:url(#linear-gradient-5)}.cls-6{fill:url(#linear-gradient-6)}</style><linearGradient id="linear-gradient-33" x1="304.88" x2="328.14" y1="157.16" y2="157.16" gradientUnits="userSpaceOnUse"><stop id="stop40" offset="0" stop-color="#95c11f"/><stop id="stop42" offset=".67" stop-color="#3aaa35"/><stop id="stop44" offset="1" stop-color="#008d36"/></linearGradient><linearGradient id="linear-gradient-34" x1="304.88" x2="328.14" y1="195.99" y2="195.99" gradientTransform="matrix(2.4237223,0,0,2.4237223,4.9091757,-140.38048)" xlink:href="#linear-gradient-33"/><linearGradient id="linear-gradient-35" x1="293.14" x2="305.8" y1="171.38" y2="171.38" xlink:href="#linear-gradient-33"/><linearGradient id="linear-gradient-36" x1="30.59" x2="73.1" y1="131.66" y2="131.66" xlink:href="#linear-gradient-33"/><linearGradient id="linear-gradient-37" x1="0" x2="32.71" y1="145.15" y2="145.15" xlink:href="#linear-gradient-33"/><linearGradient id="linear-gradient-38" x1="0" x2="9.97" y1="173.45" y2="173.45" xlink:href="#linear-gradient-33"/><linearGradient id="linear-gradient-39" x1=".009" x2="27.62" y1="200.94" y2="200.94" xlink:href="#linear-gradient-33"/><linearGradient id="linear-gradient-40" x1="55.83" x2="84.07" y1="207.29" y2="207.29" xlink:href="#linear-gradient-33"/><linearGradient id="linear-gradient-41" x1="23.99" x2="65.67" y1="217.67" y2="217.67" xlink:href="#linear-gradient-33"/><linearGradient id="linear-gradient-42" x1="61" x2="84.19" y1="145.11" y2="145.11" xlink:href="#linear-gradient-33"/><linearGradient id="linear-gradient-43" x1="26.59" x2="65.68" y1="155.7" y2="155.7" xlink:href="#linear-gradient-33"/><linearGradient id="linear-gradient-44" x1="16.88" x2="73.9" y1="172.97" y2="172.97" xlink:href="#linear-gradient-33"/><linearGradient id="linear-gradient-45" x1="14.39" x2="42.52" y1="192.89" y2="192.89" xlink:href="#linear-gradient-33"/><linearGradient id="linear-gradient-46" x1="45.51" x2="79.12" y1="194.63" y2="194.63" xlink:href="#linear-gradient-33"/><linearGradient id="linear-gradient-47" x1="99.77" x2="118.38" y1="167.96" y2="167.96" gradientTransform="matrix(2.4237223,0,0,2.4237223,4.9091757,-140.38048)" xlink:href="#linear-gradient-33"/><linearGradient id="linear-gradient-48" x1="88.32" x2="102.06" y1="176.59" y2="176.59" gradientTransform="matrix(2.4237223,0,0,2.4237223,4.9091757,-140.38048)" xlink:href="#linear-gradient-33"/><linearGradient id="linear-gradient-49" x1="274.53" x2="288.01" y1="185.76" y2="185.76" xlink:href="#linear-gradient-33"/><linearGradient id="linear-gradient-50" x1="274.12" x2="288.41" y1="158.58" y2="158.58" xlink:href="#linear-gradient-33"/><linearGradient id="linear-gradient-51" x1="226.52" x2="269.94" y1="166.74" y2="166.74" gradientTransform="matrix(2.4237223,0,0,2.4237223,4.9091757,-140.38048)" xlink:href="#linear-gradient-33"/><linearGradient id="linear-gradient-52" x1="174.83" x2="222.37" y1="196.17" y2="196.17" gradientTransform="matrix(2.4237223,0,0,2.4237223,4.9091757,-140.38048)" xlink:href="#linear-gradient-33"/><linearGradient id="linear-gradient-53" x1="122.56" x2="171.21" y1="196.26" y2="196.26" gradientTransform="matrix(2.4237223,0,0,2.4237223,4.9091757,-140.38048)" xlink:href="#linear-gradient-33"/><linearGradient id="linearGradient4994" x1="304.88" x2="328.14" y1="157.16" y2="157.16" gradientTransform="matrix(2.4237223,0,0,2.4237223,4.9091757,-140.38048)" gradientUnits="userSpaceOnUse" xlink:href="#linear-gradient-33"/><linearGradient id="linear-gradient-38-7" x1="0" x2="9.97" y1="173.45" y2="173.45" gradientTransform="matrix(0.91742785,0,0,0.91742785,24.903575,19.435414)" xlink:href="#linear-gradient-33"/><linearGradient id="linear-gradient-39-7" x1=".009" x2="27.62" y1="200.94" y2="200.94" gradientTransform="matrix(0.91742785,0,0,0.91742785,24.903575,19.435414)" xlink:href="#linear-gradient-33"/><linearGradient id="linear-gradient-40-9" x1="55.83" x2="84.07" y1="207.29" y2="207.29" gradientTransform="matrix(0.91742785,0,0,0.91742785,24.903575,19.435414)" xlink:href="#linear-gradient-33"/><linearGradient id="linear-gradient-41-7" x1="23.99" x2="65.67" y1="217.67" y2="217.67" gradientTransform="matrix(0.91742785,0,0,0.91742785,24.903575,19.435414)" xlink:href="#linear-gradient-33"/><linearGradient id="linear-gradient-46-3" x1="45.51" x2="79.12" y1="194.63" y2="194.63" gradientTransform="matrix(0.91742785,0,0,0.91742785,24.903575,19.435414)" xlink:href="#linear-gradient-33"/><linearGradient id="linear-gradient-45-9" x1="14.39" x2="42.52" y1="192.89" y2="192.89" gradientTransform="matrix(0.91742785,0,0,0.91742785,24.903575,19.435414)" xlink:href="#linear-gradient-33"/><linearGradient id="linear-gradient-44-6" x1="16.88" x2="73.9" y1="172.97" y2="172.97" gradientTransform="matrix(0.91742785,0,0,0.91742785,24.903575,19.435414)" xlink:href="#linear-gradient-33"/><linearGradient id="linear-gradient-43-5" x1="26.59" x2="65.68" y1="155.7" y2="155.7" gradientTransform="matrix(0.91742785,0,0,0.91742785,24.903575,19.435414)" xlink:href="#linear-gradient-33"/><linearGradient id="linear-gradient-42-4" x1="61" x2="84.19" y1="145.11" y2="145.11" gradientTransform="matrix(0.91742785,0,0,0.91742785,24.903575,19.435414)" xlink:href="#linear-gradient-33"/><linearGradient id="linear-gradient-36-0" x1="30.59" x2="73.1" y1="131.66" y2="131.66" gradientTransform="matrix(0.91742785,0,0,0.91742785,24.903575,19.435414)" xlink:href="#linear-gradient-33"/><linearGradient id="linear-gradient-37-7" x1="0" x2="32.71" y1="145.15" y2="145.15" gradientTransform="matrix(0.91742785,0,0,0.91742785,24.903575,19.435414)" xlink:href="#linear-gradient-33"/><linearGradient id="linear-gradient-38-6" x1="0" x2="9.97" y1="173.45" y2="173.45" gradientTransform="matrix(0.64127649,0,0,0.64127649,449.8035,294.75131)" xlink:href="#linear-gradient-33"/><linearGradient id="linear-gradient-39-0" x1=".009" x2="27.62" y1="200.94" y2="200.94" gradientTransform="matrix(0.64127649,0,0,0.64127649,449.8035,294.75131)" xlink:href="#linear-gradient-33"/><linearGradient id="linear-gradient-40-1" x1="55.83" x2="84.07" y1="207.29" y2="207.29" gradientTransform="matrix(0.64127649,0,0,0.64127649,449.8035,294.75131)" xlink:href="#linear-gradient-33"/><linearGradient id="linear-gradient-41-1" x1="23.99" x2="65.67" y1="217.67" y2="217.67" gradientTransform="matrix(0.64127649,0,0,0.64127649,449.8035,294.75131)" xlink:href="#linear-gradient-33"/><linearGradient id="linear-gradient-46-9" x1="45.51" x2="79.12" y1="194.63" y2="194.63" gradientTransform="matrix(0.64127649,0,0,0.64127649,449.8035,294.75131)" xlink:href="#linear-gradient-33"/><linearGradient id="linear-gradient-45-4" x1="14.39" x2="42.52" y1="192.89" y2="192.89" gradientTransform="matrix(0.64127649,0,0,0.64127649,449.8035,294.75131)" xlink:href="#linear-gradient-33"/><linearGradient id="linear-gradient-44-1" x1="16.88" x2="73.9" y1="172.97" y2="172.97" gradientTransform="matrix(0.64127649,0,0,0.64127649,449.8035,294.75131)" xlink:href="#linear-gradient-33"/><linearGradient id="linear-gradient-43-3" x1="26.59" x2="65.68" y1="155.7" y2="155.7" gradientTransform="matrix(0.64127649,0,0,0.64127649,449.8035,294.75131)" xlink:href="#linear-gradient-33"/><linearGradient id="linear-gradient-42-8" x1="61" x2="84.19" y1="145.11" y2="145.11" gradientTransform="matrix(0.64127649,0,0,0.64127649,449.8035,294.75131)" xlink:href="#linear-gradient-33"/><linearGradient id="linear-gradient-36-8" x1="30.59" x2="73.1" y1="131.66" y2="131.66" gradientTransform="matrix(0.64127649,0,0,0.64127649,449.8035,294.75131)" xlink:href="#linear-gradient-33"/><linearGradient id="linear-gradient-37-4" x1="0" x2="32.71" y1="145.15" y2="145.15" gradientTransform="matrix(0.64127649,0,0,0.64127649,449.8035,294.75131)" xlink:href="#linear-gradient-33"/><linearGradient id="linearGradient4887" x1="304.88" x2="328.14" y1="157.16" y2="157.16" gradientUnits="userSpaceOnUse"><stop id="stop4883" offset="0" stop-color="#3aaa35"/><stop id="stop4885" offset="1" stop-color="#008d36"/></linearGradient><linearGradient id="linearGradient4879" x1="304.88" x2="328.14" y1="157.16" y2="157.16" gradientUnits="userSpaceOnUse"><stop id="stop4873" offset="0" stop-color="#95c11f"/><stop id="stop4875" offset="1" stop-color="#3aaa35"/></linearGradient><style id="style2-0">.cls-1,.cls-2,.cls-3,.cls-4,.cls-5,.cls-6{stroke:#010101}.cls-1,.cls-2,.cls-3{stroke-miterlimit:7.95}.cls-1{fill:url(#linear-gradient)}.cls-2{fill:url(#linear-gradient-2)}.cls-3{stroke-width:.57px;fill:url(#linear-gradient-3)}.cls-4,.cls-5,.cls-6{stroke-linecap:round;stroke-linejoin:round;stroke-width:.9px}.cls-4{fill:url(#linear-gradient-4)}.cls-5{fill:url(#linear-gradient-5)}.cls-6{fill:url(#linear-gradient-6)}</style><linearGradient id="linear-gradient-35-1" x1="301.622" x2="305.8" y1="171.38" y2="171.38" xlink:href="#linearGradient4887"/><linearGradient id="linear-gradient-48-5" x1="88.32" x2="97.526" y1="176.59" y2="176.59" gradientTransform="matrix(2.4237223,0,0,2.4237223,4.9091757,-140.38048)" xlink:href="#linearGradient4879"/><linearGradient id="linear-gradient-38-7-5" x1="0" x2="9.97" y1="173.45" y2="173.45" gradientTransform="matrix(0.91742785,0,0,0.91742785,0.79346089,86.503123)" xlink:href="#linear-gradient-33"/><linearGradient id="linear-gradient-39-7-6" x1=".009" x2="27.62" y1="200.94" y2="200.94" gradientTransform="matrix(0.91742785,0,0,0.91742785,0.79346089,86.503123)" xlink:href="#linear-gradient-33"/><linearGradient id="linear-gradient-40-9-4" x1="55.83" x2="84.07" y1="207.29" y2="207.29" gradientTransform="matrix(0.91742785,0,0,0.91742785,0.79346089,86.503123)" xlink:href="#linear-gradient-33"/><linearGradient id="linear-gradient-41-7-3" x1="23.99" x2="65.67" y1="217.67" y2="217.67" gradientTransform="matrix(0.91742785,0,0,0.91742785,0.79346089,86.503123)" xlink:href="#linear-gradient-33"/><linearGradient id="linear-gradient-46-3-4" x1="45.51" x2="79.12" y1="194.63" y2="194.63" gradientTransform="matrix(0.91742785,0,0,0.91742785,0.79346089,86.503123)" xlink:href="#linear-gradient-33"/><linearGradient id="linear-gradient-45-9-1" x1="14.39" x2="42.52" y1="192.89" y2="192.89" gradientTransform="matrix(0.91742785,0,0,0.91742785,0.79346089,86.503123)" xlink:href="#linear-gradient-33"/><linearGradient id="linear-gradient-44-6-5" x1="16.88" x2="73.9" y1="172.97" y2="172.97" gradientTransform="matrix(0.91742785,0,0,0.91742785,0.79346089,86.503123)" xlink:href="#linear-gradient-33"/><linearGradient id="linear-gradient-43-5-46" x1="26.59" x2="65.68" y1="155.7" y2="155.7" gradientTransform="matrix(0.91742785,0,0,0.91742785,0.79346089,86.503123)" xlink:href="#linear-gradient-33"/><linearGradient id="linear-gradient-42-4-0" x1="61" x2="84.19" y1="145.11" y2="145.11" gradientTransform="matrix(0.91742785,0,0,0.91742785,0.79346089,86.503123)" xlink:href="#linear-gradient-33"/><linearGradient id="linear-gradient-36-0-7" x1="30.59" x2="73.1" y1="131.66" y2="131.66" gradientTransform="matrix(0.91742785,0,0,0.91742785,0.79346089,86.503123)" xlink:href="#linear-gradient-33"/><linearGradient id="linear-gradient-37-7-2" x1="0" x2="32.71" y1="145.15" y2="145.15" gradientTransform="matrix(0.91742785,0,0,0.91742785,0.79346089,86.503123)" xlink:href="#linear-gradient-33"/><style id="style2-7">.cls-1,.cls-2,.cls-3,.cls-4,.cls-5,.cls-6{stroke:#010101}.cls-1,.cls-2,.cls-3{stroke-miterlimit:7.95}.cls-1{fill:url(#linear-gradient)}.cls-2{fill:url(#linear-gradient-2)}.cls-3{stroke-width:.57px;fill:url(#linear-gradient-3)}.cls-4,.cls-5,.cls-6{stroke-linecap:round;stroke-linejoin:round;stroke-width:.9px}.cls-4{fill:url(#linear-gradient-4)}.cls-5{fill:url(#linear-gradient-5)}.cls-6{fill:url(#linear-gradient-6)}</style><linearGradient id="linear-gradient-43-5-4" x1="26.59" x2="65.68" y1="155.7" y2="155.7" gradientTransform="matrix(0.91742785,0,0,0.91742785,490.92349,-9.8515865)" xlink:href="#linear-gradient-33"/><linearGradient id="linear-gradient-44-6-6" x1="16.88" x2="73.9" y1="172.97" y2="172.97" gradientTransform="matrix(0.91742785,0,0,0.91742785,490.92349,-9.8515865)" xlink:href="#linear-gradient-33"/><linearGradient id="linear-gradient-45-9-0" x1="14.39" x2="42.52" y1="192.89" y2="192.89" gradientTransform="matrix(0.91742785,0,0,0.91742785,490.92349,-9.8515865)" xlink:href="#linear-gradient-33"/><linearGradient id="linear-gradient-46-3-7" x1="45.51" x2="79.12" y1="194.63" y2="194.63" gradientTransform="matrix(0.91742785,0,0,0.91742785,490.92349,-9.8515865)" xlink:href="#linear-gradient-33"/><linearGradient id="linear-gradient-40-9-5" x1="55.83" x2="84.07" y1="207.29" y2="207.29" gradientTransform="matrix(0.91742785,0,0,0.91742785,490.92349,-9.8515865)" xlink:href="#linear-gradient-33"/><linearGradient id="linear-gradient-41-7-0" x1="23.99" x2="65.67" y1="217.67" y2="217.67" gradientTransform="matrix(0.91742785,0,0,0.91742785,490.92349,-9.8515865)" xlink:href="#linear-gradient-33"/><linearGradient id="linear-gradient-39-7-5" x1=".009" x2="27.62" y1="200.94" y2="200.94" gradientTransform="matrix(0.91742785,0,0,0.91742785,490.92349,-9.8515865)" xlink:href="#linear-gradient-33"/><linearGradient id="linear-gradient-38-7-7" x1="0" x2="9.97" y1="173.45" y2="173.45" gradientTransform="matrix(0.91742785,0,0,0.91742785,490.92349,-9.8515865)" xlink:href="#linear-gradient-33"/><linearGradient id="linear-gradient-37-7-1" x1="0" x2="32.71" y1="145.15" y2="145.15" gradientTransform="matrix(0.91742785,0,0,0.91742785,490.92349,-9.8515865)" xlink:href="#linear-gradient-33"/><linearGradient id="linear-gradient-36-0-1" x1="30.59" x2="73.1" y1="131.66" y2="131.66" gradientTransform="matrix(0.91742785,0,0,0.91742785,490.92349,-9.8515865)" xlink:href="#linear-gradient-33"/><linearGradient id="linear-gradient-42-4-5" x1="61" x2="84.19" y1="145.11" y2="145.11" gradientTransform="matrix(0.91742785,0,0,0.91742785,490.92349,-9.8515865)" xlink:href="#linear-gradient-33"/><style id="style2-5">.cls-1,.cls-2,.cls-3,.cls-4,.cls-5,.cls-6{stroke:#010101}.cls-1,.cls-2,.cls-3{stroke-miterlimit:7.95}.cls-1{fill:url(#linear-gradient)}.cls-2{fill:url(#linear-gradient-2)}.cls-3{stroke-width:.57px;fill:url(#linear-gradient-3)}.cls-4,.cls-5,.cls-6{stroke-linecap:round;stroke-linejoin:round;stroke-width:.9px}.cls-4{fill:url(#linear-gradient-4)}.cls-5{fill:url(#linear-gradient-5)}.cls-6{fill:url(#linear-gradient-6)}</style><style id="style2-7-9">.cls-1,.cls-2,.cls-3,.cls-4,.cls-5,.cls-6{stroke:#010101}.cls-1,.cls-2,.cls-3{stroke-miterlimit:7.95}.cls-1{fill:url(#linear-gradient)}.cls-2{fill:url(#linear-gradient-2)}.cls-3{stroke-width:.57px;fill:url(#linear-gradient-3)}.cls-4,.cls-5,.cls-6{stroke-linecap:round;stroke-linejoin:round;stroke-width:.9px}.cls-4{fill:url(#linear-gradient-4)}.cls-5{fill:url(#linear-gradient-5)}.cls-6{fill:url(#linear-gradient-6)}</style><style id="style2-6">.cls-1,.cls-2,.cls-3,.cls-4,.cls-5,.cls-6{stroke:#010101}.cls-1,.cls-2,.cls-3{stroke-miterlimit:7.95}.cls-1{fill:url(#linear-gradient)}.cls-2{fill:url(#linear-gradient-2)}.cls-3{stroke-width:.57px;fill:url(#linear-gradient-3)}.cls-4,.cls-5,.cls-6{stroke-linecap:round;stroke-linejoin:round;stroke-width:.9px}.cls-4{fill:url(#linear-gradient-4)}.cls-5{fill:url(#linear-gradient-5)}.cls-6{fill:url(#linear-gradient-6)}</style><style id="style2-7-0">.cls-1,.cls-2,.cls-3,.cls-4,.cls-5,.cls-6{stroke:#010101}.cls-1,.cls-2,.cls-3{stroke-miterlimit:7.95}.cls-1{fill:url(#linear-gradient)}.cls-2{fill:url(#linear-gradient-2)}.cls-3{stroke-width:.57px;fill:url(#linear-gradient-3)}.cls-4,.cls-5,.cls-6{stroke-linecap:round;stroke-linejoin:round;stroke-width:.9px}.cls-4{fill:url(#linear-gradient-4)}.cls-5{fill:url(#linear-gradient-5)}.cls-6{fill:url(#linear-gradient-6)}</style><style id="style2-09">.cls-1,.cls-2,.cls-3,.cls-4,.cls-5,.cls-6{stroke:#010101}.cls-1,.cls-2,.cls-3{stroke-miterlimit:7.95}.cls-1{fill:url(#linear-gradient)}.cls-2{fill:url(#linear-gradient-2)}.cls-3{stroke-width:.57px;fill:url(#linear-gradient-3)}.cls-4,.cls-5,.cls-6{stroke-linecap:round;stroke-linejoin:round;stroke-width:.9px}.cls-4{fill:url(#linear-gradient-4)}.cls-5{fill:url(#linear-gradient-5)}.cls-6{fill:url(#linear-gradient-6)}</style><style id="style2-7-8">.cls-1,.cls-2,.cls-3,.cls-4,.cls-5,.cls-6{stroke:#010101}.cls-1,.cls-2,.cls-3{stroke-miterlimit:7.95}.cls-1{fill:url(#linear-gradient)}.cls-2{fill:url(#linear-gradient-2)}.cls-3{stroke-width:.57px;fill:url(#linear-gradient-3)}.cls-4,.cls-5,.cls-6{stroke-linecap:round;stroke-linejoin:round;stroke-width:.9px}.cls-4{fill:url(#linear-gradient-4)}.cls-5{fill:url(#linear-gradient-5)}.cls-6{fill:url(#linear-gradient-6)}</style><style id="style2-5-1">.cls-1,.cls-2,.cls-3,.cls-4,.cls-5,.cls-6{stroke:#010101}.cls-1,.cls-2,.cls-3{stroke-miterlimit:7.95}.cls-1{fill:url(#linear-gradient)}.cls-2{fill:url(#linear-gradient-2)}.cls-3{stroke-width:.57px;fill:url(#linear-gradient-3)}.cls-4,.cls-5,.cls-6{stroke-linecap:round;stroke-linejoin:round;stroke-width:.9px}.cls-4{fill:url(#linear-gradient-4)}.cls-5{fill:url(#linear-gradient-5)}.cls-6{fill:url(#linear-gradient-6)}</style><style id="style2-7-9-5">.cls-1,.cls-2,.cls-3,.cls-4,.cls-5,.cls-6{stroke:#010101}.cls-1,.cls-2,.cls-3{stroke-miterlimit:7.95}.cls-1{fill:url(#linear-gradient)}.cls-2{fill:url(#linear-gradient-2)}.cls-3{stroke-width:.57px;fill:url(#linear-gradient-3)}.cls-4,.cls-5,.cls-6{stroke-linecap:round;stroke-linejoin:round;stroke-width:.9px}.cls-4{fill:url(#linear-gradient-4)}.cls-5{fill:url(#linear-gradient-5)}.cls-6{fill:url(#linear-gradient-6)}</style><style id="style815">.cls-1{fill:none;stroke:#e5cc71;stroke-width:60px}.cls-2{fill:#c9c9c9;stroke:#a1997d;stroke-width:10px}.cls-3{fill:#e5cc71}.cls-4,.cls-5{isolation:isolate}.cls-5{font-size:363.78px;fill:#fff;font-family:ArialMT,Arial}.cls-6{fill:#f9f7f9}</style></defs><metadata id="metadata5"/><g id="layer1" transform="translate(72.388454,-144.01417)"><g id="layer1-5" transform="matrix(0.09037173,0,0,0.09037173,-60.843201,149.00909)"><g id="g910" transform="matrix(0.26458333,0,0,0.26458333,-127.75293,-55.270785)"><circle id="Ellipse_1_Kopie-5" cx="708.56" cy="708.56" r="678.56" class="cls-1" data-name="Ellipse 1 Kopie-5" style="fill:none;stroke:#e5cc71;stroke-width:60px"/><circle id="Ellipse_1_Kopie" cx="704.73" cy="715.87" r="678.56" class="cls-2" data-name="Ellipse 1 Kopie" style="fill:#c9c9c9;stroke:#a1997d;stroke-width:10px"/><circle id="path826" cx="704.34" cy="719.53" r="433.61" class="cls-3" style="fill:#e5cc71"/><g id="text830" class="cls-4" style="isolation:isolate"><text id="text824" class="cls-5" transform="translate(425.43,873.81)" style="font-size:363.77999878px;font-family:ArialMT,Arial;isolation:isolate;fill:#fff">MO</text></g><ellipse id="ellipse827" cx="711.49" cy="719.53" class="cls-3" rx="352.47" ry="319.49" style="fill:#e5cc71"/><path id="path829" d="m 645.7,810.26 v 25.36 l 31.55,7.23 V 820 Z m 11.89,17.35 h -7.37 v -7.12 l 7.37,1.77 z m 12.29,4.92 -7.37,-2.29 v -4.91 h 7.2 z" class="cls-6" transform="translate(-236.44,0.06)" style="fill:#f9f7f9"/><path id="path831" d="m 581.28,520.11 h 101.35 v 222.14 h -12 v 14 l 12,17.2 V 816 l -44.84,-13.08 0.15,-39.6 7.69,-11.67 V 575.86 L 625.21,565.1 h -24 v -16.44 h 48.36 v -5.2 l -24,-16 h -44.14 a 37.92,37.92 0 0 1 -0.15,-7.35 z" class="cls-6" transform="translate(-236.44,0.06)" style="fill:#f9f7f9"/><polygon id="polygon833" points="566.07 809.54 449.97 583.29 440.98 583.29 440.98 549.71 447.12 549.29 475.77 549.29 572.41 731.72 582.65 731.72 673.76 550.51 706.32 550.51 706.32 815.88 656.36 815.88 671.92 807.5 678.67 792.34 678.67 576.53 676.63 576.53" class="cls-6" style="fill:#f9f7f9"/><path id="path835" d="m 1088.14,762.7 -5.31,10 c 0,0 -50.17,-28.25 -51.59,-90.1 h 13.09 c 0,0 -6.39,43.15 43.81,80.08" class="cls-6" transform="translate(-236.44,0.06)" style="fill:#f9f7f9"/><path id="path837" d="m 1230,682.94 h 12.9 c 0,0 1.23,57.13 -50.56,89.27 l -7,-9.41 c 0,0 46.44,-29.29 44.66,-79.86 z" class="cls-6" transform="translate(-236.44,0.06)" style="fill:#f9f7f9"/><path id="path839" d="m 1084.5,589.06 7.08,11.37 a 94.94,94.94 0 0 1 89.68,-0.93 l 7.37,-10.12 a 101.78,101.78 0 0 0 -104.13,-0.32 z" class="cls-6" transform="translate(-236.44,0.06)" style="fill:#f9f7f9"/><circle id="circle841" cx="900.42" cy="682.04" r="11.99" class="cls-6" style="fill:#f9f7f9"/><path id="path843" d="m 1136.67,642.82 a 38.09,38.09 0 1 0 38.08,38.08 38.08,38.08 0 0 0 -38.08,-38.08 z m 0,60.59 a 22.31,22.31 0 1 1 23,-22.31 22.67,22.67 0 0 1 -22.94,22.31 z" class="cls-6" transform="translate(-236.44,0.06)" style="fill:#f9f7f9"/><path id="path845" d="m 1137.18,592.13 a 88.46,88.46 0 1 0 88.46,88.45 88.45,88.45 0 0 0 -88.46,-88.45 z M 1136,756.75 a 74.33,74.33 0 1 1 74.33,-74.32 v 0 A 74.33,74.33 0 0 1 1136,756.75 Z" class="cls-6" transform="translate(-236.44,0.06)" style="fill:#f9f7f9"/><path id="path847" d="M 1137.18,537.78 A 142.83,142.83 0 1 0 1280,680.61 v 0 a 142.8,142.8 0 0 0 -142.8,-142.8 z m 0,273 A 129.61,129.61 0 1 1 1266.79,681.2 129.61,129.61 0 0 1 1137.18,810.81 Z" class="cls-6" transform="translate(-236.44,0.06)" style="fill:#f9f7f9"/><path id="path849" d="m 1125.09,539.82 v -19.46 h 24.38 v 19.46" class="cls-6" transform="translate(-236.44,0.06)" style="fill:#f9f7f9"/><path id="path851" d="m 1124.9,821.81 v 19.46 h 24.37 v -19.46" class="cls-6" transform="translate(-236.44,0.06)" style="fill:#f9f7f9"/><path id="path853" d="m 1278.14,668.35 h 19.46 v 24.37 h -19.46" class="cls-6" transform="translate(-236.44,0.06)" style="fill:#f9f7f9"/><path id="path855" d="m 996.15,668.91 h -19.46 v 24.38 h 19.46" class="cls-6" transform="translate(-236.44,0.06)" style="fill:#f9f7f9"/><path id="path857" d="m 1198.68,553.36 9.83,-16.73 21,12.4 -9.83,16.76" class="cls-6" transform="translate(-236.44,0.06)" style="fill:#f9f7f9"/><path id="path859" d="m 1054.73,795.84 -9.83,16.73 21,12.44 9.82,-16.74" class="cls-6" transform="translate(-236.44,0.06)" style="fill:#f9f7f9"/><path id="path861" d="m 1264.8,742 16.76,9.83 -12.29,21 -16.75,-9.83" class="cls-6" transform="translate(-236.44,0.06)" style="fill:#f9f7f9"/><path id="path863" d="m 1021.92,598.67 -16.75,-9.83 -12.29,21 16.76,9.83" class="cls-6" transform="translate(-236.44,0.06)" style="fill:#f9f7f9"/><path id="path865" d="m 1253.13,599.75 16.83,-9.83 12.29,21.08 -16.83,9.83" class="cls-6" transform="translate(-236.44,0.06)" style="fill:#f9f7f9"/><path id="path867" d="m 1009,740.85 -16.83,9.83 12.29,21.08 16.83,-9.82" class="cls-6" transform="translate(-236.44,0.06)" style="fill:#f9f7f9"/><path id="path869" d="m 1218.63,796.55 9.83,16.81 -21,12.29 -9.83,-16.81" class="cls-6" transform="translate(-236.44,0.06)" style="fill:#f9f7f9"/><path id="path871" d="M 1076.79,552.82 1067,536 l -21,12.29 9.83,16.8" class="cls-6" transform="translate(-236.44,0.06)" style="fill:#f9f7f9"/><path id="path873" d="m 1142,681.52 -44.23,144.05 a 23.6,23.6 0 0 1 -8.2,11.85 v 0 a 26.45,26.45 0 0 1 -16,5.43 H 951.68 a 33.14,33.14 0 0 1 -19.86,-6.61 v 0 a 10.67,10.67 0 0 1 -4.27,-8.55 v -12.88 l 5.92,-0.79 v 7.82 a 13.8,13.8 0 0 0 3.15,8.74 l 0.81,1 a 11.1,11.1 0 0 0 8.55,4 h 130.66 a 13.75,13.75 0 0 0 10.47,-4.91 l 3.64,-4.3 a 14,14 0 0 0 2.75,-5.11 l 40.73,-144.43" class="cls-6" transform="translate(-236.44,0.06)" style="fill:#f9f7f9"/></g></g></g></svg>