<?xml version="1.0" encoding="UTF-8" standalone="no"?><!DOCTYPE svg PUBLIC "-//W3C//DTD SVG 1.1//EN" "http://www.w3.org/Graphics/SVG/1.1/DTD/svg11.dtd"><svg width="100%" height="100%" viewBox="0 0 363 363" version="1.1" xmlns="http://www.w3.org/2000/svg" xmlns:xlink="http://www.w3.org/1999/xlink" xml:space="preserve" xmlns:serif="http://www.serif.com/" style="fill-rule:evenodd;clip-rule:evenodd;stroke-linejoin:round;stroke-miterlimit:2;"><path d="M362.835,44.096c0,-24.337 -19.759,-44.096 -44.097,-44.096l-274.642,0c-24.337,0 -44.096,19.759 -44.096,44.096l0,274.642c0,24.338 19.759,44.097 44.096,44.097l274.642,0c24.338,0 44.097,-19.759 44.097,-44.097l0,-274.642Z" style="fill:url(#_Linear1);"/><rect id="filemanager" x="0" y="0" width="362.835" height="362.835" style="fill:none;"/><clipPath id="_clip2"><rect x="0" y="0" width="362.835" height="362.835"/></clipPath><g clip-path="url(#_clip2)"><path d="M286.613,203.96c24.216,-41.943 9.845,-95.574 -32.097,-119.789c-41.914,-24.2 -95.59,-9.817 -119.789,32.097c-24.216,41.942 -9.845,95.574 32.097,119.789l43.846,-75.943l75.943,43.846Z" style="fill:url(#_Linear3);"/><path d="M354.883,160.114c0,-79.647 -64.566,-144.213 -144.213,-144.213c-79.593,0 -144.213,64.619 -144.213,144.213c0,79.647 64.566,144.213 144.213,144.213l0,-144.213l144.213,0Z" style="fill:url(#_Linear4);"/><path d="M252.11,5.456c-41.017,-10.991 -84.721,-5.237 -121.497,15.996c-49.733,28.713 -80.28,81.862 -80.055,139.289l160.112,-0.627l41.44,-154.658Z" style="fill:url(#_Linear5);"/><path d="M41.727,48.08c-53.302,80.377 -42.595,187.178 25.602,255.375c60.659,60.659 152.932,76.569 230.403,39.726l-87.062,-183.067l-168.943,-112.034Z" style="fill:url(#_Linear6);"/></g><defs><linearGradient id="_Linear1" x1="0" y1="0" x2="1" y2="0" gradientUnits="userSpaceOnUse" gradientTransform="matrix(278.439,294.746,-294.746,278.439,61.6881,52.6564)"><stop offset="0" style="stop-color:#303030;stop-opacity:1"/><stop offset="1" style="stop-color:#4c4a42;stop-opacity:1"/></linearGradient><linearGradient id="_Linear3" x1="0" y1="0" x2="1" y2="0" gradientUnits="userSpaceOnUse" gradientTransform="matrix(2.33807,-28.0224,28.0224,2.33807,263.667,188.763)"><stop offset="0" style="stop-color:#117fff;stop-opacity:1"/><stop offset="1" style="stop-color:#004da7;stop-opacity:1"/></linearGradient><linearGradient id="_Linear4" x1="0" y1="0" x2="1" y2="0" gradientUnits="userSpaceOnUse" gradientTransform="matrix(-74.039,-81.8181,81.8181,-74.039,311.987,154.239)"><stop offset="0" style="stop-color:#ff3c4e;stop-opacity:1"/><stop offset="1" style="stop-color:#c90013;stop-opacity:1"/></linearGradient><linearGradient id="_Linear5" x1="0" y1="0" x2="1" y2="0" gradientUnits="userSpaceOnUse" gradientTransform="matrix(-109.11,67.8042,-67.8042,-109.11,239.507,37.5677)"><stop offset="0" style="stop-color:#ffc900;stop-opacity:1"/><stop offset="1" style="stop-color:#997900;stop-opacity:1"/></linearGradient><linearGradient id="_Linear6" x1="0" y1="0" x2="1" y2="0" gradientUnits="userSpaceOnUse" gradientTransform="matrix(-164.671,-209.087,209.087,-164.671,273.798,304.327)"><stop offset="0" style="stop-color:#007219;stop-opacity:1"/><stop offset="1" style="stop-color:#1fd647;stop-opacity:1"/></linearGradient></defs></svg>