<?xml version="1.0" encoding="UTF-8" standalone="no"?>
<svg
  xmlns:dc="http://purl.org/dc/elements/1.1/"
  xmlns:cc="http://creativecommons.org/ns#"
  xmlns:rdf="http://www.w3.org/1999/02/22-rdf-syntax-ns#"
  xmlns="http://www.w3.org/2000/svg"
  id="svg8"
  version="1.1"
  viewBox="-0.1 0 33.866665 33.867001"
  height="33.867001mm"
  width="33.866665mm">
  <defs
    id="defs2"/>
  <metadata
    id="metadata5">
    <rdf:RDF>
      <cc:Work
        rdf:about="">
        <dc:format>image/svg+xml</dc:format>
        <dc:type
          rdf:resource="http://purl.org/dc/dcmitype/StillImage"/>
        <dc:title></dc:title>
      </cc:Work>
    </rdf:RDF>
  </metadata>
  <g
    transform="translate(-53.470239,-156.8461)"
    id="layer1">
    <g
      transform="matrix(0.26458333,0,0,0.26458594,-7.1096339,128.11801)"
      id="g4600">
      <path
        id="path954"
        d="m 285.10564,236.29959 c -18.16949,-2.07105 -34.85656,-12.03785 -45.20904,-27.00231 -4.24483,-6.13588 -7.44104,-13.10047 -9.32883,-20.32769 -1.47352,-5.64121 -1.98242,-9.84674 -1.98242,-16.38265 0,-6.53591 0.5089,-10.74144 1.98242,-16.38265 3.85176,-14.74606 12.89703,-27.72253 25.31401,-36.31582 8.74622,-6.0529 18.95611,-9.86998 29.5079,-11.03185 3.37965,-0.37213 11.01171,-0.37213 14.39136,0 18.07006,1.98971 34.40168,11.5381 44.97297,26.29377 4.4832,6.25776 7.88177,13.52283 9.84894,21.0539 1.47352,5.64121 1.9824,9.84674 1.9824,16.38265 0,6.53591 -0.50888,10.74144 -1.9824,16.38265 -3.85177,14.74606 -12.89704,27.72253 -25.31402,36.31582 -8.74621,6.0529 -18.9561,9.86998 -29.50789,11.03185 -3.22234,0.35481 -11.49494,0.34485 -14.6754,-0.0177 z"
        style="fill:#f0f0f0;stroke-width:0.18937735"/>
      <path
        id="path952"
        d="m 287.09392,235.90762 c -12.84209,-1.23784 -24.47475,-5.91455 -34.4562,-13.85253 -2.32498,-1.849 -7.66274,-7.18775 -9.5114,-9.51315 -7.26157,-9.13427 -11.64966,-19.27962 -13.45406,-31.10601 -0.35806,-2.34681 -0.41099,-3.48626 -0.41099,-8.84899 0,-5.36274 0.053,-6.50219 0.41099,-8.84899 1.8044,-11.82639 6.19249,-21.97175 13.45406,-31.10601 1.84866,-2.32541 7.18642,-7.66416 9.5114,-9.51315 9.13258,-7.26291 19.27607,-11.65181 31.10028,-13.45655 2.34638,-0.35813 3.48561,-0.41106 8.84736,-0.41106 5.36175,0 6.50099,0.0529 8.84736,0.41106 11.82421,1.80474 21.96769,6.19364 31.10027,13.45655 2.32498,1.84899 7.66276,7.18774 9.5114,9.51315 7.26157,9.13426 11.64967,19.27962 13.45408,31.10601 0.35806,2.3468 0.41097,3.48625 0.41097,8.84899 0,5.36273 -0.0529,6.50218 -0.41097,8.84899 -1.80441,11.82639 -6.19251,21.97174 -13.45408,31.10601 -1.84864,2.3254 -7.18642,7.66415 -9.5114,9.51315 -9.10626,7.24198 -19.35769,11.68446 -31.00513,13.43614 -2.06941,0.31122 -3.71783,0.40183 -8.09038,0.44469 -3.02029,0.0296 -5.8749,0.0169 -6.34356,-0.0283 z m 9.94479,-37.34881 c 1.72045,-0.78171 2.30181,-1.71465 7.571,-12.1497 l 4.92336,-9.75018 14.43351,-0.0947 14.4335,-0.0947 0.42695,-0.4271 c 0.58781,-0.58802 0.58378,-1.75201 -0.008,-2.3823 -0.83918,-0.89343 -1.08093,-0.90567 -16.5986,-0.84062 -16.45764,0.069 -16.10685,0.0405 -17.29739,1.4073 -0.34854,0.40015 -2.23729,3.79535 -4.19724,7.54489 -1.95993,3.74953 -3.6962,6.90103 -3.85837,7.00334 -0.1943,0.12259 -0.36015,0.12072 -0.48634,-0.006 -0.15353,-0.15346 -6.94429,-27.66969 -10.23374,-41.46681 -1.1539,-4.83991 -1.2702,-5.01896 -3.25975,-5.01896 -1.35808,0 -2.39314,0.36658 -3.018,1.06886 -0.17206,0.19338 -2.84374,6.36015 -5.93708,13.70393 -3.09334,7.34379 -5.66502,13.39495 -5.71486,13.44704 -0.0498,0.0521 -3.91235,0.14737 -8.58338,0.21176 -7.85005,0.10821 -8.53882,0.14404 -9.1013,0.47348 -1.43156,0.83846 -1.63157,1.94831 -0.55825,3.09752 l 0.53546,0.57332 9.91276,-0.001 c 6.31887,-6.2e-4 10.17151,-0.0729 10.62644,-0.19929 0.81048,-0.22511 1.78108,-1.11656 2.26614,-2.08135 0.18083,-0.35966 2.04049,-4.5744 4.13257,-9.36609 2.09209,-4.79169 3.93361,-8.81284 4.09225,-8.93589 0.15865,-0.12306 0.40151,-0.18035 0.53969,-0.12731 0.15848,0.0608 2.15434,7.76494 5.40609,20.86776 5.58348,22.49852 5.81185,23.26869 7.01356,23.65256 0.95926,0.30642 1.69222,0.27461 2.53917,-0.11021 z"
        style="fill:#eaeef0;stroke-width:0.18937735"/>
      <path
        id="path950"
        d="m 287.94604,235.91891 c -9.318,-0.93918 -16.13943,-2.82947 -23.57113,-6.53181 -6.50024,-3.23832 -11.634,-6.91814 -16.64819,-11.93326 -8.69351,-8.69511 -14.76259,-19.90798 -17.22956,-31.83232 -1.02582,-4.9584 -1.2516,-7.30979 -1.2516,-13.03458 0,-5.7248 0.22578,-8.07618 1.2516,-13.03458 1.7421,-8.42061 5.47686,-16.90791 10.5709,-24.02253 9.11876,-12.73576 23.15626,-21.87005 38.48512,-25.04253 4.95748,-1.02601 7.30844,-1.25184 13.03218,-1.25184 5.72373,0 8.07469,0.22583 13.03218,1.25184 8.41906,1.74242 16.90479,5.47787 24.01809,10.57285 12.73342,9.12044 21.86604,23.16052 25.03793,38.49221 1.02582,4.9584 1.25159,7.30978 1.25159,13.03458 0,5.72479 -0.22577,8.07618 -1.25159,13.03458 -1.74209,8.4206 -5.47686,16.90791 -10.5709,24.02253 -8.12326,11.34538 -19.83591,19.64958 -33.60061,23.82262 -2.53603,0.76885 -6.83413,1.677 -9.96358,2.10524 -2.07495,0.28393 -10.82567,0.52507 -12.59243,0.347 z m 9.04802,-37.27685 c 0.33514,-0.14893 1.00878,-0.63898 1.49698,-1.08902 1.05129,-0.96911 1.92522,-2.56096 7.15591,-13.03423 2.00295,-4.01043 3.77883,-7.44639 3.94643,-7.63545 0.28984,-0.32699 0.99005,-0.34166 14.35803,-0.30081 12.99817,0.0397 14.09054,0.0186 14.54884,-0.2818 0.66045,-0.43282 0.93114,-1.08117 0.78242,-1.87407 -0.14108,-0.75214 -0.5154,-1.12987 -1.42121,-1.43413 -0.97683,-0.32812 -29.01644,-0.28907 -30.73019,0.0428 -2.27534,0.44061 -1.95512,-0.0378 -8.79441,13.13872 -0.88726,1.70937 -1.40346,2.50815 -1.62175,2.50948 -0.17611,0.001 -0.36331,-0.0678 -0.41599,-0.15308 -0.0791,-0.12797 -4.41234,-17.83591 -9.76431,-39.90197 -1.59591,-6.57993 -1.46084,-6.34473 -3.6437,-6.34473 -1.64159,0 -2.75829,0.40633 -3.25983,1.18615 -0.14988,0.23304 -2.75883,6.34702 -5.79769,13.58664 -3.03884,7.23962 -5.58993,13.2322 -5.66908,13.31685 -0.0792,0.0846 -3.97617,0.21778 -8.66005,0.29585 -8.01362,0.13358 -8.55416,0.16417 -9.16069,0.51846 -0.3545,0.20708 -0.7645,0.59024 -0.91109,0.85147 -0.34768,0.61954 -0.15224,1.67698 0.42509,2.30003 l 0.43796,0.47266 9.73588,0.12763 c 10.85407,0.1423 11.21185,0.11232 12.39962,-1.03913 0.73478,-0.7123 0.48332,-0.18478 5.18098,-10.86896 2.05887,-4.68262 3.88182,-8.60118 4.05098,-8.70791 0.2,-0.12617 0.36643,-0.12929 0.47581,-0.009 0.0925,0.10183 2.49386,9.51757 5.33631,20.92387 3.27663,13.14858 5.37089,21.19817 5.72218,21.99406 0.45721,1.03584 0.65907,1.2891 1.15448,1.44847 0.88344,0.28421 1.95024,0.26849 2.64209,-0.0389 z"
        style="fill:#e7ecee;stroke-width:0.18937735"/>
      <path
        id="path948"
        d="m 288.98752,235.92355 c -5.04671,-0.43113 -8.20622,-0.93343 -12.02436,-1.91164 -8.84186,-2.26527 -17.08675,-6.3836 -24.23806,-12.10693 -2.67179,-2.13828 -7.31081,-6.77816 -9.44869,-9.45043 -5.72595,-7.15723 -9.86027,-15.44009 -12.10044,-24.24254 -1.46097,-5.74071 -1.90203,-9.36397 -1.90203,-15.62507 0,-6.2611 0.44106,-9.88436 1.90203,-15.62507 2.24017,-8.80246 6.37449,-17.08532 12.10044,-24.24254 2.13788,-2.67227 6.7769,-7.31215 9.44869,-9.45043 7.1559,-5.72701 15.43724,-9.86208 24.23806,-12.10266 5.73966,-1.46125 9.36225,-1.90239 15.6222,-1.90239 6.25994,0 9.88253,0.44114 15.62219,1.90239 8.80082,2.24058 17.08216,6.37565 24.23807,12.10266 2.67178,2.13828 7.31081,6.77816 9.4487,9.45043 5.72594,7.15722 9.86026,15.44008 12.10042,24.24254 1.46099,5.74071 1.90205,9.36397 1.90205,15.62507 0,6.2611 -0.44106,9.88436 -1.90205,15.62507 -2.24016,8.80245 -6.37448,17.08531 -12.10042,24.24254 -2.13789,2.67227 -6.77692,7.31215 -9.4487,9.45043 -9.38864,7.5139 -20.40993,12.14853 -32.47522,13.65633 -2.27495,0.2843 -9.21561,0.51322 -10.98288,0.36224 z m 8.05828,-37.20411 c 0.88084,-0.33496 2.22816,-1.68418 2.99028,-2.99452 0.40399,-0.69458 2.68359,-5.1593 5.06577,-9.92159 3.10117,-6.19964 4.46889,-8.74891 4.81587,-8.9763 0.44687,-0.29286 1.49204,-0.30677 13.42117,-0.17862 7.11512,0.0764 13.43258,0.077 14.03884,10e-4 1.35795,-0.16969 1.97953,-0.69651 1.97953,-1.67774 0,-1.00703 -0.34749,-1.57375 -1.1657,-1.9012 -0.64301,-0.25723 -2.5739,-0.29427 -15.34427,-0.29427 -9.91848,0 -15.00887,0.0681 -15.85507,0.21221 -1.98508,0.33799 -2.32427,0.79809 -6.45375,8.75424 -3.35436,6.46277 -3.84731,7.23276 -4.23195,6.61027 -0.0946,-0.15307 -8.83484,-35.98125 -9.89869,-40.57684 -0.73021,-3.15437 -1.10984,-4.40971 -1.52536,-5.04399 -0.27297,-0.41669 -0.4145,-0.44846 -1.99781,-0.44846 -2.08901,0 -2.97233,0.39848 -3.54101,1.59738 -0.2009,0.42353 -2.76421,6.48031 -5.69627,13.45951 -2.93205,6.9792 -5.43056,12.79017 -5.55225,12.91328 -0.1586,0.16046 -2.63801,0.27108 -8.75743,0.3907 -8.32598,0.16276 -8.55284,0.17716 -9.21251,0.58493 -0.76493,0.47284 -0.90325,0.72937 -0.90325,1.67509 0,0.95746 0.52531,1.73579 1.32068,1.9568 0.95153,0.2644 19.29192,0.24772 20.349,-0.0185 0.97666,-0.24597 1.97178,-1.02831 2.4219,-1.90406 0.1798,-0.34982 1.48387,-3.2781 2.89794,-6.50728 1.41407,-3.22918 3.17965,-7.25992 3.92353,-8.9572 1.15813,-2.64253 1.40773,-3.07797 1.73694,-3.03032 0.34623,0.0501 0.90315,2.1363 5.60168,20.98378 5.47587,21.96568 5.79359,23.05283 6.81599,23.32239 0.7474,0.19705 2.19967,0.18081 2.7562,-0.0308 z"
        style="fill:#d7eaf1;stroke-width:0.18937735"/>
      <path
        id="path946"
        d="m 285.67372,235.53576 c -21.44002,-2.32473 -40.5489,-15.78285 -49.98323,-35.20248 -4.26765,-8.78453 -6.35134,-17.88732 -6.35134,-27.74634 0,-9.85902 2.08369,-18.96182 6.35134,-27.74634 7.64615,-15.73884 21.7297,-27.74328 38.5495,-32.85855 3.29001,-1.00056 8.25315,-1.99777 11.75973,-2.36279 3.56933,-0.37156 9.60195,-0.37156 13.17128,0 25.26572,2.63007 46.60179,20.25693 54.00807,44.61892 1.00039,3.29063 1.99741,8.25469 2.36236,11.7619 0.37149,3.56999 0.37149,9.60373 0,13.17372 -2.62958,25.27036 -20.25319,46.61037 -44.61069,54.01803 -3.29002,1.00056 -8.25317,1.99777 -11.75974,2.36279 -3.44454,0.35857 -10.10228,0.34926 -13.49728,-0.0189 z m 11.1064,-36.65396 c 0.40678,-0.1219 1.20097,-0.65097 1.77685,-1.18372 1.14709,-1.06115 1.91927,-2.47302 8.04906,-14.71697 1.64893,-3.29366 3.13818,-6.04226 3.30942,-6.10798 0.17126,-0.0657 6.51214,-0.11951 14.09089,-0.11951 9.79294,0 13.95795,-0.0622 14.39622,-0.21502 1.11101,-0.38737 1.46156,-2.2978 0.56977,-3.10501 -0.90671,-0.82072 -1.08413,-0.82994 -15.9947,-0.83173 -15.74011,-0.002 -16.59647,0.0494 -17.85634,1.06928 -0.72214,0.58458 -1.3403,1.67578 -5.48667,9.68528 -2.35035,4.54013 -2.88436,5.3912 -3.19057,5.08492 -0.0967,-0.0968 -8.34616,-33.81549 -9.92571,-40.57042 -1.30671,-5.58819 -1.42511,-5.77655 -3.63089,-5.77655 -1.55738,0 -2.55603,0.33312 -3.20433,1.06887 -0.1704,0.19338 -2.83639,6.35616 -5.92442,13.69506 -3.08804,7.33892 -5.66107,13.39008 -5.71786,13.44704 -0.0568,0.057 -3.86767,0.15373 -8.46861,0.21505 -7.49863,0.0999 -8.43929,0.14657 -9.07893,0.45016 -0.88004,0.41768 -1.46072,1.12804 -1.46072,1.78693 0,0.68719 0.61026,1.77017 1.15634,2.05206 0.63256,0.32652 20.07505,0.34271 21.01785,0.0175 1.69902,-0.58607 1.57608,-0.36455 6.70875,-12.08863 1.93814,-4.4271 3.60319,-8.13025 3.7001,-8.22921 0.11113,-0.11346 0.253,-0.10313 0.38408,0.028 0.11431,0.11433 2.53808,9.52773 5.38614,20.91866 3.4967,13.98512 5.36381,21.11924 5.74955,21.9686 0.51299,1.12956 0.64442,1.27726 1.28879,1.44823 0.99236,0.26332 1.50112,0.26529 2.35594,0.009 z"
        style="fill:#c8e7f2;stroke-width:0.18937735"/>
      <path
        id="path944"
        d="m 288.32476,235.73541 c -0.31244,-0.0429 -1.50541,-0.17167 -2.65104,-0.2863 -9.75505,-0.97602 -19.55302,-4.5439 -28.11726,-10.23873 -3.78426,-2.51637 -6.43301,-4.68676 -9.66598,-7.92032 -10.2425,-10.24439 -16.38603,-23.02407 -18.21227,-37.88491 -0.31974,-2.60188 -0.31974,-11.03454 0,-13.63643 1.30554,-10.6237 4.5977,-19.64844 10.29341,-28.21713 2.5159,-3.78497 4.68588,-6.4342 7.91886,-9.66777 10.2425,-10.24438 23.01982,-16.38904 37.87792,-18.21562 2.60141,-0.31981 11.03251,-0.31981 13.63392,0 10.62174,1.30578 19.64482,4.59855 28.21194,10.2953 3.78425,2.51637 6.43301,4.68675 9.66599,7.92032 10.24249,10.24439 16.38601,23.02406 18.21225,37.8849 0.14125,1.14929 0.24439,4.0271 0.24439,6.81822 0,2.79111 -0.10314,5.66893 -0.24439,6.81821 -1.30554,10.62371 -4.59769,19.64844 -10.29339,28.21714 -2.51592,3.78497 -4.6859,6.4342 -7.91886,9.66777 -10.02209,10.02391 -22.59566,16.18262 -36.94468,18.09599 -2.03722,0.27166 -10.73281,0.52458 -12.01081,0.34936 z m 8.66829,-36.91183 c 0.36671,-0.15325 1.10235,-0.68592 1.63475,-1.18372 1.05754,-0.98879 2.06672,-2.841 7.81985,-14.35211 1.56185,-3.12502 3.02032,-5.87781 3.24104,-6.1173 l 0.40131,-0.43546 13.93622,0.0321 c 12.5536,0.0289 13.99546,0.001 14.53334,-0.27673 0.70902,-0.36672 0.98706,-0.82519 0.98706,-1.62764 0,-0.96378 -0.45856,-1.6143 -1.38831,-1.96944 -0.77074,-0.2944 -2.10896,-0.31624 -15.96409,-0.26051 -11.07488,0.0445 -15.29508,0.12123 -15.76633,0.28643 -1.77674,0.62287 -1.83714,0.71462 -6.63133,10.07285 -1.46425,2.8582 -2.74845,5.28293 -2.85378,5.38828 -0.1291,0.12912 -0.2611,0.12192 -0.40508,-0.0221 -0.11747,-0.11749 -0.70828,-2.24393 -1.31289,-4.7254 -5.93058,-24.34035 -8.25342,-33.92108 -8.80818,-36.33011 -0.73637,-3.19759 -1.29358,-4.75624 -1.79658,-5.02549 -0.1879,-0.10058 -1.04274,-0.18287 -1.89966,-0.18287 -1.31708,0 -1.68201,0.0727 -2.35971,0.46991 -0.90829,0.53238 -0.0173,-1.41996 -8.11754,17.78728 -2.23594,5.30186 -4.13993,9.71434 -4.2311,9.80552 -0.0912,0.0912 -3.95148,0.23389 -8.57847,0.31712 -7.51622,0.13521 -8.48334,0.18738 -9.07547,0.4896 -0.88837,0.45341 -1.31623,1.02292 -1.32131,1.75876 -0.006,0.86324 0.53812,1.89422 1.11466,2.11212 0.28387,0.10728 4.51275,0.2241 10.03329,0.27715 10.26893,0.0987 10.91286,0.0528 12.16612,-0.86706 0.71299,-0.52331 1.44204,-2.03338 5.84954,-12.11616 1.80862,-4.13748 3.40179,-7.56622 3.54037,-7.61941 0.1412,-0.0542 0.33154,0.089 0.43302,0.32571 0.0996,0.23232 2.43736,9.56407 5.19506,20.73721 3.14149,12.72814 5.2208,20.79141 5.56777,21.59101 0.42727,0.98465 0.69914,1.35185 1.19008,1.60735 0.77711,0.40442 1.97266,0.42657 2.86635,0.0531 z"
        style="fill:#b7e3f3;stroke-width:0.18937735"/>
      <path
        id="path942"
        d="m 289.17688,235.73345 c -10.45836,-0.90315 -17.30254,-2.78327 -25.63803,-7.04287 -17.41889,-8.9014 -29.96496,-26.07036 -33.24692,-45.49753 -0.65114,-3.85431 -0.84148,-6.25344 -0.84148,-10.60611 0,-10.49833 2.19954,-19.57307 7.0416,-29.05186 8.89976,-17.4221 26.06557,-29.97049 45.48915,-33.25305 3.8536,-0.65125 6.25229,-0.84163 10.60416,-0.84163 10.4964,0 19.56946,2.19994 29.0465,7.0429 17.4189,8.90139 29.96496,26.07036 33.24693,45.49753 0.65113,3.85431 0.84147,6.25344 0.84147,10.60611 0,4.35267 -0.19034,6.7518 -0.84147,10.60611 -3.6181,21.41693 -18.19547,39.60101 -38.39477,47.89439 -5.41,2.22121 -11.23403,3.69522 -17.27106,4.37113 -1.91494,0.2144 -8.61226,0.39783 -10.03608,0.27488 z m 7.81617,-36.90987 c 0.36671,-0.15325 1.10235,-0.68592 1.63475,-1.18372 1.05787,-0.9891 2.00355,-2.72497 7.893,-14.48824 1.93107,-3.85702 3.0669,-5.91893 3.36991,-6.11751 0.40739,-0.26697 1.958,-0.296 14.26394,-0.26698 12.43901,0.0293 13.86605,0.002 14.40444,-0.27653 0.32867,-0.17 0.68533,-0.47305 0.79256,-0.67346 0.29079,-0.54345 0.23553,-1.76223 -0.10174,-2.24384 -0.70052,-1.00032 -0.47219,-0.98668 -16.43742,-0.98242 -15.96598,0.004 -16.52696,0.0353 -17.77212,0.98527 -0.48294,0.36843 -1.21849,1.58098 -2.92254,4.81788 -1.25245,2.37904 -2.83693,5.4761 -3.52106,6.88236 -1.46395,3.00921 -1.72648,3.40657 -2.04396,3.09369 -0.12318,-0.1214 -1.35373,-4.85153 -2.73455,-10.51141 -4.55822,-18.6837 -7.46593,-30.73573 -7.57763,-31.40821 -0.28528,-1.71747 -0.88773,-3.48784 -1.36958,-4.02465 -0.24102,-0.26851 -0.61728,-0.33144 -1.9818,-0.33144 -1.67858,0 -2.43398,0.20912 -3.21031,0.88873 -0.1727,0.15117 -2.85687,6.32355 -5.96484,13.71638 -4.50686,10.72032 -5.72752,13.45879 -6.02957,13.52688 -0.2083,0.047 -4.08544,0.15564 -8.61588,0.24152 -8.87704,0.16829 -9.02142,0.18627 -9.74054,1.21314 -0.64267,0.91772 -0.0942,2.97659 0.87487,3.28422 0.21678,0.0688 4.70748,0.14446 9.97933,0.1681 10.20138,0.0457 10.97526,-0.009 12.13042,-0.86357 0.77012,-0.56948 1.05272,-1.14705 5.31789,-10.86848 2.10231,-4.79169 3.91992,-8.77449 4.03914,-8.85067 0.11922,-0.0762 0.30405,-0.0223 0.41073,0.11979 0.10668,0.14207 0.73307,2.50555 1.39197,5.25217 0.6589,2.74663 2.93216,11.99394 5.05168,20.54959 4.05807,16.3808 4.5626,18.05493 5.55026,18.41708 0.75793,0.27791 2.17266,0.24608 2.91865,-0.0657 z"
        style="fill:#c4dde6;stroke-width:0.18937735"/>
      <path
        id="path940"
        d="m 289.17688,235.73345 c -10.45836,-0.90315 -17.30254,-2.78327 -25.63803,-7.04287 -17.41889,-8.9014 -29.96496,-26.07036 -33.24692,-45.49753 -0.65114,-3.85431 -0.84148,-6.25344 -0.84148,-10.60611 0,-10.49833 2.19954,-19.57307 7.0416,-29.05186 8.89976,-17.4221 26.06557,-29.97049 45.48915,-33.25305 3.8536,-0.65125 6.25229,-0.84163 10.60416,-0.84163 10.4964,0 19.56946,2.19994 29.0465,7.0429 17.4189,8.90139 29.96496,26.07036 33.24693,45.49753 0.65113,3.85431 0.84147,6.25344 0.84147,10.60611 0,4.35267 -0.19034,6.7518 -0.84147,10.60611 -3.6181,21.41693 -18.19547,39.60101 -38.39477,47.89439 -5.41,2.22121 -11.23403,3.69522 -17.27106,4.37113 -1.91494,0.2144 -8.61226,0.39783 -10.03608,0.27488 z m 7.86711,-36.82393 c 0.27869,-0.10598 0.95337,-0.57435 1.49928,-1.04082 0.90092,-0.76982 1.23828,-1.3247 3.65393,-6.00998 1.46376,-2.83903 3.73284,-7.31001 5.04241,-9.93552 1.60158,-3.21096 2.52064,-4.84838 2.8075,-5.00193 0.32672,-0.17489 3.50528,-0.20271 13.59013,-0.11897 7.24001,0.0601 13.58461,0.0422 14.09912,-0.0398 1.21771,-0.19412 1.81026,-0.83762 1.81026,-1.96592 0,-0.43976 -0.13352,-0.99023 -0.29671,-1.22325 -0.70052,-1.00033 -0.47219,-0.98668 -16.43742,-0.98242 -15.977,0.004 -16.52625,0.0348 -17.7767,0.98876 -0.62758,0.47876 -1.79356,2.58324 -6.90026,12.45429 -0.61973,1.1979 -1.26154,2.20396 -1.42625,2.23568 -0.24061,0.0463 -0.45516,-0.58648 -1.09159,-3.21967 -0.43567,-1.80255 -2.45261,-10.09558 -4.48211,-18.42894 -2.0295,-8.33338 -4.06849,-16.77092 -4.53111,-18.75009 -0.46261,-1.97918 -0.97494,-3.93941 -1.13851,-4.35608 -0.52147,-1.32836 -0.68855,-1.42047 -2.57671,-1.42047 -1.67858,0 -2.43398,0.20912 -3.21031,0.88873 -0.1727,0.15117 -2.85687,6.32355 -5.96484,13.71638 -4.50686,10.72033 -5.72752,13.45879 -6.02957,13.52688 -0.2083,0.047 -4.08544,0.15565 -8.61588,0.24153 -8.87704,0.16828 -9.02142,0.18626 -9.74054,1.21314 -0.70542,1.00731 -0.0892,2.94944 1.06334,3.35129 0.87425,0.30482 19.11135,0.28245 20.44341,-0.0251 1.65156,-0.38129 2.32538,-1.21176 3.87196,-4.7721 4.81865,-11.0929 6.85205,-15.546 7.09871,-15.546 0.20104,0 1.6056,5.34196 5.47775,20.83343 3.42607,13.7068 5.39309,21.23547 5.75022,22.00873 0.38595,0.83564 0.68693,1.22814 1.04148,1.35816 0.67188,0.24639 2.34414,0.25769 2.96901,0.0201 z"
        style="fill:#a7e1f4;stroke-width:0.18937735"/>
      <path
        id="path938"
        d="m 288.70348,235.64988 c -12.99109,-0.84458 -25.32391,-5.61097 -35.59966,-13.75857 -2.67462,-2.12069 -7.69344,-7.14044 -9.81375,-9.81555 -4.14098,-5.22454 -7.63366,-11.37257 -9.84493,-17.32963 -7.77788,-20.95335 -4.08595,-44.07189 9.84493,-61.64801 2.12031,-2.67511 7.13913,-7.69486 9.81375,-9.81555 5.22357,-4.14175 11.37046,-7.63508 17.32643,-9.84674 20.94949,-7.77933 44.06377,-4.08671 61.63665,9.84674 2.67461,2.12069 7.69345,7.14044 9.81375,9.81555 4.14098,5.22453 7.63367,11.37257 9.84492,17.32962 7.7779,20.95336 4.08596,44.0719 -9.84492,61.64802 -2.01793,2.54595 -7.0885,7.64789 -9.52971,9.58869 -8.49235,6.75151 -17.82155,11.05741 -28.21463,13.02251 -4.59924,0.8696 -10.85975,1.26023 -15.43283,0.96292 z m 8.34051,-36.74036 c 0.27869,-0.10598 0.95337,-0.57435 1.49928,-1.04082 0.90092,-0.76982 1.23828,-1.3247 3.65393,-6.00998 1.46376,-2.83903 3.73284,-7.31001 5.04241,-9.93552 1.55344,-3.11445 2.52446,-4.85043 2.79371,-4.99456 0.30707,-0.16437 3.95645,-0.20291 14.26053,-0.1506 13.16051,0.0668 13.87409,0.0531 14.37677,-0.27589 0.29089,-0.1904 0.64888,-0.63335 0.79552,-0.98436 0.34448,-0.82462 0.028,-1.87045 -0.73811,-2.43927 -0.53045,-0.39384 -0.64958,-0.39734 -15.52751,-0.45672 -10.6937,-0.0427 -15.3577,0.002 -16.26492,0.15813 -2.26367,0.38792 -1.96101,-0.0663 -8.7057,13.0641 -0.67727,1.31847 -1.34893,2.39252 -1.51634,2.42477 -0.24042,0.0463 -0.4365,-0.50291 -0.98024,-2.74568 -0.37383,-1.54196 -2.51674,-10.34621 -4.76201,-19.565 -2.24527,-9.21879 -4.2924,-17.74156 -4.54916,-18.93948 -0.57295,-2.67305 -0.94064,-3.80944 -1.43659,-4.44006 -0.36165,-0.45985 -0.47296,-0.48417 -2.21332,-0.48349 -1.9876,6.2e-4 -2.73398,0.2674 -3.34063,1.19344 -0.16382,0.25007 -2.7667,6.32285 -5.78418,13.49508 -3.01748,7.17222 -5.59356,13.14502 -5.72462,13.27288 -0.17571,0.17143 -2.45091,0.2755 -8.6648,0.39634 -8.82325,0.17159 -8.83122,0.17244 -9.79937,1.05442 -0.87723,0.79915 -0.34611,3.10417 0.81719,3.54655 0.73202,0.27835 19.30246,0.24353 20.52404,-0.0385 1.34125,-0.30965 2.26805,-1.16016 2.99072,-2.74454 0.32454,-0.71153 2.17872,-4.91586 4.1204,-9.34296 1.94167,-4.4271 3.60918,-8.13025 3.70559,-8.22921 0.11067,-0.11361 0.24236,-0.11281 0.35733,0.002 0.10014,0.10016 2.43743,9.31082 5.19399,20.46815 2.98038,12.06329 5.26238,20.92 5.62983,21.85004 0.51035,1.29172 0.7187,1.60789 1.19691,1.8162 0.69357,0.30213 2.34451,0.34238 3.04935,0.0743 z"
        style="fill:#9be1f4;stroke-width:0.18937735"/>
      <path
        id="path936"
        d="m 286.33648,235.43846 c -12.24043,-1.26709 -23.69527,-5.97243 -33.42202,-13.72888 -2.67185,-2.13062 -7.31245,-6.77209 -9.44269,-9.44443 -7.85675,-9.85617 -12.49707,-21.2582 -13.74741,-33.77969 -0.25223,-2.52593 -0.25223,-9.27111 0,-11.79704 1.25034,-12.52149 5.89066,-23.92352 13.74741,-33.7797 2.13024,-2.67234 6.77084,-7.3138 9.44269,-9.44442 9.85435,-7.8582 21.25428,-12.49937 33.77346,-13.74994 2.52547,-0.25228 9.2694,-0.25228 11.79487,0 12.51918,1.25057 23.91911,5.89174 33.77347,13.74994 2.67185,2.13062 7.31246,6.77208 9.44268,9.44442 7.85677,9.85618 12.49707,21.25821 13.74742,33.7797 0.10772,1.07875 0.19585,3.73308 0.19585,5.89852 0,2.16543 -0.0881,4.81977 -0.19585,5.89852 -1.25035,12.52149 -5.89065,23.92352 -13.74742,33.77969 -2.13022,2.67234 -6.77083,7.31381 -9.44268,9.44443 -9.85436,7.8582 -21.25429,12.49937 -33.77347,13.74994 -2.30877,0.23063 -9.84109,0.21757 -12.14631,-0.0211 z m 10.28299,-36.41029 c 0.48939,-0.14731 1.32508,-0.64788 1.89577,-1.13551 0.93602,-0.79982 1.24112,-1.29981 3.68196,-6.03394 1.46376,-2.83903 3.73284,-7.31001 5.04241,-9.93552 1.51373,-3.03483 2.52746,-4.85203 2.78299,-4.98882 0.29279,-0.15672 4.16624,-0.19763 14.26064,-0.15061 12.97154,0.0604 13.89127,0.0432 14.36774,-0.26867 1.72081,-1.12647 1.15088,-3.34943 -1.00783,-3.93082 -0.51086,-0.13758 -5.44489,-0.18166 -15.47155,-0.13819 -16.31922,0.0707 -16.11207,0.0553 -17.39146,1.29557 -0.57224,0.55474 -3.11941,5.25174 -6.56233,12.10096 -0.69035,1.37335 -1.31818,2.39034 -1.49692,2.42477 -0.24994,0.0481 -0.43576,-0.46822 -0.98757,-2.74427 -0.37383,-1.54196 -2.51674,-10.34621 -4.76201,-19.565 -2.24527,-9.21879 -4.29169,-17.74156 -4.54758,-18.93948 -0.99358,-4.65121 -1.31744,-5.11636 -3.55759,-5.1095 -1.49673,0.004 -2.59187,0.39026 -3.27846,1.15457 -0.22289,0.24812 -2.89338,6.37445 -5.93443,13.61407 -3.04104,7.23961 -5.64876,13.25711 -5.79491,13.37221 -0.18013,0.14184 -2.90472,0.24082 -8.45693,0.3072 -8.87922,0.10618 -9.01537,0.12225 -9.99011,1.17901 -0.88776,0.96246 -0.47124,2.82179 0.77569,3.46273 0.6468,0.33247 19.21144,0.33993 20.64787,0.008 1.65156,-0.3813 2.32538,-1.21176 3.87196,-4.7721 4.81865,-11.0929 6.85205,-15.546 7.09871,-15.546 0.19484,0 0.59913,1.29602 1.44747,4.64018 0.64742,2.55209 1.21807,4.85324 1.26812,5.11366 0.05,0.26042 0.14345,0.72917 0.20758,1.04167 0.0641,0.3125 1.81357,7.35658 3.88767,15.65351 4.27445,17.09894 4.41395,17.52492 5.86259,17.90147 1.12678,0.29291 1.12946,0.29289 2.14051,-0.0115 z"
        style="fill:#aed9e8;stroke-width:0.18937735"/>
      <path
        id="path934"
        d="m 286.33648,235.43846 c -12.24043,-1.26709 -23.69527,-5.97243 -33.42202,-13.72888 -2.67185,-2.13062 -7.31245,-6.77209 -9.44269,-9.44443 -7.85675,-9.85617 -12.49707,-21.2582 -13.74741,-33.77969 -0.25223,-2.52593 -0.25223,-9.27111 0,-11.79704 1.25034,-12.52149 5.89066,-23.92352 13.74741,-33.7797 2.13024,-2.67234 6.77084,-7.3138 9.44269,-9.44442 9.85435,-7.8582 21.25428,-12.49937 33.77346,-13.74994 2.52547,-0.25228 9.2694,-0.25228 11.79487,0 12.51918,1.25057 23.91911,5.89174 33.77347,13.74994 2.67185,2.13062 7.31246,6.77208 9.44268,9.44442 7.85677,9.85618 12.49707,21.25821 13.74742,33.7797 0.10772,1.07875 0.19585,3.73308 0.19585,5.89852 0,2.16543 -0.0881,4.81977 -0.19585,5.89852 -1.25035,12.52149 -5.89065,23.92352 -13.74742,33.77969 -2.13022,2.67234 -6.77083,7.31381 -9.44268,9.44443 -9.85436,7.8582 -21.25429,12.49937 -33.77347,13.74994 -2.30877,0.23063 -9.84109,0.21757 -12.14631,-0.0211 z m 10.21214,-36.35109 c 1.18165,-0.25347 2.55647,-1.42859 3.48599,-2.97963 0.35515,-0.59263 2.66123,-5.05342 5.12464,-9.91285 2.4634,-4.85944 4.60168,-8.93725 4.75175,-9.06181 0.20644,-0.17136 3.62624,-0.22358 14.05476,-0.21462 10.35956,0.009 13.94651,-0.0453 14.4447,-0.21854 0.8457,-0.29398 1.38558,-1.26885 1.22893,-2.21903 -0.13672,-0.82919 -0.96235,-1.61816 -1.9802,-1.89229 -0.53161,-0.14317 -5.27232,-0.1868 -15.48759,-0.14251 -16.31878,0.0707 -16.1121,0.0553 -17.39123,1.29535 -0.55812,0.54105 -4.00915,6.87399 -6.80182,12.48193 -0.88247,1.77208 -1.19986,2.19785 -1.44125,1.93341 -0.0674,-0.0738 -0.64943,-2.30747 -1.2935,-4.96373 -7.28945,-30.0632 -9.5252,-39.20738 -9.71819,-39.74738 -0.12528,-0.35054 -0.46929,-0.8406 -0.76447,-1.08902 -0.45778,-0.38528 -0.73635,-0.45106 -1.895,-0.44751 -1.49673,0.004 -2.59187,0.39026 -3.27846,1.15457 -0.22289,0.24812 -2.89338,6.37445 -5.93443,13.61407 -3.04104,7.23961 -5.64876,13.25711 -5.79491,13.37221 -0.18013,0.14184 -2.90472,0.24082 -8.45693,0.3072 -8.87922,0.10618 -9.01537,0.12225 -9.99011,1.17901 -0.88776,0.96246 -0.47124,2.82179 0.77569,3.46273 0.6165,0.31689 19.66879,0.34198 20.91729,0.0276 1.37016,-0.34507 2.11982,-1.25168 3.35464,-4.05696 0.59425,-1.35001 2.42841,-5.52276 4.07591,-9.27278 1.94316,-4.42297 3.0913,-6.81821 3.26826,-6.81821 0.20425,0 1.58236,5.23504 5.48434,20.83343 3.81559,15.25297 5.36261,21.13782 5.77548,21.9698 0.51775,1.0433 0.63371,1.15451 1.41605,1.35786 1.10209,0.28648 0.97082,0.28346 2.06966,0.0478 z"
        style="fill:#96ddf5;stroke-width:0.18937735"/>
      <path
        id="path932"
        d="m 286.7152,235.45003 c -25.07491,-2.39553 -46.41791,-19.50655 -54.14006,-43.40495 -2.10609,-6.51791 -3.04632,-12.52353 -3.04632,-19.45814 0,-10.15841 2.24714,-19.58254 6.81481,-28.58021 9.83595,-19.37545 28.86912,-32.26081 50.65561,-34.2936 2.67592,-0.24967 8.49632,-0.24967 11.17224,0 27.08492,2.52717 49.31129,21.69221 55.7521,48.07316 1.17481,4.81195 1.71831,9.49339 1.71831,14.80065 0,10.1584 -2.24713,19.58254 -6.8148,28.58021 -9.83596,19.37545 -28.86911,32.2608 -50.65561,34.2936 -2.38877,0.22288 -9.07657,0.21662 -11.45628,-0.0108 z m 10.08073,-36.38358 c 0.98903,-0.29637 2.4346,-1.61698 3.23868,-2.95871 0.35515,-0.59263 2.66123,-5.05342 5.12464,-9.91285 2.4634,-4.85944 4.58926,-8.92694 4.72412,-9.03889 0.16876,-0.14007 4.65062,-0.21978 14.37238,-0.25561 14.00566,-0.0516 14.13174,-0.0555 14.66166,-0.44901 1.20619,-0.89572 0.98172,-2.83046 -0.41327,-3.5623 -0.74959,-0.39324 -0.89371,-0.39684 -15.90524,-0.39684 -17.07787,0 -16.58454,-0.0376 -17.91516,1.3649 -0.63025,0.6643 -3.45984,5.86459 -6.41955,11.79804 -1.15142,2.30831 -1.47474,2.77631 -1.72822,2.5016 -0.12042,-0.13052 -8.63331,-34.98479 -9.93203,-40.66465 -0.81641,-3.57054 -1.11797,-4.48095 -1.68802,-5.09616 -0.41588,-0.44882 -0.58387,-0.49099 -1.95575,-0.49099 -1.64279,0 -2.52652,0.27311 -3.25864,1.00706 -0.29585,0.29659 -2.49855,5.29893 -6.03167,13.69795 -3.06109,7.27689 -5.64,13.31294 -5.73091,13.41343 -0.0982,0.10857 -3.53165,0.22981 -8.46185,0.29881 -8.12461,0.11369 -8.31499,0.12502 -9.18635,0.54692 -0.91261,0.44187 -1.44753,1.15607 -1.44753,1.93268 0,0.68755 0.72537,1.98243 1.24254,2.21811 0.66287,0.30208 19.82138,0.30803 21.01852,0.007 1.37016,-0.34508 2.11982,-1.25168 3.35464,-4.05697 0.59425,-1.35001 2.42841,-5.52275 4.07591,-9.27277 1.94316,-4.42297 3.0913,-6.81821 3.26826,-6.81821 0.19696,0 0.52646,1.02665 1.1853,3.69319 9.96143,40.31677 9.8629,39.96397 11.30121,40.46172 0.86695,0.30002 1.58381,0.30946 2.50633,0.033 z"
        style="fill:#87dbf6;stroke-width:0.18937735"/>
      <path
        id="path930"
        d="m 288.32476,235.54602 c -0.31244,-0.0428 -1.50541,-0.17168 -2.65104,-0.2863 -2.91506,-0.29166 -5.77168,-0.82036 -9.1225,-1.68839 -21.87008,-5.6654 -39.27111,-23.06949 -44.93941,-44.9473 -1.51457,-5.84577 -1.98863,-9.6687 -1.98863,-16.03709 0,-6.36839 0.47406,-10.19132 1.98863,-16.03709 5.66834,-21.87796 23.06548,-39.27831 44.93941,-44.9477 5.8447,-1.51485 9.66692,-1.98899 16.03414,-1.98899 6.36721,0 10.18945,0.47414 16.03413,1.98899 21.87392,5.66939 39.27108,23.06974 44.93942,44.9477 1.51458,5.84577 1.98862,9.6687 1.98862,16.03709 0,6.36839 -0.47404,10.19132 -1.98862,16.03709 -5.66809,21.87701 -23.0899,39.30107 -44.93942,44.94521 -5.63334,1.45519 -8.96689,1.89385 -15.08733,1.98533 -2.55163,0.0381 -4.89496,0.0343 -5.2074,-0.009 z m 8.47117,-36.47957 c 0.98922,-0.29643 2.43481,-1.6172 3.23834,-2.95871 0.35497,-0.59263 2.62886,-4.99799 5.05309,-9.78967 2.42423,-4.7917 4.53596,-8.86131 4.69275,-9.04361 0.2666,-0.30998 1.17526,-0.33151 14.03164,-0.33249 8.83743,-6.3e-4 13.99709,-0.0707 14.44807,-0.19592 1.98099,-0.55029 1.989,-3.14097 0.0123,-3.98842 -0.85117,-0.36492 -1.27539,-0.3732 -16.03754,-0.31283 -16.06793,0.0657 -15.97368,0.0604 -17.20072,0.96466 -0.74155,0.54646 -1.36378,1.63698 -4.93402,8.64722 -1.6711,3.28126 -3.12877,6.02631 -3.23925,6.1001 -0.11047,0.0738 -0.25645,0.0738 -0.32438,0 -0.12403,-0.13471 -9.40255,-38.25545 -10.27244,-42.20425 -0.49875,-2.26405 -1.03476,-3.5387 -1.61973,-3.85182 -0.20109,-0.10765 -1.05632,-0.19573 -1.9005,-0.19573 -1.70309,0 -2.7899,0.39728 -3.32616,1.21586 -0.16337,0.24937 -2.80227,6.39496 -5.86423,13.65686 -3.06197,7.2619 -5.60152,13.23778 -5.64347,13.27973 -0.042,0.042 -3.85909,0.1446 -8.48254,0.2281 -8.08919,0.1461 -8.43618,0.16727 -9.19856,0.5612 -0.97421,0.50339 -1.38537,1.06272 -1.38537,1.88459 0,0.85942 0.6697,2.10437 1.2509,2.32538 0.70249,0.26713 19.93935,0.23946 21.01016,-0.0302 1.37016,-0.34507 2.11981,-1.25169 3.35464,-4.05696 0.59425,-1.35001 2.42841,-5.52277 4.07591,-9.27278 1.94316,-4.42297 3.0913,-6.81822 3.26826,-6.81822 0.30604,0 -0.0408,-1.34249 6.22,24.07682 4.53228,18.40146 4.87782,19.54259 6.0673,20.03712 0.82921,0.34473 1.72069,0.36912 2.70554,0.074 z"
        style="fill:#78d8f7;stroke-width:0.18937735"/>
      <path
        id="path928"
        d="m 287.75668,235.44464 c -10.87216,-0.82151 -21.79843,-4.68454 -30.86566,-10.91272 -5.99636,-4.11882 -12.12301,-10.2466 -16.24107,-16.24406 -10.08752,-14.69125 -13.52179,-33.22318 -9.33606,-50.37902 1.88343,-7.71952 4.96292,-14.65388 9.33606,-21.02282 4.11806,-5.99746 10.24471,-12.12524 16.24107,-16.24406 14.68854,-10.08938 33.21705,-13.52429 50.36973,-9.33778 7.7181,1.88377 14.65117,4.96383 21.01895,9.33778 5.99635,4.11882 12.12302,10.2466 16.24106,16.24406 10.08753,14.69124 13.52179,33.22317 9.33607,50.37902 -1.88343,7.71951 -4.96291,14.65388 -9.33607,21.02282 -4.11804,5.99746 -10.24471,12.12524 -16.24106,16.24406 -11.8238,8.12163 -26.20543,11.99456 -40.52302,10.91272 z m 9.03925,-36.37819 c 0.98922,-0.29643 2.43481,-1.6172 3.23834,-2.95871 0.35497,-0.59263 2.62886,-4.99799 5.05309,-9.78967 2.42423,-4.7917 4.53596,-8.86131 4.69275,-9.04361 0.2666,-0.30998 1.17526,-0.33151 14.03164,-0.33249 8.51478,-5.8e-4 14.00418,-0.0726 14.42342,-0.18912 0.37224,-0.10342 0.87342,-0.39736 1.11374,-0.65321 0.37159,-0.39563 0.4231,-0.60893 0.34452,-1.42692 -0.10956,-1.14046 -0.59011,-1.74229 -1.64308,-2.05783 -1.00433,-0.30095 -29.29988,-0.30651 -31.02474,-0.006 -2.04258,0.35577 -2.47627,0.82144 -4.75023,5.10052 -1.07688,2.02646 -2.6859,5.19227 -3.5756,7.03514 -1.51063,3.12905 -2.02615,3.8939 -2.23928,3.3223 -0.23086,-0.61914 -9.63802,-39.54463 -10.04011,-41.54455 -0.50703,-2.52183 -0.86344,-3.54456 -1.46058,-4.19111 -0.35129,-0.38034 -0.5742,-0.42613 -2.07422,-0.42613 -1.73672,0 -2.45574,0.2136 -3.29345,0.97838 -0.23173,0.21157 -2.73927,5.93403 -5.94492,13.56693 -3.04928,7.26057 -5.63832,13.30212 -5.75342,13.42567 -0.15059,0.16166 -2.57184,0.27196 -8.63579,0.3934 -7.2482,0.14515 -8.51023,0.21253 -9.02521,0.4818 -1.32018,0.6903 -1.72451,1.92486 -1.07724,3.28915 0.64279,1.35482 0.14203,1.29992 11.23029,1.23105 6.04302,-0.0376 10.26589,-0.13937 10.75495,-0.25935 1.32767,-0.32569 2.09189,-1.25676 3.31812,-4.0425 0.59425,-1.35001 2.42841,-5.52276 4.07591,-9.27277 1.94316,-4.42297 3.0913,-6.81822 3.26826,-6.81822 0.19789,0 0.56823,1.18113 1.34884,4.30184 0.59182,2.36601 1.12347,4.60033 1.18144,4.96515 0.058,0.36482 1.85404,7.6762 3.99128,16.2475 4.24492,17.02412 4.61293,18.21067 5.77852,18.63154 0.85483,0.30865 1.75582,0.32267 2.69276,0.0419 z"
        style="fill:#67d5f8;stroke-width:0.18937735"/>
      <path
        id="path926"
        d="m 289.65028,235.54119 c -16.18419,-0.97424 -30.4221,-7.29014 -41.57044,-18.44053 -10.34701,-10.34892 -16.48355,-23.25666 -18.19114,-38.26369 -0.12445,-1.09376 -0.22628,-3.90627 -0.22628,-6.25003 0,-2.34376 0.10183,-5.15628 0.22628,-6.25003 1.70759,-15.00703 7.84413,-27.91477 18.19114,-38.2637 10.34701,-10.34891 23.25238,-16.48658 38.25664,-18.19448 1.09355,-0.12448 3.90555,-0.22632 6.24888,-0.22632 2.34333,0 5.15532,0.10184 6.24887,0.22632 15.00428,1.7079 27.90963,7.84557 38.25666,18.19448 10.347,10.34893 16.48353,23.25667 18.19112,38.2637 0.29167,2.56321 0.29167,9.93685 0,12.50006 -1.70759,15.00703 -7.84412,27.91477 -18.19112,38.26369 -10.28662,10.28851 -23.57142,16.62509 -38.0673,18.15735 -2.04282,0.21593 -7.66752,0.38586 -9.37331,0.28318 z m 7.14565,-36.47474 c 0.98922,-0.29643 2.43481,-1.6172 3.23834,-2.95871 0.35497,-0.59263 2.62886,-4.99799 5.05309,-9.78967 2.42423,-4.7917 4.53596,-8.86131 4.69275,-9.04361 0.2666,-0.30998 1.17526,-0.33151 14.03164,-0.33249 8.46176,-5.8e-4 14.00529,-0.0729 14.41952,-0.18804 1.09215,-0.30346 1.50471,-0.81784 1.50471,-1.87609 0,-0.65087 -0.1182,-1.06435 -0.41052,-1.43604 -0.8435,-1.07254 -0.39741,-1.04426 -16.46827,-1.04426 -9.9689,0 -15.20107,0.0685 -16.01089,0.20952 -1.86836,0.32542 -2.48026,1.01617 -4.76376,5.37763 -1.03622,1.97917 -2.58514,5.06366 -3.44203,6.85441 -1.45427,3.03915 -1.96762,3.79939 -2.17947,3.22767 -0.0849,-0.22901 -4.32981,-17.64501 -8.04308,-32.99885 -1.03289,-4.27085 -1.93341,-8.19133 -2.00114,-8.71216 -0.19163,-1.47354 -0.7993,-3.23961 -1.33294,-3.87393 -0.47788,-0.56802 -0.51273,-0.57685 -2.27679,-0.57685 -1.91911,0 -2.48002,0.17442 -3.26551,1.01545 -0.25899,0.27731 -2.82025,6.11163 -6.00992,13.69004 -3.05721,7.26373 -5.62349,13.27049 -5.70285,13.34836 -0.0793,0.0779 -3.93621,0.21516 -8.5708,0.30511 -8.95716,0.17383 -8.83141,0.15921 -9.89405,1.15051 -0.87259,0.814 -0.66285,2.55443 0.42664,3.54037 0.40878,0.36992 0.64209,0.37694 10.48153,0.31542 6.07609,-0.038 10.38248,-0.14075 10.86867,-0.25934 1.32724,-0.32375 2.09136,-1.25442 3.31812,-4.04138 0.59425,-1.35002 2.42841,-5.52277 4.07591,-9.27278 1.94316,-4.42297 3.0913,-6.81822 3.26826,-6.81822 0.19797,0 0.57052,1.19036 1.35819,4.33972 0.59698,2.38685 1.12312,4.64538 1.1692,5.01896 0.1834,1.48667 7.92317,31.96333 8.41519,33.13621 0.41613,0.99196 0.66312,1.32479 1.17729,1.58646 0.75771,0.38562 1.81137,0.42471 2.87297,0.10658 z"
        style="fill:#8dc7da;stroke-width:0.18937735"/>
      <path
        id="path924"
        d="m 289.65028,235.54119 c -16.18419,-0.97424 -30.4221,-7.29014 -41.57044,-18.44053 -10.34701,-10.34892 -16.48355,-23.25666 -18.19114,-38.26369 -0.12445,-1.09376 -0.22628,-3.90627 -0.22628,-6.25003 0,-2.34376 0.10183,-5.15628 0.22628,-6.25003 1.70759,-15.00703 7.84413,-27.91477 18.19114,-38.2637 10.34701,-10.34891 23.25238,-16.48658 38.25664,-18.19448 1.09355,-0.12448 3.90555,-0.22632 6.24888,-0.22632 2.34333,0 5.15532,0.10184 6.24887,0.22632 15.00428,1.7079 27.90963,7.84557 38.25666,18.19448 10.347,10.34893 16.48353,23.25667 18.19112,38.2637 0.29167,2.56321 0.29167,9.93685 0,12.50006 -1.70759,15.00703 -7.84412,27.91477 -18.19112,38.26369 -10.28662,10.28851 -23.57142,16.62509 -38.0673,18.15735 -2.04282,0.21593 -7.66752,0.38586 -9.37331,0.28318 z m 7.38693,-36.4397 c 0.80881,-0.30756 2.32929,-1.69841 2.9375,-2.68706 0.31025,-0.50432 2.65681,-5.04496 5.21457,-10.09031 3.43751,-6.7807 4.75377,-9.20616 5.04651,-9.29909 0.2178,-0.0691 6.5823,-0.0946 14.14333,-0.0565 12.84299,0.0647 13.7874,0.0473 14.35711,-0.2642 0.77443,-0.42341 0.99975,-0.85193 0.99975,-1.90135 0,-0.57407 -0.12969,-1.00409 -0.41052,-1.36117 -0.8435,-1.07254 -0.39741,-1.04426 -16.46827,-1.04426 -9.9689,0 -15.20107,0.0685 -16.01089,0.20952 -2.20825,0.38462 -2.71296,1.12535 -8.08409,11.8644 -1.00291,2.00522 -1.90497,3.64585 -2.00458,3.64585 -0.0996,0 -0.27876,-0.36221 -0.3981,-0.80493 -0.4978,-1.84667 -9.32743,-38.31994 -9.82803,-40.59746 -0.60208,-2.73917 -0.95825,-3.73781 -1.56258,-4.38122 -0.3628,-0.38624 -0.57861,-0.42872 -2.17801,-0.42872 -1.90191,0 -2.46541,0.1761 -3.24933,1.01545 -0.25899,0.27731 -2.82025,6.11163 -6.00992,13.69004 -3.05721,7.26373 -5.62349,13.27049 -5.70285,13.34836 -0.0793,0.0779 -3.93621,0.21516 -8.5708,0.30511 -8.95716,0.17383 -8.83141,0.15921 -9.89405,1.15051 -0.98724,0.92096 -0.51934,3.0981 0.81046,3.77112 0.65194,0.32994 19.21238,0.34537 20.63405,0.0171 1.45509,-0.33594 2.44021,-1.29824 3.30114,-3.22467 0.38569,-0.86303 2.21766,-5.02087 4.07103,-9.23964 2.00769,-4.57003 3.47163,-7.67049 3.62177,-7.67049 0.16969,0 0.52304,1.1135 1.08182,3.40911 4.07036,16.72198 9.44563,37.92348 9.86765,38.92063 0.40842,0.96501 0.66159,1.30263 1.17139,1.56221 0.72082,0.36702 2.32889,0.44015 3.11394,0.14162 z"
        style="fill:#56d4f8;stroke-width:0.18937735"/>
      <path
        id="path922"
        d="m 287.37796,235.35393 c -0.31244,-0.0424 -1.37759,-0.16777 -2.367,-0.27854 -6.37232,-0.71339 -13.4946,-2.80807 -19.68564,-5.78957 -17.75107,-8.54863 -30.33232,-24.63198 -34.35242,-43.91473 -1.01762,-4.88105 -1.15536,-6.40523 -1.15536,-12.78415 0,-6.37892 0.13774,-7.9031 1.15536,-12.78415 3.58321,-17.18719 14.24128,-32.22844 29.15776,-41.14903 7.3241,-4.38007 15.23319,-7.1578 24.21754,-8.50538 3.27226,-0.49081 13.20206,-0.49081 16.47432,0 7.14145,1.07116 12.99817,2.83828 19.02287,5.73968 17.75109,8.54863 30.33233,24.63198 34.35244,43.91473 1.0176,4.88105 1.15534,6.40523 1.15534,12.78415 0,6.37892 -0.13774,7.9031 -1.15534,12.78415 -2.50819,12.03068 -8.46505,23.07267 -17.11365,31.72287 -8.53765,8.53923 -19.5117,14.50823 -31.3383,17.04552 -4.5311,0.97211 -6.56334,1.17604 -12.3084,1.23511 -3.02029,0.031 -5.74707,0.0217 -6.05952,-0.0207 z m 9.11449,-36.12196 c 1.17651,-0.30524 2.69013,-1.52992 3.48226,-2.81754 0.31025,-0.50432 2.65901,-5.04929 5.21945,-10.09994 4.06764,-8.02365 4.71794,-9.1987 5.15094,-9.3074 0.27257,-0.0684 6.29402,-0.0768 13.38101,-0.0186 7.08698,0.0582 13.33499,0.0442 13.88446,-0.0312 1.82148,-0.24973 2.60822,-1.36241 2.08695,-2.95161 -0.18913,-0.57658 -0.44148,-0.85836 -1.0977,-1.22574 l -0.85212,-0.47705 -14.37558,-0.052 c -16.04404,-0.058 -16.8831,-0.01 -18.36803,1.06107 -0.86724,0.62527 -2.44117,3.41908 -6.07347,10.78074 -1.09218,2.21355 -2.06866,4.02464 -2.16994,4.02464 -0.10129,0 -0.28181,-0.36222 -0.40115,-0.80493 -0.66921,-2.48258 -9.37425,-38.53228 -9.82412,-40.68408 -0.59782,-2.85954 -1.19299,-4.3208 -1.90317,-4.67262 -0.26037,-0.12899 -1.06988,-0.23495 -1.79892,-0.23546 -1.51042,-0.001 -3.08065,0.5942 -3.56907,1.35305 -0.15631,0.24285 -2.77237,6.36488 -5.81347,13.60449 -3.0411,7.23962 -5.60944,13.21402 -5.70742,13.27643 -0.098,0.0624 -3.87659,0.16003 -8.39689,0.21689 -7.99414,0.10058 -8.24244,0.11489 -9.08676,0.5237 -0.47743,0.23115 -1.01275,0.64121 -1.18961,0.91122 -0.68485,1.04559 -0.1125,3.08921 1.00821,3.59993 0.69263,0.31564 19.36159,0.31274 20.73016,-0.003 1.45509,-0.33594 2.44021,-1.29824 3.30114,-3.22468 0.38569,-0.86303 2.21766,-5.02087 4.07103,-9.23963 2.07567,-4.72478 3.46933,-7.67049 3.62902,-7.67049 0.18231,0 0.58723,1.37722 1.36429,4.64017 3.49502,14.67597 9.08239,36.66103 9.6265,37.87814 0.5631,1.25958 0.64125,1.34473 1.46802,1.5994 1.11127,0.3423 1.08529,0.34176 2.22398,0.0463 z"
        style="fill:#47d1f9;stroke-width:0.18937735"/>
      <path
        id="path920"
        d="m 286.99924,235.25654 c -12.27753,-1.14031 -24.06011,-5.87532 -33.70606,-13.54529 -2.67461,-2.12671 -7.69677,-7.14979 -9.82308,-9.82489 -8.92786,-11.23205 -13.75094,-25.01614 -13.75094,-39.29942 0,-14.28329 4.82308,-28.06736 13.75094,-39.29942 2.12631,-2.6751 7.14847,-7.69819 9.82308,-9.82489 11.22998,-8.92951 25.01152,-13.75348 39.29218,-13.75348 14.28065,0 28.06219,4.82397 39.29218,13.75348 2.6746,2.1267 7.69676,7.14979 9.82309,9.82489 8.92784,11.23206 13.75093,25.01613 13.75093,39.29942 0,14.28328 -4.82309,28.06737 -13.75093,39.29942 -2.12633,2.6751 -7.14849,7.69818 -9.82309,9.82489 -9.75027,7.75292 -21.50735,12.44287 -33.9901,13.5588 -2.51395,0.22474 -8.40167,0.21743 -10.8882,-0.0135 z m 9.49321,-36.02457 c 1.17651,-0.30524 2.69013,-1.52992 3.48226,-2.81754 0.31025,-0.50432 2.65681,-5.04496 5.21457,-10.09031 3.43751,-6.7807 4.75377,-9.20616 5.04651,-9.29909 0.2178,-0.0691 6.5823,-0.0946 14.14333,-0.0565 12.87325,0.0648 13.7863,0.0479 14.36094,-0.26619 0.90836,-0.49646 1.25449,-1.13024 1.12887,-2.067 -0.14047,-1.04737 -0.65966,-1.69677 -1.66736,-2.08544 -0.75569,-0.29148 -2.16459,-0.32209 -15.25462,-0.33144 -16.00429,-0.0114 -16.7275,0.0325 -18.04467,1.09697 -0.88956,0.71887 -1.54386,1.87296 -5.0363,8.88331 -1.62169,3.25522 -3.02524,5.91858 -3.119,5.91858 -0.0938,0 -0.26815,-0.36221 -0.38755,-0.80493 -0.83385,-3.09192 -9.69196,-39.92962 -9.92149,-41.25994 -0.33376,-1.93438 -1.00401,-3.58354 -1.63649,-4.02663 -0.32135,-0.22512 -0.86182,-0.31023 -1.97014,-0.31023 -1.70184,0 -2.90393,0.45047 -3.53785,1.32577 -0.1886,0.26042 -2.81828,6.35419 -5.84374,13.54173 -3.02545,7.18753 -5.56922,13.13682 -5.65282,13.22064 -0.0836,0.0838 -3.89241,0.21862 -8.46402,0.29957 -7.96957,0.14111 -8.34444,0.16387 -9.0989,0.55254 -1.04929,0.54056 -1.58088,1.24801 -1.57701,2.0987 0.004,0.8433 0.69578,2.11106 1.32642,2.4302 0.65366,0.3308 19.4,0.347 20.82508,0.018 1.45509,-0.33594 2.44021,-1.29823 3.30114,-3.22467 0.38569,-0.86303 2.21766,-5.02087 4.07103,-9.23963 2.07567,-4.72479 3.46933,-7.67049 3.62902,-7.67049 0.18261,0 0.5826,1.37174 1.35303,4.64016 3.03801,12.88821 8.95867,36.3964 9.46849,37.59487 0.67437,1.58538 0.66121,1.56962 1.58737,1.8998 0.92778,0.33078 1.1029,0.33302 2.2739,0.0292 z"
        style="fill:#37cdfa;stroke-width:0.18937735"/>
      <path
        id="path918"
        d="m 288.98752,235.35537 c -6.43437,-0.54969 -10.86096,-1.39242 -15.94554,-3.03572 -18.82531,-6.08422 -34.09523,-21.35695 -40.17832,-40.18574 -2.16979,-6.71608 -3.02165,-12.22667 -3.02165,-19.54697 0,-7.3203 0.85186,-12.8309 3.02165,-19.54698 6.08309,-18.82878 21.35301,-34.10151 40.17832,-40.18573 6.71485,-2.17019 12.22443,-3.0222 19.54338,-3.0222 6.10324,0 9.78109,0.43407 15.24347,1.79907 19.3889,4.8451 35.28061,18.59549 42.89011,37.11089 2.14346,5.21544 3.4797,10.37414 4.28778,16.55325 0.44564,3.40775 0.44564,11.17564 0,14.5834 -1.91858,14.67093 -7.91432,27.03219 -18.00906,37.12879 -10.06859,10.07045 -22.66996,16.19146 -37.02726,17.98569 -2.27495,0.2843 -9.21561,0.51322 -10.98288,0.36225 z m 7.50493,-36.1234 c 1.17651,-0.30524 2.69013,-1.52992 3.48226,-2.81754 0.31025,-0.50432 2.65681,-5.04496 5.21457,-10.09031 3.43751,-6.7807 4.75377,-9.20616 5.04651,-9.29909 0.2178,-0.0691 6.5823,-0.0946 14.14333,-0.0565 14.68448,0.0739 14.08038,0.10747 15.12016,-0.83976 0.31909,-0.29068 0.42606,-0.59839 0.42606,-1.22553 0,-1.05374 -0.45473,-1.83598 -1.31721,-2.26588 -0.62494,-0.31151 -1.73173,-0.3345 -16.1039,-0.3345 -12.14271,0 -15.6067,0.0527 -16.24835,0.24693 -1.51646,0.45918 -2.09932,1.22056 -4.64054,6.06188 -1.29528,2.46768 -2.41963,4.69976 -2.49856,4.96018 -0.25898,0.85457 -2.17511,4.54547 -2.35978,4.54547 -0.2363,0 0.0733,1.22046 -5.33338,-21.02282 -2.59531,-10.67713 -4.79878,-20.02489 -4.89661,-20.77279 -0.23164,-1.77101 -0.81538,-3.4053 -1.45469,-4.07271 -0.48421,-0.50551 -0.59774,-0.53341 -2.17084,-0.53341 -0.91294,0 -1.89824,0.10115 -2.18955,0.22479 -1.41806,0.60181 -1.45343,0.67249 -7.26735,14.5243 -3.04411,7.25266 -5.58544,13.2452 -5.6474,13.31675 -0.062,0.0716 -3.90458,0.20507 -8.53917,0.29668 -9.24791,0.18283 -9.08177,0.16014 -10.1082,1.3802 -0.85718,1.01889 -0.52178,2.77458 0.70148,3.67201 0.52681,0.38648 0.67725,0.39142 10.22544,0.33586 6.2306,-0.0363 10.04935,-0.13236 10.69505,-0.26916 1.48201,-0.31397 2.4619,-1.25897 3.33783,-3.21896 0.38569,-0.86303 2.21766,-5.02087 4.07103,-9.23964 2.06638,-4.70362 3.46966,-7.67049 3.62801,-7.67049 0.17982,0 0.58919,1.35141 1.3482,4.45078 0.59949,2.44793 1.09397,4.66384 1.09885,4.92426 0.005,0.26042 1.78688,7.57467 3.96,16.25389 4.33963,17.33207 4.58089,18.09207 5.88454,18.53672 0.87082,0.29702 1.24217,0.29677 2.39221,-10e-4 z"
        style="fill:#6db8d0;stroke-width:0.18937735"/>
      <path
        id="path916"
        d="m 288.98752,235.35537 c -6.43437,-0.54969 -10.86096,-1.39242 -15.94554,-3.03572 -18.82531,-6.08422 -34.09523,-21.35695 -40.17832,-40.18574 -2.16979,-6.71608 -3.02165,-12.22667 -3.02165,-19.54697 0,-7.3203 0.85186,-12.8309 3.02165,-19.54698 6.08309,-18.82878 21.35301,-34.10151 40.17832,-40.18573 6.71485,-2.17019 12.22443,-3.0222 19.54338,-3.0222 6.10324,0 9.78109,0.43407 15.24347,1.79907 19.3889,4.8451 35.28061,18.59549 42.89011,37.11089 2.14346,5.21544 3.4797,10.37414 4.28778,16.55325 0.44564,3.40775 0.44564,11.17564 0,14.5834 -1.91858,14.67093 -7.91432,27.03219 -18.00906,37.12879 -10.06859,10.07045 -22.66996,16.19146 -37.02726,17.98569 -2.27495,0.2843 -9.21561,0.51322 -10.98288,0.36225 z m 8.31952,-36.28216 c 0.67041,-0.25175 2.01768,-1.58085 2.75436,-2.71722 0.33764,-0.52084 2.67845,-5.01769 5.20179,-9.99301 2.52334,-4.97532 4.73889,-9.12685 4.92342,-9.22563 0.2082,-0.11144 5.17871,-0.13556 13.09619,-0.0635 7.01836,0.0638 13.34126,0.0532 14.05088,-0.0237 1.05184,-0.11397 1.41047,-0.24538 1.94094,-0.71124 0.56001,-0.49179 0.65072,-0.69003 0.65072,-1.42223 0,-1.06645 -0.45153,-1.84778 -1.31721,-2.27928 -0.62494,-0.31151 -1.73173,-0.3345 -16.1039,-0.3345 -16.95608,0 -16.48328,-0.0307 -17.7982,1.15742 -0.75803,0.68496 -3.47565,5.64736 -6.39322,11.67408 -0.74381,1.53647 -1.4363,2.79358 -1.53888,2.79358 -0.23779,0 0.16041,1.55372 -3.90744,-15.24628 -1.94214,-8.02088 -4.11647,-16.96978 -4.83185,-19.88646 -0.71539,-2.91668 -1.39375,-5.89078 -1.50748,-6.6091 -0.28208,-1.78173 -0.8422,-3.29753 -1.45484,-3.9371 -0.48421,-0.5055 -0.59774,-0.5334 -2.17084,-0.5334 -0.91294,0 -1.89824,0.10115 -2.18955,0.22478 -1.41806,0.60181 -1.45343,0.67249 -7.26735,14.52431 -3.04411,7.25265 -5.58544,13.24519 -5.6474,13.31675 -0.062,0.0716 -3.90458,0.20506 -8.53917,0.29668 -9.24791,0.18282 -9.08177,0.16014 -10.1082,1.38019 -0.85717,1.01889 -0.52179,2.77456 0.70146,3.67201 0.52742,0.38696 0.66943,0.39141 10.50947,0.33004 6.21575,-0.0387 10.28614,-0.13847 10.8009,-0.26459 1.16145,-0.28454 2.16327,-1.311 2.93145,-3.00355 0.3506,-0.77248 2.1978,-4.96277 4.10488,-9.31175 1.90708,-4.34897 3.52885,-7.90723 3.60392,-7.90723 0.0751,0 0.66725,2.19461 1.31595,4.87692 0.6487,2.6823 2.92691,11.9508 5.06267,20.59668 4.2932,17.37951 4.5911,18.32534 5.91973,18.79494 0.69451,0.24548 2.33364,0.15932 3.2068,-0.16855 z"
        style="fill:#26cbfb;stroke-width:0.18937735"/>
      <path
        id="path914"
        d="m 288.79816,235.27656 c -13.09575,-0.85129 -25.25573,-5.56231 -35.59967,-13.79203 -2.34215,-1.86344 -6.81703,-6.26036 -8.77453,-8.62165 -7.94309,-9.5816 -12.74469,-20.82915 -14.24273,-33.36303 -0.42484,-3.55456 -0.42614,-10.25245 -0.002,-13.82582 1.43418,-12.10284 5.96038,-22.97822 13.51826,-32.48121 1.86309,-2.34258 6.25919,-6.8183 8.62005,-8.77616 8.22437,-6.82047 17.97206,-11.4554 28.31701,-13.46446 7.74672,-1.50446 16.1563,-1.50446 23.90303,0 10.34495,2.00906 20.09263,6.64399 28.317,13.46446 2.36087,1.95786 6.75697,6.43358 8.62007,8.77616 7.55786,9.50299 12.08406,20.37837 13.51825,32.48121 0.42184,3.55981 0.42184,10.26602 0,13.82582 -1.43419,12.10284 -5.96039,22.97822 -13.51825,32.48121 -1.8631,2.34259 -6.2592,6.8183 -8.62007,8.77615 -9.55974,7.9279 -21.10961,12.86291 -33.2622,14.21223 -3.34406,0.3713 -7.83882,0.49919 -10.79352,0.30712 z m 8.49152,-36.19675 c 0.68599,-0.25771 2.02788,-1.57641 2.77172,-2.72382 0.33764,-0.52084 2.67741,-5.01565 5.19949,-9.98848 2.52208,-4.97283 4.6855,-9.10637 4.80762,-9.18565 0.1221,-0.0793 6.53089,-0.14414 14.24174,-0.14414 12.93888,0 14.05567,-0.025 14.48603,-0.325 1.12813,-0.78629 1.17276,-0.85639 1.17276,-1.84245 0,-1.19441 -0.39211,-1.82311 -1.43133,-2.29504 -0.75402,-0.34242 -1.47587,-0.35882 -15.84412,-0.35996 -16.46709,-0.001 -16.631,0.009 -17.94895,1.0754 -0.51668,0.41826 -1.29131,1.68842 -3.10291,5.08785 -1.32789,2.49174 -2.41759,4.63828 -2.42156,4.77009 -0.0118,0.39272 -2.26748,4.77931 -2.45759,4.77931 -0.2246,0 0.15938,1.50258 -3.89609,-15.24628 -1.94214,-8.02087 -4.11885,-16.97602 -4.83716,-19.90034 -0.71831,-2.92432 -1.39304,-5.9307 -1.49941,-6.68084 -0.24082,-1.69832 -0.81486,-3.36337 -1.35944,-3.94316 -0.38027,-0.40486 -0.57093,-0.44172 -2.28489,-0.44172 -1.93776,0 -2.62154,0.1921 -3.4828,0.97839 -0.23174,0.21156 -2.73927,5.93402 -5.94493,13.56693 -3.04929,7.26056 -5.63832,13.30197 -5.75342,13.42536 -0.15061,0.16145 -2.57418,0.27 -8.64515,0.38722 -8.31992,0.16064 -8.44551,0.16883 -9.13675,0.59612 -0.38549,0.23829 -0.82864,0.61568 -0.98478,0.83865 -0.37537,0.53601 -0.36111,1.90038 0.0285,2.72145 0.64316,1.35563 0.13122,1.30002 11.32503,1.2303 6.25173,-0.0389 10.35624,-0.13884 10.8704,-0.26459 1.16137,-0.28403 2.1631,-1.31029 2.93145,-3.0032 0.3506,-0.77249 2.1978,-4.96278 4.10488,-9.31175 1.90708,-4.34898 3.52787,-7.90724 3.60174,-7.90724 0.16615,0 2.45381,9.09254 2.45381,9.75289 0,0.26288 1.74468,7.45635 3.87705,15.98547 4.25112,17.00376 4.62678,18.20347 5.81263,18.56333 0.69321,0.21036 2.55631,0.10174 3.34648,-0.1951 z"
        style="fill:#17cafc;stroke-width:0.18937735"/>
      <path
        id="path912"
        d="m 288.70348,235.16619 c -4.00473,-0.39151 -5.26447,-0.5521 -7.47972,-0.95353 -25.41889,-4.60621 -45.66032,-24.85185 -50.25159,-50.26203 -0.77744,-4.30273 -0.96204,-6.48317 -0.96204,-11.36369 0,-4.88053 0.1846,-7.06096 0.96204,-11.36369 4.59109,-25.40919 24.84708,-45.66892 50.25159,-50.26085 4.30194,-0.77759 6.48197,-0.96222 11.3616,-0.96222 4.87962,0 7.05966,0.18463 11.36159,0.96222 25.40451,4.59193 45.66051,24.85166 50.2516,50.26085 0.77744,4.30273 0.96204,6.48316 0.96204,11.36369 0,4.88052 -0.1846,7.06096 -0.96204,11.36369 -4.28137,23.695 -22.23358,43.07626 -45.61228,49.2431 -4.96302,1.30914 -9.36488,1.89192 -14.95943,1.98052 -2.29125,0.0363 -4.50677,0.0327 -4.92336,-0.008 z m 8.55682,-36.07521 c 0.7124,-0.26781 2.04553,-1.56948 2.8011,-2.73499 0.33764,-0.52084 2.67741,-5.01565 5.19949,-9.98848 2.52208,-4.97283 4.6855,-9.10637 4.80762,-9.18565 0.1221,-0.0793 6.53089,-0.14414 14.24174,-0.14414 15.20261,0 14.03668,0.0721 15.33104,-0.94869 0.54419,-0.42918 0.53262,-2.1313 -0.0196,-2.87267 -0.89434,-1.20088 -0.55081,-1.17666 -16.73883,-1.18035 -16.02384,-0.004 -16.54943,0.0265 -17.99942,1.03151 -0.43077,0.29858 -1.00944,0.94018 -1.28595,1.42577 -0.60726,1.06648 -3.9077,7.67559 -5.50305,11.01985 -0.63358,1.32812 -1.23186,2.41478 -1.32952,2.41478 -0.22741,0 0.15971,1.51393 -3.89852,-15.24628 -1.94213,-8.02087 -4.1236,-16.99536 -4.84772,-19.94331 -0.72411,-2.94796 -1.40224,-6.04333 -1.50696,-6.87861 -0.23703,-1.89067 -0.80659,-3.4492 -1.44369,-3.95043 -0.40932,-0.32203 -0.7621,-0.38225 -2.21298,-0.37776 -1.90712,0.006 -3.08193,0.42313 -3.73905,1.32795 -0.18613,0.25628 -2.82572,6.38928 -5.86577,13.6289 -3.04005,7.23962 -5.53745,13.17858 -5.54977,13.1977 -0.0123,0.0191 -3.82111,0.10989 -8.46397,0.2017 l -8.44157,0.16693 -0.88016,0.5159 c -1.45736,0.85423 -1.81351,2.09337 -1.05317,3.6643 0.21844,0.45132 0.58058,0.92474 0.80477,1.05205 0.528,0.29983 20.2306,0.21488 21.4952,-0.0927 1.16111,-0.28239 2.16255,-1.30796 2.93145,-3.00207 0.3506,-0.77249 2.1978,-4.96278 4.10488,-9.31175 1.90708,-4.34898 3.5282,-7.90724 3.60249,-7.90724 0.17438,0 2.39734,9.06145 2.54419,10.37089 0.0614,0.54771 1.77058,7.66421 3.79813,15.81446 3.92933,15.79497 4.51837,17.71757 5.55189,18.12102 0.57443,0.22423 2.77742,0.1077 3.56563,-0.18861 z"
        style="fill:#4db0cd;stroke-width:0.18937735"/>
      <path
        id="path910"
        d="m 288.70348,235.16619 c -4.00473,-0.39151 -5.26447,-0.5521 -7.47972,-0.95353 -25.41889,-4.60621 -45.66032,-24.85185 -50.25159,-50.26203 -0.77744,-4.30273 -0.96204,-6.48317 -0.96204,-11.36369 0,-4.88053 0.1846,-7.06096 0.96204,-11.36369 4.59109,-25.40919 24.84708,-45.66892 50.25159,-50.26085 4.30194,-0.77759 6.48197,-0.96222 11.3616,-0.96222 4.87962,0 7.05966,0.18463 11.36159,0.96222 25.40451,4.59193 45.66051,24.85166 50.2516,50.26085 0.77744,4.30273 0.96204,6.48316 0.96204,11.36369 0,4.88052 -0.1846,7.06096 -0.96204,11.36369 -4.28137,23.695 -22.23358,43.07626 -45.61228,49.2431 -4.96302,1.30914 -9.36488,1.89192 -14.95943,1.98052 -2.29125,0.0363 -4.50677,0.0327 -4.92336,-0.008 z m 8.26997,-35.90679 c 0.51105,-0.15315 1.10284,-0.60895 1.91557,-1.4754 1.2782,-1.36268 1.85679,-2.40887 7.91245,-14.30686 1.69656,-3.33335 3.17565,-6.12773 3.28684,-6.20973 0.11121,-0.082 6.46528,-0.12837 14.12016,-0.10304 15.1842,0.0502 14.48173,0.0963 15.43282,-1.01136 0.53404,-0.62193 0.52349,-2.20753 -0.0196,-2.93665 -0.89313,-1.19926 -0.56713,-1.17595 -16.60767,-1.18731 -16.05695,-0.0114 -16.62815,0.0213 -18.09878,1.03443 -0.76584,0.5276 -1.07716,0.98538 -2.52203,3.70853 -0.90659,1.70864 -2.48301,4.87302 -3.50316,7.03193 -1.02015,2.15891 -1.94945,3.92739 -2.06511,3.92994 -0.11904,0.002 -0.72425,-2.11172 -1.39462,-4.87228 -0.65137,-2.6823 -2.50006,-10.24625 -4.10819,-16.80878 -3.77714,-15.4139 -4.54996,-18.68756 -4.81244,-20.38531 -0.28386,-1.83617 -0.83941,-3.2844 -1.44166,-3.75822 -0.40932,-0.32203 -0.7621,-0.38225 -2.21298,-0.37776 -1.90712,0.006 -3.08193,0.42313 -3.73905,1.32795 -0.18613,0.25628 -2.82572,6.38928 -5.86577,13.6289 -3.04005,7.23962 -5.53745,13.17858 -5.54977,13.1977 -0.0123,0.0191 -3.82111,0.10989 -8.46397,0.2017 l -8.44157,0.16693 -0.88016,0.5159 c -1.45802,0.85462 -1.81353,2.09331 -1.05223,3.66625 0.21896,0.4524 0.62372,0.93383 0.89946,1.06985 0.395,0.19485 2.6703,0.24397 10.72678,0.23158 9.94536,-0.0153 10.24878,-0.0265 11.07756,-0.41028 1.07868,-0.49945 2.00359,-1.54919 2.65103,-3.00881 0.27862,-0.62816 2.06675,-4.70037 3.97361,-9.04935 1.90686,-4.34898 3.53039,-7.90723 3.60784,-7.90723 0.24389,0 1.92714,6.81481 2.55038,10.32542 0.14827,0.83522 1.89215,8.03696 3.87527,16.00387 3.84932,15.46408 4.44506,17.39999 5.47013,17.7758 0.70457,0.25829 2.40346,0.25399 3.27878,-0.008 z"
        style="fill:#00c8fd;stroke-width:0.18937735"/>
      <path
        id="path908"
        d="m 297.67718,207.34661 c -2.61492,-0.96263 -4.92454,-3.84138 -6.10475,-7.60903 -0.26579,-0.84846 -1.34178,-5.02462 -2.39111,-9.28034 -2.0255,-8.21474 -3.39811,-13.33208 -4.02738,-15.01486 -0.36005,-0.9628 -0.40125,-1.00432 -0.65787,-0.66287 -0.15057,0.20034 -0.59892,1.00565 -0.99634,1.78957 -1.50823,2.97502 -4.46049,5.94343 -6.77756,6.81464 -1.95953,0.73678 -3.30125,0.81274 -12.25676,0.69386 -9.08077,-0.12055 -9.475,-0.15942 -11.36159,-1.12039 -1.52539,-0.77698 -2.65264,-1.90317 -3.39946,-3.39625 -0.68342,-1.36632 -0.84232,-2.47532 -0.55822,-3.89607 0.10767,-0.53846 0.1396,-0.55583 0.61542,-0.33492 0.37942,0.17616 2.99664,0.22807 10.7273,0.21281 9.94041,-0.0196 10.24918,-0.0312 11.07755,-0.41475 1.07868,-0.49945 2.00359,-1.54919 2.65103,-3.00881 0.27862,-0.62816 2.06675,-4.70037 3.97361,-9.04935 1.90686,-4.34898 3.53039,-7.90723 3.60784,-7.90723 0.24389,0 1.92714,6.81481 2.55038,10.32542 0.14827,0.83522 1.89215,8.03696 3.87527,16.00387 3.92392,15.76376 4.43416,17.40075 5.54444,17.78787 0.76144,0.26548 2.2828,0.25581 3.20447,-0.0204 0.51105,-0.15314 1.10284,-0.60894 1.91557,-1.47539 1.2782,-1.36269 1.85679,-2.40888 7.91245,-14.30687 1.69656,-3.33335 3.17565,-6.12772 3.28684,-6.20972 0.11121,-0.082 6.46528,-0.12837 14.12016,-0.10305 12.55149,0.0416 13.97371,0.0158 14.48603,-0.26213 1.90532,-1.03362 1.85739,-3.47643 -0.0875,-4.45735 l -0.8449,-0.42613 0.93958,0.004 c 4.00205,0.016 7.42534,1.82938 8.72552,4.62212 0.62216,1.33637 0.62216,3.23772 0,4.57409 -0.55643,1.19518 -2.11154,2.77421 -3.35069,3.40226 -2.10809,1.06844 -2.35965,1.08826 -14.28196,1.12523 -7.75381,0.024 -11.18089,0.0988 -11.65639,0.25441 -0.37044,0.12119 -0.89632,0.45527 -1.1686,0.74239 -0.65317,0.68878 -2.40445,3.84861 -5.22279,9.42359 -1.26383,2.50001 -2.63433,5.05684 -3.04556,5.68184 -1.69371,2.5742 -4.22757,4.76689 -6.32312,5.47177 -1.1011,0.37038 -3.72652,0.38513 -4.70094,0.0264 z m -2.24677,-24.48501 c -0.65138,-2.6823 -2.50007,-10.24625 -4.1082,-16.80878 -3.73762,-15.25262 -4.53719,-18.63449 -4.79129,-20.26525 -0.26158,-1.67881 -0.68049,-2.96962 -1.16274,-3.58283 l -0.37691,-0.47924 1.86642,0.0424 c 1.70767,0.0387 1.9752,0.0976 3.14529,0.69184 2.35219,1.19453 4.05547,3.53467 5.11373,7.02574 0.2676,0.88283 1.38885,5.35517 2.49165,9.93853 2.38614,9.91709 3.34928,13.80247 3.99063,16.09855 l 0.47613,1.70456 -2.3501,4.82956 c -1.29255,2.65627 -2.41094,5.02133 -2.48532,5.25571 -0.34412,1.08443 -0.64466,0.34512 -1.80929,-4.45078 z m -29.11613,-13.25149 c 0.28783,-0.0435 0.71389,-0.0423 0.94679,0.002 0.23291,0.045 -0.002,0.0806 -0.52334,0.0792 -0.52074,-10e-4 -0.71129,-0.0382 -0.42345,-0.0817 z"
        style="fill:#00c6fb;stroke-width:0.18937735"/>
      <path
        id="path906"
        d="m 298.45551,205.94397 c -1.88619,-0.62078 -3.48365,-2.15401 -4.47086,-4.29111 -0.35739,-0.77365 -0.70412,-1.67835 -0.77053,-2.01043 -0.10821,-0.54113 -0.0832,-0.58793 0.24067,-0.45098 0.67022,0.28339 2.54277,0.33774 3.3968,0.0986 0.65057,-0.18218 1.12188,-0.53004 2.03037,-1.49854 1.28644,-1.37143 1.85582,-2.40058 7.91951,-14.31435 1.69656,-3.33335 3.17565,-6.12773 3.28684,-6.20973 0.11121,-0.082 6.46528,-0.12837 14.12016,-0.10304 12.55149,0.0416 13.97371,0.0158 14.48603,-0.26213 0.99978,-0.54237 1.32552,-1.08454 1.32552,-2.20622 v -1.01593 l 0.9947,0.10268 c 2.69766,0.27847 5.0081,2.29468 5.28122,4.60866 0.29477,2.49749 -1.41089,4.63665 -4.38232,5.49605 -1.0217,0.29551 -2.30938,0.32955 -12.7818,0.33793 -13.20692,0.0106 -12.74845,-0.0393 -13.80589,1.50047 -0.29521,0.42987 -2.16826,3.98774 -4.16235,7.90639 -1.99408,3.91864 -4.052,7.73207 -4.57313,8.47428 -1.7093,2.4344 -3.95287,3.82983 -6.32566,3.93437 -0.73473,0.0324 -1.5489,-0.0112 -1.80928,-0.0969 z m -3.0251,-23.08237 c -0.65138,-2.6823 -2.50007,-10.24625 -4.1082,-16.80878 -4.58894,-18.72675 -5.3603,-22.17972 -5.06242,-22.6618 0.18226,-0.29495 1.93245,0.003 3.10645,0.52925 1.86319,0.83481 3.0019,2.25683 3.86271,4.82373 0.25816,0.76981 1.92251,7.36559 3.69857,14.65729 1.77605,7.2917 3.38621,13.85423 3.57813,14.5834 0.19191,0.72917 0.31457,1.4536 0.27256,1.60986 -0.21984,0.81772 -3.77394,8.13537 -3.95319,8.13933 -0.11904,0.002 -0.72425,-2.11172 -1.39461,-4.87228 z m -37.99652,-0.42407 c -1.83756,-0.1147 -2.5027,-0.23737 -3.32244,-0.61272 -2.15957,-0.98887 -3.41899,-2.72232 -3.44939,-4.74772 -0.0117,-0.77988 0.0651,-1.1486 0.26584,-1.27551 0.36263,-0.22931 1.2267,-0.24952 11.35987,-0.26563 8.12481,-0.0129 8.45703,-0.0275 9.27864,-0.40794 1.07868,-0.49945 2.00359,-1.54919 2.65103,-3.00881 0.27862,-0.62816 2.06675,-4.70037 3.97361,-9.04935 1.90686,-4.34898 3.53039,-7.90723 3.60784,-7.90723 0.23203,0 1.99288,7.05852 2.47059,9.90352 0.10127,0.60316 0.35434,1.83897 0.56238,2.74622 0.20803,0.90726 0.42027,1.84132 0.47164,2.0757 0.0719,0.32823 0.009,0.42614 -0.27603,0.42614 -0.52033,0 -0.88753,0.59279 -2.70976,4.37439 -2.15513,4.47248 -3.1336,5.7111 -5.44922,6.898 -1.67432,0.85818 -2.20638,0.90968 -9.84672,0.95302 -4.0097,0.0227 -8.32424,-0.0232 -9.58788,-0.10208 z"
        style="fill:#00c1f5;stroke-width:0.18937735"/>
      <path
        id="path904"
        d="m 298.48834,205.07117 c -1.80423,-0.56315 -2.92364,-1.71512 -3.94374,-4.05845 l -0.62557,-1.43702 1.46346,-0.11285 c 0.80491,-0.062 1.67958,-0.20217 1.94371,-0.31135 0.26413,-0.10918 0.98843,-0.74456 1.60955,-1.41196 1.22286,-1.31396 1.90435,-2.54966 7.86572,-14.2624 1.69656,-3.33335 3.17565,-6.12773 3.28684,-6.20973 0.11121,-0.082 6.46528,-0.12837 14.12016,-0.10304 12.55149,0.0416 13.97371,0.0158 14.48603,-0.26213 0.79266,-0.43002 1.24267,-1.02176 1.36896,-1.80016 l 0.10787,-0.66491 0.84097,0.11528 c 3.52492,0.48324 5.51873,3.70646 3.90631,6.31498 -0.71143,1.15091 -1.7498,1.86144 -3.28903,2.2506 -1.07049,0.27064 -2.76036,0.31431 -12.97116,0.33515 l -11.74031,0.024 -0.79382,0.42439 c -0.43659,0.23341 -0.99933,0.70217 -1.25053,1.04167 -0.25119,0.33951 -2.07589,3.8195 -4.05488,7.73332 -1.97899,3.91381 -3.90922,7.60238 -4.2894,8.19681 -1.43503,2.24372 -3.07566,3.60615 -5.03123,4.1781 -1.22539,0.35839 -1.91056,0.36288 -3.00991,0.0197 z m -3.05747,-22.20957 c -0.65111,-2.6823 -2.5831,-10.58716 -4.29331,-17.56636 -3.48789,-14.23373 -4.52322,-18.65977 -4.71377,-20.15147 l -0.13062,-1.02259 1.12418,0.10195 c 1.3361,0.12118 2.43708,0.64305 3.35841,1.59189 1.4079,1.44994 1.35177,1.25567 6.75115,23.36281 1.48833,6.09378 2.69873,11.25006 2.68979,11.45839 -0.024,0.56002 -3.14601,7.09398 -3.39168,7.09847 -0.11888,0.002 -0.72493,-2.1162 -1.39415,-4.87309 z m -36.4569,-1.17514 c -2.84467,-0.10873 -3.58203,-0.19833 -4.45767,-0.54169 -1.1866,-0.4653 -2.29455,-1.49598 -2.72875,-2.53846 -0.39771,-0.95485 -0.3869,-2.48619 0.0199,-2.82382 0.2561,-0.21253 2.0086,-0.25993 9.61002,-0.25993 8.65769,0 9.35234,-0.0243 10.10468,-0.35324 1.09678,-0.47957 2.17641,-1.76317 2.85956,-3.39981 0.96646,-2.31538 7.21695,-16.47682 7.31628,-16.57617 0.0516,-0.0516 0.13717,-0.0505 0.19012,0.002 0.21378,0.21381 1.86069,7.15138 2.65019,11.16386 l 0.32123,1.63258 -0.4938,0.74634 c -0.2716,0.41048 -1.11991,2.10481 -1.88514,3.76516 -1.96979,4.274 -2.45015,5.18496 -3.30323,6.26439 -0.93663,1.18513 -2.20615,2.03954 -3.81574,2.56803 -1.1474,0.37673 -1.6723,0.40949 -7.10903,0.44367 -3.22858,0.0203 -7.40397,-0.0217 -9.27863,-0.0934 z"
        style="fill:#00bdf1;stroke-width:0.18937735"/>
      <path
        id="path902"
        d="m 298.33913,204.48934 c -1.22609,-0.45311 -2.25176,-1.46462 -2.99805,-2.95664 -0.90153,-1.80236 -0.88815,-2.05169 0.11005,-2.05169 1.45371,0 2.18444,-0.36071 3.43789,-1.69701 1.2782,-1.36268 1.85679,-2.40887 7.91245,-14.30686 1.69656,-3.33335 3.17565,-6.12773 3.28684,-6.20973 0.11121,-0.082 6.46528,-0.12837 14.12016,-0.10304 12.55149,0.0416 13.97371,0.0158 14.48603,-0.26213 0.65856,-0.35726 1.13915,-0.88705 1.3191,-1.45413 0.16497,-0.51988 0.8897,-0.52378 2.25692,-0.0121 1.23792,0.46325 2.31023,1.55841 2.49609,2.54926 0.48573,2.58966 -1.06508,4.36912 -4.20313,4.82284 -0.74051,0.10706 -6.07279,0.19016 -12.37846,0.1929 -7.13402,0.003 -11.33218,0.0755 -11.79282,0.20347 -1.47067,0.40848 -1.81577,0.92681 -5.5228,8.29433 -1.92069,3.8173 -3.92697,7.665 -4.45837,8.55042 -1.17743,1.96184 -2.60546,3.45212 -3.9306,4.10193 -1.23733,0.60676 -3.02058,0.75239 -4.1413,0.33822 z m -2.90891,-21.62774 c -0.65147,-2.6823 -2.78646,-11.43944 -4.74441,-19.46031 -3.25466,-13.33294 -3.93969,-16.24925 -4.23749,-18.03986 l -0.10237,-0.61553 0.89472,0.004 c 1.76397,0.008 3.37453,1.17476 4.28789,3.10581 0.49196,1.0401 1.09721,3.41108 5.97231,23.39557 l 2.46942,10.12289 -0.82835,1.80898 c -1.81692,3.96788 -2.11473,4.55327 -2.31692,4.55422 -0.11826,5.7e-4 -0.72871,-2.13345 -1.3948,-4.87592 z m -38.74632,-1.75566 c -0.7388,-0.078 -1.71874,-0.30784 -2.17764,-0.51088 -0.87659,-0.38783 -1.96825,-1.47838 -2.26725,-2.26495 -0.29547,-0.7773 -0.21623,-2.25486 0.13663,-2.54762 0.25587,-0.21228 1.96542,-0.25993 9.32598,-0.25993 8.73373,0 9.03904,-0.0122 9.86479,-0.39455 1.07868,-0.49945 2.00359,-1.54919 2.65103,-3.00881 0.27862,-0.62816 2.06675,-4.70037 3.97361,-9.04935 1.90686,-4.34898 3.53039,-7.90723 3.60784,-7.90723 0.24612,0 1.92926,6.82543 2.56039,10.38282 0.27209,1.53367 0.26876,1.59117 -0.124,2.14286 -0.22198,0.3118 -1.2332,2.38577 -2.24716,4.60883 -1.01396,2.22305 -2.08233,4.44942 -2.37416,4.94749 -0.7623,1.301 -1.83085,2.39355 -2.92181,2.98744 -1.77575,0.96666 -2.8006,1.06258 -11.09058,1.03803 -4.16592,-0.0123 -8.17887,-0.0862 -8.91767,-0.16415 z"
        style="fill:#50a1ba;stroke-width:0.18937735"/>
      <path
        id="path900"
        d="m 298.33913,204.48934 c -1.22609,-0.45311 -2.25176,-1.46462 -2.99805,-2.95664 -0.90153,-1.80236 -0.88815,-2.05169 0.11005,-2.05169 1.32066,0 2.24664,-0.3985 3.39333,-1.46033 1.03354,-0.95706 1.30792,-1.44634 6.05819,-10.80332 2.73659,-5.39046 5.06837,-9.86795 5.18174,-9.94995 0.11337,-0.082 6.4692,-0.12837 14.12408,-0.10304 12.55149,0.0416 13.97371,0.0158 14.48603,-0.26213 0.65856,-0.35726 1.13915,-0.88705 1.3191,-1.45413 0.16497,-0.51988 0.8897,-0.52378 2.25692,-0.0121 1.23792,0.46325 2.31023,1.55841 2.49609,2.54926 0.48573,2.58966 -1.06508,4.36912 -4.20313,4.82284 -0.74051,0.10706 -6.07279,0.19016 -12.37846,0.1929 -7.13402,0.003 -11.33218,0.0755 -11.79282,0.20347 -1.47067,0.40848 -1.81577,0.92681 -5.5228,8.29433 -1.92069,3.8173 -3.92697,7.665 -4.45837,8.55042 -1.17743,1.96184 -2.60546,3.45212 -3.9306,4.10193 -1.23733,0.60676 -3.02058,0.75239 -4.1413,0.33822 z m -1.77721,-16.85798 c 0,-0.11079 -2.56685,-10.71718 -6.73478,-27.82857 -2.59589,-10.65735 -3.20383,-13.2505 -3.36344,-14.34666 l -0.10341,-0.71023 0.88756,0.004 c 1.75676,0.008 3.36879,1.17782 4.28071,3.10581 0.49185,1.03988 1.09799,3.41424 5.96739,23.37546 l 2.46451,10.10279 -0.49068,1.16621 c -0.84058,1.99782 -2.52323,5.23818 -2.72008,5.23818 -0.10329,0 -0.18778,-0.0482 -0.18778,-0.10716 z m -39.87802,-6.52542 c -0.7388,-0.078 -1.71874,-0.30784 -2.17764,-0.51088 -0.87659,-0.38783 -1.96825,-1.47838 -2.26725,-2.26495 -0.29547,-0.7773 -0.21623,-2.25486 0.13663,-2.54762 0.25587,-0.21228 1.96542,-0.25993 9.32598,-0.25993 h 9.01267 l 1.06446,-0.52285 c 1.37264,-0.67421 1.71984,-1.19507 3.4389,-5.15899 3.59307,-8.28509 6.4491,-14.6781 6.55733,-14.6781 0.13126,0 2.32799,8.86015 2.66576,10.75186 0.19654,1.10073 0.18205,1.22952 -0.19852,1.76407 -0.2258,0.31716 -1.24014,2.39552 -2.2541,4.61858 -1.01396,2.22305 -2.08233,4.44942 -2.37416,4.94749 -0.7623,1.301 -1.83085,2.39355 -2.92181,2.98744 -1.77575,0.96666 -2.8006,1.06258 -11.09058,1.03803 -4.16592,-0.0123 -8.17887,-0.0862 -8.91767,-0.16415 z"
        style="fill:#33a9cc;stroke-width:0.18937735"/>
      <path
        id="path898"
        d="m 298.33913,204.48934 c -1.22609,-0.45311 -2.25176,-1.46462 -2.99805,-2.95664 -0.95545,-1.91016 -0.92604,-2.05169 0.42633,-2.05169 0.88885,0 1.26011,-0.10409 1.94094,-0.54418 1.91884,-1.24034 2.04427,-1.45144 8.96115,-15.0809 1.63879,-3.22918 3.10394,-6.03846 3.25589,-6.24285 0.2701,-0.36333 0.59177,-0.37178 14.42799,-0.3788 15.92091,-0.008 14.82893,0.0937 15.50797,-1.44564 0.38986,-0.88379 0.82116,-0.94693 2.40917,-0.35268 1.23792,0.46325 2.31023,1.55841 2.49609,2.54927 0.48573,2.58966 -1.06508,4.36911 -4.20313,4.82283 -0.74051,0.10706 -6.07279,0.19016 -12.37846,0.1929 -7.13402,0.003 -11.33218,0.0755 -11.79282,0.20348 -1.47067,0.40847 -1.81577,0.9268 -5.5228,8.29432 -1.92069,3.81731 -3.92697,7.66501 -4.45837,8.55043 -1.17743,1.96184 -2.60546,3.45212 -3.9306,4.10193 -1.23733,0.60676 -3.02058,0.75239 -4.1413,0.33822 z m -4.1153,-26.74152 c -3.64073,-14.95103 -7.04432,-29.11554 -7.4067,-30.82388 -0.17676,-0.83334 -0.36296,-1.6643 -0.41378,-1.84659 -0.0789,-0.28296 0.041,-0.33084 0.81983,-0.32729 1.78155,0.008 3.38851,1.16735 4.30538,3.10581 0.49198,1.04016 1.097,3.41025 5.97361,23.4009 l 2.47072,10.12821 -1.50252,3.12488 c -0.82639,1.71869 -1.57255,3.14819 -1.65815,3.17665 -0.0856,0.0285 -1.25037,-4.44394 -2.58839,-9.93869 z m -37.53993,3.35812 c -0.7388,-0.078 -1.71874,-0.30784 -2.17764,-0.51088 -0.87659,-0.38783 -1.96825,-1.47838 -2.26725,-2.26495 -0.2602,-0.68452 -0.21669,-2.25447 0.0691,-2.49166 0.16596,-0.13777 3.22556,-0.22215 9.42611,-0.25993 l 9.18038,-0.056 0.93362,-0.48075 c 0.56917,-0.29309 1.1688,-0.81061 1.5361,-1.32577 0.33136,-0.46475 2.22248,-4.5524 4.20248,-9.08368 4.32833,-9.90546 4.04426,-9.28034 4.21716,-9.28034 0.13754,0 1.05392,3.65558 2.26435,9.03282 l 0.60509,2.68811 -0.42084,0.59113 c -0.23147,0.32512 -1.25045,2.40999 -2.26441,4.63305 -1.01396,2.22306 -2.08233,4.44943 -2.37416,4.94749 -0.7623,1.30101 -1.83085,2.39356 -2.92181,2.98744 -1.77575,0.96667 -2.8006,1.06259 -11.09058,1.03804 -4.16592,-0.0124 -8.17887,-0.0862 -8.91767,-0.16415 z"
        style="fill:#00baec;stroke-width:0.18937735"/>
      <path
        id="path896"
        d="m 298.78955,204.03854 c -1.40478,-0.45356 -2.54111,-1.61301 -3.25451,-3.32072 -0.4087,-0.97835 -0.28224,-1.23681 0.60514,-1.23681 0.47832,0 1.01376,-0.18581 1.56817,-0.54418 1.91884,-1.24034 2.04427,-1.45144 8.96115,-15.0809 1.63879,-3.22918 3.10394,-6.03846 3.25589,-6.24285 0.2701,-0.36333 0.59177,-0.37178 14.42799,-0.3788 15.54832,-0.008 14.62836,0.0619 15.39366,-1.16638 0.35846,-0.5753 0.39218,-0.58657 1.26742,-0.42349 1.92102,0.35794 3.26691,1.71159 3.26545,3.2843 -0.002,1.37353 -0.95517,2.51923 -2.55565,3.0696 -0.844,0.29024 -2.28325,0.33679 -13.25519,0.42872 -13.74826,0.1152 -12.81838,0.0168 -14.15714,1.49888 -0.42776,0.47356 -1.97451,3.33477 -4.12763,7.6354 -1.89393,3.78291 -3.78997,7.46405 -4.21343,8.18031 -1.01272,1.71298 -2.33518,3.13788 -3.5016,3.77284 -1.02849,0.55988 -2.79123,0.81094 -3.67972,0.52408 z m -6.81696,-35.57117 c -4.72974,-19.45888 -5.30533,-21.91579 -5.33546,-22.77449 -0.0151,-0.42942 0.0451,-0.4676 0.64615,-0.41018 0.92211,0.0881 2.0777,0.6322 2.71741,1.27949 0.67806,0.6861 1.1099,1.53097 1.60671,3.14347 0.66727,2.16573 7.87521,31.85058 7.85532,32.35102 -0.0202,0.50749 -2.45668,5.682 -2.6753,5.68161 -0.072,-1.2e-4 -2.23862,-8.67203 -4.81483,-19.27092 z m -35.44102,12.05971 c -2.2478,-0.3388 -3.67268,-1.47401 -3.84636,-3.06443 -0.0483,-0.44205 10e-4,-1.0342 0.1101,-1.31588 l 0.19786,-0.51217 8.96071,-0.056 8.96071,-0.056 0.93361,-0.48075 c 0.56916,-0.29308 1.1688,-0.81062 1.53609,-1.32577 0.33136,-0.46475 2.22248,-4.55241 4.20248,-9.08368 4.32171,-9.89031 4.04479,-9.28035 4.21323,-9.28035 0.22873,0 2.45352,9.43829 2.45352,10.40866 0,0.25739 -0.33013,1.11024 -0.73364,1.89523 -0.4035,0.78498 -1.47152,3.08918 -2.37337,5.12043 -1.82606,4.11286 -2.65078,5.45109 -3.98433,6.46507 -1.80548,1.37282 -1.8563,1.37927 -11.18189,1.41875 -4.58251,0.0194 -8.83443,-0.0405 -9.44872,-0.13307 z"
        style="fill:#00b2e3;stroke-width:0.18937735"/>
      <path
        id="path894"
        d="m 297.96816,202.84276 c -0.64438,-0.4364 -1.09562,-0.95857 -1.55055,-1.79425 -0.67657,-1.24286 -0.67166,-1.5675 0.0237,-1.5675 0.54862,0 1.91621,-0.88682 2.8107,-1.82259 0.72092,-0.7542 2.06156,-3.24889 7.41746,-13.80249 1.63879,-3.22918 3.10394,-6.03846 3.25589,-6.24285 0.2701,-0.36334 0.59186,-0.37178 14.44225,-0.3788 l 14.166,-0.007 0.71163,-0.54252 c 0.60839,-0.46381 0.82213,-0.52485 1.47316,-0.42072 2.28127,0.36486 3.47718,2.30312 2.3954,3.88238 -1.12703,1.64535 -2.18513,1.75768 -15.86792,1.68456 -10.71628,-0.0573 -10.90994,-0.0517 -11.748,0.33757 -1.49267,0.69332 -2.08349,1.59558 -5.41458,8.26886 -3.95738,7.92793 -5.17721,10.08938 -6.3719,11.29058 -1.23561,1.24232 -2.28429,1.73047 -3.71757,1.73047 -0.94733,0 -1.25476,-0.0934 -2.0257,-0.61553 z m -5.93565,-34.09125 c -4.22666,-17.35477 -5.30988,-21.96706 -5.31536,-22.63249 -0.006,-0.72659 2.10963,0.14623 3.06754,1.26553 0.93112,1.08801 1.21359,2.05881 4.30204,14.78568 1.45351,5.9896 3.15893,13.00745 3.78981,15.5952 0.63088,2.58775 1.14705,4.89774 1.14705,5.13331 0,0.47105 -2.01468,4.8399 -2.23176,4.8396 -0.0744,-1e-4 -2.21607,-8.54418 -4.75932,-18.98683 z m -34.6201,11.22053 c -2.75522,-0.2404 -4.15124,-1.36058 -3.96358,-3.18042 0.0462,-0.44786 0.14355,-0.874 0.21636,-0.94697 0.0728,-0.073 3.98377,-0.17531 8.69102,-0.2274 l 8.55862,-0.0947 0.93349,-0.48076 c 0.56898,-0.29302 1.16875,-0.81071 1.53597,-1.32576 0.33136,-0.46476 2.22248,-4.55241 4.20248,-9.08368 4.32833,-9.90547 4.04426,-9.28035 4.21716,-9.28035 0.14476,0 1.42174,5.09488 1.99373,7.95459 l 0.322,1.60985 -0.66714,1.32576 c -0.36694,0.72917 -1.31917,2.80263 -2.11607,4.60769 -2.69316,6.10022 -3.42636,7.28217 -5.14072,8.28703 -1.53576,0.90018 -2.79071,1.02133 -10.31012,0.9953 -3.8014,-0.0132 -7.61433,-0.0853 -8.4732,-0.16019 z"
        style="fill:#00a9d7;stroke-width:0.18937735"/>
      <path
        id="path892"
        d="m 298.42255,202.463 c -0.80992,-0.49496 -1.37888,-1.17395 -1.77176,-2.11441 l -0.27977,-0.66971 0.7851,-0.4006 c 1.10345,-0.56304 2.53123,-1.95305 3.17614,-3.09212 0.30097,-0.5316 2.5203,-4.8444 4.93186,-9.58401 2.41155,-4.7396 4.54661,-8.78182 4.74458,-8.98271 0.34954,-0.3547 0.75307,-0.36422 13.95479,-0.32904 9.36973,0.025 13.83026,-0.0283 14.35229,-0.17117 1.96739,-0.53869 2.80431,-0.44577 3.79125,0.42093 0.87895,0.77188 0.92792,1.81426 0.12305,2.61929 -1.04211,1.04228 -1.01539,1.04027 -13.95038,1.05228 -8.64765,0.008 -12.10774,0.0726 -12.57694,0.23454 -1.07663,0.37167 -2.00818,1.09641 -2.65046,2.06197 -0.33505,0.50373 -2.34537,4.36881 -4.46735,8.58906 -3.33663,6.63595 -4.00598,7.83656 -4.95163,8.88173 -0.60141,0.66471 -1.43727,1.36475 -1.85746,1.55566 -1.07518,0.48849 -2.48602,0.45833 -3.35331,-0.0717 z m -4.19863,-24.71516 c -1.33797,-5.49476 -3.48164,-14.30144 -4.76373,-19.5704 -1.28208,-5.26896 -2.39302,-10.07596 -2.46876,-10.68221 l -0.13769,-1.10229 0.64006,0.12803 c 0.94243,0.18853 1.8984,1.03943 2.48337,2.21045 0.30415,0.60885 1.05418,3.2122 1.82555,6.3365 3.74541,15.17008 6.84411,28.08601 6.84319,28.5236 -0.001,0.52865 -1.61425,4.14708 -1.84874,4.14689 -0.0773,-6e-5 -1.23528,-4.49582 -2.57325,-9.99057 z m -36.95419,1.66514 c -2.20787,-0.27383 -3.12685,-0.97158 -3.12154,-2.37006 0.005,-1.4132 -0.55199,-1.32042 8.56418,-1.42567 l 8.20258,-0.0947 0.93343,-0.48076 c 0.56888,-0.293 1.16872,-0.81076 1.53591,-1.32576 0.33136,-0.46476 2.22248,-4.55241 4.20248,-9.08368 4.32833,-9.90547 4.04426,-9.28035 4.21716,-9.28035 0.14155,0 1.47996,5.31308 1.89989,7.54193 0.2095,1.11199 0.19604,1.24975 -0.18918,1.93526 -0.2281,0.40593 -1.4316,3.01044 -2.67445,5.78779 -2.45699,5.49056 -3.0571,6.56803 -4.20593,7.55157 -1.51627,1.29811 -1.62012,1.31163 -10.36993,1.35045 -4.32214,0.0192 -8.36971,-0.0286 -8.9946,-0.10603 z"
        style="fill:#2a97b7;stroke-width:0.18937735"/>
      <path
        id="path890"
        d="m 298.42255,202.463 c -0.81181,-0.49611 -1.37896,-1.17414 -1.77487,-2.12186 -0.27772,-0.66479 -0.27395,-0.68057 0.20672,-0.86335 0.26928,-0.1024 0.56241,-0.18618 0.65139,-0.18618 0.089,0 0.63413,-0.4318 1.21147,-0.95954 1.32093,-1.20749 1.85283,-2.1471 7.0153,-12.3928 2.25692,-4.47918 4.22399,-8.26572 4.37128,-8.41453 0.22782,-0.23015 2.2975,-0.26514 13.86115,-0.23433 9.36864,0.025 13.82876,-0.0283 14.35079,-0.17118 1.96739,-0.53869 2.80431,-0.44577 3.79125,0.42093 0.87895,0.77188 0.92792,1.81426 0.12305,2.61929 -1.04211,1.04228 -1.01539,1.04027 -13.95038,1.05228 -8.64765,0.008 -12.10774,0.0726 -12.57694,0.23454 -1.07663,0.37167 -2.00818,1.09641 -2.65046,2.06197 -0.33505,0.50373 -2.34537,4.36881 -4.46735,8.58906 -3.33663,6.63595 -4.00598,7.83656 -4.95163,8.88173 -0.60141,0.66471 -1.43727,1.36475 -1.85746,1.55566 -1.07518,0.48849 -2.48602,0.45833 -3.35331,-0.0717 z m -1.74488,-15.10759 c -0.25617,-0.7565 -9.77355,-40.29045 -9.77335,-40.59719 1.9e-4,-0.29952 0.0965,-0.33586 0.61489,-0.23216 0.91835,0.1837 1.87832,1.04502 2.45796,2.20536 0.30415,0.60885 1.05418,3.2122 1.82555,6.3365 3.7515,15.19476 6.84411,28.08638 6.84319,28.52603 -0.001,0.63222 -1.83879,4.14376 -1.96824,3.76146 z m -39.40794,-7.94243 c -2.20787,-0.27383 -3.12685,-0.97158 -3.12154,-2.37006 0.005,-1.41723 -0.53235,-1.33042 8.27539,-1.33579 8.63125,-0.005 9.0289,-0.0466 10.32425,-1.07271 0.84781,-0.67159 0.86111,-0.69885 5.45943,-11.18757 1.90706,-4.34997 3.52525,-7.8443 3.59599,-7.76519 0.0707,0.0791 0.58396,1.99309 1.14051,4.25329 l 1.0119,4.10945 -0.42787,0.76143 c -0.23533,0.41878 -1.44475,3.03381 -2.6876,5.81116 -2.45699,5.49056 -3.0571,6.56803 -4.20593,7.55157 -1.51627,1.29811 -1.62012,1.31163 -10.36993,1.35045 -4.32214,0.0192 -8.36971,-0.0286 -8.9946,-0.10603 z"
        style="fill:#00a1cd;stroke-width:0.18937735"/>
      <path
        id="path888"
        d="m 299.02923,202.22131 c -0.87131,-0.39111 -1.29741,-0.79596 -1.73003,-1.64374 -0.46756,-0.91629 -0.45324,-1.06994 0.12006,-1.28795 0.89793,-0.34145 2.35286,-1.92583 3.28409,-3.57628 0.50586,-0.89655 2.68244,-5.12442 4.83685,-9.39527 2.15441,-4.27086 4.12724,-7.95404 4.38407,-8.18484 0.25683,-0.23082 0.78514,-0.5045 1.17403,-0.60821 0.4354,-0.1161 6.24398,-0.19889 15.11728,-0.21548 15.88759,-0.0297 15.28678,-0.073 15.78855,1.13859 0.20209,0.48793 0.19141,0.64795 -0.0698,1.04666 -0.16959,0.25887 -0.58448,0.62158 -0.92197,0.80604 -0.56401,0.30826 -1.60933,0.34305 -12.92204,0.43009 -11.46771,0.0882 -12.36346,0.11877 -13.11463,0.44729 -1.58956,0.69515 -2.23414,1.70314 -6.47881,10.13141 -2.44974,4.86425 -4.29817,8.30018 -4.82268,8.96453 -1.43666,1.81972 -3.24249,2.57672 -4.64499,1.94716 z m -2.34564,-14.86157 c -0.27498,-0.77279 -9.59183,-39.5475 -9.59083,-39.91496 0.002,-0.85364 1.35396,-0.27803 2.16224,0.92082 0.68803,1.0205 1.08623,2.45657 3.88028,13.99402 1.45052,5.98961 3.24609,13.37474 3.99015,16.41141 l 1.35286,5.5212 -0.84681,1.67579 c -0.51898,1.02705 -0.88594,1.56582 -0.94789,1.39172 z m -35.9107,-8.31377 c -3.52629,-0.0983 -4.36468,-0.17536 -4.86452,-0.44691 -1.18398,-0.64325 -1.55958,-1.83648 -0.79522,-2.52631 0.37862,-0.3417 0.79203,-0.361 7.81109,-0.36452 8.09204,-0.004 8.53419,-0.0524 9.82359,-1.07381 0.84781,-0.67159 0.86111,-0.69885 5.45943,-11.18757 1.90706,-4.34997 3.52534,-7.8443 3.59617,-7.76519 0.0709,0.0791 0.54127,1.82266 1.04539,3.87454 l 0.91659,3.73071 -0.73226,1.47765 c -0.40273,0.81271 -1.65172,3.54439 -2.77552,6.0704 -2.77644,6.2407 -3.36884,7.07016 -5.66146,7.92693 -0.99356,0.3713 -6.57908,0.48609 -13.82328,0.28408 z"
        style="fill:#009ac5;stroke-width:0.18937735"/>
      <path
        id="path886"
        d="m 298.71699,201.55824 c -0.32487,-0.20818 -0.79353,-0.76544 -1.04148,-1.23835 -0.44564,-0.84994 -0.4465,-0.8623 -0.0742,-1.07349 0.93689,-0.53148 2.25699,-2.03546 3.1011,-3.53306 0.50534,-0.89655 2.55766,-4.86655 4.56071,-8.82223 2.00306,-3.95568 3.81812,-7.43964 4.03348,-7.74215 0.21536,-0.3025 0.86795,-0.77344 1.4502,-1.04653 l 1.05861,-0.49653 h 14.10732 c 13.04462,0 14.15266,0.0248 14.7093,0.32937 1.12361,0.61473 0.99672,1.4208 -0.31795,2.02006 -0.58359,0.26601 -2.06524,0.30259 -12.40308,0.30624 -12.44034,0.004 -12.21312,-0.011 -13.8241,0.93331 -1.20481,0.70619 -2.03784,2.10199 -6.22247,10.42624 -2.04224,4.06252 -4.01657,7.79568 -4.38741,8.29591 -1.36763,1.84487 -3.3587,2.53282 -4.75001,1.64121 z m -2.03397,-14.1985 c -0.34678,-0.97723 -9.63842,-39.78672 -9.54739,-39.87776 0.20179,-0.20183 1.25344,0.46876 1.72347,1.09897 0.69619,0.93342 1.0464,2.18729 3.90138,13.96806 1.45153,5.98961 3.24151,13.35228 3.97773,16.36148 0.73622,3.00921 1.33445,5.65127 1.3294,5.87125 -0.0137,0.59702 -1.26247,2.92211 -1.38459,2.578 z m -39.45182,-8.91093 c -1.01042,-0.19963 -1.50878,-0.46738 -1.76653,-0.9491 -0.27396,-0.51199 -0.0723,-1.06479 0.53318,-1.46136 0.44797,-0.29343 1.19733,-0.32733 7.41801,-0.33568 7.55293,-0.0101 8.07112,-0.0695 9.33197,-1.06825 0.84781,-0.67159 0.86111,-0.69885 5.45943,-11.18757 1.90706,-4.34997 3.52448,-7.8443 3.59428,-7.76519 0.17899,0.20289 1.69454,6.38837 1.69454,6.91602 0,0.23938 -0.12575,0.61482 -0.27946,0.8343 -0.15371,0.21949 -1.35635,2.81659 -2.67253,5.77134 -1.31618,2.95474 -2.56172,5.70397 -2.76786,6.1094 -0.63978,1.25826 -1.97603,2.52466 -3.11277,2.95004 -0.97627,0.36534 -1.42317,0.38377 -8.83229,0.36406 -4.2922,-0.0114 -8.16218,-0.0915 -8.59997,-0.17801 z"
        style="fill:#0092bb;stroke-width:0.18937735"/>
      <path
        id="path884"
        d="m 299.40241,201.35157 c -0.64927,-0.25895 -1.2512,-0.85484 -1.5206,-1.50537 -0.21648,-0.52272 -0.18368,-0.58254 0.82502,-1.50461 1.24551,-1.13853 1.804,-2.08313 5.42916,-9.18261 4.80115,-9.40252 5.04309,-9.7899 6.57823,-10.53319 0.81626,-0.39522 0.97691,-0.39966 14.60507,-0.40342 14.0665,-0.004 14.60605,0.022 14.60605,0.70127 0,0.64478 -1.13277,0.70518 -12.26704,0.65415 -11.65687,-0.0534 -11.82362,-0.0425 -13.41985,0.88152 -1.56327,0.90492 -2.17055,1.88215 -6.42246,10.33506 -3.30157,6.56362 -4.25885,8.30729 -5.01496,9.13475 -1.33765,1.46386 -2.29261,1.86356 -3.39862,1.42245 z m -2.71974,-13.99183 c -0.23907,-0.67652 -9.39939,-38.72682 -9.39939,-39.04333 0,-0.93917 1.3347,0.37969 1.89866,1.87613 0.22541,0.59811 1.42801,5.30625 2.67245,10.46253 1.24444,5.15627 3.07387,12.6563 4.06539,16.66674 0.99152,4.01044 1.80579,7.55514 1.80947,7.87711 0.008,0.71152 -0.89778,2.58191 -1.04658,2.16082 z m -35.44536,-9.26947 c -3.19683,-0.0889 -3.87698,-0.1586 -4.30794,-0.44139 -0.69424,-0.45555 -0.65438,-0.99742 0.10366,-1.40936 0.54164,-0.29433 1.39864,-0.34786 7.14834,-0.44652 4.26398,-0.0731 6.77556,-0.19091 7.23154,-0.33904 0.89403,-0.29044 2.20968,-1.57968 2.75925,-2.70387 0.23546,-0.48166 1.99884,-4.48514 3.91862,-8.89663 1.91979,-4.41149 3.56176,-8.04465 3.64884,-8.07368 0.16645,-0.0555 1.57807,5.44327 1.57113,6.12007 -0.002,0.21588 -0.25195,0.85509 -0.55497,1.42046 -0.30302,0.56537 -1.59255,3.37171 -2.86564,6.23631 -1.27308,2.8646 -2.59897,5.65338 -2.94641,6.19729 -0.78539,1.2295 -1.8904,2.04725 -3.12391,2.31184 -0.96745,0.20752 -5.67305,0.21669 -12.58251,0.0245 z"
        style="fill:#008cb3;stroke-width:0.18937735"/>
      <path
        id="path882"
        d="m 299.26949,200.6348 c -0.33343,-0.2087 -0.74416,-0.64625 -0.91275,-0.97232 l -0.30652,-0.59285 1.01145,-1.07273 c 0.59857,-0.63483 1.43495,-1.8707 2.04891,-3.02753 0.5706,-1.07514 1.72355,-3.1206 2.5621,-4.54547 0.83856,-1.42487 2.3267,-4.10944 3.307,-5.96571 1.92767,-3.65022 2.66712,-4.67242 3.79703,-5.24896 0.90294,-0.46073 2.9696,-0.5267 3.1333,-0.10002 0.0623,0.16235 -0.40621,0.86942 -1.16081,1.7519 -1.12853,1.31974 -1.69087,2.33371 -5.20309,9.38158 -2.1658,4.34606 -4.25136,8.32912 -4.63457,8.85126 -1.26636,1.72544 -2.50797,2.25073 -3.64205,1.54085 z m -2.58162,-13.58744 c -0.0556,-0.19278 -0.70929,-2.86472 -1.45271,-5.93766 -0.74344,-3.07292 -2.70235,-11.08433 -4.35316,-17.8031 -3.12063,-12.70103 -3.50406,-14.36242 -3.35026,-14.51625 0.19494,-0.19498 0.90436,0.8073 1.28447,1.81471 0.21868,0.57956 0.99519,3.56797 1.72559,6.6409 0.73039,3.07293 2.58695,10.7801 4.1257,17.12704 2.38248,9.82719 2.76899,11.62618 2.60426,12.12127 -0.26108,0.78462 -0.46223,0.97517 -0.58389,0.55309 z m -30.32886,-9.54614 c -8.3371,-0.33938 -8.77038,-0.63418 -1.49939,-1.02018 6.00304,-0.31869 7.10974,-0.61511 8.58934,-2.3006 0.81726,-0.93098 1.40493,-2.18285 5.0366,-10.72913 1.79451,-4.22298 3.26975,-7.45402 3.36149,-7.36227 0.21838,0.21843 1.26091,4.33122 1.26617,4.99503 0.002,0.28804 -0.24589,0.96986 -0.55147,1.51516 -0.3056,0.5453 -1.63472,3.42045 -2.95361,6.38921 -3.07995,6.93283 -3.34281,7.37103 -4.91729,8.19744 -0.92736,0.48673 -2.58259,0.54938 -8.33184,0.31534 z"
        style="fill:#0084a9;stroke-width:0.18937735"/>
      <path
        id="path880"
        d="m 299.22174,199.70832 c -0.72864,-0.72877 -0.72716,-1.1495 0.007,-1.84909 0.32084,-0.30595 1.22773,-1.69664 2.01531,-3.09043 0.85249,-1.50868 1.7974,-2.9016 2.33503,-3.44217 0.98265,-0.98802 1.56461,-1.93818 3.98215,-6.50158 0.8765,-1.6545 1.91204,-3.37084 2.30119,-3.81408 0.66465,-0.75704 1.47345,-1.17496 1.83787,-0.94969 0.0885,0.0547 -0.96161,2.33718 -2.33369,5.0721 -1.37208,2.73492 -3.37056,6.78299 -4.44106,8.9957 -2.19915,4.54559 -3.15256,5.84842 -4.42512,6.04685 -0.60458,0.0943 -0.78087,0.0298 -1.27817,-0.46761 z m -26.56651,-23.06285 c -0.2525,-0.25669 -0.15843,-0.42732 0.87294,-1.58341 0.55822,-0.62573 1.31576,-1.71561 1.6834,-2.42194 0.57804,-1.11055 5.31026,-12.4367 6.30773,-15.09698 l 0.35015,-0.93388 0.26416,0.64749 c 0.14529,0.35613 0.39645,1.25721 0.55813,2.00241 l 0.29397,1.3549 -0.59941,0.97434 c -0.32967,0.53589 -1.80061,3.63461 -3.26874,6.88607 -2.74243,6.07359 -3.30629,7.12353 -4.16838,7.76186 -0.52153,0.38615 -2.04864,0.65853 -2.29395,0.40914 z m 20.13444,-6.25236 c 0.009,-0.22063 0.0539,-0.2655 0.1144,-0.11442 0.0547,0.13672 0.048,0.30007 -0.0149,0.36301 -0.0629,0.0629 -0.10768,-0.0489 -0.0995,-0.24859 z m -0.56808,-2.27273 c 0.009,-0.22064 0.054,-0.26551 0.1144,-0.11443 0.0547,0.13672 0.048,0.30008 -0.0149,0.36301 -0.0629,0.0629 -0.10768,-0.0489 -0.0994,-0.24858 z m -0.37872,-1.70455 c 0.009,-0.22064 0.0539,-0.26552 0.1144,-0.11443 0.0547,0.13672 0.048,0.30007 -0.0149,0.36301 -0.0629,0.0629 -0.10767,-0.0489 -0.0995,-0.24858 z m -0.29899,-1.02589 c -0.0719,-0.3274 -0.0913,-0.63475 -0.043,-0.68301 0.0483,-0.0482 0.14215,0.18453 0.20869,0.51728 0.15786,0.78945 0.005,0.94246 -0.16569,0.16573 z m -0.26909,-1.24685 c 0.009,-0.22063 0.054,-0.26552 0.1144,-0.11443 0.0547,0.13672 0.048,0.30008 -0.0149,0.36301 -0.0629,0.0629 -0.10768,-0.0489 -0.0995,-0.24858 z m -1.78772,-7.03651 c -0.90265,-3.62128 -1.63654,-6.71198 -1.63087,-6.86823 0.0239,-0.65894 0.59148,0.87373 1.20027,3.24134 0.76737,2.98443 2.25983,10.02296 2.14881,10.134 -0.0424,0.0423 -0.81555,-2.88583 -1.71821,-6.50711 z"
        style="fill:#007ea1;stroke-width:0.18937735"/>
      <path
        id="path878"
        d="m 299.51924,198.97811 c -0.46497,-0.46505 -0.48113,-0.53274 -0.21476,-0.89962 0.15843,-0.21821 0.79215,-1.24902 1.40828,-2.29069 0.61612,-1.04167 1.25734,-2.0835 1.42492,-2.31518 0.37154,-0.51367 2.21502,-1.42674 2.43544,-1.20628 0.47312,0.47321 -1.58032,4.93662 -2.90221,6.30831 -0.99717,1.03474 -1.43789,1.11738 -2.15167,0.40346 z M 281.60248,159.9949 c 0,-0.48517 0.45061,-1.99136 0.59575,-1.99136 0.0762,0 0.19664,0.38788 0.26772,0.86196 0.1073,0.71561 0.0691,0.90753 -0.22509,1.13034 -0.45898,0.34765 -0.63838,0.34739 -0.63838,-10e-4 z"
        style="fill:#00799b;stroke-width:0.18937735"/>
    </g>
  </g>
</svg>
