<svg clip-rule="evenodd" fill-rule="evenodd" stroke-linejoin="round" stroke-miterlimit="2"
     viewBox="0 0 363 363" xmlns="http://www.w3.org/2000/svg">
  <defs/>
  <path d="M363 44c0-24-20-44-44-44H44C20 0 0 20 0 44v275c0 24 20 44 44 44h275c24 0 44-20 44-44V44z"
        fill="url(#_Linear1)"/>
  <path d="M0 0h363v363H0z" fill="none"/>
  <clipPath id="a">
    <path d="M0 0h363v363H0z"/>
  </clipPath>
  <g clip-path="url(#a)">
    <path d="M287 204a88 88 0 10-120 32l44-76 76 44z" fill="url(#_Linear3)"/>
    <path d="M355 160a144 144 0 10-144 144V160h144z" fill="url(#_Linear4)"/>
    <path d="M252 5A160 160 0 0051 161l160-1L252 5z" fill="url(#_Linear5)"/>
    <path d="M42 48a203 203 0 00256 295l-87-183L42 48z" fill="url(#_Linear6)"/>
  </g>
  <defs>
    <linearGradient gradientTransform="rotate(47 -30 98) scale(405.467)" gradientUnits="userSpaceOnUse" id="_Linear1"
                    x1="0" x2="1" y1="0"
                    y2="0">
      <stop offset="0" stop-color="#303030"/>
      <stop offset="1" stop-color="#4c4a42"/>
    </linearGradient>
    <linearGradient gradientTransform="rotate(-85 234 -49) scale(28.11977)" gradientUnits="userSpaceOnUse" id="_Linear3"
                    x1="0" x2="1" y1="0"
                    y2="0">
      <stop offset="0" stop-color="#117fff"/>
      <stop offset="1" stop-color="#004da7"/>
    </linearGradient>
    <linearGradient gradientTransform="rotate(-132 190 8) scale(110.3448)" gradientUnits="userSpaceOnUse" id="_Linear4"
                    x1="0" x2="1" y1="0"
                    y2="0">
      <stop offset="0" stop-color="#ff3c4e"/>
      <stop offset="1" stop-color="#c90013"/>
    </linearGradient>
    <linearGradient gradientTransform="scale(-128.4617) rotate(-32 -1 3)" gradientUnits="userSpaceOnUse" id="_Linear5"
                    x1="0" x2="1" y1="0"
                    y2="0">
      <stop offset="0" stop-color="#ffc900"/>
      <stop offset="1" stop-color="#997900"/>
    </linearGradient>
    <linearGradient gradientTransform="scale(-266.146) rotate(52 1 -2)" gradientUnits="userSpaceOnUse" id="_Linear6"
                    x1="0" x2="1" y1="0"
                    y2="0">
      <stop offset="0" stop-color="#007219"/>
      <stop offset="1" stop-color="#1fd647"/>
    </linearGradient>
  </defs>
</svg>
