<?xml version="1.0" encoding="UTF-8" standalone="no"?><!DOCTYPE svg PUBLIC "-//W3C//DTD SVG 1.1//EN" "http://www.w3.org/Graphics/SVG/1.1/DTD/svg11.dtd"><svg width="100%" height="100%" viewBox="0 0 363 363" version="1.1" xmlns="http://www.w3.org/2000/svg" xmlns:xlink="http://www.w3.org/1999/xlink" xml:space="preserve" xmlns:serif="http://www.serif.com/" style="fill-rule:evenodd;clip-rule:evenodd;stroke-linejoin:round;stroke-miterlimit:2;"><rect id="terminal" x="0" y="0" width="362.835" height="362.835" style="fill:none;"/><path d="M362.835,18.142c0,-10.013 -8.129,-18.142 -18.142,-18.142l-326.551,0c-10.013,0 -18.142,8.129 -18.142,18.142l0,326.551c0,10.013 8.129,18.142 18.142,18.142l326.551,0c10.013,0 18.142,-8.129 18.142,-18.142l0,-326.551Z" style="fill:#003a6f;"/><path d="M205.973,135.463l-63.378,36.591l-113.079,-65.287l31.689,-54.887l144.768,83.583Z" style="fill:#b5b5b5;"/><path d="M95.485,310.954l107.261,-63.378l130.573,0l0,63.378l-237.834,0Z" style="fill:#b5b5b5;"/><path d="M144.241,189.83l63.378,36.592l-146.414,84.532l-31.689,-54.887l114.725,-66.237Z" style="fill:#b5b5b5;"/><path d="M233.825,151.629l18.586,32.192l-15.294,26.491l-14.203,8.2l-63.378,-36.591l63.378,-36.592l10.911,6.3Z" style="fill:#b5b5b5;"/></svg>