<svg xmlns="http://www.w3.org/2000/svg" id="svg8" width="210mm" height="297mm" version="1.1" viewBox="0 0 210 297"><metadata id="metadata5"/><g id="layer1"><g id="g859" transform="matrix(0.5575619,0,0,0.5626174,-251.4621,-50.931664)" style="clip-rule:evenodd;fill-rule:evenodd;stroke-miterlimit:10"><g id="g817" transform="matrix(2.81501,0,0,2.81501,-3774.64,-218.343)"><rect id="rect815" width="129.7" height="129.7" x="1503.4" y="140.1" style="fill:none;stroke:#000;stroke-width:3px"/></g><g id="g821" transform="matrix(2.81501,0,0,2.81501,-3774.64,-218.343)"><circle id="circle819" cx="1568" cy="176" r="27.9"/></g><g id="g825" transform="matrix(2.81501,0,0,2.81501,-3774.64,-218.343)"><path id="path823" d="m 1613.7,270.8 c 0.1,-1.5 0.1,-3 0.1,-4.5 0,-12.4 -1.9,-24.1 -5.4,-34.3 -3.8,-11.2 -14.3,-18.8 -26.1,-18.8 H 1554 c -11.8,0 -22.4,7.5 -26.1,18.8 -3.4,10.2 -5.4,21.9 -5.4,34.3 0,1.5 0,3 0.1,4.5 z" style="fill-rule:nonzero"/></g><g id="g829" transform="matrix(2.81501,0,0,2.81501,-3774.64,-218.343)"><rect id="rect827" width="129.7" height="129.7" x="1503.4" y="140.1" style="stroke:#000;stroke-width:3px"/></g><g id="g833" transform="matrix(2.81501,0,0,2.81501,-3774.64,-218.343)"><circle id="circle831" cx="1568" cy="176" r="27.9" style="fill:#fff"/></g><g id="g837" transform="matrix(2.81501,0,0,2.81501,-3774.64,-218.343)"><path id="path835" d="m 1613.7,270.8 c 0.1,-1.5 0.1,-3 0.1,-4.5 0,-12.4 -1.9,-24.1 -5.4,-34.3 -3.8,-11.2 -14.3,-18.8 -26.1,-18.8 H 1554 c -11.8,0 -22.4,7.5 -26.1,18.8 -3.4,10.2 -5.4,21.9 -5.4,34.3 0,1.5 0,3 0.1,4.5 z" style="fill:#fff;fill-rule:nonzero"/></g></g></g></svg>