<?xml version="1.0" encoding="UTF-8" standalone="no"?>
<!-- Created with Inkscape (http://www.inkscape.org/) -->

<svg
  height="128"
  id="svg8"
  inkscape:version="0.92.3 (2405546, 2018-03-11)"
  sodipodi:docname="user.svg"
  version="1.1"
  viewBox="0 0 33.866666 33.866668"
  width="128"
  xmlns="http://www.w3.org/2000/svg"
  xmlns:cc="http://creativecommons.org/ns#"
  xmlns:dc="http://purl.org/dc/elements/1.1/"
  xmlns:inkscape="http://www.inkscape.org/namespaces/inkscape"
  xmlns:rdf="http://www.w3.org/1999/02/22-rdf-syntax-ns#"
  xmlns:sodipodi="http://sodipodi.sourceforge.net/DTD/sodipodi-0.dtd">
  <defs
    id="defs2"/>
  <sodipodi:namedview
    borderopacity="1.0"
    fit-margin-bottom="0"
    fit-margin-left="0"
    fit-margin-right="0"
    fit-margin-top="0"
    id="base"
    inkscape:current-layer="layer1"
    inkscape:cx="90.895009"
    inkscape:cy="102.97487"
    inkscape:document-units="mm"
    inkscape:pageopacity="0.0"
    inkscape:pageshadow="2"
    inkscape:window-height="1017"
    inkscape:window-maximized="1"
    inkscape:window-width="1920"
    inkscape:window-x="1672"
    inkscape:window-y="-8"
    inkscape:zoom="2.8"
    pagecolor="#ffffff"
    showgrid="false"
    units="px"/>
  <metadata
    id="metadata5">
    <rdf:RDF>
      <cc:Work
        rdf:about="">
        <dc:format>image/svg+xml</dc:format>
        <dc:type
          rdf:resource="http://purl.org/dc/dcmitype/StillImage"/>
        <dc:title></dc:title>
      </cc:Work>
    </rdf:RDF>
  </metadata>
  <g
    id="layer1"
    inkscape:groupmode="layer"
    inkscape:label="Ebene 1"
    transform="translate(-0.01247625,-263.18849)">
    <g
      id="g831"
      transform="matrix(0.67733333,0,0,0.67733333,0.01247625,263.18849)">
      <circle
        cx="25"
        cy="25"
        id="circle815"
        r="24"
        stroke-miterlimit="10"
        style="fill:none;stroke:#000000;stroke-width:2;stroke-linecap:round;stroke-miterlimit:10"/>
      <rect
        height="50"
        id="rect817"
        style="fill:none"
        width="50"
        x="0"
        y="0"/>
      <path
        d="m 29.933,35.528 c -0.146,-1.612 -0.09,-2.737 -0.09,-4.21 0.73,-0.383 2.038,-2.825 2.259,-4.888 0.574,-0.047 1.479,-0.607 1.744,-2.818 0.143,-1.187 -0.425,-1.855 -0.771,-2.065 C 34.009,18.738 35.949,10.048 29.487,9.15 28.822,7.982 27.119,7.391 24.906,7.391 c -8.854,0.163 -9.922,6.686 -7.981,14.156 -0.345,0.21 -0.913,0.878 -0.771,2.065 0.266,2.211 1.17,2.771 1.744,2.818 0.22,2.062 1.58,4.505 2.312,4.888 0,1.473 0.055,2.598 -0.091,4.21 -1.261,3.39 -7.737,3.655 -11.473,6.924 3.906,3.933 10.236,6.746 16.916,6.746 6.68,0 14.532,-5.274 15.839,-6.713 C 37.688,39.186 31.197,38.93 29.933,35.528 Z"
        id="path819"
        inkscape:connector-curvature="0"/>
    </g>
  </g>
</svg>
