<svg xmlns="http://www.w3.org/2000/svg" id="svg8" width="128" height="128" version="1.1" viewBox="0 0 33.867 33.867"><metadata id="metadata5"/><g id="layer1" transform="translate(-0.01247625,-263.18849)"><g id="g831" transform="matrix(0.67733333,0,0,0.67733333,0.01247625,263.18849)"><circle id="circle815" cx="25" cy="25" r="24" stroke-miterlimit="10" style="fill:none;stroke:#000;stroke-width:2;stroke-linecap:round;stroke-miterlimit:10"/><rect id="rect817" width="50" height="50" x="0" y="0" style="fill:none"/><path id="path819" d="m 29.933,35.528 c -0.146,-1.612 -0.09,-2.737 -0.09,-4.21 0.73,-0.383 2.038,-2.825 2.259,-4.888 0.574,-0.047 1.479,-0.607 1.744,-2.818 0.143,-1.187 -0.425,-1.855 -0.771,-2.065 C 34.009,18.738 35.949,10.048 29.487,9.15 28.822,7.982 27.119,7.391 24.906,7.391 c -8.854,0.163 -9.922,6.686 -7.981,14.156 -0.345,0.21 -0.913,0.878 -0.771,2.065 0.266,2.211 1.17,2.771 1.744,2.818 0.22,2.062 1.58,4.505 2.312,4.888 0,1.473 0.055,2.598 -0.091,4.21 -1.261,3.39 -7.737,3.655 -11.473,6.924 3.906,3.933 10.236,6.746 16.916,6.746 6.68,0 14.532,-5.274 15.839,-6.713 C 37.688,39.186 31.197,38.93 29.933,35.528 Z"/></g></g></svg>