<svg xmlns="http://www.w3.org/2000/svg" fill-rule="evenodd" stroke-linejoin="round" stroke-miterlimit="2" clip-rule="evenodd" viewBox="0 0 363 363"><path fill="none" d="M0 0h363v363H0z"/><clipPath id="a"><path d="M0 0h363v363H0z"/></clipPath><g clip-path="url(#a)"><path fill="url(#_Linear2)" d="M363 91c0-50-41-91-91-91H91C41 0 0 41 0 91v181c0 50 41 91 91 91h181c50 0 91-41 91-91V91z"/><path fill="url(#_Linear3)" d="M363 36c0-20-16-36-36-36H36C16 0 0 16 0 36v291c0 20 16 36 36 36h291c20 0 36-16 36-36V36zm-17 14c0-19-15-33-33-33H50c-19 0-33 14-33 33v263c0 18 14 33 33 33h263c18 0 33-15 33-33V50z"/><circle cx="137.3" cy="181.4" r="92.2" fill="url(#_Linear4)"/><path fill="url(#_Linear5)" d="M140 102l-1-2h-3l-2 2v34l2 1h3l1-1v-34z"/><path fill="url(#_Linear6)" d="M140 229l-1-1h-3l-2 1v34l2 2h3l1-2v-34z"/><path fill="url(#_Linear7)" d="M90 184l1-1v-3l-1-2H56l-2 2v3l2 1h34z"/><path fill="url(#_Linear8)" d="M219 184l2-1v-3l-2-2h-34l-1 2v3l1 1h34z"/><path fill="url(#_Linear9)" d="M196 127v-2l-2-2h-2l-24 24v2l2 2h3l23-24z"/><path fill="url(#_Linear10)" d="M106 217v-2l-2-2h-2l-24 24v2l2 2h2l24-24z"/><path fill="url(#_Linear11)" d="M103 150h2l2-2v-2l-24-24h-2l-2 2v2l24 24z"/><path fill="url(#_Linear12)" d="M194 242h2l2-2v-3l-24-24h-2l-2 3v2l24 24z"/><circle cx="137.3" cy="181.4" r="33.2" fill="#bebebe"/><circle cx="280.2" cy="154.3" r="36.5" fill="url(#_Linear13)"/><path fill="url(#_Linear14)" d="M296 155a16 16 0 00-31 0v80a16 16 0 0031 0v-80z"/></g><defs><linearGradient id="_Linear2" x1="0" x2="1" y1="0" y2="0" gradientTransform="rotate(-135 209 90) scale(372.932)" gradientUnits="userSpaceOnUse"><stop offset="0" stop-color="#73767e"/><stop offset="1" stop-color="#c2c2c2"/></linearGradient><linearGradient id="_Linear3" x1="0" x2="1" y1="0" y2="0" gradientTransform="rotate(39 -158 -312) scale(310.165)" gradientUnits="userSpaceOnUse"><stop offset="0" stop-color="#696969"/><stop offset="1" stop-color="#1e1e1e"/></linearGradient><linearGradient id="_Linear4" x1="0" x2="1" y1="0" y2="0" gradientTransform="rotate(-134 131 71) scale(137.6065)" gradientUnits="userSpaceOnUse"><stop offset="0" stop-color="#252525"/><stop offset="1" stop-color="#b6b6b6"/></linearGradient><linearGradient id="_Linear5" x1="0" x2="1" y1="0" y2="0" gradientTransform="scale(-29.64125) rotate(79 0 -5)" gradientUnits="userSpaceOnUse"><stop offset="0" stop-color="#2d2d2d"/><stop offset="1" stop-color="#4f5973"/></linearGradient><linearGradient id="_Linear6" x1="0" x2="1" y1="0" y2="0" gradientTransform="scale(-29.64125) rotate(79 3 -7)" gradientUnits="userSpaceOnUse"><stop offset="0" stop-color="#2d2d2d"/><stop offset="1" stop-color="#4f5973"/></linearGradient><linearGradient id="_Linear7" x1="0" x2="1" y1="0" y2="0" gradientTransform="scale(29.64125) rotate(-11 32 -7)" gradientUnits="userSpaceOnUse"><stop offset="0" stop-color="#2d2d2d"/><stop offset="1" stop-color="#4f5973"/></linearGradient><linearGradient id="_Linear8" x1="0" x2="1" y1="0" y2="0" gradientTransform="scale(29.64125) rotate(-11 34 -29)" gradientUnits="userSpaceOnUse"><stop offset="0" stop-color="#2d2d2d"/><stop offset="1" stop-color="#4f5973"/></linearGradient><linearGradient id="_Linear9" x1="0" x2="1" y1="0" y2="0" gradientTransform="rotate(-56 226 -92) scale(29.6413)" gradientUnits="userSpaceOnUse"><stop offset="0" stop-color="#2d2d2d"/><stop offset="1" stop-color="#4f5973"/></linearGradient><linearGradient id="_Linear10" x1="0" x2="1" y1="0" y2="0" gradientTransform="rotate(-56 265 37) scale(29.6413)" gradientUnits="userSpaceOnUse"><stop offset="0" stop-color="#2d2d2d"/><stop offset="1" stop-color="#4f5973"/></linearGradient><linearGradient id="_Linear11" x1="0" x2="1" y1="0" y2="0" gradientTransform="rotate(34 -174 203) scale(29.6413)" gradientUnits="userSpaceOnUse"><stop offset="0" stop-color="#2d2d2d"/><stop offset="1" stop-color="#4f5973"/></linearGradient><linearGradient id="_Linear12" x1="0" x2="1" y1="0" y2="0" gradientTransform="rotate(34 -280 400) scale(29.6413)" gradientUnits="userSpaceOnUse"><stop offset="0" stop-color="#2d2d2d"/><stop offset="1" stop-color="#4f5973"/></linearGradient><linearGradient id="_Linear13" x1="0" x2="1" y1="0" y2="0" gradientTransform="scale(53.5055) rotate(43 0 7)" gradientUnits="userSpaceOnUse"><stop offset="0" stop-color="#b7b7b7"/><stop offset="1" stop-color="#515151"/></linearGradient><linearGradient id="_Linear14" x1="0" x2="1" y1="0" y2="0" gradientTransform="rotate(25 -215 670) scale(44.4451)" gradientUnits="userSpaceOnUse"><stop offset="0" stop-color="#b7b7b7"/><stop offset="1" stop-color="#353938"/></linearGradient></defs></svg>