<?xml version="1.0" encoding="UTF-8" standalone="no"?><!DOCTYPE svg PUBLIC "-//W3C//DTD SVG 1.1//EN" "http://www.w3.org/Graphics/SVG/1.1/DTD/svg11.dtd"><svg width="100%" height="100%" viewBox="0 0 363 363" version="1.1" xmlns="http://www.w3.org/2000/svg" xmlns:xlink="http://www.w3.org/1999/xlink" xml:space="preserve" xmlns:serif="http://www.serif.com/" style="fill-rule:evenodd;clip-rule:evenodd;stroke-linejoin:round;stroke-miterlimit:2;"><rect id="Wallet" x="0" y="0" width="362.835" height="362.835" style="fill:none;"/><clipPath id="_clip1"><rect x="0" y="0" width="362.835" height="362.835"/></clipPath><g clip-path="url(#_clip1)"><path d="M362.835,90.709c0,-50.064 -40.646,-90.709 -90.709,-90.709l-181.417,0c-50.064,0 -90.709,40.645 -90.709,90.709l0,181.417c0,50.063 40.645,90.709 90.709,90.709l181.417,0c50.063,0 90.709,-40.646 90.709,-90.709l0,-181.417Z" style="fill:url(#_Linear2);"/><path d="M362.835,36.283c0,-20.025 -16.258,-36.283 -36.284,-36.283l-290.268,0c-20.025,0 -36.283,16.258 -36.283,36.283l0,290.268c0,20.026 16.258,36.284 36.283,36.284l290.268,0c20.026,0 36.284,-16.258 36.284,-36.284l0,-290.268Zm-16.579,13.264c0,-18.196 -14.773,-32.968 -32.968,-32.968l-263.741,0c-18.196,0 -32.968,14.772 -32.968,32.968l0,263.741c0,18.195 14.772,32.968 32.968,32.968l263.741,0c18.195,0 32.968,-14.773 32.968,-32.968l0,-263.741Z" style="fill:url(#_Linear3);"/><circle cx="137.333" cy="181.417" r="92.223" style="fill:url(#_Linear4);"/><path d="M140.255,101.941c0,-0.807 -0.655,-1.461 -1.461,-1.461l-2.922,0c-0.806,0 -1.461,0.654 -1.461,1.461l0,33.869c0,0.806 0.655,1.461 1.461,1.461l2.922,0c0.806,0 1.461,-0.655 1.461,-1.461l0,-33.869Z" style="fill:url(#_Linear5);"/><path d="M140.255,229.304c0,-0.806 -0.655,-1.461 -1.461,-1.461l-2.922,0c-0.806,0 -1.461,0.655 -1.461,1.461l0,33.869c0,0.807 0.655,1.461 1.461,1.461l2.922,0c0.806,0 1.461,-0.654 1.461,-1.461l0,-33.869Z" style="fill:url(#_Linear6);"/><path d="M89.783,184.339c0.806,0 1.461,-0.654 1.461,-1.461l0,-2.922c0,-0.806 -0.655,-1.461 -1.461,-1.461l-33.869,0c-0.807,0 -1.461,0.655 -1.461,1.461l0,2.922c0,0.807 0.654,1.461 1.461,1.461l33.869,0Z" style="fill:url(#_Linear7);"/><path d="M219.287,184.339c0.806,0 1.461,-0.654 1.461,-1.461l0,-2.922c0,-0.806 -0.655,-1.461 -1.461,-1.461l-33.869,0c-0.806,0 -1.461,0.655 -1.461,1.461l0,2.922c0,0.807 0.655,1.461 1.461,1.461l33.869,0Z" style="fill:url(#_Linear8);"/><path d="M196.482,127.429c0.57,-0.57 0.57,-1.495 0,-2.066l-2.066,-2.066c-0.571,-0.57 -1.496,-0.57 -2.066,0l-23.95,23.949c-0.57,0.571 -0.57,1.496 0,2.066l2.067,2.066c0.57,0.571 1.495,0.571 2.066,0l23.949,-23.949Z" style="fill:url(#_Linear9);"/><path d="M106.422,217.489c0.57,-0.57 0.57,-1.496 0,-2.066l-2.066,-2.066c-0.57,-0.57 -1.496,-0.57 -2.066,0l-23.949,23.949c-0.57,0.57 -0.57,1.496 0,2.066l2.066,2.066c0.57,0.57 1.496,0.57 2.066,0l23.949,-23.949Z" style="fill:url(#_Linear10);"/><path d="M102.528,150.005c0.57,0.57 1.496,0.57 2.066,0l2.066,-2.066c0.57,-0.57 0.57,-1.496 0,-2.066l-23.949,-23.949c-0.57,-0.57 -1.496,-0.57 -2.066,0l-2.066,2.066c-0.57,0.57 -0.57,1.496 0,2.066l23.949,23.949Z" style="fill:url(#_Linear11);"/><path d="M194.101,241.578c0.571,0.571 1.496,0.571 2.066,0l2.066,-2.066c0.571,-0.57 0.571,-1.496 0,-2.066l-23.949,-23.949c-0.57,-0.57 -1.495,-0.57 -2.066,0l-2.066,2.066c-0.57,0.57 -0.57,1.496 0,2.066l23.949,23.949Z" style="fill:url(#_Linear12);"/><circle cx="137.333" cy="181.417" r="33.214" style="fill:#bebebe;"/><circle cx="280.184" cy="154.268" r="36.529" style="fill:url(#_Linear13);"/><path d="M295.784,154.998c0,-8.61 -6.99,-15.6 -15.6,-15.6c-8.61,0 -15.6,6.99 -15.6,15.6l0,80.341c0,8.61 6.99,15.6 15.6,15.6c8.61,0 15.6,-6.99 15.6,-15.6l0,-80.341Z" style="fill:url(#_Linear14);"/></g><defs><linearGradient id="_Linear2" x1="0" y1="0" x2="1" y2="0" gradientUnits="userSpaceOnUse" gradientTransform="matrix(-262.841,-264.562,264.562,-262.841,292.55,300.915)"><stop offset="0" style="stop-color:#73767e;stop-opacity:1"/><stop offset="1" style="stop-color:#c2c2c2;stop-opacity:1"/></linearGradient><linearGradient id="_Linear3" x1="0" y1="0" x2="1" y2="0" gradientUnits="userSpaceOnUse" gradientTransform="matrix(240.799,195.495,-195.495,240.799,-232.107,29.7091)"><stop offset="0" style="stop-color:#696969;stop-opacity:1"/><stop offset="1" style="stop-color:#1e1e1e;stop-opacity:1"/></linearGradient><linearGradient id="_Linear4" x1="0" y1="0" x2="1" y2="0" gradientUnits="userSpaceOnUse" gradientTransform="matrix(-95.4735,-99.0977,99.0977,-95.4735,170.547,214.631)"><stop offset="0" style="stop-color:#252525;stop-opacity:1"/><stop offset="1" style="stop-color:#b6b6b6;stop-opacity:1"/></linearGradient><linearGradient id="_Linear5" x1="0" y1="0" x2="1" y2="0" gradientUnits="userSpaceOnUse" gradientTransform="matrix(-5.84371,-29.0595,29.0595,-5.84371,140.255,129.539)"><stop offset="0" style="stop-color:#2d2d2d;stop-opacity:1"/><stop offset="1" style="stop-color:#4f5973;stop-opacity:1"/></linearGradient><linearGradient id="_Linear6" x1="0" y1="0" x2="1" y2="0" gradientUnits="userSpaceOnUse" gradientTransform="matrix(-5.84371,-29.0595,29.0595,-5.84371,140.255,256.903)"><stop offset="0" style="stop-color:#2d2d2d;stop-opacity:1"/><stop offset="1" style="stop-color:#4f5973;stop-opacity:1"/></linearGradient><linearGradient id="_Linear7" x1="0" y1="0" x2="1" y2="0" gradientUnits="userSpaceOnUse" gradientTransform="matrix(29.0595,-5.84371,5.84371,29.0595,62.1842,184.339)"><stop offset="0" style="stop-color:#2d2d2d;stop-opacity:1"/><stop offset="1" style="stop-color:#4f5973;stop-opacity:1"/></linearGradient><linearGradient id="_Linear8" x1="0" y1="0" x2="1" y2="0" gradientUnits="userSpaceOnUse" gradientTransform="matrix(29.0595,-5.84371,5.84371,29.0595,191.688,184.339)"><stop offset="0" style="stop-color:#2d2d2d;stop-opacity:1"/><stop offset="1" style="stop-color:#4f5973;stop-opacity:1"/></linearGradient><linearGradient id="_Linear9" x1="0" y1="0" x2="1" y2="0" gradientUnits="userSpaceOnUse" gradientTransform="matrix(16.4161,-24.6803,24.6803,16.4161,176.966,146.945)"><stop offset="0" style="stop-color:#2d2d2d;stop-opacity:1"/><stop offset="1" style="stop-color:#4f5973;stop-opacity:1"/></linearGradient><linearGradient id="_Linear10" x1="0" y1="0" x2="1" y2="0" gradientUnits="userSpaceOnUse" gradientTransform="matrix(16.4161,-24.6803,24.6803,16.4161,86.9068,237.004)"><stop offset="0" style="stop-color:#2d2d2d;stop-opacity:1"/><stop offset="1" style="stop-color:#4f5973;stop-opacity:1"/></linearGradient><linearGradient id="_Linear11" x1="0" y1="0" x2="1" y2="0" gradientUnits="userSpaceOnUse" gradientTransform="matrix(24.6803,16.4161,-16.4161,24.6803,83.0129,130.49)"><stop offset="0" style="stop-color:#2d2d2d;stop-opacity:1"/><stop offset="1" style="stop-color:#4f5973;stop-opacity:1"/></linearGradient><linearGradient id="_Linear12" x1="0" y1="0" x2="1" y2="0" gradientUnits="userSpaceOnUse" gradientTransform="matrix(24.6803,16.4161,-16.4161,24.6803,174.586,222.063)"><stop offset="0" style="stop-color:#2d2d2d;stop-opacity:1"/><stop offset="1" style="stop-color:#4f5973;stop-opacity:1"/></linearGradient><linearGradient id="_Linear13" x1="0" y1="0" x2="1" y2="0" gradientUnits="userSpaceOnUse" gradientTransform="matrix(39.096,36.5287,-36.5287,39.096,264.584,117.74)"><stop offset="0" style="stop-color:#b7b7b7;stop-opacity:1"/><stop offset="1" style="stop-color:#515151;stop-opacity:1"/></linearGradient><linearGradient id="_Linear14" x1="0" y1="0" x2="1" y2="0" gradientUnits="userSpaceOnUse" gradientTransform="matrix(40.2306,18.8909,-18.8909,40.2306,264.584,154.805)"><stop offset="0" style="stop-color:#b7b7b7;stop-opacity:1"/><stop offset="1" style="stop-color:#353938;stop-opacity:1"/></linearGradient></defs></svg>