<?xml version="1.0" encoding="UTF-8" standalone="no"?>
<!-- Created with Inkscape (http://www.inkscape.org/) -->

<svg
   xmlns:dc="http://purl.org/dc/elements/1.1/"
   xmlns:cc="http://creativecommons.org/ns#"
   xmlns:rdf="http://www.w3.org/1999/02/22-rdf-syntax-ns#"
   xmlns:svg="http://www.w3.org/2000/svg"
   xmlns="http://www.w3.org/2000/svg"
   xmlns:xlink="http://www.w3.org/1999/xlink"
   xmlns:sodipodi="http://sodipodi.sourceforge.net/DTD/sodipodi-0.dtd"
   xmlns:inkscape="http://www.inkscape.org/namespaces/inkscape"
   width="210mm"
   height="297mm"
   viewBox="0 0 210 297"
   version="1.1"
   id="svg4449"
   inkscape:version="0.92.1 r15371"
   sodipodi:docname="Filemanager Icon.svg">
  <defs
     id="defs4443">
    <linearGradient
       inkscape:collect="always"
       id="linearGradient5169">
      <stop
         style="stop-color:#818181;stop-opacity:0.42745098"
         offset="0"
         id="stop5165" />
      <stop
         style="stop-color:#818181;stop-opacity:1"
         offset="1"
         id="stop5167" />
    </linearGradient>
    <linearGradient
       inkscape:collect="always"
       id="linearGradient5000">
      <stop
         style="stop-color:#0079f8;stop-opacity:1"
         offset="0"
         id="stop4996" />
      <stop
         style="stop-color:#ffec9c;stop-opacity:1"
         offset="1"
         id="stop4998" />
    </linearGradient>
    <linearGradient
       inkscape:collect="always"
       xlink:href="#linearGradient5000"
       id="linearGradient5002"
       x1="199.57143"
       y1="237.27975"
       x2="8.3154669"
       y2="46.023804"
       gradientUnits="userSpaceOnUse"
       gradientTransform="translate(-3.0238096)" />
    <linearGradient
       inkscape:collect="always"
       xlink:href="#linearGradient5169"
       id="linearGradient5171"
       x1="198.89809"
       y1="240.0282"
       x2="31.844433"
       y2="101.31093"
       gradientUnits="userSpaceOnUse" />
  </defs>
  <sodipodi:namedview
     id="base"
     pagecolor="#ffffff"
     bordercolor="#666666"
     borderopacity="1.0"
     inkscape:pageopacity="0.0"
     inkscape:pageshadow="2"
     inkscape:zoom="0.49497475"
     inkscape:cx="453.49698"
     inkscape:cy="591.75118"
     inkscape:document-units="mm"
     inkscape:current-layer="layer1"
     showgrid="false"
     inkscape:window-width="1920"
     inkscape:window-height="993"
     inkscape:window-x="1912"
     inkscape:window-y="16"
     inkscape:window-maximized="1"
     inkscape:object-nodes="false" />
  <metadata
     id="metadata4446">
    <rdf:RDF>
      <cc:Work
         rdf:about="">
        <dc:format>image/svg+xml</dc:format>
        <dc:type
           rdf:resource="http://purl.org/dc/dcmitype/StillImage" />
        <dc:title></dc:title>
      </cc:Work>
    </rdf:RDF>
  </metadata>
  <g
     inkscape:label="Ebene 1"
     inkscape:groupmode="layer"
     id="layer1">
    <circle
       r="98.273804"
       cy="147.32135"
       cx="107.34523"
       id="circle5004"
       style="opacity:1;fill:#818181;fill-opacity:1;stroke:none;stroke-width:1.32291663;stroke-linecap:square;stroke-linejoin:miter;stroke-miterlimit:4;stroke-dasharray:none;stroke-opacity:1;paint-order:stroke fill markers" />
    <circle
       style="opacity:1;fill:url(#linearGradient5002);fill-opacity:1;stroke:none;stroke-width:1.32291663;stroke-linecap:square;stroke-linejoin:miter;stroke-miterlimit:4;stroke-dasharray:none;stroke-opacity:1;paint-order:stroke fill markers"
       id="path4994"
       cx="102.05358"
       cy="142.02975"
       r="98.273804" />
    <path
       style="fill:url(#linearGradient5171);stroke:none;stroke-width:0.26458332px;stroke-linecap:butt;stroke-linejoin:miter;stroke-opacity:1;fill-opacity:1"
       d="m 164.0416,101.26357 -71.34294,54.14502 -60.866051,35.70221 46.215265,46.21527 a 98.273803,98.273803 0 0 0 24.100346,3.12746 98.273803,98.273803 0 0 0 98.27359,-98.27411 98.273803,98.273803 0 0 0 -0.1664,-4.70152 z"
       id="path5160"
       inkscape:connector-curvature="0" />
    <g
       id="g5158"
       transform="translate(-0.04337883,-6.5271733)">
      <g
         style="stroke-width:1.0505898"
         transform="matrix(0.95184625,0,0,0.95184625,4.8919002,6.3507227)"
         id="g5048">
        <path
           style="opacity:1;fill:#d8b200;fill-opacity:1;stroke:none;stroke-width:1.38984275;stroke-linecap:square;stroke-linejoin:miter;stroke-miterlimit:4;stroke-dasharray:none;stroke-opacity:1;paint-order:stroke fill markers"
           d="m 37.390682,96.064498 c -1.33261,0 -2.40554,1.072419 -2.40554,2.40502 v 19.640172 c 0,1.33261 1.07293,2.40554 2.40554,2.40554 h 51.15605 c 1.33261,0 2.40554,-1.07293 2.40554,-2.40554 v -3.12642 l 26.741518,-1.12551 -27.449488,-17.102867 -0.007,0.0016 c -0.55914,-0.369628 -1.02984,-0.691946 -1.69033,-0.691946 z"
           id="rect4329"
           inkscape:connector-curvature="0"
           sodipodi:nodetypes="ssssssccccss" />
        <path
           style="opacity:1;fill:#f1c600;fill-opacity:1;stroke:none;stroke-width:1.38984275;stroke-linecap:square;stroke-linejoin:miter;stroke-miterlimit:4;stroke-dasharray:none;stroke-opacity:1;paint-order:stroke fill markers"
           d="M 37.765682,105.86805 H 165.52052 c 1.48067,0 2.6727,1.19202 2.6727,2.67269 v 78.46884 c 0,1.48067 -1.19203,2.67269 -2.6727,2.67269 H 37.765682 c -1.48067,0 -2.67269,-1.19202 -2.67269,-2.67269 v -78.46884 c 0,-1.48067 1.19202,-2.67269 2.67269,-2.67269 z"
           id="rect4327"
           inkscape:connector-curvature="0"
           sodipodi:nodetypes="sssssssss" />
      </g>
      <rect
         ry="5.3453903"
         y="123.41996"
         x="30.468725"
         height="75.904541"
         width="143.25647"
         id="rect5050"
         style="opacity:1;fill:#19d0ff;fill-opacity:1;stroke:none;stroke-width:1.32291663;stroke-linecap:square;stroke-linejoin:miter;stroke-miterlimit:4;stroke-dasharray:none;stroke-opacity:1;paint-order:stroke fill markers" />
      <path
         inkscape:connector-curvature="0"
         id="rect5132"
         d="m 98.165315,136.68798 c -0.91637,0 -1.59758,0.73938 -1.65418,1.654 l -0.29903,4.83171 a 19.21302,19.21302 0 0 0 -2.82892,1.16309 l -3.6213,-3.1991 c -0.68677,-0.60672 -1.69126,-0.64798 -2.33923,0 l -5.56026,5.56025 c -0.64794,0.64797 -0.6067,1.65247 0,2.33922 l 3.11283,3.52354 a 19.21302,19.21302 0 0 0 -1.23146,2.93626 l -4.67705,0.28946 c -0.91463,0.0566 -1.65401,0.7378 -1.65401,1.65418 v 7.86329 c 0,0.91638 0.73938,1.59758 1.65401,1.65418 l 4.57146,0.28285 a 19.21302,19.21302 0 0 0 1.25877,3.03141 l -3.03455,3.43499 c -0.6067,0.68676 -0.64794,1.69126 0,2.33923 l 5.56026,5.56025 c 0.64797,0.64797 1.65246,0.60672 2.33923,0 l 3.42351,-3.02445 a 19.21302,19.21302 0 0 0 3.04166,1.22954 l 0.28408,4.59043 c 0.0566,0.91462 0.73781,1.65418 1.65418,1.65418 h 7.863295 c 0.91637,0 1.5974,-0.73956 1.654,-1.65418 l 0.28877,-4.66628 a 19.21302,19.21302 0 0 0 2.93574,-1.24328 l 3.52492,3.11404 c 0.68676,0.60672 1.69126,0.64797 2.33923,0 l 5.56025,-5.56025 c 0.64797,-0.64797 0.60671,-1.65247 0,-2.33923 l -3.18762,-3.60808 a 19.21302,19.21302 0 0 0 1.13281,-2.8411 l 4.85033,-0.30007 c 0.91462,-0.0566 1.65418,-0.7378 1.65418,-1.65418 v -7.86329 c 0,-0.91638 -0.73956,-1.59758 -1.65418,-1.65418 l -4.92669,-0.30477 a 19.21302,19.21302 0 0 0 -1.14743,-2.73342 l 3.2786,-3.71107 c 0.60671,-0.68675 0.64797,-1.69125 0,-2.33922 l -5.56025,-5.56025 c -0.64797,-0.64797 -1.65247,-0.60672 -2.33923,0 l -3.69836,3.26729 a 19.21302,19.21302 0 0 0 -2.7456,-1.12621 l -0.30547,-4.93678 c -0.0566,-0.91462 -0.73763,-1.654 -1.654,-1.654 z m 3.931645,11.06971 a 13.614524,13.614524 0 0 1 13.61456,13.61454 13.614524,13.614524 0 0 1 -13.61456,13.61455 13.614524,13.614524 0 0 1 -13.614555,-13.61455 13.614524,13.614524 0 0 1 13.614555,-13.61454 z m 0,4.83501 a 8.7794596,8.7794596 0 0 0 -8.779535,8.77953 8.7794596,8.7794596 0 0 0 8.779535,8.77936 8.7794596,8.7794596 0 0 0 8.77936,-8.77936 8.7794596,8.7794596 0 0 0 -8.77936,-8.77953 z"
         style="opacity:1;fill:#ffffff;fill-opacity:1;stroke:none;stroke-width:1.32291663;stroke-linecap:square;stroke-linejoin:miter;stroke-miterlimit:4;stroke-dasharray:none;stroke-opacity:1;paint-order:stroke fill markers" />
    </g>
  </g>
</svg>
