<?xml version="1.0" encoding="UTF-8"?>
<svg version="1.1" viewBox="0 0 128 128" xmlns="http://www.w3.org/2000/svg">
  <g transform="translate(0 -263.13)">
    <g transform="matrix(.59789 0 0 .59789 99.498 238.15)">
      <path
        d="m-162.03 228.47c-1.0225-0.54043-3.6784-3.282-3.6752-3.7937 1e-3 -0.17017 0.5149-1.2024 1.1418-2.2938 0.62693-1.0914 8.126-14.16 16.665-29.042l15.525-27.058 0.0683-47.443 0.0683-47.443 0.76248-0.99964c1.4384-1.8858-4.7314-1.7372 72.148-1.7372 77.549 0 70.656-0.17218 72.162 1.8026l0.71267 0.93433 0.06829 47.442 0.06829 47.442 1.9425 3.3786c15.356 26.709 31.226 54.503 31.316 54.846 0.15253 0.58327-2.3607 3.3154-3.6591 3.9778-0.99221 0.50619-2.5266 0.51369-102.68 0.50217-99.443-0.0114-101.7-0.0228-102.63-0.51542z"
        fill="#fbfbfb" stroke="#171c1f" stroke-width="1.4217"/>
      <path
        d="m-165.18 224.51c0-0.14105 0.57957-1.2424 1.2879-2.4474s8.0436-13.978 16.301-28.385 15.133-26.343 15.281-26.524c0.21339-0.26313 15.133-0.33073 72.993-0.33073h72.725l0.62242 0.99219c0.34233 0.5457 7.68 13.315 16.306 28.377 8.6259 15.061 15.789 27.497 15.917 27.636 0.89731 0.96418 3.6982 0.93927-105.6 0.93927-68.146 0-105.83-0.0913-105.83-0.25647zm37.372-61.831c-0.26275-0.10602-0.33073-9.3398-0.33073-44.927v-44.794l0.59531-0.15954c0.77825-0.20856 135.61-0.20856 136.39 0l0.59531 0.15954v44.788c0 40.596-0.039164 44.803-0.41852 44.948-0.50082 0.19218-136.36 0.17766-136.83-0.0146z"
        fill="none" stroke-width=".26458"/>
      <g>
        <path
          d="m-165.18 224.51c0-0.14105 0.57957-1.2424 1.2879-2.4474s8.0436-13.978 16.301-28.385 15.133-26.343 15.281-26.524c0.21339-0.26313 15.133-0.33073 72.993-0.33073h72.725l0.62242 0.99219c0.34233 0.5457 7.68 13.315 16.306 28.377 8.6259 15.061 15.789 27.497 15.917 27.636 0.89731 0.96418 3.6982 0.93927-105.6 0.93927-68.146 0-105.83-0.0913-105.83-0.25647zm44.223-69.101c-0.22069-0.22069-0.0163-75.091-0.0163-75.091l61.65-0.41852h61.489l0.14359 0.59531c0.078976 0.32742 0.11101 13.62 0.071186 37.776l-0.072406 37.181-61.544 0.0666c-37.556 0.0367-61.624-0.0129-61.721-0.11024z"
          fill="#fff" stroke="#171c1f" stroke-width="1.5553"/>
        <path
          d="m-75.338 219.81c-8.7251-0.0387-15.952-0.15883-16.06-0.26694s-0.08175-0.67271 0.05858-1.2547c0.14033-0.58196 0.3109-1.9915 0.37903-3.1324 0.15088-2.5264 1.6791-9.933 2.0488-10.392 0.21011-0.26099 6.4454-0.33073 29.57-0.33073 23.123 0 29.361 0.0697 29.573 0.33073 0.3864 0.47527 2.9693 14.323 2.7668 14.931-0.10644 0.31932-1.5772 0.32283-48.336 0.11541zm-68.825-20.269c-0.0757-0.19733 3.3976-6.9839 7.7185-15.081l7.8562-13.308h138.49l7.8562 13.308c4.6658 7.9036 7.7942 14.884 7.7185 15.081-0.20598 0.53677-169.44 0.53677-169.64 0zm19.02-39.937c-0.22069-0.22069-0.23684-82.897-0.0163-83.471 0.14587-0.38014 3.869-0.70616 65.84-0.41852h65.68l0.14359 0.59531c0.078976 0.32742 0.28822 17.811 0.071186 41.967l-0.072406 41.371-65.735 0.0666c-37.556 0.0367-65.814-0.0129-65.911-0.11024z"
          fill="#171c1f"/>
        <path
          d="m-59.269 219.6c-0.06514-0.1819-0.09427-1.6752-0.1337-2.7666l-0.07169-1.9844-31.089-0.1366-0.0013-0.72548c-0.0021-1.1895 1.6259-8.6005 1.9154-8.9587 0.39196-0.4848 58.223-0.4848 58.611 0 0.34505 0.43136 1.6444 6.2365 1.9317 9.2915 0.12319 1.3097 0.30589 3.0063 0.40601 3.7703l0.18203 1.3891h-15.788c-4.8664 0.0685-11.765 0.10831-15.963 0.12083zm-84.475-20.348c0-0.47265 15.063-27.362 15.459-27.632 0.15628-0.10692 31.181-0.19439 68.944-0.19439s68.787 0.0875 68.944 0.19439c0.39555 0.2706 15.459 27.16 15.459 27.632 0 0.33459-10.829 0.38383-84.402 0.38383-73.573 0-84.402-0.0492-84.402-0.38383z"
          fill="#2b2b2b" stroke-width=".26458"/>
        <path
          d="m-74.622 214.52-15.677-0.0704v-0.73559c0-0.72961 1.4723-7.7281 1.7111-8.3628 0.18441-0.49025 58.307-0.48492 58.495 5e-3 0.07093 0.18486 0.5266 1.1218 1.0126 3.811 0.59474 3.2909 0.79877 4.9976 0.62408 5.2202-0.26772 0.34115 0.10551 0.34008-46.166 0.13234zm-68.387-16.272c0.28282-0.47294 3.7089-6.8726 7.6134-14.221 3.9046-7.3488 7.225-12.034 7.3787-12.141s31.057-0.19438 68.674-0.19438 68.521 0.0875 68.674 0.19438c0.15373 0.10691 3.4742 4.7925 7.3787 12.141 3.9046 7.3488 7.3306 13.748 7.6134 14.221l0.51422 0.8599h-168.36z"
          fill="#171c1f" stroke-width=".26458"/>
        <path
          d="m-90.198 214.42-1.0096 4.8047h31.916c-0.10187-1.4733-0.16203-2.9466-0.19045-4.4199-10.369 0.0911-20.42-0.1822-30.716-0.38484z"
          fill="#ccc" stroke="#2b2b2b" stroke-width=".50082"/>
      </g>
    </g>
  </g>
</svg>
