<svg xmlns="http://www.w3.org/2000/svg" version="1.1" viewBox="0 0 128 128"><g><g><g fill-rule="evenodd" transform="translate(0 -263.13) matrix(2.4305 0 0 2.4305 -1111.3 899.73)"><path fill="#fff" stroke-width=".182" d="m505.31-256.23s1.6501 0.53774 1.6501 2.0276v30.752c0 3.2327-2.5496 4.2368-2.5496 4.2368l-14.681 6.7408v-46.222z"/><path fill="#171c1f" stroke-width=".171" d="m504.78-255.36s1.5154 0.51504 1.5154 1.942v29.454c0 3.0963-2.3414 4.058-2.3414 4.058l-13.482 6.4563v-44.271z"/><rect width="34.396" height="47.055" x="457.22" y="-259.11" fill="#fff" stroke-width=".238" rx="3" ry="3.138"/></g><g transform="translate(0 -263.13) matrix(2.4305 0 0 2.4305 -1111.3 899.73) translate(2.9168)"><rect width="31.75" height="44.979" x="455.64" y="-258.08" fill="#171c1f" fill-rule="evenodd" stroke-width=".223" rx="3" ry="3"/><circle cx="471.51" cy="-223.72" r="4.146" fill="#fff"/><g fill-rule="evenodd"><rect width="23.812" height="14.817" x="459.6" y="-254.1" fill="#fff" stroke-width=".355" rx="2" ry="2"/><rect width="21.907" height="5.821" x="460.56" y="-253.11" fill="#171c1f" stroke-width=".265" ry="1.5"/><rect width="21.907" height="5.821" x="460.56" y="-246.13" fill="#171c1f" stroke-width=".265" ry="1.5"/></g></g><g transform="translate(0 -263.13) matrix(2.4305 0 0 2.4305 -1111.3 899.73) matrix(.75089 0 0 .75089 124.1 -51.178)"><path fill="#fff" fill-rule="evenodd" stroke-width=".278" d="m504.48-245.76a9.2894 4.4186 0 0 0-9.2894 4.4186 9.2894 4.4186 0 0 0 0.0187 0.25601c-0.01 0.059-0.0187 0.11837-0.0187 0.18009v18.394h0.0212a9.2894 4.4186 0 0 0 9.2682 4.1269 9.2894 4.4186 0 0 0 9.2586-4.1269h0.0308v-18.394c0-0.0749-8e-3 -0.14792-0.023-0.21863a9.2894 4.4186 0 0 0 0.023-0.21747 9.2894 4.4186 0 0 0-9.2894-4.4186z"/><g fill="#171c1f"><path fill-rule="evenodd" stroke-width=".244" d="m497.54-240.83h13.875c0.554 0 1 0.446 1 1v16.521h-15.875v-16.521c0-0.554 0.446-1 1-1z"/><ellipse cx="504.48" cy="-240.22" rx="7.938" ry="3.969"/><ellipse cx="504.48" cy="-223.57" rx="7.938" ry="3.969"/></g><ellipse cx="504.48" cy="-240.22" fill="#fff" rx="6.905" ry="3.151"/><path fill="none" stroke="#fff" stroke-dashoffset="8.604" stroke-linecap="round" stroke-linejoin="bevel" stroke-width="1.367" d="m513.05-235.52c0 2.1672-3.8399 3.924-8.5767 3.924s-8.5767-1.7568-8.5767-3.924"/><path fill="none" stroke="#fff" stroke-dashoffset="8.604" stroke-linecap="round" stroke-linejoin="bevel" stroke-width="1.367" d="m513.05-229.78c0 2.1672-3.8399 3.924-8.5767 3.924s-8.5767-1.7568-8.5767-3.924"/></g></g></g></svg>