<?xml version="1.0" encoding="UTF-8"?>
<svg version="1.1" viewBox="0 0 128 128" xmlns="http://www.w3.org/2000/svg">
  <g transform="translate(0 -263.13)">
    <g transform="matrix(2.3034 0 0 2.3034 -1134.6 572.33)">
      <path
        d="m537.72-109.75v26.324c0 2.216-1.784 4-4 4h-26.695c-2.216 0-4-1.784-4-4v-33.107c0-2.216 1.784-4 4-4h19.912"
        fill="none" stroke="#fff" stroke-width="1.5112"/>
      <text x="508.8508" y="-84.624748" fill="#ffffff" font-family="'Open Sans'" font-size="11.001px" font-weight="bold"
            letter-spacing="0px" stroke-width=".37505" word-spacing="0px" style="line-height:1.25" xml:space="preserve"><tspan x="508.8508" y="-84.624748" fill="#ffffff" font-family="'Open Sans'" font-weight="bold" stroke-width=".37505">LOG</tspan></text>
      <path d="m538.48-111.04h-8.2332c-1.1144 0-2.0115-0.89713-2.0115-2.0115v-8.2332z" fill="#fff" fill-rule="evenodd"
            stroke-width=".26611"/>
      <g fill="none" stroke="#fff" stroke-linecap="round" stroke-width="1.2124">
        <path d="m508.13-114.51h18.601"/>
        <path d="m508.13-109.69h1.8364"/>
        <path d="m530.43-109.69h2.9241"/>
        <path d="m520.55-109.69h6.5034"/>
        <path d="m508.13-104.86h13.009"/>
        <path d="m524.89-104.86h8.4733"/>
        <path d="m508.13-100.04h25.41"/>
      </g>
      <g transform="matrix(2.1231 -.71642 .71642 2.1231 -405.49 495.86)" stroke="#fff">
        <path d="m475.87-135.01h2.7625c0.554 0 1 0.446 1 1v9.5266h-4.7625v-9.5266c0-0.554 0.446-1 1-1z" fill="#171c1f"
              fill-rule="evenodd" stroke-linejoin="bevel" stroke-width=".397"/>
        <path transform="matrix(.99992 0 0 -.95752 .035941 -5.2913)" d="m479.63 124.47h-4.7544l2.3772-4.1174z"
              fill="#171c1f" stroke-dashoffset="8.6036" stroke-linecap="round" stroke-linejoin="round"
              stroke-width=".40504"/>
        <path d="m474.77-132.99h4.8879" fill="none" stroke-width=".39688"/>
        <path d="m474.76-131.06h4.8879" fill="none" stroke-width=".39688"/>
      </g>
    </g>
  </g>
</svg>
