<?xml version="1.0" encoding="UTF-8"?>
<svg version="1.1" viewBox="0 0 128 128" xmlns="http://www.w3.org/2000/svg">
  <g transform="translate(0 -263.13)">
    <g stroke="#fffbff" stroke-width="1.6922" transform="matrix(3.0639 0 0 3.0639 -200.36 -493.45)">
      <path class="cls-4"
            d="m106.32 270.8v-5.67l-6.0854-1.3944a14.526 14.526 0 0 0-1.0583-2.5903l3.3734-5.3922-4.0058-4.0031-5.3975 3.3867a14.581 14.581 0 0 0-2.45-1.0213l-1.4473-6.3341h-5.6647l-1.4499 6.3315a14.168 14.168 0 0 0-2.3204 0.95779l-5.6065-3.5216-4.0058 4.0084 3.4846 5.5562a14.396 14.396 0 0 0-0.96573 2.2622l-6.4849 1.4817v5.6647l6.35 1.4526a14.33 14.33 0 0 0 0.9234 2.3522l-3.5031 5.5668 4.0084 4.0058 5.4054-3.3946a14.396 14.396 0 0 0 2.4527 1.0768l1.4367 6.2839h5.6647l1.4049-6.1013a14.288 14.288 0 0 0 2.6247-1.0319l5.3578 3.3655 4.0058-4.0084-3.2941-5.2493a14.364 14.364 0 0 0 1.1271-2.6458z"
            fill="#171c1f"/>
      <circle cx="86.283" cy="267.82" fill="none" r="8.8" stroke-dashoffset="8.6036" stroke-linecap="round"
              stroke-linejoin="bevel"/>
    </g>
  </g>
</svg>
