<?xml version="1.0" encoding="UTF-8" standalone="no"?>
<!DOCTYPE svg PUBLIC "-//W3C//DTD SVG 1.1//EN" "http://www.w3.org/Graphics/SVG/1.1/DTD/svg11.dtd">
<svg height="100%"
     style="fill-rule:evenodd;clip-rule:evenodd;stroke-linecap:round;stroke-linejoin:round;stroke-miterlimit:1.5;"
     version="1.1" viewBox="0 0 534 534" width="100%"
     xmlns="http://www.w3.org/2000/svg">
  <rect height="533.333" id="Mainboard" style="fill:none;" width="533.333" x="0" y="0.507"/>
  <rect height="372.346" style="fill:#171c1f;stroke:#fff;stroke-width:12.25px;" width="454.081" x="49.836" y="80.827"/>
  <rect height="102.168" style="fill:#171c1f;stroke:#fff;stroke-width:8.33px;" width="102.168" x="293.677" y="142.128"/>
  <rect height="61.301" style="fill:#171c1f;stroke:#fff;stroke-width:8.33px;" width="61.301" x="314.111" y="162.561"/>
  <rect height="237.03" style="fill:#171c1f;stroke:#fff;stroke-width:8.33px;" width="42.23" x="30.083" y="106.709"/>
  <path d="M441.48,121.24l0,143.944" style="fill:none;stroke:#fff;stroke-width:8.33px;"/>
  <path d="M458.508,121.24l0,143.944" style="fill:none;stroke:#fff;stroke-width:8.33px;"/>
  <rect height="72.199" style="fill:#171c1f;stroke:#fff;stroke-width:8.33px;" width="77.648" x="122.034" y="153.026"/>
  <rect height="26.337" style="fill:#171c1f;stroke:#fff;stroke-width:8.33px;" width="26.337" x="418.095" y="388.694"/>
  <rect height="26.337" style="fill:#171c1f;stroke:#fff;stroke-width:8.33px;" width="26.337" x="369.054" y="388.694"/>
  <rect height="26.337" style="fill:#171c1f;stroke:#fff;stroke-width:8.33px;" width="26.337" x="317.743" y="388.694"/>
  <rect height="102.622" style="fill:#171c1f;stroke:#fff;stroke-width:8.33px;" width="24.974" x="478.942" y="350.551"/>
  <path d="M113.861,377.796l140.311,0" style="fill:none;stroke:#fff;stroke-width:8.33px;"/>
  <path d="M113.861,345.102l140.311,0" style="fill:none;stroke:#fff;stroke-width:8.33px;"/>
  <path d="M113.861,312.408l140.311,0" style="fill:none;stroke:#fff;stroke-width:8.33px;"/>
</svg>
