<?xml version="1.0" encoding="UTF-8"?>
<svg version="1.1" viewBox="0 0 128 80" xmlns="http://www.w3.org/2000/svg">
  <g transform="translate(0 -311.12)">
    <g transform="matrix(3.0361 0 0 3.0361 -1016 -396.91)">
      <g fill-rule="evenodd">
        <path
          d="m347.19 249.4c-0.32455 0-0.5857 0.32017-0.5857 0.71766v6.1827h-2.3001c-0.31856 0-0.57502 0.25646-0.57502 0.57502v0.57503c0 0.31856 0.25646 0.57503 0.57502 0.57503h10.35c0.31856 0 0.57503-0.25647 0.57503-0.57503v-0.57503c0-0.31856-0.25647-0.57502-0.57503-0.57502h-2.3001v-6.1827c0-0.39749-0.26144-0.71766-0.58598-0.71766z"
          stroke="#e5e5e5" stroke-width=".14376"/>
        <rect transform="scale(1,-1)" x="334.96" y="-252.04" width="29.039" height="16.963" rx="1.1501" ry="1.1501"
              stroke="#e5e5e5" stroke-width=".14376"/>
        <rect transform="scale(1,-1)" x="336.61" y="-250.39" width="25.732" height="13.657" rx=".71878" ry=".71878"
              fill="#1f1f1f" stroke="#e4e5e5" stroke-width=".10583"/>
      </g>
      <circle cx="349.48" cy="251.16" r=".51434" fill="#ececec"/>
      <circle cx="349.48" cy="251.16" r=".3429"/>
      <g transform="matrix(.54333 0 0 .54333 214.19 316.15)">
        <rect x="277.6" y="-149.84" width="21.167" height="42.862" rx="2.1167" ry="2.1167" fill-rule="evenodd"
              stroke="#e5e5e5" stroke-width=".26458"/>
        <g transform="translate(-1.6812 8.4667)">
          <rect x="287.22" y="-126.92" width="5.2917" height="8.4667" rx="2.1167" ry="2.1167" fill="#fff"
                fill-rule="evenodd" stroke-width=".29246"/>
          <circle cx="289.87" cy="-124.59" r="1.9844"/>
          <circle cx="289.87" cy="-119.94" r=".819"/>
        </g>
        <g fill="#fff" fill-rule="evenodd">
          <rect x="286.48" y="-122.51" width="3.4087" height=".97393" rx=".097393" ry=".097393" stroke-width=".15723"/>
          <rect x="286.48" y="-124.89" width="3.4087" height=".97393" rx=".097393" ry=".097393" stroke-width=".15723"/>
          <g stroke-width=".22277">
            <rect x="280.25" y="-146.3" width="15.875" height="2.1167" rx=".26458" ry=".26458"/>
            <rect x="280.25" y="-142.33" width="15.875" height="2.1167" rx=".26458" ry=".26458"/>
            <rect x="280.25" y="-138.36" width="15.875" height="2.1167" rx=".26458" ry=".26458"/>
          </g>
        </g>
      </g>
    </g>
  </g>
</svg>
