<svg xmlns="http://www.w3.org/2000/svg" version="1.1" viewBox="0 0 128 80"><g><g transform="translate(0 -311.12) matrix(3.0361 0 0 3.0361 -1016 -396.91)"><g fill-rule="evenodd"><path stroke="#e5e5e5" stroke-width=".144" d="m347.19 249.4c-0.32455 0-0.5857 0.32017-0.5857 0.71766v6.1827h-2.3001c-0.31856 0-0.57502 0.25646-0.57502 0.57502v0.57503c0 0.31856 0.25646 0.57503 0.57502 0.57503h10.35c0.31856 0 0.57503-0.25647 0.57503-0.57503v-0.57503c0-0.31856-0.25647-0.57502-0.57503-0.57502h-2.3001v-6.1827c0-0.39749-0.26144-0.71766-0.58598-0.71766z"/><rect width="29.039" height="16.963" x="334.96" y="-252.04" stroke="#e5e5e5" stroke-width=".144" rx="1.15" ry="1.15" transform="scale(1,-1)"/><rect width="25.732" height="13.657" x="336.61" y="-250.39" fill="#3991c0" stroke="#e4e5e5" stroke-width=".106" rx=".719" ry=".719" transform="scale(1,-1)"/></g><circle cx="349.48" cy="251.16" r=".514" fill="#ececec"/><circle cx="349.48" cy="251.16" r=".343"/><g transform="matrix(.54333 0 0 .54333 214.19 316.15)"><rect width="21.167" height="42.862" x="277.6" y="-149.84" fill-rule="evenodd" stroke="#e5e5e5" stroke-width=".265" rx="2.117" ry="2.117"/><g transform="translate(-1.6812 8.4667)"><rect width="5.292" height="8.467" x="287.22" y="-126.92" fill="#fff" fill-rule="evenodd" stroke-width=".292" rx="2.117" ry="2.117"/><circle cx="289.87" cy="-124.59" r="1.984"/><circle cx="289.87" cy="-119.94" r=".819"/></g><g fill="#fff" fill-rule="evenodd"><rect width="3.409" height=".974" x="286.48" y="-122.51" stroke-width=".157" rx=".097" ry=".097"/><rect width="3.409" height=".974" x="286.48" y="-124.89" stroke-width=".157" rx=".097" ry=".097"/><g stroke-width=".223"><rect width="15.875" height="2.117" x="280.25" y="-146.3" rx=".265" ry=".265"/><rect width="15.875" height="2.117" x="280.25" y="-142.33" rx=".265" ry=".265"/><rect width="15.875" height="2.117" x="280.25" y="-138.36" rx=".265" ry=".265"/></g></g></g></g></g></svg>