<?xml version="1.0" encoding="UTF-8" standalone="no"?>
<!DOCTYPE svg PUBLIC "-//W3C//DTD SVG 1.1//EN" "http://www.w3.org/Graphics/SVG/1.1/DTD/svg11.dtd">
<svg width="100%" height="100%" viewBox="0 0 128 128" version="1.1" xmlns="http://www.w3.org/2000/svg"
     xml:space="preserve"
     style="fill-rule:evenodd;clip-rule:evenodd;stroke-linejoin:round;stroke-miterlimit:2;">
    <g id="layer1">
        <g id="g826">
            <path id="path840"
                  d="M2.021,112.089c-0.617,-0.326 -2.221,-1.981 -2.219,-2.29c0.001,-0.103 0.311,-0.726 0.69,-1.385c0.378,-0.659 4.906,-8.55 10.062,-17.535l9.373,-16.337l0.082,-57.289l0.461,-0.604c0.868,-1.138 -2.857,-1.049 43.561,-1.049c46.822,0 42.66,-0.104 43.569,1.089l0.431,0.564l0.082,57.288l1.173,2.04c9.272,16.126 18.853,32.907 18.908,33.115c0.092,0.352 -1.426,2.001 -2.21,2.401c-0.599,0.306 -1.525,0.311 -61.998,0.304c-60.041,-0.007 -61.402,-0.014 -61.965,-0.312l0,0Z"
                  style="fill:#e5e5e5;fill-rule:nonzero;"/>
          <path id="path838"
                d="M0.121,109.697c0,-0.085 0.35,-0.75 0.777,-1.478c0.428,-0.727 4.857,-8.439 9.842,-17.138c4.986,-8.698 9.137,-15.905 9.226,-16.015c0.129,-0.158 9.137,-0.199 44.072,-0.199l43.909,0l0.376,0.599c0.206,0.329 4.637,8.039 9.845,17.133c5.208,9.094 9.532,16.602 9.61,16.686c0.542,0.582 2.233,0.567 -63.758,0.567c-41.145,0 -63.899,-0.055 -63.899,-0.155Zm22.564,-37.332c-0.158,-0.064 -0.199,-5.639 -0.199,-27.126l0,-27.046l0.359,-0.096c0.47,-0.126 81.88,-0.126 82.35,0l0.36,0.096l0,27.042c0,24.511 -0.024,27.051 -0.253,27.139c-0.302,0.116 -82.329,0.107 -82.617,-0.009l0,0Z"
                style="fill:#9fdbef;fill-rule:nonzero;"/>
          <path id="path836"
                d="M0.121,109.697c0,-0.085 0.35,-0.75 0.777,-1.478c0.428,-0.727 4.857,-8.439 9.842,-17.138c4.986,-8.698 9.137,-15.905 9.226,-16.015c0.129,-0.158 9.137,-0.199 44.072,-0.199l43.909,0l0.376,0.599c0.206,0.329 4.637,8.039 9.845,17.133c5.208,9.094 9.532,16.602 9.61,16.686c0.542,0.582 2.233,0.567 -63.758,0.567c-41.145,0 -63.899,-0.055 -63.899,-0.155Zm22.631,-37.652c-0.133,-0.133 -0.143,-53.129 -0.01,-53.476c0.088,-0.23 3.875,-0.253 41.292,-0.253l41.195,0l0.087,0.359c0.047,0.198 0.067,12.293 0.043,26.878l-0.044,26.518l-41.228,0.04c-22.676,0.023 -41.276,-0.007 -41.335,-0.066l0,0Z"
                style="fill:#cbcbcb;fill-rule:nonzero;"/>
          <path id="path834"
                d="M54.362,106.856c-5.268,-0.023 -9.632,-0.096 -9.697,-0.161c-0.065,-0.065 -0.049,-0.406 0.036,-0.757c0.084,-0.352 0.187,-1.203 0.228,-1.892c0.091,-1.525 1.014,-6.817 1.237,-7.094c0.127,-0.158 3.892,-0.2 17.854,-0.2c13.961,0 17.727,0.042 17.855,0.2c0.234,0.287 1.793,9.468 1.671,9.835c-0.064,0.192 -0.952,0.195 -29.184,0.069l0,0Zm-41.555,-12.237c-0.045,-0.119 2.052,-4.217 4.661,-9.106l4.743,-8.889l83.618,0l4.743,8.889c2.609,4.889 4.706,8.987 4.661,9.106c-0.125,0.324 -102.301,0.324 -102.426,0Zm9.945,-22.574c-0.133,-0.133 -0.143,-53.129 -0.01,-53.476c0.088,-0.23 3.875,-0.253 41.292,-0.253l41.195,0l0.087,0.359c0.047,0.198 0.067,12.293 0.043,26.878l-0.044,26.518l-41.228,0.04c-22.676,0.023 -41.276,-0.007 -41.335,-0.066l0,0Z"
                style="fill:#4fd1fd;fill-rule:nonzero;"/>
          <path id="path832"
                d="M54.362,106.856c-5.268,-0.023 -9.632,-0.096 -9.697,-0.161c-0.065,-0.065 -0.049,-0.406 0.036,-0.757c0.084,-0.352 0.187,-1.203 0.228,-1.892c0.091,-1.525 1.014,-6.817 1.237,-7.094c0.127,-0.158 3.892,-0.2 17.854,-0.2c13.961,0 17.727,0.042 17.855,0.2c0.234,0.287 1.793,9.468 1.671,9.835c-0.064,0.192 -0.952,0.195 -29.184,0.069l0,0Zm-41.555,-12.237c-0.045,-0.119 2.052,-4.217 4.661,-9.106l4.743,-8.889l83.618,0l4.743,8.889c2.609,4.889 4.706,8.987 4.661,9.106c-0.125,0.324 -102.301,0.324 -102.426,0Z"
                style="fill:#b0b0b0;fill-rule:nonzero;"/>
          <path id="path830"
                d="M64.098,106.457c-0.039,-0.11 -0.091,-0.739 -0.115,-1.398l-0.043,-1.198l-18.77,-0.082l-0.001,-0.438c-0.001,-0.719 0.982,-6.013 1.156,-6.229c0.237,-0.293 35.154,-0.293 35.388,0c0.208,0.26 0.993,4.585 1.166,6.43c0.075,0.79 0.185,1.815 0.245,2.276l0.11,0.839l-9.532,0c-7.481,0 -9.548,-0.043 -9.604,-0.2l0,0Zm-51.038,-12.013c0,-0.286 9.095,-17.375 9.334,-17.538c0.094,-0.065 18.826,-0.117 41.626,-0.117c22.8,0 41.532,0.052 41.626,0.117c0.239,0.163 9.334,17.252 9.334,17.538c0,0.202 -6.539,0.232 -50.96,0.232c-44.421,0 -50.96,-0.03 -50.96,-0.232Z"
                style="fill:#929292;fill-rule:nonzero;"/>
          <path id="path828"
                d="M54.795,103.661l-9.466,-0.042l0,-0.444c0,-0.441 0.889,-5.52 1.034,-5.904c0.111,-0.296 35.204,-0.292 35.317,0.003c0.043,0.112 0.318,1.532 0.612,3.156c0.359,1.986 0.482,3.017 0.376,3.151c-0.161,0.206 0.064,0.206 -27.873,0.08l0,0Zm-41.29,-9.824c0.17,-0.286 2.239,-4.15 4.596,-8.587c2.358,-4.437 4.363,-8.12 4.455,-8.184c0.093,-0.065 18.752,-0.118 41.464,-0.118c22.712,0 41.371,0.053 41.464,0.118c0.093,0.064 2.097,3.747 4.455,8.184c2.357,4.437 4.426,8.301 4.597,8.587l0.31,0.519l-101.652,0l0.311,-0.519Z"
                style="fill:#7b7b7b;fill-rule:nonzero;"/>
        </g>
    </g>
</svg>
